<svg xmlns="http://www.w3.org/2000/svg" width="300" height="194.673" viewBox="0 0 300 194.67324"><g><path d="M286.267 65.861c5.202 6.446 2.022 21.283-11.417 25.516-1.632.514-3.146.825-4.545.969.139-2.462.039-4.469-.071-6.564-.992-18.816-13.765-20.451-18.899-15.882-5.656 5.033-5.348 19.025 6.826 26.098 1.009.587 2.122 1.083 3.313 1.495-3.039 15.055-9.852 15.67-12.881 12.421-1.778-1.909-2.82-5.238-3.42-8.869 2.224-7.256 3.105-14.474 2.387-17.597-.44-1.918-1.243-3.211-2.095-3.626-.305-.176-1.059-.423-2.569.111-2.051.725-3.544 2.819-3.765 3.712-.969 2.605-.71 8.058-.048 15.901l.071.744c-1.784 4.141-3.997 7.394-6.626 7.885-3.117.582-6.507-5.084-9.256-16.51 4.55-12.531 12.579-35.796 8.65-52.91-2.594-11.321-8.309-13.166-12.808-12.323-13.607 2.544-11.006 48.513-6.333 68.901l.282 1.202c-1.922 5.851-4.58 11.144-7.995 11.783-3.117.582-6.507-5.084-9.256-16.51 4.55-12.532 11.633-36.432 7.704-53.546-2.594-11.321-7.363-12.53-11.861-11.687-13.608 2.544-11.007 48.513-6.333 68.902.27 1.181.547 2.321.831 3.425-2.657 7.172-6.647 15.055-10.94 13.329-.694-.28-1.342-.662-1.945-1.13 4.126-6.462 6.571-15.579 6.459-24.115-.235-17.955-17.513-24.731-21.655-4.49-1.803 8.807.955 19.281 5.714 26.883-1.616.476-3.288.443-4.94-.162-5.195-1.903-7.37-11.133-8.238-16.974-.053-.516-.104-1.041-.147-1.577-.735-9.053-.063-20.88 1.994-35.229 2.214.262 4.468.375 6.768.297 23.402-.792 13.486-25.515 13.486-25.515-3.768 8.461-10.253 11.721-18.04 12.334l1.678-7.711 2.921-11.85.012-.065c.176-1.039-.023-1.9-.588-2.557-.61-.71-1.558-1.067-2.82-1.06-3.353.018-11.202 3.396-11.369 5.774-.516 4.412-1.149 8.91-1.761 13.139l-.375 3.611c-9.323-1.475-19.337-4.535-28.332-6.09l-.094-.04c-.726-.117-1.44-.219-2.15-.317-11.606-1.709-20.36-.855-26.831.977 6.359-36.912-29.472-47.29-41.038-23.883-7.964 16.12-3.236 43.805 2.837 72.507-2.549 2.146-5.036 4.681-7.299 7.663-5.157-7.115-12.23-11.641-20.188-9.065-18.809 6.087-23.164 40.703-16.046 69.05 8.734 34.773 30.408 45.614 46.433 41.049 15.962-4.548 20.279-32.693 15.377-59.896-2.172-12.056-5.762-27.79-8.692-45.563 1.466-.798 2.914-1.505 4.295-2.125-.427 2.875-.586 7.202.495 13.56 2.062 12.129 8.597 19.962 17.372 21.198 9.29 1.308 13.957-9.882 15.609-20.774 2.072-.225 3.87-.892 5.428-1.867l-.027.694c.086 3.576.385 6.575 1.012 9.027 2.275 11.35 6.568 13.272 7.325 13.171 2.291-.424 5.252-4.523 5.13-4.546-.119-.023-.119-.023-.101-.14.125-5.862 3.822-17.428 6.51-26.365.426 18.494 6.332 27.892 12.043 30.286 1.989.944 9.036 3.185 14.811-8.679 2.885 4.86 7.47 8.626 14.771 8.172 3.019-.188 5.798-1.598 8.243-3.853 4.705 4.123 10.146 5.357 14.976 1.309 2.303-1.93 4.056-4.757 5.385-7.735 3.512 8.303 7.943 12.233 13.853 11.128 5.292-.989 9.517-7.191 12.417-14.35 3.692 10.395 8.445 15.44 15.043 14.207 4.287-.801 7.872-5.024 10.623-10.406 2.304 5.612 6.169 10.126 11.75 11.266 8.868 1.811 13.183-9.769 14.732-15.924.63-2.507 1.098-4.661 1.444-6.557 12.298.52 27.155-5.439 30.111-17.541 3.169-12.969-13.329-15.521-13.329-15.521zm-219.163-7.307c-1.524-1.334.871-7.372 7.916-12.158-.864 2.936-1.646 4.865-1.743 5.102-2.333 5.147-4.971 8.109-6.173 7.056zm-9.96 80.41c5.075 42.156-12.732 50.943-29.498 24.482-10.789-17.028-15.08-57.281-5.952-66.926 4.31-4.554 9.478-2.22 13.635 2.628-.609 1.155-1.187 2.357-1.721 3.615-9.813 23.04 5.302 33.75 12.156 24.879 4.217-5.457 2.645-18.199-2.539-28.7l.228-.304c1.505-1.932 3.25-3.666 5.118-5.213 3.407 15.76 6.884 31.516 8.574 45.54zm-14.273-20.236c-.709 8.047-5.879-2.164-3.068-12.648 2.135 4.37 3.379 9.103 3.068 12.648zm42.146-27.228c-.464-.326-.758-.568-.844-.64-1.824-1.835-2.556-4.601-2.72-7.103-.285-4.31 3.055-2.745 3.511 4.899.05.852.069 1.811.053 2.844zm35.862-18.711s-9.987 22.032-11.211 31.124c-.292-8.888 1.937-18.892 3.702-25.794 2.581-4.047 3.177-6.387 2.976-7.53-.707-3.57-9.369-1.907-12.215-.242-2.102 7.185-3.355 13.328-4.017 18.674-1.613 2.711-3.481 4.124-5.359 4.731.2-3.935.004-7.456-.5-9.841-2.277-10.784-7.961-12.911-13.086-12.63-5.062.278-9.851 6.644-6.257 16.786 1.756 4.952 5.365 8.904 9.539 10.562-.992 7.049-3.339 14.227-7.499 14.629-6.638.64-8.384-12.6-8.423-18.374-.036-5.248 1.278-9.613 2.451-12.453l.029-.007-.007-.047c.926-2.231 1.759-3.506 1.759-3.506s-1.006-4.301-2.692-4.832c-.086-.042-.171-.065-.256-.063l-.272.023-.002.001h-.002l-.13.02c-2.07.272-7.867 1.682-14.438 5.329-1.496-10.345-2.675-21.246-3.167-32.424-1.511-34.307 16.904-41.211 23.241-28.02 3.1 6.45 2.742 14.39 1.567 20.823-8.386 4.294-12.842 10.393-14.309 14.759-2.338 6.959 3.768 13.707 10.398 8.901 2.759-1.999 5.271-6.006 7.312-10.922l.023.003c1.517-3.546 2.698-6.923 3.582-10.131 1.65-.551 3.411-1.024 5.292-1.393.875-.156 1.728-.299 2.561-.425 3.45-.474 7.269-.605 11.507-.263 12.939 1.046 25.054 8.453 38.197 12.64-.55 5.37-.928 10.739-1.124 16.027l-.263 9.586c.102 13.609 1.849 22.466 4.088 28.229-7.37 10.125-11.584 1.012-12.654-1.85-2.574-7.509-2.553-19.957.207-32.532 1.216-2.345-5.769-3.386-10.549.433zm45.871 14.24c1.158-12.839 9.476-10.512 8.546 1.295-.593 7.537-2.922 13.516-6.044 17.216-2.317-5.296-3.039-12.563-2.502-18.511zm28.441-45.625c1.373-.261 2.131 2.484 2.592 4.497 2.575 11.201-.893 25.63-4.019 35.267-2.417-17.921-1.447-39.23 1.427-39.764zm27.459-.143c1.374-.261 2.133 2.483 2.594 4.496 2.574 11.201-.894 25.629-4.021 35.267-2.417-17.921-1.446-39.23 1.427-39.764zm39.766 49.843c-5.273-2.586-6.642-8.555-6.384-10.764.53-4.52 7.935-5.734 6.384 10.764z"/><path d="M77.709 146.687s-1.686 1.838.601 6.179c2.287 4.34 4.679 6.453 5.52 6.599.84.145 26.494-17.72 85.559-18.797 48.11-.878 81.327 11.228 81.934 10.829.607-.399 2.3-4.348.333-6.294-1.967-1.947-30.099-19.455-106.244-15.708-55.58 2.734-67.702 17.191-67.702 17.191z"/></g></svg>