<?xml version="1.0" standalone="no"?>
<!DOCTYPE svg PUBLIC "-//W3C//DTD SVG 1.1//EN" "http://www.w3.org/Graphics/SVG/1.1/DTD/svg11.dtd" >
<svg>
<metadata>
Created by FontForge 20110222 at Wed Apr  4 21:15:19 2012
 By Vitaly,,,
Copyright (C) 2012 by Daniel Bruce
</metadata>
<defs>
<font id="entypo" horiz-adv-x="2078" >
  <font-face 
    font-family="Entypo"
    font-weight="500"
    font-stretch="normal"
    units-per-em="2048"
    panose-1="2 0 6 3 0 0 0 0 0 0"
    ascent="1638"
    descent="-410"
    bbox="13.4783 -410.509 2063.45 1639.71"
    underline-thickness="50"
    underline-position="-100"
    unicode-range="U+2139-1F6AB"
  />
<missing-glyph horiz-adv-x="748" 
d="M68 0v1365h544v-1365h-544zM136 68h408v1229h-408v-1229z" />
    <glyph glyph-name=".notdef" horiz-adv-x="748" 
d="M68 0v1365h544v-1365h-544zM136 68h408v1229h-408v-1229z" />
    <glyph glyph-name="glyph1" unicode="&#xe002;" 
d="M885 1535q17 0 29 -11.5t12 -28.5v-1762q0 -17 -12 -29t-29 -12h-92q-17 0 -29 12t-12 29v901h-362q-27 0 -59.5 10.5t-51.5 24.5l-243 167q-21 14 -21 34t21 34l243 167q19 13 51 23.5t60 10.5h362v390q0 17 12 28.5t29 11.5h92zM2042 1109q21 -13 21 -34t-21 -35
l-243 -167q-19 -13 -51 -23.5t-60 -10.5h-618l-82 471h700q28 0 60 -10.5t51 -23.5z" />
    <glyph glyph-name="glyph2" unicode="&#xe003;" 
d="M732 716q43 0 72.5 -29.5t29.5 -72.5t-29.5 -73t-72.5 -30h-615q-43 0 -72.5 30t-29.5 73t29.5 72.5t72.5 29.5h615zM732 307q43 0 72.5 -30t29.5 -73t-29.5 -72.5t-72.5 -29.5h-615q-43 0 -72.5 29.5t-29.5 72.5t29.5 73t72.5 30h615zM2002 716q39 0 50 -25t11 -77
t-11 -77.5t-50 -25.5h-349v-348q0 -39 -25 -50t-77 -11t-77 11t-25 50v348h-338q-39 0 -50.5 26t-11.5 77t11.5 76.5t50.5 25.5h338v348q0 39 25.5 50.5t76.5 11.5t76.5 -11.5t25.5 -50.5v-348h349zM732 1126q43 0 72.5 -30t29.5 -73t-29.5 -72.5t-72.5 -29.5h-615
q-43 0 -72.5 29.5t-29.5 72.5t29.5 73t72.5 30h615z" />
    <glyph glyph-name="glyph0" unicode="&#xe001;" 
d="M1282 158q183 -66 277 -132.5t94 -117.5v-216h-1638v411q27 12 61 23t64.5 19.5t40.5 12.5q192 69 264.5 140.5t72.5 195.5q0 33 -13 56t-30 37.5t-37.5 55t-31.5 101.5q-4 20 -14 30t-22 15t-24.5 14.5t-22 38t-13.5 76.5q0 19 4 35t9 25t10.5 15.5t9.5 8.5l4 2
q-19 102 -26 181q-3 33 4.5 74t35 91t71 90t121.5 67.5t179 27.5t179 -27.5t121.5 -67.5t71 -90t35 -91t4.5 -74q-3 -35 -10 -80.5t-12 -72.5l-5 -28q4 -2 10.5 -6.5t17 -26.5t10.5 -53q-4 -48 -13.5 -76.5t-22 -38t-24.5 -14.5t-22 -15t-14 -30q-11 -61 -31.5 -101.5
t-37.5 -55t-30 -37.5t-13 -56q0 -124 72 -195.5t264 -140.5zM1756 716h307v-205h-307v-307h-205v307h-307v205h307v307h205v-307z" />
    <glyph glyph-name="glyph3" unicode="&#x1f514;" horiz-adv-x="1668" 
d="M1310 768q27 -58 64.5 -91.5t74 -47t73 -27.5t69.5 -48.5t55 -95.5q21 -60 -19 -147t-126 -177.5t-224.5 -179.5t-299.5 -149t-323.5 -82t-285.5 -9t-208.5 53t-106.5 100q-18 51 -18.5 94t12.5 71.5t29.5 60.5t31 60.5t17.5 73t-10 97.5q-29 111 -46.5 188.5t-32.5 161
t-18.5 142t0.5 122t20 111t43.5 98t68.5 95t97 90.5q29 24 43 48.5t15.5 42.5t4 35t15.5 31t42 25q34 11 48.5 8.5t30 -14t27 -24t38 -22t63.5 -8.5q72 2 131.5 -5.5t112 -28.5t95 -46.5t85.5 -72t77 -93t75.5 -121t76 -144.5t83.5 -175zM929 -60q113 42 214 100.5
t167.5 115t114.5 110t68 90.5t15 51q-8 23 -42 41.5t-98 27.5t-146.5 5t-200 -31t-247.5 -75t-236.5 -105.5t-172.5 -109.5t-109 -101t-58 -84.5t-7 -56.5q5 -13 43 -27.5t109 -24t157.5 -9.5t201 20.5t227.5 62.5zM880 326q31 -81 -31.5 -169t-181.5 -132
q-93 -34 -177.5 -25.5t-134.5 54.5q165 140 446 244q59 22 79 28z" />
    <glyph glyph-name="glyph4" unicode="&#xe004;" horiz-adv-x="1945" 
d="M515 -393q-98 0 -189 39.5t-158.5 105t-108 155t-45.5 184.5t38 200t133 195q54 54 452.5 453t561.5 562q77 77 171 105.5t188 3.5q92 -25 162 -95t95 -162q25 -94 -3.5 -188t-105.5 -171l-970 -971q-48 -48 -106 -74.5t-123.5 -20t-114.5 55.5q-39 39 -52 94t9 122
t82 127l682 681q21 21 50.5 21t50.5 -21t21 -50.5t-21 -50.5l-682 -682q-42 -42 -51 -83t12 -57q17 -17 47 -14q46 5 95 54l970 970q103 103 72 221q-15 55 -57.5 97.5t-98.5 57.5q-117 31 -220 -72q-163 -163 -562 -561.5t-453 -452.5q-90 -90 -115.5 -193t2 -187.5
t91.5 -148.5t148.5 -91.5t187.5 -2t193 115.5l1015 1014q21 21 50.5 21t50.5 -21t21 -50.5t-21 -50.5l-1015 -1015q-169 -169 -379 -169z" />
    <glyph glyph-name="glyph5" unicode="&#xe005;" horiz-adv-x="1771" 
d="M1551 1003q85 0 145 -60t60 -145v-594q0 -85 -60 -145t-145 -60h-1413v287h1331v430h-1024v-225l-430 369l430 368v-225h1106z" />
    <glyph glyph-name="glyph6" unicode="&#xe035;" horiz-adv-x="1771" 
d="M425 614v-184l-410 327l410 349v-205h1126q85 0 145 -60t60 -145v-574h-287v492h-1044z" />
    <glyph glyph-name="glyph7" unicode="&#x1f6ab;" horiz-adv-x="1914" 
d="M957 1556q192 0 366 -74.5t300.5 -201t201 -300.5t74.5 -366t-74.5 -366t-201 -300.5t-300.5 -201t-366 -74.5t-366 74.5t-300.5 201t-201 300.5t-74.5 366t74.5 366t201 300.5t300.5 201t366 74.5zM1464 1121zM240 614q0 -255 162 -454l1009 1009q-199 162 -454 162
q-146 0 -278.5 -57t-228.5 -153t-153 -228.5t-57 -278.5zM450 107zM957 -103q146 0 278.5 57t228.5 153t153 228.5t57 278.5q0 254 -162 453l-1009 -1008q199 -162 454 -162z" />
    <glyph glyph-name="glyph8" unicode="&#xe006;" horiz-adv-x="2037" 
d="M1019 198q84 0 143 -60t59 -145t-59 -144.5t-143 -59.5t-143.5 59.5t-59.5 144.5t59.5 145t143.5 60zM588 428q117 118 273.5 160t313.5 0t274 -160l-144 -145q-119 120 -287 120t-286 -120zM302 717q146 147 335.5 224t381 77t381 -77t335.5 -224l-143 -144
q-156 157 -365 213t-417.5 0t-364.5 -213zM15 1007q136 138 302.5 233t341 141t360 46t360 -46t341 -141t302.5 -233l-143 -145q-175 177 -402.5 269t-458 92t-458 -92t-402.5 -269z" />
    <glyph glyph-name="glyph9" unicode="&#x1f4c5;" horiz-adv-x="1873" 
d="M1653 1331q85 0 145 -60t60 -145v-1229q0 -85 -60 -145t-145 -60h-1433q-85 0 -145 60t-60 145v1229q0 85 60 145t145 60h92v-205h328v205h594v-205h327v205h92zM1653 -103v819h-1433v-819h1433zM547 1535v-348h-143v348h143zM1469 1535v-348h-143v348h143z" />
    <glyph glyph-name="glyph10" unicode="&#x1f4f7;" 
d="M1039 819q127 0 217 -90t90 -218q0 -127 -90 -217t-217 -90t-217 90t-90 217q0 128 90 218t217 90zM1858 1126q85 0 145 -60t60 -145v-922q0 -85 -60 -144.5t-145 -59.5h-1638q-85 0 -145 59.5t-60 144.5v922q0 85 60 145t145 60h246q25 0 48.5 17t31.5 41l64 191
q8 24 32 41t49 17h696q25 0 49 -17t32 -41l64 -191q8 -24 31.5 -41t48.5 -17h246zM1039 -1q212 0 362 150t150 362t-150 362t-362 150t-362 -150t-150 -362t150 -362t362 -150zM1787 778q30 0 50.5 21t20.5 51t-20.5 50.5t-50.5 20.5t-51 -20.5t-21 -50.5t21 -51t51 -21z
" />
    <glyph glyph-name="glyph11" unicode="&#x1f3af;" horiz-adv-x="1791" 
d="M896 1495q179 0 342 -70t281 -188t187.5 -281t69.5 -342t-69.5 -342t-187.5 -281t-281 -188t-342 -70t-342 70t-281 188t-188 281t-70 342t70 342t188 281t281 188t342 70zM967 -99q167 17 308 104.5t229 228.5t105 308h-396v144h396q-17 167 -105 308t-229 228.5
t-308 104.5v-396h-143v396q-167 -17 -308 -104.5t-229 -228.5t-105 -308h396v-144h-396q17 -167 105 -308t229 -228.5t308 -104.5v395h143v-395z" />
    <glyph glyph-name="glyph12" unicode="&#xe007;" 
d="M609 389h717q6 0 20 2v-187q0 -85 -60 -145t-145 -60h-512l-307 -307v307h-102q-85 0 -145 60t-60 145v615q0 85 60 144.5t145 59.5h389v-634zM1858 1535q85 0 145 -59.5t60 -144.5v-615q0 -85 -60 -145t-145 -60h-102v-307l-307 307h-717v820q0 85 60 144.5t145 59.5
h921z" />
    <glyph glyph-name="glyph13" unicode="&#x2715;" horiz-adv-x="993" 
d="M942 291q36 -36 36 -87t-36 -87t-87 -36t-87 36l-272 311l-271 -311q-36 -36 -87 -36t-87 36t-36 87t36 87l282 323l-282 323q-36 36 -36 86.5t36 86.5t87 36t87 -36l271 -310l272 310q36 36 87 36t87 -36t36 -86.5t-36 -86.5l-283 -323z" />
    <glyph glyph-name="glyph14" unicode="&#x2713;" horiz-adv-x="1397" 
d="M524 -103q-71 0 -114 57l-366 483q-36 47 -27.5 105.5t55.5 94.5t105.5 27.5t94.5 -55.5l240 -318l606 972q32 50 89 63.5t107 -17.5q50 -32 63.5 -89.5t-17.5 -107.5l-715 -1148q-42 -67 -121 -67z" />
    <glyph glyph-name="glyph15" unicode="&#x2716;" horiz-adv-x="1750" 
d="M875 1474q140 0 271.5 -43.5t237 -123t185 -185t123 -237t43.5 -271.5t-43.5 -271.5t-123 -237t-185 -185t-237 -123t-271.5 -43.5t-271.5 43.5t-237 123t-185 185t-123 237t-43.5 271.5t43.5 271.5t123 237t185 185t237 123t271.5 43.5zM1052 614l314 313l-177 177
l-314 -313l-313 313l-177 -177l313 -313l-313 -314l177 -177l313 314l314 -313l177 176z" />
    <glyph glyph-name="glyph16" unicode="&#xe008;" horiz-adv-x="1668" 
d="M1449 1331q85 0 144.5 -60t59.5 -145v-717q0 -85 -59.5 -145t-144.5 -60h-410v-307l-410 307h-409q-85 0 -145 60t-60 145v717q0 85 60 145t145 60h1229z" />
    <glyph glyph-name="glyph17" unicode="&#xe009;" horiz-adv-x="1996" 
d="M985 1597q200 3 383 -72.5t316.5 -205.5t213.5 -311t83 -381t-72.5 -383t-205.5 -316.5t-311 -213.5t-381 -83t-383 72.5t-316.5 205.5t-213.5 311t-83 381t72.5 383t205.5 316.5t311 213.5t381 83zM1008 -162q158 2 301 65.5t245.5 168.5t162 249.5t57.5 302.5
t-65.5 301t-168.5 245.5t-249.5 162t-302.5 57.5t-301 -65.5t-245.5 -168.5t-162 -249.5t-57.5 -302.5t65.5 -301t168.5 -245.5t249.5 -162t302.5 -57.5zM532 153q3 19 8.5 51.5t27 124t49 172t75.5 172t104 147.5t145.5 104t177 76t167 48t128.5 28l50 8q-3 -19 -8.5 -52
t-27 -124.5t-49 -171.5t-75.5 -172t-104 -148t-145.5 -103.5t-177 -76t-167 -48.5t-128.5 -28zM897 719q-42 -42 -42 -101t42 -101t101 -42t101 42q105 105 180 383q-275 -74 -382 -181z" />
    <glyph glyph-name="glyph18" unicode="&#xe00a;" 
d="M1858 1433q85 0 145 -60t60 -145v-1229q0 -85 -60 -144.5t-145 -59.5h-1638q-85 0 -145 59.5t-60 144.5v1229q0 85 60 145t145 60h1638zM1858 -1v1229h-1638v-1229h1638zM937 399v-184h-512v184h512zM937 706v-184h-512v184h512zM937 1013v-184h-512v184h512zM1643 358
q4 0 6.5 -36t2.5 -72l1 -35h-512q1 143 11 143q7 2 19 5.5t42 16.5t52.5 27t41.5 37.5t19 48.5q0 23 -11.5 46t-28 45t-33.5 48.5t-28.5 67t-11.5 88.5q0 112 41.5 168.5t142.5 56.5t143 -56.5t42 -168.5q0 -48 -11.5 -88.5t-28 -67t-33.5 -48.5t-28.5 -45t-11.5 -46
q0 -40 43.5 -73.5t87.5 -47.5z" />
    <glyph glyph-name="glyph19" unicode="&#x1f464;" horiz-adv-x="1955" 
d="M1522 158q193 -70 305.5 -136.5t112.5 -113.5v-216h-1925v216q0 47 112.5 113.5t305.5 136.5q190 69 261.5 140.5t71.5 195.5q0 33 -13 56t-29.5 37.5t-37 55t-31.5 101.5q-4 20 -14 30t-22 15t-24 14.5t-21.5 38t-13.5 76.5q0 19 4 35t9 25t10.5 15.5t9.5 8.5l4 2
q-19 102 -26 181q-3 33 4.5 74t34.5 91t70.5 90t121 67.5t176.5 27.5t176.5 -27.5t120.5 -67.5t70 -90t34.5 -91t4.5 -74q-3 -35 -9.5 -80.5t-11.5 -72.5l-5 -28q4 -2 10 -6.5t16.5 -26.5t10.5 -53q-4 -48 -13.5 -76.5t-21.5 -38t-24 -14.5t-22 -15t-14 -30
q-11 -61 -31.5 -101.5t-37 -55t-29.5 -37.5t-13 -56q0 -124 71.5 -195.5t261.5 -140.5z" />
    <glyph glyph-name="glyph20" unicode="&#x1f465;" 
d="M2063 -257h-461v295q0 38 -4 63t-20.5 52t-38 46.5t-69.5 48.5t-100 55.5t-144 70.5q46 31 65 70t19 96q0 22 -7.5 37t-17.5 24.5t-22 36.5t-19 68q-3 16 -11.5 23.5t-17.5 10.5t-17.5 23t-11.5 59q0 20 6 34.5t12 19.5l5 4q-12 68 -16 120q-2 22 2.5 49.5t20.5 61
t42.5 60t73 45t106.5 18.5t106.5 -18.5t73 -45t42.5 -60t20.5 -61t2.5 -49.5l-16 -120q22 -12 22 -58q-3 -39 -11.5 -59t-17 -23t-17 -10.5t-11.5 -23.5q-8 -52 -25.5 -80t-29.5 -43.5t-12 -42.5q0 -83 43 -130.5t158 -93.5q126 -51 185 -84.5t84 -74.5q11 -17 18 -120.5
t9 -198.5zM1062 260q69 -28 118 -49t101 -48t84 -49.5t52.5 -48.5t20.5 -51v-271h-1423v361q0 25 12 47.5t25 36t41.5 29.5t40 21t42.5 17q8 3 12 5q153 62 210 125.5t57 173.5q0 29 -10.5 49.5t-24 33.5t-29.5 49t-25 90q-3 18 -11 26.5t-17.5 13t-19.5 13t-17.5 34
t-10.5 68.5q0 27 7 46t15 24l7 6q-15 91 -21 161q-2 30 4 66t27.5 80.5t56.5 80t97 60t142 24.5t142 -24.5t96.5 -60t56 -80t27.5 -80.5t4 -66l-21 -161q3 -2 8 -6t13.5 -23.5t8.5 -46.5q-3 -43 -10.5 -68.5t-17.5 -34t-19.5 -13t-17.5 -13t-11 -26.5q-9 -54 -25 -90
t-29.5 -49t-24 -33.5t-10.5 -49.5q0 -110 57 -173.5t210 -125.5z" />
    <glyph glyph-name="glyph21" unicode="&#xe00b;" horiz-adv-x="1791" 
d="M1752 1468q15 -15 20 -31.5t4 -32t-12.5 -43t-23.5 -50.5t-36 -69.5t-43 -85.5q-111 -231 -300.5 -587.5t-322.5 -596.5l-134 -241l-111 778l-778 111q906 508 1425 758q43 21 99.5 50t79 40t52 20t46.5 3.5t35 -23.5zM1565 1268l-623 -573l58 -477z" />
    <glyph glyph-name="glyph22" unicode="&#x2709;" horiz-adv-x="1873" 
d="M76 1097q-36 20 -53 56q-19 42 23 53q10 2 24 2h1733q54 0 52 -36q-2 -33 -41 -64q-9 -6 -17 -11q-22 -12 -207.5 -111.5t-369 -198.5t-191.5 -103q-37 -20 -92 -20q-56 0 -93 20q-8 4 -191.5 103t-369 198.5t-207.5 111.5zM1819 892q14 7 22.5 8t12 -5t4 -11t0.5 -15
v-751q0 -32 -34 -65t-67 -33h-1640q-33 0 -67.5 33t-34.5 65v751q0 10 1 15t4 11t12 5t23 -8q601 -316 789 -413q39 -20 93 -20q53 0 92 20q232 119 790 413z" />
    <glyph glyph-name="glyph23" unicode="&#xe00c;" 
d="M1551 20v113l205 168v-383q0 -43 -30 -73t-73 -30h-1536q-43 0 -72.5 30t-29.5 73v1126q0 43 29.5 72.5t72.5 29.5h591q-68 -50 -123.5 -101t-76.5 -77l-22 -26h-266v-922h1331zM1383 732q-118 0 -201 -7t-159.5 -26.5t-132.5 -50t-113.5 -84t-107.5 -121t-111 -167.5
q0 10 1 28.5t8.5 74t20.5 109.5t42 127.5t68.5 136.5t104 127.5t143 110t191.5 74t246 28.5v321l680 -512l-680 -533v364z" />
    <glyph glyph-name="glyph24" unicode="&#x2691;" horiz-adv-x="1873" 
d="M1806 1136q28 11 44.5 -3t0.5 -38q-112 -163 -207 -281.5t-163 -191.5t-132 -109.5t-101 -51t-85 1t-69.5 29t-67.5 49.5q-62 48 -101.5 67.5t-114 29.5t-173 -39t-224.5 -155l184 -723h-207l-375 1476l189 68q93 68 172 111t135.5 65.5t110.5 19.5t85.5 -10t72.5 -41.5
t60 -56t59 -70.5q42 -51 65 -77.5t73 -69.5t93 -61t114 -35.5t148 -10.5t183.5 32t230.5 75z" />
    <glyph glyph-name="glyph25" unicode="&#x26a1;" horiz-adv-x="849" 
d="M97 -308q-8 5 72 189.5t162 373.5t77 202t-99.5 52t-190 83t-103.5 68q-8 26 172.5 247.5t367.5 428.5t197 199q10 -9 -152.5 -381.5t-158.5 -383.5q3 -9 99.5 -47.5t192.5 -83.5t101 -71q5 -27 -175 -248t-366 -428t-196 -200z" />
    <glyph glyph-name="glyph26" unicode="&#x2708;" 
d="M563 -349l255 820h-368l-230 -205h-205l164 348l-164 348h205l230 -205h368l-255 819h205l459 -819h529q12 0 33 -1t74 -8.5t93.5 -21t73.5 -43t33 -69.5t-31.5 -69.5t-76.5 -43t-90.5 -21t-76.5 -8.5l-32 -1h-529l-459 -820h-205z" />
    <glyph glyph-name="glyph27" unicode="&#x27a6;" horiz-adv-x="1873" 
d="M1118 410q-117 0 -202.5 -3.5t-184.5 -15.5t-173 -33t-154.5 -57.5t-145 -88t-127 -125.5t-116.5 -169q4 21 13.5 57t48.5 139t89 197.5t141 209t199 197.5t268.5 139.5t343.5 56.5v396l740 -661l-740 -685v446z" />
    <glyph glyph-name="glyph28" unicode="&#xe00d;" horiz-adv-x="1914" 
d="M1154 1556q202 0 373.5 -100t271.5 -271.5t100 -373.5q0 -191 -90.5 -356t-246.5 -267.5t-345 -118.5q-68 -177 -226.5 -287t-353.5 -110q-169 0 -312 83t-226.5 226t-83.5 312q0 195 110 353.5t286 226.5q11 141 74.5 267.5t162 217.5t230.5 144.5t276 53.5zM637 -121
q112 0 207 55.5t150 149.5q-211 46 -365.5 200t-201.5 366q-93 -55 -149 -150t-56 -207q0 -171 121.5 -292.5t293.5 -121.5zM643 707q32 -153 143 -264t265 -142q-3 167 -122 285.5t-286 120.5zM1259 301q179 37 297.5 180t118.5 330q0 141 -70 261t-190 190t-261 70
q-188 0 -331.5 -118.5t-179.5 -298.5q124 -1 237.5 -50t196 -131.5t132 -195.5t50.5 -237zM228 1114q-88 0 -150 62t-62 150t62 150.5t150 62.5t150 -62.5t62 -150.5t-62 -150t-150 -62zM228 1443q-49 0 -83 -34t-34 -83t34 -83t83 -34t83 34t34 83t-34 83t-83 34z" />
    <glyph glyph-name="glyph29" unicode="&#x2665;" horiz-adv-x="1791" 
d="M1632 1211q95 -87 128.5 -203.5t0 -233t-128.5 -203.5l-736 -676l-737 676q-95 87 -128.5 203.5t0 233t128.5 203.5q128 118 310 118t310 -118l117 -107l116 107q128 118 310 118t310 -118z" />
    <glyph glyph-name="glyph30" unicode="&#x2661;" horiz-adv-x="1771" 
d="M1613 1211q93 -87 126.5 -203.5t0 -233t-126.5 -203.5l-728 -676l-727 676q-142 133 -142 320t142 320q127 118 306 118t306 -118l115 -107l115 107q127 118 306.5 118t306.5 -118zM1505 676q87 80 87 215q0 67 -16 115.5t-60 89.5q-85 79 -209 79q-101 0 -209 -100
l-213 -187l-212 187q-108 100 -209 100q-124 0 -209 -79q-44 -41 -60 -89.5t-16 -115.5q0 -135 87 -215l619 -585z" />
    <glyph glyph-name="glyph31" unicode="&#x2753;" horiz-adv-x="1218" 
d="M15 974q11 266 158 413.5t415 147.5q264 0 440 -126q175 -126 175 -374q0 -140 -86 -256q-32 -45 -181 -162l-93 -64q-60 -46 -85.5 -89.5t-29.5 -122.5q0 -9 -7.5 -18.5t-24.5 -9.5h-263q-33 0 -33 25q2 72 5.5 109t15.5 78.5t34 67.5q36 42 102 95.5t115 85.5l48 32
q50 37 87 94t37 116q0 89 -52 162t-190 73q-135 0 -192 -90q-56 -88 -56 -187h-339zM582 110q93 -3 152 -63t56 -154t-65 -149t-155 -52q-90 2 -148.5 61.5t-55.5 152.5q3 94 64.5 150t151.5 54z" />
    <glyph glyph-name="glyph32" unicode="&#xe00e;" horiz-adv-x="1914" 
d="M945 1556q192 3 367 -69.5t303 -197t204.5 -297.5t79.5 -365t-69.5 -367.5t-197 -303t-297.5 -204.5t-365 -80t-367.5 69.5t-303 197t-204.5 297.5t-80 365q-2 128 30.5 250.5t92 226.5t145 192.5t188.5 150.5t224.5 97.5t249.5 37.5zM1080 173q2 62 -37 101.5t-103 40.5
q-58 0 -97.5 -38t-40.5 -96q-2 -61 37.5 -100.5t102.5 -40.5q59 0 97.5 37t40.5 96zM956 995q68 0 103.5 -35.5t35.5 -99.5q0 -29 -22.5 -65t-49.5 -56q-9 -5 -34 -22.5t-66.5 -50.5t-63.5 -59q-5 -6 -9 -12.5t-7.5 -12.5t-6 -15.5t-4 -15t-3 -17.5t-2.5 -17.5t-1.5 -20
t-1 -20t-1 -23t-0.5 -23.5h219q0 38 9 69q10 32 58 70l57 40q37 28 54.5 43t43.5 42t38 49.5t21.5 56t9.5 72.5q0 103 -52.5 175.5t-138 106t-195.5 33.5q-171 0 -261.5 -95t-98.5 -267h226v9q0 56 34 110q31 51 109 51z" />
    <glyph glyph-name="glyph33" unicode="&#x268f;" horiz-adv-x="1259" 
d="M363 1228q85 0 124.5 -39.5t39.5 -124.5v-184q0 -85 -39.5 -124.5t-124.5 -39.5h-184q-85 0 -124.5 39.5t-39.5 124.5v184q0 85 39.5 124.5t124.5 39.5h184zM1080 1228q85 0 124.5 -39.5t39.5 -124.5v-184q0 -85 -39.5 -124.5t-124.5 -39.5h-184q-85 0 -124.5 39.5
t-39.5 124.5v184q0 85 39.5 124.5t124.5 39.5h184zM363 511q85 0 124.5 -39t39.5 -124v-185q0 -85 -39.5 -124.5t-124.5 -39.5h-184q-85 0 -124.5 39.5t-39.5 124.5v185q0 85 39.5 124t124.5 39h184zM1080 511q85 0 124.5 -39t39.5 -124v-185q0 -85 -39.5 -124.5
t-124.5 -39.5h-184q-85 0 -124.5 39.5t-39.5 124.5v185q0 85 39.5 124t124.5 39h184z" />
    <glyph glyph-name="glyph34" unicode="&#x2139;" horiz-adv-x="972" 
d="M735 1638q98 0 152 -58t54 -143q0 -102 -80 -179.5t-194 -77.5q-98 0 -152 54.5t-51 149.5q0 57 29 113.5t93 98.5t149 42zM313 -410q-35 0 -61 9t-47 33.5t-29 64t-2.5 104t27.5 150.5l124 521q9 33 13 54t4.5 36t-4 21t-13.5 6q-27 0 -112 -37t-144 -78l-54 91
q186 158 388 256.5t308 98.5q79 0 97 -90.5t-24 -240.5l-143 -548q-34 -130 11 -130q30 0 101.5 33t142.5 90l61 -83q-91 -92 -192 -165.5t-186.5 -114t-153.5 -61t-112 -20.5z" />
    <glyph glyph-name="glyph35" unicode="&#xe00f;" horiz-adv-x="1914" 
d="M945 1556q192 3 367 -69.5t303 -197t204.5 -297.5t79.5 -365t-69.5 -367.5t-197 -303t-297.5 -204.5t-365 -80t-367.5 69.5t-303 197t-204.5 297.5t-80 365q-2 128 30.5 250.5t92 226.5t145 192.5t188.5 150.5t224.5 97.5t249.5 37.5zM1049 1242q-87 0 -133 -47.5
t-46 -103.5q-2 -57 31 -89t100 -32q78 0 125 45.5t47 107.5q0 119 -124 119zM803 25q61 0 173 55t217 160l-37 49q-43 -34 -86.5 -53.5t-61.5 -19.5q-26 0 -6 77l86 326q26 89 15 142.5t-59 53.5q-64 0 -186.5 -58.5t-234.5 -152.5l33 -53q35 24 87 46t68 22q6 0 8.5 -3.5
t2 -12.5t-3 -21.5t-7.5 -32.5l-75 -310q-25 -86 -17.5 -133.5t28 -64t56.5 -16.5z" />
    <glyph glyph-name="glyph36" unicode="&#x1f342;" horiz-adv-x="1955" 
d="M498 1212q281 163 763 153q298 -5 536 -68q140 -37 143 -63q1 -6 -8 -11q-94 -50 -169 -119t-125.5 -142.5t-92 -153.5t-78.5 -159.5t-75 -151t-91.5 -138t-118.5 -112.5q-86 -61 -194 -84.5t-217.5 -12.5t-197.5 32t-175 54q-15 -17 -40 -48.5t-86.5 -125.5t-104.5 -185
q-11 -24 -40 -26.5t-56 11t-44.5 36.5t-8.5 44q51 118 130.5 231.5t171.5 205.5t197 177t209 150.5t204 122t185.5 96t150.5 67.5t102 42l37 13q-16 1 -44 0.5t-116.5 -9t-177.5 -26.5t-214 -59.5t-239 -99.5t-241 -155.5t-230 -219.5q-47 500 355 734z" />
    <glyph glyph-name="glyph37" unicode="&#x21b3;" horiz-adv-x="1556" 
d="M220 307q-85 0 -145 59.5t-60 144.5v717h287v-635h747v308l492 -451l-492 -451v308h-829z" />
    <glyph glyph-name="glyph38" unicode="&#xe010;" horiz-adv-x="1914" 
d="M945 1556q153 2 297.5 -43.5t261.5 -131.5t205.5 -200.5t138 -258t51.5 -296.5q3 -192 -69.5 -367t-197 -303t-297.5 -204.5t-365 -79.5t-367.5 69.5t-303 197t-204.5 297.5t-80 365q-2 128 30.5 250.5t92 226.5t145 192.5t188.5 150.5t224.5 97.5t249.5 37.5zM946 1433
q-195 -3 -367 -92l127 -212q119 58 251 58t251 -58l127 212q-181 95 -389 92zM442 362q-58 119 -58 252q0 132 58 251l-212 127q-95 -181 -92 -389q3 -195 92 -367zM968 -205q195 3 367 92l-127 211q-119 -58 -251 -58t-251 58l-127 -211q181 -95 389 -92zM957 163
q122 0 226 60.5t164.5 164.5t60.5 226t-60.5 226t-164 164t-226.5 60q-122 0 -226 -60t-164 -164t-60 -226q0 -123 60 -226.5t164 -164t226 -60.5zM1473 362l211 -126q95 181 92 389q-3 195 -92 367l-211 -127q58 -119 58 -251q0 -133 -58 -252z" />
    <glyph glyph-name="glyph39" unicode="&#x1f4dd;" horiz-adv-x="1873" 
d="M15 674q0 38 21.5 65.5t66.5 27.5h322v-819h-319q-91 0 -91 99v627zM1621 890q119 0 178 -78.5t59 -221.5v-494q0 -80 -66.5 -163t-172 -136.5t-209.5 -53.5h-432q-58 0 -104.5 21t-79.5 51.5t-67 60.5t-84.5 51t-115.5 21v819h34q59 0 132 45.5t134 111.5t109 137
t64 124q11 36 16 84t7.5 82.5t10 66.5t28.5 49t59 17q78 0 110.5 -67t32.5 -217l-20 -320q260 10 377 10z" />
    <glyph glyph-name="glyph40" unicode="&#x1f517;" horiz-adv-x="1668" 
d="M615 131q30 30 72.5 30t71.5 -30q30 -30 29.5 -72.5t-30.5 -71.5l-83 -82q-112 -112 -273 -112t-273 112q-114 114 -114 272t114 272l305 303q142 141 293.5 160t261.5 -91q30 -29 30 -71.5t-30 -72.5t-71.5 -30t-71.5 30q-31 30 -69 34.5t-75.5 -13.5t-67 -40t-57.5 -50
l-305 -303q-54 -52 -54 -128t54 -128q54 -53 130 -53t130 53zM1540 1307q113 -113 113 -272t-113 -272l-326 -323q-153 -151 -306 -151q-126 0 -228 102q-30 29 -30.5 71t29.5 72t72 30t72 -29q14 -14 23.5 -21.5t33.5 -16t48 -4t62.5 26.5t80.5 64l326 323q53 51 53 128
t-53 128q-34 34 -74 51t-85 11t-81 -42l-104 -102q-30 -30 -71.5 -30t-71.5 30t-30 72.5t30 71.5l104 102q110 109 259 103.5t267 -123.5z" />
    <glyph glyph-name="glyph41" unicode="&#x2630;" horiz-adv-x="1464" 
d="M1346 716q43 0 73 -29.5t30 -72.5t-30 -73t-73 -30h-1229q-43 0 -72.5 30t-29.5 73t29.5 72.5t72.5 29.5h1229zM117 921q-43 0 -72.5 29.5t-29.5 72.5t29.5 73t72.5 30h1229q43 0 73 -30t30 -73t-30 -72.5t-73 -29.5h-1229zM1346 307q43 0 73 -30t30 -73t-30 -72.5
t-73 -29.5h-1229q-43 0 -72.5 29.5t-29.5 72.5t29.5 73t72.5 30h1229z" />
    <glyph glyph-name="glyph42" unicode="&#xe011;" horiz-adv-x="1054" 
d="M527 1433q212 0 362 -150t150 -362q0 -100 -28 -216t-73.5 -221.5t-100 -210.5t-109 -189.5t-100 -150.5t-73.5 -102l-28 -36q-11 13 -29.5 37t-71.5 100t-101.5 153t-107.5 187t-101.5 212.5t-71.5 219.5t-29 217q0 212 150 362t362 150zM527 638q115 0 195.5 81
t80.5 196t-80.5 195.5t-195.5 80.5t-195.5 -80.5t-80.5 -195.5t80.5 -196t195.5 -81z" />
    <glyph glyph-name="glyph43" unicode="&#x1f512;" horiz-adv-x="1464" 
d="M1326 870q43 0 83 -40t40 -83v-799q0 -42 -29 -81.5t-69 -52.5l-122 -39q-102 -32 -200 -32h-594q-98 0 -200 32l-123 39q-40 13 -68.5 52.5t-28.5 81.5v799q0 45 30.5 84t71.5 39h205v143q0 226 104 348.5t306 122.5t305.5 -122.5t103.5 -348.5v-143h185zM527 1054v-184
h410v184q0 109 -55.5 167t-149.5 58t-149.5 -58t-55.5 -167z" />
    <glyph glyph-name="glyph44" unicode="&#xe012;" 
d="M2063 -135q0 -28 -19 -49t-48 -21q-18 0 -34 10l-444 278l-445 -278q-34 -21 -68 0l-444 278l-445 -278q-36 -23 -68.5 0.5t-32.5 59.5v1198q0 39 33 60l478 300q34 21 69 0l444 -278l444 278q35 21 69 0l478 -300q33 -21 33 -60v-1198zM494 204v1036l-345 -216v-1036z
M972 -12v1036l-345 216v-1036zM1451 204v1036l-345 -216v-1036zM1929 -12v1036l-344 216v-1036z" />
    <glyph glyph-name="glyph45" unicode="&#x1f3a4;" horiz-adv-x="1341" 
d="M1285 896q17 0 29 -12t12 -29v-282q0 -89 -33 -172t-98 -154.5t-174 -120.5t-248 -61v-270h266q17 0 29 -12t12 -29v-123q0 -17 -12 -29t-29 -12h-737q-17 0 -29 12t-12 29v123q0 17 12 29t29 12h266v270q-139 12 -248 61t-174 120.5t-98 154.5t-33 172v282q0 17 12 29
t29 12h61q17 0 29 -12t12 -29v-282q0 -45 14 -91.5t50.5 -97.5t92 -90t147.5 -64.5t208 -25.5t208 25.5t147.5 64.5t92 90t50.5 97.5t14 91.5v282q0 17 12 29t29 12h62zM670 409q-85 0 -148.5 16t-96 42t-47.5 52.5t-15 53.5v323h615v-323q0 -27 -15 -53.5t-48 -52.5
t-96.5 -42t-148.5 -16zM978 1474v-434h-615v434q0 27 15 53.5t47.5 52.5t96 42t148.5 16t148.5 -16t96.5 -42t48 -52.5t15 -53.5z" />
    <glyph glyph-name="glyph46" unicode="&#x2796;" horiz-adv-x="1218" 
d="M1141 716q39 0 50.5 -25.5t11.5 -76.5t-11.5 -77t-50.5 -26h-1065q-39 0 -50 25.5t-11 77.5t11 77t50 25h1065z" />
    <glyph glyph-name="glyph47" unicode="&#xe013;" horiz-adv-x="1750" 
d="M875 1474q140 0 271.5 -43.5t237 -123t185 -185t123 -237t43.5 -271.5t-43.5 -271.5t-123 -237t-185 -185t-237 -123t-271.5 -43.5t-271.5 43.5t-237 123t-185 185t-123 237t-43.5 271.5t43.5 271.5t123 237t185 185t237 123t271.5 43.5zM1392 719h-1034v-210h1034v210z
" />
    <glyph glyph-name="glyph48" unicode="&#x1f4f1;" horiz-adv-x="1218" 
d="M998 1617q85 0 145 -59.5t60 -144.5v-1598q0 -85 -60 -145t-145 -60h-778q-85 0 -145 60t-60 145v1598q0 85 60 144.5t145 59.5h778zM609 -308q59 0 101 30t42 73t-42 72.5t-101 29.5t-101 -29.5t-42 -72.5t42 -73t101 -30zM1039 -1v1352h-860v-1352h860z" />
    <glyph glyph-name="glyph49" unicode="&#xe014;" horiz-adv-x="1177" 
d="M1142 165q57 -162 -36.5 -321.5t-282.5 -226.5q-132 -36 -247.5 -17.5t-204 91.5t-118.5 182l-220 788q-39 138 15 274t173 215l-198 383q-14 27 -5 55.5t35 42.5t54.5 5.5t41.5 -35.5l202 -393q164 44 315.5 -34.5t206.5 -236.5zM476 726q56 19 83 72t9 111t-70.5 86
t-108.5 9t-83 -72.5t-9 -111.5t70.5 -85.5t108.5 -8.5z" />
    <glyph glyph-name="glyph50" unicode="&#x1f3ac;" horiz-adv-x="2037" 
d="M2022 1126h-205v-205h205v-205h-205v-205h205v-204h-205v-205h205v-123q0 -34 -24 -58t-58 -24h-1843q-34 0 -58 24t-24 58v123h205v205h-205v204h205v205h-205v205h205v205h-205v123q0 34 24 58t58 24h1843q34 0 58 -24t24 -58v-123zM793 307l512 307l-512 307v-614z
" />
    <glyph glyph-name="glyph51" unicode="&#x1f3b5;" horiz-adv-x="1218" 
d="M793 1578q0 -54 34.5 -114t84 -114.5t106.5 -115t101.5 -127.5t69 -140.5t8.5 -165t-79 -189.5q-33 -51 -50 -38q-13 9 -3 38q11 33 13 87.5t-12 122.5t-43.5 129.5t-89 109t-140.5 60.5v-1095q2 -101 -78 -196.5t-211 -143.5q-156 -57 -295.5 -16.5t-180.5 153.5t40 233
t237 177q176 64 324 7v1338h164z" />
    <glyph glyph-name="glyph52" unicode="&#xe015;" horiz-adv-x="1996" 
d="M1949 1596q27 -77 31 -154t-12 -145t-45 -130t-71 -117.5t-86.5 -100t-95.5 -83.5l35 -51q14 -21 18.5 -53t-3.5 -56l-101 -322q-8 -24 -29 -51.5t-42 -42.5l-952 -675q-33 -26 -70 -25.5t-60 34.5l-433 625q-24 35 -16.5 77t41.5 67l952 675q21 15 53.5 25t58.5 9l323 2
q25 0 53.5 -15.5t42.5 -36.5l58 -83q39 30 73.5 63t71 76.5t61.5 93t41 104.5t13.5 119.5t-25.5 130.5q-8 24 3 47t35 31t46.5 -3t30.5 -35zM1507 638q39 28 57 72.5t10 90.5q-40 -24 -63 -34q-12 -6 -26 -6q-30 0 -47.5 23.5t-12 52.5t33.5 42q22 11 50 28q-42 31 -93.5 32
t-96.5 -30q-56 -39 -67.5 -106.5t27.5 -123.5t106 -68t122 27z" />
    <glyph glyph-name="glyph53" unicode="&#x1f3a8;" horiz-adv-x="2037" 
d="M1771 1168q67 -44 117 -96t77.5 -101.5t42.5 -98t14.5 -90t-9.5 -74.5t-26 -53.5t-38 -25.5q-25 -6 -65 4.5t-81 23t-87.5 16.5t-100.5 -19t-105 -78q-40 -44 -47 -92t12.5 -90t44 -79.5t45.5 -72.5t20 -56q-2 -28 -28 -68.5t-87 -90.5t-146 -92.5t-221 -71.5t-296 -29
q-191 0 -347 56.5t-255 153t-149 224.5t-39 271q11 159 104.5 325t242 293.5t309.5 173.5q596 170 1098 -163zM1119 214q64 0 109 45t45 109t-45 108.5t-109 44.5t-109 -44.5t-45 -108.5t45 -109t109 -45z" />
    <glyph glyph-name="glyph54" unicode="&#x1f4de;" horiz-adv-x="1566" 
d="M901 494q313 313 228 398q-65 65 -78 82q-52 69 -23 150q22 63 91 148q26 32 51.5 54.5t47 35t45 16t41.5 2t40 -11.5t36.5 -19.5t35 -28t32.5 -30.5t31.5 -32.5t29.5 -30.5q34 -34 41 -100t-17.5 -160t-75.5 -201t-142.5 -232.5t-209.5 -243.5t-243.5 -209.5
t-232.5 -142.5t-201 -75.5t-160 -18t-100 40.5q-10 10 -30.5 29.5t-32.5 31.5t-30.5 32.5t-28 35t-19.5 36.5t-11.5 40t2 41.5t16 45.5t35 47.5t54.5 51.5q75 60 129 85.5t98 13.5t67.5 -29t67.5 -62l18 -18q85 -85 398 228z" />
    <glyph glyph-name="glyph55" unicode="&#x2795;" horiz-adv-x="1218" 
d="M1141 716q39 0 50.5 -25.5t11.5 -76.5t-11.5 -77t-50.5 -26h-430v-430q0 -39 -25 -50t-77 -11t-77 11t-25 50v430h-431q-39 0 -50 25.5t-11 77.5t11 77t50 25h431v430q0 39 25.5 50.5t76.5 11.5t76.5 -11.5t25.5 -50.5v-430h430z" />
    <glyph glyph-name="glyph56" unicode="&#xe016;" horiz-adv-x="1750" 
d="M875 1474q140 0 271.5 -43.5t237 -123t185 -185t123 -237t43.5 -271.5t-43.5 -271.5t-123 -237t-185 -185t-237 -123t-271.5 -43.5t-271.5 43.5t-237 123t-185 185t-123 237t-43.5 271.5t43.5 271.5t123 237t185 185t237 123t271.5 43.5zM980 509h412v210h-412v412h-210
v-412h-412v-210h412v-412h210v412z" />
    <glyph glyph-name="glyph57" unicode="&#xe017;" horiz-adv-x="2037" 
d="M148 972q-27 0 -37 16t-4 34t21 23q3 1 47 17t94.5 34t106.5 37t100.5 31.5t60.5 12.5h92v307h779v-307h92q16 0 60.5 -12.5t100.5 -31.5t106.5 -37t94.5 -34t47 -17q15 -5 21 -23t-4 -34t-37 -16h-1741zM1909 860q41 0 77 -40t36 -83v-359q0 -43 -36 -83t-77 -40h-203
l91 -512h-1557l91 512h-203q-41 0 -77 40t-36 83v359q0 43 36 83t77 40h1781zM445 -52h1147l-143 666h-861z" />
    <glyph glyph-name="glyph58" unicode="&#x275e;" horiz-adv-x="1586" 
d="M314 1290q224 0 328 -180q92 -159 63 -404q-29 -243 -161 -446q-143 -219 -348 -291q-88 -31 -181 -31v143q172 0 304 136q101 104 130 233q29 124 -29 185q-38 40 -106 40q-124 0 -211.5 90.5t-87.5 217.5t87.5 217t211.5 90zM1174 1290q224 0 328 -180q92 -159 63 -404
q-29 -243 -161 -446q-143 -219 -348 -291q-88 -31 -181 -31v143q172 0 304 136q101 104 130 233q29 124 -29 185q-38 40 -106 40q-124 0 -211.5 90.5t-87.5 217.5t87.5 217t211.5 90z" />
    <glyph glyph-name="glyph59" unicode="&#x27f2;" horiz-adv-x="1955" 
d="M1103 1454q170 0 325 -66.5t267 -179t178.5 -268t66.5 -326.5t-66.5 -326.5t-178.5 -268t-267 -179t-325 -66.5q-289 0 -515 178l144 154q165 -122 371 -122q171 0 315.5 84.5t228.5 229.5t84 316t-84 316t-228.5 229.5t-315.5 84.5q-125 0 -239.5 -48t-198 -129.5
t-134.5 -194t-55 -237.5h292l-376 -420l-377 420h252q4 167 71.5 319t179.5 261.5t264.5 174t320.5 64.5z" />
    <glyph glyph-name="glyph60" unicode="&#x27f3;" horiz-adv-x="1955" 
d="M852 1454q168 0 320.5 -64.5t264.5 -174t179.5 -261.5t71.5 -319h252l-377 -420l-376 420h292q-4 125 -55 237.5t-134.5 194t-198 129.5t-239.5 48q-171 0 -315.5 -84.5t-228.5 -229.5t-84 -316t84 -316t228.5 -229.5t315.5 -84.5q206 0 371 122l144 -154
q-226 -178 -515 -178q-170 0 -325 66.5t-267 179t-178.5 268t-66.5 326.5t66.5 326.5t178.5 268t267 179t325 66.5z" />
    <glyph glyph-name="glyph61" unicode="&#xe018;" horiz-adv-x="1873" 
d="M1858 -82q-54 95 -116.5 169t-127 125.5t-145 88t-154.5 57.5t-173 33t-184.5 15.5t-202.5 3.5v-446l-740 685l740 661v-396q183 0 343 -55t269.5 -143t198.5 -194t141.5 -212t88.5 -194t49 -143z" />
    <glyph glyph-name="glyph62" unicode="&#xe019;" 
d="M755 1036l-433 -387l433 -401v-284l-740 685l740 661v-274zM1267 914q122 0 227 -34t180 -91.5t136.5 -132.5t101 -157.5t69.5 -165t45 -157.5t24 -132.5t11 -91.5l2 -34q-47 84 -92.5 150.5t-92 116.5t-89.5 86.5t-93 61.5t-95.5 40t-103.5 23.5t-109 11t-121 2.5v-446
l-740 685l740 661v-396z" />
    <glyph glyph-name="glyph63" unicode="&#xe01a;" 
d="M547 286h455l262 -287h-798q-85 0 -145 60t-60 145v615h-246l389 409l389 -409h-246v-533zM1817 409h246l-389 -410l-389 410h246v533h-455l-262 286h798q85 0 145 -60t60 -145v-614z" />
    <glyph glyph-name="glyph64" unicode="&#xe01b;" horiz-adv-x="1586" 
d="M15 1392q212 0 413.5 -56t372.5 -156t314.5 -243.5t243.5 -314.5t156 -372.5t56 -413.5h-242q0 267 -104 510.5t-280 419.5t-419.5 280t-510.5 104v242zM15 907q175 0 338.5 -54t295 -153t230.5 -230.5t153 -295t54 -338.5h-242q0 169 -65.5 322t-176.5 264t-264.5 176.5
t-322.5 65.5v243zM247 301q96 0 164.5 -68.5t68.5 -164.5t-68.5 -164t-164.5 -68t-164 68t-68 164t68 164.5t164 68.5z" />
    <glyph glyph-name="glyph65" unicode="&#x1f50d;" horiz-adv-x="1648" 
d="M1597 54q30 -30 35 -62t-22 -62l-96 -97q-28 -29 -69 -29t-69 29l-389 390q-149 -87 -319 -87q-129 0 -249.5 53t-209 141.5t-141.5 209t-53 249.5q0 172 84.5 318t230.5 231t318 85t323 -89.5t241 -240.5t90 -323q0 -177 -92 -329zM210 789q0 -119 63.5 -225
t169.5 -169.5t225 -63.5t220 59t160 160t59 220t-64 225t-170 169.5t-225 63.5q-181 0 -309.5 -128.5t-128.5 -310.5z" />
    <glyph glyph-name="glyph66" unicode="&#x1f50e;" horiz-adv-x="1873" 
d="M1665 1343q62 -62 107.5 -133.5t66 -133.5t19.5 -112.5t-27 -76.5l-276 -276q-34 -34 -128.5 -54t-195.5 -8l-836 -836q-38 -37 -116.5 -10.5t-152.5 100.5t-100.5 152.5t10.5 116.5l836 836q-12 101 8 195.5t54 128.5l276 276q26 26 76.5 27.5t112 -19t133 -66
t133.5 -107.5zM746 507q29 -28 77.5 -20t88.5 48t48 88.5t-20 77.5q-29 28 -77.5 20t-88.5 -48t-48 -88.5t20 -77.5zM1437 1115q60 -60 137.5 -100t127 -51t56.5 -4t-6 54.5t-54.5 123t-101.5 135.5t-135.5 102t-123 54.5t-54.5 5.5q-1 -4 -2 -14.5t4 -31t11.5 -43.5t20 -53
t29.5 -58.5t40 -60.5t51 -59z" />
    <glyph glyph-name="glyph67" unicode="&#x2699;" horiz-adv-x="1750" 
d="M1570 614q0 -153 165 -250q-26 -88 -71 -171q-147 39 -277 -91q-113 -113 -70 -277q-83 -45 -171 -71q-44 75 -117.5 120t-153.5 45t-153 -45t-117 -120q-90 27 -172 71q43 164 -70 277t-277 70q-45 83 -71 171q75 44 120 117.5t45 153.5q0 153 -165 250q26 88 71 171
q147 -39 277 91q113 113 70 277q82 44 172 71q44 -75 117 -120t153 -45t153.5 45t117.5 120q88 -26 171 -71q-43 -164 70 -277q130 -130 277 -91q45 -83 71 -171q-165 -97 -165 -250zM875 240q155 0 264.5 109.5t109.5 264.5t-109.5 264.5t-264.5 109.5t-264.5 -109.5
t-109.5 -264.5t109.5 -264.5t264.5 -109.5z" />
    <glyph glyph-name="glyph68" unicode="&#xe01c;" horiz-adv-x="1668" 
d="M1346 307q127 0 217 -90t90 -218q0 -127 -89.5 -217t-217.5 -90t-217.5 90t-89.5 217q0 30 4 51l-534 320q-82 -63 -187 -63q-128 0 -217.5 89.5t-89.5 217.5t89.5 217.5t217.5 89.5q104 0 187 -64l534 321q-4 21 -4 50q0 128 89.5 217.5t217.5 89.5t217.5 -89.5
t89.5 -217.5t-89.5 -217.5t-217.5 -89.5q-104 0 -187 64l-534 -321q4 -21 4 -50t-4 -50l534 -321q83 64 187 64z" />
    <glyph glyph-name="glyph69" unicode="&#xe000;" horiz-adv-x="1791" 
d="M1727 1262q58 -50 48 -122l-199 -1328q-8 -24 -32 -41t-49 -17h-1199q-25 0 -49 17t-32 41q-190 1272 -198 1328q-10 72 47 122q15 13 112.5 88.5t113.5 89.5q39 34 113 34h985q74 0 113 -34q16 -14 113.5 -89.5t112.5 -88.5zM896 371q54 0 101.5 17t83.5 43t68 66.5
t53.5 77.5t40.5 87.5t30 85t21 81t13 64.5t7 46h-188q-76 -383 -230 -383q-49 0 -89.5 38t-68 102.5t-44 121t-29.5 121.5h-188l10.5 -63t21 -91t35 -111.5t52.5 -108t74 -100t99 -67t127 -27.5zM175 1126h1441l-226 235h-989z" />
    <glyph glyph-name="glyph70" unicode="&#x1f500;" 
d="M1561 954q-49 0 -96.5 -12.5t-85.5 -29.5t-82 -52.5t-73 -62.5t-73.5 -79.5t-69 -84t-72.5 -94.5q-42 -55 -64.5 -84t-65.5 -81.5t-72 -82t-75.5 -73.5t-84 -69t-89.5 -55t-100.5 -45.5t-107.5 -26.5t-121 -11h-214v287h214q49 0 96.5 12.5t85.5 29.5t82 52.5t73 62.5
t73.5 79.5t69 84t72.5 94.5q42 55 64.5 84t65.5 81t72.5 82t75.5 73.5t84 69t89 55t100 45t108 26.5t121 11h72v245l430 -369l-430 -369v207h-72zM746 1000q-14 -18 -177 -227q-163 160 -340 160h-214v287h214q281 0 517 -220zM1025 229q49 57 178 227q84 -86 170 -132
t188 -46h72v204l430 -368l-430 -369v246h-72q-293 0 -536 238z" />
    <glyph glyph-name="glyph71" unicode="&#x263d;" horiz-adv-x="1709" 
d="M1087 386q142 142 209 328.5t50.5 380t-111.5 363.5q108 -60 197 -149q129 -129 196 -296.5t67 -337.5t-67 -337.5t-196 -296.5t-297 -196t-337.5 -67t-337.5 67t-297 196q-88 88 -148 196q170 -95 363.5 -111t380 51t328.5 209z" />
    <glyph glyph-name="glyph72" unicode="&#x2605;" horiz-adv-x="1832" 
d="M916 1515l245 -688h656l-535 -405l191 -709l-557 425l-557 -425l192 709l-536 405h657z" />
    <glyph glyph-name="glyph73" unicode="&#x2606;" horiz-adv-x="1832" 
d="M1817 827l-535 -405l191 -709l-557 425l-557 -425l192 709l-536 405h657l244 688l245 -688h656zM916 339l309 -256l-128 365l292 235l-360 -10l-113 414l-112 -414l-361 10l292 -235l-127 -365z" />
    <glyph glyph-name="glyph74" unicode="&#x1f554;" horiz-adv-x="1914" 
d="M957 1556q192 0 366 -74.5t300.5 -201t201 -300.5t74.5 -366t-74.5 -366t-201 -300.5t-300.5 -201t-366 -74.5t-366 74.5t-300.5 201t-201 300.5t-74.5 366t74.5 366t201 300.5t300.5 201t366 74.5zM957 -123q150 0 286.5 58.5t235 157t157 235t58.5 286.5t-58.5 286.5
t-157 235t-235 157t-286.5 58.5t-286.5 -58.5t-235 -157t-157 -235t-58.5 -286.5t58.5 -286.5t157 -235t235 -157t286.5 -58.5zM1029 1146v-502l306 -307l-101 -101l-349 348v562h144z" />
    <glyph glyph-name="glyph75" unicode="&#x23f3;" horiz-adv-x="1177" 
d="M1162 1169q0 -61 -41 -126t-99.5 -120.5t-116.5 -108t-99 -105.5t-41 -95t41 -95t99 -105.5t116.5 -108t99.5 -120.5t41 -126v-241q0 -31 -46 -70t-121 -74.5t-184.5 -59.5t-222.5 -24t-222.5 24t-184 59.5t-120.5 74.5t-46 70v241q0 61 41 126t99.5 120.5t116.5 108
t99 105.5t41 95t-41 95t-99 105.5t-116.5 108t-99.5 120.5t-41 126v241q0 31 46 70t120.5 74.5t184 59.5t222.5 24t222.5 -24t184.5 -59.5t121 -74.5t46 -70v-241zM173 1399l-24 -16q-29 -24 -3 -40q76 -45 192 -77.5t250 -32.5q136 0 256.5 30.5t192.5 73.5q8 5 11.5 10
t1.5 10.5t-5 10.5t-10 10.5t-11 8.5t-11.5 7.5t-8.5 4.5q-8 5 -22.5 12t-59.5 26.5t-91 34t-111.5 26.5t-125.5 12q-246 0 -421 -111zM640 614q0 25 5 49t18.5 47.5t24.5 41t35 43t37.5 39t45 43.5t44.5 43q43 42 64.5 64.5t56 61t50.5 69t16 54.5l5 102
q-87 -47 -206.5 -78.5t-247.5 -31.5t-247 31.5t-206 78.5l5 -102q0 -24 16 -54.5t50.5 -69t56 -61t64.5 -64.5q13 -13 44.5 -43t45 -43.5t37.5 -39t35 -43t24.5 -41t18.5 -47.5t5 -49t-5 -49t-18.5 -47.5t-24.5 -41t-35 -43t-37.5 -39t-45 -43.5t-44.5 -43
q-43 -42 -64.5 -64.5t-56 -61t-50.5 -69t-16 -54.5v-136q20 10 63 25t84 28t88 33.5t81.5 43t57.5 55.5t23 71t25.5 53.5t51.5 0t26 -53.5t23 -71t57.5 -55.5t81.5 -43t88 -33.5t84 -28t63 -25v136q0 24 -16 54.5t-50.5 69t-56 61t-64.5 64.5q-13 13 -44.5 43t-45 43.5
t-37.5 39t-35 43t-24.5 41t-18.5 47.5t-5 49z" />
    <glyph glyph-name="glyph76" unicode="&#x1f3c9;" horiz-adv-x="1873" 
d="M1057 168v-134q146 -16 240.5 -65.5t94.5 -112.5q0 -76 -133 -130t-322 -54t-322.5 54t-133.5 130q0 63 94.5 112.5t240.5 65.5v134q0 44 -14.5 83t-35.5 69t-64 67t-80 63t-103 70q-92 61 -141.5 97t-130 111.5t-123 147t-76 182t-33.5 236.5q0 30 21 51t51 21h352
q43 80 167 135t331 55t330.5 -55t166.5 -135h352q30 0 51 -21t21 -51q0 -126 -33.5 -236.5t-76 -182t-123 -147t-130 -111.5t-141.5 -97q-66 -44 -103 -70t-80 -63t-64 -67t-35.5 -69t-14.5 -83zM1342 686q78 53 131.5 98t108.5 110t87 147.5t41 181.5h-257
q-9 -321 -111 -537zM937 1430q-80 0 -147.5 -12t-110.5 -30.5t-74 -40.5t-44 -40.5t-13 -32.5t13 -33t43.5 -41t74 -40.5t111 -30.5t147.5 -12t147.5 12t111 30.5t74 40.5t43.5 41t13 33t-13 32.5t-44 40.5t-74 40.5t-110.5 30.5t-147.5 12zM163 1223q9 -99 41 -181.5
t87 -147.5t108.5 -110t131.5 -98q-102 216 -111 537h-257z" />
    <glyph glyph-name="glyph77" unicode="&#x1f513;" horiz-adv-x="1464" 
d="M1326 819q43 0 83 -40t40 -83v-799q0 -42 -29 -81.5t-69 -52.5l-122 -39q-102 -32 -200 -32h-594q-98 0 -200 32l-123 39q-40 13 -68.5 52.5t-28.5 81.5v799q0 45 30.5 84t71.5 39h820v286q0 109 -55.5 167.5t-149.5 58.5t-149.5 -58.5t-55.5 -167.5v-82h-205v41
q0 226 104 348.5t306 122.5t305.5 -122.5t103.5 -348.5v-245h185z" />
    <glyph glyph-name="glyph78" unicode="&#xe01d;" 
d="M1039 1187q138 0 268 -27.5t229.5 -72.5t187 -101t148.5 -113.5t105 -110.5t65 -91.5t21 -56.5t-21 -56.5t-65 -91.5t-105 -110.5t-148.5 -114t-187 -101.5t-229.5 -72.5t-268 -27.5t-268 27.5t-229.5 72.5t-187 101.5t-148.5 114t-105 110.5t-65 91.5t-21 56.5t21 56.5
t65 91.5t105 110.5t148.5 113.5t187 101t229.5 72.5t268 27.5zM1039 173q188 0 321.5 129t133.5 312t-133.5 312t-321.5 129t-321.5 -129t-133.5 -312t133.5 -312t321.5 -129zM1039 614q12 -12 37 -9.5t58 9t62.5 13.5t50 5t20.5 -18q0 -92 -67 -156.5t-161 -64.5t-161 64.5
t-67 156.5q0 91 66.5 155.5t161.5 64.5q19 0 22 -18.5t-5 -45.5t-15.5 -58.5t-11 -57t9.5 -40.5z" />
    <glyph glyph-name="glyph79" unicode="&#x26a0;" horiz-adv-x="1996" 
d="M1972 -152q22 -38 -2 -71.5t-60 -33.5h-1824q-36 0 -60 33.5t-2 71.5l912 1601q21 35 62 35t62 -35zM1122 -52v205h-248v-205h248zM1122 307v614h-248v-614h248z" />
    <glyph glyph-name="glyph80" unicode="&#x2703;" horiz-adv-x="1627" 
d="M1486 1286q41 -41 69.5 -83t39 -72.5t15 -54.5t2.5 -36l-1 -13l-1108 -1108l-488 -104l103 488q185 185 554.5 554t554.5 554q5 1 13 1.5t35.5 -3.5t56 -15t71 -39t83.5 -69zM474 -23l48 48q0 4 -1 10.5t-6.5 28t-15.5 43t-31 52t-50 59.5q-45 45 -93.5 71t-74.5 29
l-25 4l-48 -48l-36 -166q54 -29 96 -71q40 -40 70 -96z" />
    <glyph glyph-name="glyph81" unicode="&#xe01e;" horiz-adv-x="2037" 
d="M1732 1126v-103h-1427v103q0 45 25.5 70.5t51.5 28.5l25 3h1223q4 0 11 -0.5t24.5 -6t31 -15t24.5 -30.5t11 -50zM1426 1433q4 0 11 -0.5t24.5 -6t31 -15t24.5 -30.5t11 -50h-1019q0 45 25.5 70.5t51.5 28.5l25 3h815zM1936 1023q8 -8 27.5 -26.5t25.5 -25.5t17 -24
t13 -32t2 -40t-6 -56q-14 -74 -83.5 -483.5t-74.5 -438.5q-8 -46 -39.5 -71.5t-58.5 -27.5l-27 -3h-1427q-4 0 -11.5 0.5t-26.5 5.5t-35 14.5t-31.5 31t-20.5 50.5t-74.5 438.5t-83.5 483.5q-6 31 -6 56t2 40t13 32t17 24t25.5 25.5t27.5 26.5l60 61v-163h1715v163z
M1426 471v204h-143v-164h-529v164h-143v-204v-6t2 -14.5t5.5 -20t11.5 -21.5t18 -20.5t27 -14.5t38 -6h611q45 0 70.5 26t28.5 52z" />
    <glyph glyph-name="glyph82" unicode="&#xe020;" horiz-adv-x="1914" 
d="M957 1556q192 0 366 -74.5t300.5 -201t201 -300.5t74.5 -366t-74.5 -366t-201 -300.5t-300.5 -201t-366 -74.5t-366 74.5t-300.5 201t-201 300.5t-74.5 366t74.5 366t201 300.5t300.5 201t366 74.5zM957 -123q150 0 286.5 58.5t235 157t157 235t58.5 286.5t-58.5 286.5
t-157 235t-235 157t-286.5 58.5t-286.5 -58.5t-235 -157t-157 -235t-58.5 -286.5t58.5 -286.5t157 -235t235 -157t286.5 -58.5zM1141 1008v-419h231l-415 -390l-415 390h231v419h368z" />
    <glyph glyph-name="glyph83" unicode="&#xe021;" horiz-adv-x="1914" 
d="M1899 614q0 -192 -74.5 -366t-201 -300.5t-300.5 -201t-366 -74.5t-366 74.5t-300.5 201t-201 300.5t-74.5 366t74.5 366t201 300.5t300.5 201t366 74.5t366 -74.5t300.5 -201t201 -300.5t74.5 -366zM220 614q0 -150 58.5 -286.5t157 -235t235 -157t286.5 -58.5
t286.5 58.5t235 157t157 235t58.5 286.5t-58.5 286.5t-157 235t-235 157t-286.5 58.5t-286.5 -58.5t-235 -157t-157 -235t-58.5 -286.5zM1351 430h-419v-231l-390 415l390 415v-231h419v-368z" />
    <glyph glyph-name="glyph84" unicode="&#xe022;" horiz-adv-x="1914" 
d="M15 614q0 192 74.5 366t201 300.5t300.5 201t366 74.5t366 -74.5t300.5 -201t201 -300.5t74.5 -366t-74.5 -366t-201 -300.5t-300.5 -201t-366 -74.5t-366 74.5t-300.5 201t-201 300.5t-74.5 366zM1694 614q0 150 -58.5 286.5t-157 235t-235 157t-286.5 58.5
t-286.5 -58.5t-235 -157t-157 -235t-58.5 -286.5t58.5 -286.5t157 -235t235 -157t286.5 -58.5t286.5 58.5t235 157t157 235t58.5 286.5zM563 798h419v231l390 -415l-390 -415v231h-419v368z" />
    <glyph glyph-name="glyph85" unicode="&#xe023;" horiz-adv-x="1914" 
d="M957 -328q-192 0 -366 74.5t-300.5 201t-201 300.5t-74.5 366t74.5 366t201 300.5t300.5 201t366 74.5t366 -74.5t300.5 -201t201 -300.5t74.5 -366t-74.5 -366t-201 -300.5t-300.5 -201t-366 -74.5zM957 1351q-150 0 -286.5 -58.5t-235 -157t-157 -235t-58.5 -286.5
t58.5 -286.5t157 -235t235 -157t286.5 -58.5t286.5 58.5t235 157t157 235t58.5 286.5t-58.5 286.5t-157 235t-235 157t-286.5 58.5zM773 220v418h-231l415 391l415 -391h-231v-418h-368z" />
    <glyph glyph-name="glyph86" unicode="&#xe024;" horiz-adv-x="1218" 
d="M1170 761l-480 -461q-33 -34 -81 -34t-81 34q-439 418 -481 461q-32 33 -32.5 81.5t32.5 83.5q34 35 77 35.5t85 -35.5l400 -383l400 383q42 36 84.5 35.5t76.5 -35.5q33 -35 32.5 -83.5t-32.5 -81.5z" />
    <glyph glyph-name="glyph87" unicode="&#xe025;" horiz-adv-x="726" 
d="M510 1175q33 32 82 32.5t84 -32.5q35 -34 35.5 -76.5t-35.5 -84.5l-384 -400l384 -400q36 -42 35.5 -85t-35.5 -77q-35 -33 -84 -32.5t-82 32.5l-461 481q-34 33 -34 81t34 81q418 438 461 480z" />
    <glyph glyph-name="glyph88" unicode="&#xe026;" horiz-adv-x="726" 
d="M216 1175l461 -480q34 -33 34 -81t-34 -81q-418 -439 -461 -481q-33 -32 -81.5 -32.5t-83.5 32.5q-35 34 -35.5 77t35.5 85l383 400l-383 400q-36 42 -35.5 84.5t35.5 76.5q35 33 83.5 32.5t81.5 -32.5z" />
    <glyph glyph-name="glyph89" unicode="&#xe027;" horiz-adv-x="1218" 
d="M1170 467q32 -33 32.5 -82t-32.5 -84q-34 -35 -76.5 -35.5t-84.5 35.5l-400 384l-400 -384q-42 -36 -85 -35.5t-77 35.5q-33 35 -32.5 84t32.5 82l481 461q33 34 81 34t81 -34q438 -418 480 -461z" />
    <glyph glyph-name="glyph90" unicode="&#x2b07;" horiz-adv-x="1054" 
d="M1039 100l-512 -490l-512 490h330v1517h364v-1517h330z" />
    <glyph glyph-name="glyph91" unicode="&#x2b05;" horiz-adv-x="2037" 
d="M505 102l-490 512l490 512v-330h1517v-364h-1517v-330z" />
    <glyph glyph-name="glyph92" unicode="&#x27a1;" horiz-adv-x="2037" 
d="M1532 102v330h-1517v364h1517v330l490 -512z" />
    <glyph glyph-name="glyph93" unicode="&#x2b06;" horiz-adv-x="1054" 
d="M1039 1128h-330v-1518h-364v1518h-330l512 489z" />
    <glyph glyph-name="glyph94" unicode="&#x25be;" horiz-adv-x="972" 
d="M957 1023l-471 -819l-471 819h942z" />
    <glyph glyph-name="glyph95" unicode="&#x25c2;" horiz-adv-x="849" 
d="M834 1085v-942l-819 471z" />
    <glyph glyph-name="glyph96" unicode="&#x25b8;" horiz-adv-x="849" 
d="M15 1085l819 -471l-819 -471v942z" />
    <glyph glyph-name="glyph97" unicode="&#x25b4;" horiz-adv-x="972" 
d="M15 204l471 819l471 -819h-942z" />
    <glyph glyph-name="glyph98" unicode="&#xe4b0;" horiz-adv-x="1586" 
d="M1571 643l-778 -777l-778 777h391v718h774v-718h391z" />
    <glyph glyph-name="glyph99" unicode="&#xe4ad;" horiz-adv-x="1525" 
d="M791 -164l-776 778l777 778l-1 -391h719v-774l-718 1z" />
    <glyph glyph-name="glyph100" unicode="&#xe4ae;" horiz-adv-x="1525" 
d="M734 1392l776 -778l-777 -778l1 391h-719v773h718z" />
    <glyph glyph-name="glyph101" unicode="&#xe4af;" horiz-adv-x="1586" 
d="M1571 585h-391v-719h-774v719h-391l778 776z" />
    <glyph glyph-name="glyph102" unicode="&#x2193;" horiz-adv-x="1382" 
d="M1367 643l-676 -777l-676 777h391v718h569v-718h392z" />
    <glyph glyph-name="glyph103" unicode="&#x2190;" horiz-adv-x="1525" 
d="M791 -62l-776 676l777 676l-1 -391h719v-569h-718z" />
    <glyph glyph-name="glyph104" unicode="&#x2192;" horiz-adv-x="1525" 
d="M734 1290l776 -676l-777 -676l1 391h-719v569h718z" />
    <glyph glyph-name="glyph105" unicode="&#x2191;" horiz-adv-x="1382" 
d="M1367 585h-392v-719h-569v719h-391l676 776z" />
    <glyph glyph-name="glyph106" unicode="&#xe030;" 
d="M1858 1126q85 0 145 -60t60 -145v-614q0 -85 -60 -145t-145 -60h-1638q-85 0 -145 60t-60 145v614q0 85 60 145t145 60h1638zM1858 307v614h-1638v-614h1638z" />
    <glyph glyph-name="glyph107" unicode="&#xe031;" 
d="M1858 1126q85 0 145 -60t60 -145v-614q0 -85 -60 -145t-145 -60h-1638q-85 0 -145 60t-60 145v614q0 85 60 145t145 60h1638zM1858 307v614h-1638v-614h1638zM732 819v-410h-410v410h410z" />
    <glyph glyph-name="glyph108" unicode="&#xe032;" 
d="M1858 1126q85 0 145 -60t60 -145v-614q0 -85 -60 -145t-145 -60h-1638q-85 0 -145 60t-60 145v614q0 85 60 145t145 60h1638zM1858 307v614h-1638v-614h1638zM1244 819v-410h-410v410h410zM732 819v-410h-410v410h410z" />
    <glyph glyph-name="glyph109" unicode="&#xe033;" 
d="M1858 1126q85 0 145 -60t60 -145v-614q0 -85 -60 -145t-145 -60h-1638q-85 0 -145 60t-60 145v614q0 85 60 145t145 60h1638zM1858 307v614h-1638v-614h1638zM1756 819v-410h-410v410h410zM732 819v-410h-410v410h410zM1244 819v-410h-410v410h410z" />
    <glyph glyph-name="glyph110" unicode="&#x25b6;" horiz-adv-x="1054" 
d="M1008 666q31 -21 31 -52q0 -14 -7.5 -27t-15.5 -19l-8 -7l-877 -543q-48 -31 -82 -11t-34 80v1054q0 60 34 80t82 -11z" />
    <glyph glyph-name="glyph111" unicode="&#x25aa;" horiz-adv-x="1259" 
d="M1090 1228q80 0 117 -29.5t37 -103.5v-962q0 -74 -37 -104t-117 -30h-921q-80 0 -117 30t-37 104v962q0 74 37 103.5t117 29.5h921z" />
    <glyph glyph-name="glyph112" unicode="&#x2389;" horiz-adv-x="1115" 
d="M916 1331q184 0 184 -133v-1168q0 -133 -184 -133t-184 133v1168q0 133 184 133zM199 1331q185 0 185 -133v-1168q0 -133 -185 -133q-184 0 -184 133v1168q0 133 184 133z" />
    <glyph glyph-name="glyph113" unicode="&#x26ab;" horiz-adv-x="1464" 
d="M732 1331q146 0 278.5 -57t228.5 -153t153 -228.5t57 -278.5t-57 -278.5t-153 -228.5t-228.5 -153t-278.5 -57t-278.5 57t-228.5 153t-153 228.5t-57 278.5t57 278.5t153 228.5t228.5 153t278.5 57z" />
    <glyph glyph-name="glyph114" unicode="&#x23ed;" horiz-adv-x="1259" 
d="M860 659q27 -19 27 -45q0 -12 -6.5 -23t-13.5 -17l-7 -5l-745 -468q-41 -27 -70.5 -10t-29.5 69v908q0 52 29.5 69t70.5 -10zM1090 1208q154 0 154 -119v-951q0 -64 -40 -91t-114 -27t-113.5 26.5t-39.5 91.5v951q0 65 39.5 92t113.5 27z" />
    <glyph glyph-name="glyph115" unicode="&#x23ee;" horiz-adv-x="1259" 
d="M372 614q0 12 7 23t13 17l7 5l745 468q41 27 70.5 10t29.5 -69v-908q0 -52 -29.5 -69t-70.5 10l-745 468q-27 19 -27 45zM15 1089q0 119 154 119q74 0 113.5 -27t39.5 -92v-951q0 -65 -39.5 -91.5t-113.5 -26.5t-114 27t-40 91v951z" />
    <glyph glyph-name="glyph116" unicode="&#x23e9;" horiz-adv-x="1832" 
d="M1789 663q28 -20 28 -49q0 -13 -7 -25t-14 -18l-7 -6l-765 -507q-44 -29 -75 -10.5t-31 74.5v984q0 56 31 74.5t75 -10.5zM859 663q29 -20 29 -49q0 -13 -7 -25t-15 -18l-7 -6l-737 -507q-44 -29 -75.5 -10.5t-31.5 74.5v984q0 56 31.5 74.5t75.5 -10.5z" />
    <glyph glyph-name="glyph117" unicode="&#x23ea;" horiz-adv-x="1832" 
d="M15 614q0 13 7 25t14 18l8 6l764 507q44 29 75 10.5t31 -74.5v-984q0 -56 -31 -74.5t-75 10.5l-764 507q-29 20 -29 49zM944 614q0 13 7 25t15 18l7 6l738 507q44 29 75 10.5t31 -74.5v-984q0 -56 -31 -74.5t-75 10.5l-738 507q-29 20 -29 49z" />
    <glyph glyph-name="glyph118" unicode="&#x1f4d6;" horiz-adv-x="1873" 
d="M711 381v-138l-409 164v138zM711 807v-139l-409 164v139zM1718 1528q53 21 96.5 -12t43.5 -83v-1311q0 -31 -17.5 -57t-46.5 -38l-818 -327q-24 -8 -39 -8q-16 0 -40 8l-818 327q-29 12 -46.5 38t-17.5 57v1311q0 50 43.5 83t96.5 12l782 -312zM834 -98v1147l-655 263
v-1148zM1694 164v1148l-655 -263v-1147zM1572 545v-138l-410 -164v138zM1572 971v-139l-410 -164v139z" />
    <glyph glyph-name="glyph119" unicode="&#x1f516;" horiz-adv-x="767" 
d="M650 1535q43 0 72.5 -29.5t29.5 -72.5v-1741l-368 369l-369 -369v1741q0 45 20.5 73.5t61.5 28.5h553z" />
    <glyph glyph-name="glyph120" unicode="&#x1f50b;" 
d="M1593 614q0 -198 74 -320t159 -122h135q-24 -38 -41.5 -60.5t-47.5 -46.5t-66 -36.5t-91 -21t-129 -8.5h-1025q-110 0 -203 39t-155 102t-105.5 144.5t-63 165t-19.5 164.5t19.5 164.5t63 165t105.5 144t155 101.5t203 39h1025q91 0 153 -10.5t103.5 -36t65 -52
t53.5 -73.5h-135q-85 0 -159 -122t-74 -320zM1120 560q19 25 15 43q-5 20 -34.5 35t-118.5 44q-6 2 -17.5 6t-15.5 5q17 33 61.5 113.5t57.5 106.5q19 36 24 50t2 26.5t-20 23.5h-10q-8 0 -18 -5t-53.5 -41.5t-121.5 -108.5q-164 -150 -196 -198q-14 -21 -7 -39
q7 -17 33.5 -29.5t105.5 -39.5q33 -11 47 -16q-10 -21 -68 -126q-75 -136 -78 -146q-5 -14 1 -35q1 -3 2 -5l19 -9h7q8 0 17 4.5t50.5 39t116.5 103.5q154 142 199 198zM1948 826q45 0 80 -56.5t35 -146.5t-35 -146t-80 -56h-77q-45 0 -79 56t-34 146q0 91 34 147t79 56h77z
" />
    <glyph glyph-name="glyph121" unicode="&#xe040;" horiz-adv-x="1955" 
d="M1103 1454q170 0 325 -66.5t267 -179t178.5 -268t66.5 -326.5t-66.5 -326.5t-178.5 -268t-267 -179t-325 -66.5q-289 0 -515 178l144 154q165 -122 371 -122q171 0 315.5 84.5t228.5 229.5t84 316t-84 316t-228.5 229.5t-315.5 84.5q-125 0 -239.5 -48t-198 -129.5
t-134.5 -194t-55 -237.5h292l-376 -420l-377 420h252q4 167 71.5 319t179.5 261.5t264.5 174t320.5 64.5zM1029 1064h143v-420l266 -266l-102 -102l-307 308v480z" />
    <glyph glyph-name="glyph122" unicode="&#x2302;" horiz-adv-x="1873" 
d="M1835 583q31 -33 21 -56t-56 -23h-171v-632q0 -21 -1.5 -32.5t-7.5 -25t-19.5 -19t-36.5 -5.5h-419v633h-417v-633h-399q-30 0 -47.5 5.5t-25 19t-9.5 24.5t-2 33v632h-172q-46 0 -56 23t22 56l821 823q32 33 77 33t76 -33z" />
    <glyph glyph-name="glyph123" unicode="&#xe050;" horiz-adv-x="481" 
d="M240 839q93 0 159.5 -66t66.5 -159t-66.5 -159t-159.5 -66t-159 66t-66 159t66 159t159 66z" />
    <glyph glyph-name="glyph124" unicode="&#xe051;" horiz-adv-x="1197" 
d="M240 839q93 0 159.5 -66t66.5 -159t-66.5 -159t-159.5 -66t-159 66t-66 159t66 159t159 66zM957 839q93 0 159 -66t66 -159t-66 -159t-159 -66t-159 66t-66 159t66 159t159 66z" />
    <glyph glyph-name="glyph125" unicode="&#xe052;" horiz-adv-x="1914" 
d="M240 839q93 0 159.5 -66t66.5 -159t-66.5 -159t-159.5 -66t-159 66t-66 159t66 159t159 66zM957 839q93 0 159 -66t66 -159t-66 -159t-159 -66t-159 66t-66 159t66 159t159 66zM1674 839q93 0 159 -66t66 -159t-66 -159t-159 -66t-159 66t-66 159t66 159t159 66z" />
    <glyph glyph-name="glyph126" unicode="&#x1f4a1;" horiz-adv-x="1341" 
d="M953 20h-543q0 90 -23.5 174t-60.5 151.5t-81 133t-87 130t-77.5 131t-52.5 148.5t-11 170q7 87 30 165.5t73 156t121.5 133.5t181.5 90.5t247 34.5t247 -34.5t182 -90.5t121.5 -133.5t73 -156t30.5 -165.5q7 -88 -10 -170.5t-49.5 -150.5t-73 -133.5t-82.5 -132
t-77 -133t-57 -149t-22 -169.5zM399 -325v202h542v-202q-130 -89 -271 -85q-141 -4 -271 85z" />
    <glyph glyph-name="glyph127" unicode="&#x1f505;" horiz-adv-x="1464" 
d="M732 942q136 0 231.5 -95.5t95.5 -232.5t-95.5 -232.5t-231.5 -95.5t-232 96t-96 232t96 232t232 96zM732 404q87 0 148.5 61.5t61.5 148.5t-61.5 148.5t-148.5 61.5t-148.5 -61.5t-61.5 -148.5t61.5 -148.5t148.5 -61.5zM117 696q42 0 71.5 -24t29.5 -58t-29.5 -58
t-71.5 -24q-43 0 -72.5 24t-29.5 58t29.5 58t72.5 24zM1234 1116q24 -24 20 -62t-34 -68t-68 -34t-62 20t-20 62t34 68t68 34t62 -20zM1346 696q43 0 73 -24t30 -58t-30 -58t-73 -24q-42 0 -71 24t-29 58t29 58t71 24zM732 102q34 0 58 -30t24 -73t-24 -72.5t-58 -29.5
t-58 29.5t-24 72.5t24 73t58 30zM244 231q30 30 68 34.5t62 -19.5t20 -62t-34 -68t-68.5 -34.5t-62.5 19.5t-19.5 62t34.5 68zM224 1111q24 24 62.5 20t68.5 -34t34 -68.5t-20 -62.5t-62 -19.5t-68 34.5t-34.5 68t19.5 62zM1109 121q-30 30 -34 68t20 62t62 20t68 -34
t34 -68.5t-20 -62.5t-62 -19.5t-68 34.5zM732 1126q-34 0 -58 29.5t-24 72.5t24 73t58 30t58 -30t24 -73t-24 -72.5t-58 -29.5z" />
    <glyph glyph-name="glyph128" unicode="&#x1f506;" 
d="M1961 696q43 0 72.5 -24t29.5 -58t-29.5 -58t-72.5 -24h-101q-43 0 -72.5 24t-29.5 58t29.5 58t72.5 24h101zM1039 1177q115 0 219.5 -44.5t179.5 -119.5t119.5 -179.5t44.5 -219.5t-44.5 -219.5t-119.5 -179.5t-179.5 -119.5t-219.5 -44.5t-219.5 44.5t-179.5 119.5
t-119.5 179.5t-44.5 219.5t44.5 219.5t119.5 179.5t179.5 119.5t219.5 44.5zM1039 204q169 0 289.5 120t120.5 290q0 169 -120 289t-290 120t-290 -120t-120 -289q0 -170 120.5 -290t289.5 -120zM320 614q0 -34 -29 -58t-71 -24h-103q-43 0 -72.5 24t-29.5 58t29.5 58
t72.5 24h103q42 0 71 -24t29 -58zM1039 1331q-34 0 -58 29.5t-24 72.5v102q0 43 24 73t58 30t58 -30t24 -73v-102q0 -43 -24 -72.5t-58 -29.5zM1039 -103q34 0 58 -29.5t24 -72.5v-103q0 -43 -24 -72.5t-58 -29.5t-58 29.5t-24 72.5v103q0 43 24 72.5t58 29.5zM1793 1252
l-71 -71q-30 -30 -68.5 -34.5t-62.5 19.5t-19.5 62t34.5 68l36 36t35 36q30 30 68.5 34.5t62.5 -19.5t19.5 -62.5t-34.5 -68.5zM356 47q30 30 68.5 34.5t62.5 -19.5t19.5 -62.5t-34.5 -68.5l-71 -71q-30 -30 -68.5 -34.5t-62.5 19.5t-19.5 62t34.5 68q5 5 35.5 36t35.5 36z
M401 1368q5 -6 35.5 -36t35.5 -36q30 -30 34.5 -68t-19.5 -62t-62.5 -19.5t-68.5 34.5l-71 71q-30 30 -34.5 68.5t19.5 62.5t62.5 19.5t68.5 -34.5zM1606 -69q-30 30 -34.5 68.5t19.5 62.5t62.5 19.5t68.5 -34.5q6 -5 36 -36t35 -36q30 -30 34.5 -68t-19.5 -62t-62.5 -19.5
t-68.5 34.5z" />
    <glyph glyph-name="glyph129" unicode="&#xe0da;" horiz-adv-x="1423" 
d="M711 1454q127 0 241.5 -16t197.5 -42.5t144 -60.5t89.5 -71t23.5 -72l-148 -1215q-2 -19 -44 -51.5t-110.5 -67t-175 -59.5t-218.5 -25t-218.5 25t-175 59.5t-110.5 67t-44 51.5l-147 1215q-6 44 41.5 90t135 84.5t224 63t294.5 24.5zM711 1014q91 0 179.5 12t153 31
t114.5 40.5t75.5 41t25.5 32.5t-25.5 32.5t-75.5 41t-114.5 40.5t-153 31t-179.5 12t-179.5 -12t-153 -31t-114.5 -40.5t-75.5 -41t-25.5 -32.5t25.5 -32.5t75.5 -41t114.5 -40.5t153 -31t179.5 -12z" />
    <glyph glyph-name="glyph130" unicode="&#xe048;" horiz-adv-x="1464" 
d="M1244 1535q85 0 145 -59.5t60 -144.5v-1434q0 -85 -60 -145t-145 -60h-1024q-85 0 -145 60t-60 145v1434q0 85 60 144.5t145 59.5h1024zM1244 -103v1434h-1024v-1434h1024z" />
    <glyph glyph-name="glyph131" unicode="&#xe049;" horiz-adv-x="1464" 
d="M1346 1126q42 0 72.5 -30.5t30.5 -72.5v-1228q0 -42 -30.5 -72.5t-72.5 -30.5h-819q-42 0 -72 30.5t-30 72.5v307h-308q-42 0 -72 30t-30 72v1229q0 42 30 72t72 30h820q42 0 72 -30t30 -72v-307h307zM220 307h205v719q0 42 29 71t71 29h309v205h-614v-1024zM1244 -103
v1024h-615v-1024h615z" />
    <glyph glyph-name="glyph132" unicode="&#xe04a;" 
d="M15 1126q0 85 60 145t145 60h1638q85 0 145 -60t60 -145v-1024q0 -85 -60 -145t-145 -60h-1638q-85 0 -145 60t-60 145v1024zM1858 1126h-1638v-1024h1638v1024z" />
    <glyph glyph-name="glyph133" unicode="&#x1f4c4;" horiz-adv-x="1464" 
d="M447 525v184h574v-184h-574zM1244 1535q85 0 145 -59.5t60 -144.5v-1434q0 -85 -60 -145t-145 -60h-1024q-85 0 -145 60t-60 145v1434q0 85 60 144.5t145 59.5h1024zM1244 -103v1434h-1024v-1434h1024zM1019 1109v-180h-574v180h574zM1019 305v-180h-574v180h574z" />
    <glyph glyph-name="glyph134" unicode="&#x1f507;" horiz-adv-x="1835" 
d="M1790 1487q30 -30 30 -72.5t-30 -72.5l-1600 -1601q-30 -30 -73 -30q-42 0 -72 30t-30 72.5t30 72.5l1600 1601q30 30 72.5 30t72.5 -30zM1348 696l103 103q152 -190 205.5 -353t-15.5 -236q-24 -24 -69 -58.5t-115 -78.5t-150 -85t-176 -74t-190 -50t-196 -8.5
t-190 47.5l566 566q55 -41 111.5 -73.5t100 -51t82.5 -30.5t60 -11t32 7q6 11 7.5 32t-10.5 60t-30.5 82.5t-51.5 100t-74 111.5zM781 825l-553 -553q-28 108 -25.5 214t34.5 215t74 202t92.5 174.5t89.5 134t66 79.5q68 64 215 22t323 -172l-105 -105q-61 40 -120.5 70
t-100.5 43t-73.5 17t-38.5 -7q-20 -20 12 -118t110 -216z" />
    <glyph glyph-name="glyph135" unicode="&#x1f50a;" horiz-adv-x="1891" 
d="M372 1111q86 86 305.5 -11t443.5 -321t321.5 -443.5t11.5 -305.5q-28 -28 -83 -69.5t-142 -92.5t-184.5 -95.5t-212 -71.5t-223 -28t-220 42t-200.5 132t-132 200.5t-42 220t28 223t71.5 211.5t95.5 184t92.5 142t69.5 83zM1320 130q7 7 7.5 27.5t-7.5 52t-23.5 71
t-41 87.5t-58.5 97.5t-78.5 105.5t-97.5 108q-46 46 -95 87t-93 71.5t-87.5 56.5t-81 43t-70.5 28.5t-57.5 16.5t-41.5 4t-23 -7q-7 -7 -7.5 -27.5t7.5 -52.5t23.5 -71t41 -87t58.5 -98t78.5 -106t97.5 -108t108 -97.5t105.5 -78.5t97.5 -58.5t87.5 -41t71 -23.5t52 -7.5
t27.5 7.5zM1336 937q-43 0 -73 30t-30 72t30 72l195 196q30 30 72.5 30t72.5 -30t30 -72.5t-30 -72.5l-195 -195q-30 -30 -72 -30zM1017 1177q-60 0 -88.5 51.5t-0.5 100.5l110 198q21 37 62 48.5t78 -9.5t48.5 -61.5t-9.5 -77.5l-111 -198q-29 -52 -89 -52zM1863 881
q21 -37 9.5 -77.5t-48.5 -61.5l-198 -111q-23 -13 -50 -13q-60 0 -89 52q-21 37 -9.5 78t48.5 62l197 111q37 21 78 9t62 -49z" />
    <glyph glyph-name="glyph136" unicode="&#xe057;" horiz-adv-x="1866" 
d="M1851 260q0 -68 -48 -116t-115 -48h-1598q-67 0 -74 25t51 59l1644 927q58 35 99 11.5t41 -90.5v-768z" />
    <glyph glyph-name="glyph137" unicode="&#x2601;" 
d="M1573 907q133 0 246 -64t178.5 -174.5t65.5 -240.5t-65.5 -240.5t-178.5 -175t-246 -64.5h-1188q-154 0 -262 106t-108 256t108 256t262 106q30 0 44 -2q-5 31 -5 77q0 108 43 206.5t116 170t173.5 113.5t211.5 42q183 0 327 -106t195 -273q38 7 83 7z" />
    <glyph glyph-name="glyph138" unicode="&#x2328;" 
d="M1920 1228q59 0 101 -42t42 -101v-942q0 -59 -42 -101.5t-101 -42.5h-1762q-59 0 -101 42.5t-42 101.5v942q0 59 42 101t101 42h1762zM1141 1023v-204h205v204h-205zM1449 716h-205v-205h205v205zM834 1023v-204h205v204h-205zM1141 716h-204v-205h204v205zM527 1023
v-204h205v204h-205zM834 716h-205v-205h205v205zM220 1023v-204h205v204h-205zM527 716h-205v-205h205v205zM425 204v205h-205v-205h205zM1551 204v205h-1024v-205h1024zM1858 204v205h-205v-205h205zM1551 511h205v205h-205v-205zM1858 819v204h-409v-204h409z" />
    <glyph glyph-name="glyph139" unicode="&#x1f4c1;" 
d="M1968 921q64 0 81.5 -26t12.5 -76l-85 -922q-2 -25 -6.5 -40.5t-15.5 -31t-33 -23t-57 -7.5h-1652q-64 0 -85.5 25.5t-26.5 76.5l-85 922q-5 50 12.5 76t81.5 26h1858zM1900 1146l20 -82h-1733l29 267q4 42 38 72t77 30h333q43 0 95 -21t82 -51l61 -60q30 -30 81.5 -51.5
t94.5 -21.5h698q43 0 79.5 -24t44.5 -58z" />
    <glyph glyph-name="glyph140" unicode="&#xe042;" 
d="M1592 980l-553 -520l-553 520h307v504h492v-504h307zM1995 302q37 -22 56 -65t9 -83l-58 -315q-10 -40 -47.5 -68t-80.5 -28h-1670q-43 0 -80.5 28t-47.5 68l-58 315q-10 40 9 83t56 65l326 220h201l-349 -267h363q16 0 25 -14l84 -229h612l84 229q9 14 25 14h363
l-349 267h201z" />
    <glyph glyph-name="glyph141" unicode="&#xe043;" 
d="M1039 1484l553 -520h-307v-504h-492v504h-307zM1995 302q37 -22 56 -65t9 -83l-58 -315q-10 -40 -47.5 -68t-80.5 -28h-1670q-43 0 -80.5 28t-47.5 68l-58 315q-10 40 9 83t56 65l326 220h201l-349 -267h363q16 0 25 -14l84 -229h612l84 229q9 14 25 14h363l-349 267h201
z" />
    <glyph glyph-name="glyph142" unicode="&#xe045;" 
d="M1573 907q133 0 246 -64t178.5 -174.5t65.5 -240.5t-65.5 -240.5t-178.5 -175t-246 -64.5h-391v389h215l-358 471l-358 -471h215v-389h-511q-154 0 -262 106t-108 256t108 256t262 106q30 0 44 -2q-5 31 -5 77q0 108 43 206.5t116 170t173.5 113.5t211.5 42
q183 0 327 -106t195 -273q38 7 83 7z" />
    <glyph glyph-name="glyph143" unicode="&#xe05f;" 
d="M795 1202q29 -26 29 -64.5t-29 -64.5l-508 -459l508 -460q29 -26 29 -64t-29 -64t-64 -26t-63 26l-653 588l653 588q28 26 63 26t64 -26zM1410 1202l653 -588l-653 -588q-28 -26 -63 -26t-63 26t-27.5 64t29.5 64l505 460l-505 459q-29 26 -29.5 64.5t27.5 64.5t63 26
t63 -26z" />
    <glyph glyph-name="glyph144" unicode="&#xe060;" horiz-adv-x="1668" 
d="M1449 1433q85 0 144.5 -60t59.5 -145v-819q0 -85 -59.5 -145t-144.5 -60h-820q-85 0 -144.5 60t-59.5 145v821q0 85 58.5 144t143.5 59h822zM1449 409v819h-820v-819h820zM220 614v-615h614v-204h-614q-85 0 -145 59.5t-60 144.5v615h205z" />
    <glyph glyph-name="glyph145" unicode="&#xe061;" 
d="M1858 1535q85 0 145 -59.5t60 -144.5v-1229q0 -85 -60 -144t-145 -59h-407v201h409v944h-1642v-944h409v-201h-407q-85 0 -145 59t-60 144v1229q0 85 60 144.5t145 59.5h1638zM281 1194q32 0 54.5 22t22.5 53t-22.5 53t-54.5 22t-54.5 -22t-22.5 -53t22.5 -53t54.5 -22z
M486 1194q32 0 54.5 22t22.5 53t-22.5 53t-54.5 22t-54.5 -22t-22.5 -53t22.5 -53t54.5 -22zM1860 1206v127h-1233v-127h1233zM1034 801l497 -494h-308v-615h-379v615h-307z" />
    <glyph glyph-name="glyph146" unicode="&#xe062;" horiz-adv-x="2037" 
d="M1766 1572q104 -8 165 -21.5t78 -32t11.5 -39t-30 -44t-49.5 -45.5t-44.5 -46t-17.5 -42q2 -29 -24.5 -95.5t-58.5 -104.5q-20 -24 -194 -58.5t-338 -57.5l-165 -22q10 -5 28 -14.5t76 -33.5t120 -44.5t154 -40t182 -27.5q-39 -57 -109.5 -102.5t-152.5 -73t-172 -47.5
t-172.5 -28t-149 -12.5t-105.5 -4.5h-40q8 -8 23 -22t64.5 -48.5t103 -60t134 -44t160.5 -12.5q-7 -5 -35.5 -28t-46.5 -36.5t-54.5 -37.5t-65.5 -39t-74.5 -34t-86.5 -28.5t-95.5 -16.5t-108 -4t-118.5 14.5t-131 34.5q-148 -239 -306 -504q-7 -12 -23 -17t-32.5 -1.5
t-31 13.5t-18 27.5t5.5 40.5l249 544q63 135 105.5 220t108 200t131 206.5t158 202t205.5 223.5q154 154 343.5 207.5t443.5 35.5z" />
    <glyph glyph-name="glyph147" unicode="&#xe063;" horiz-adv-x="1668" 
d="M1088 1389l565 44l-43 -572l-159 161l-290 -293l-203 205l290 293zM508 499l203 -205l-290 -294l159 -161l-565 -44l43 572l160 -161z" />
    <glyph glyph-name="glyph148" unicode="&#xe064;" horiz-adv-x="1709" 
d="M1694 1243l-297 -301l164 -165l-580 -46l45 587l163 -165l297 301zM312 286l-163 165l579 45l-45 -586l-163 165l-297 -301l-208 211z" />
    <glyph glyph-name="glyph149" unicode="&#xe065;" horiz-adv-x="1996" 
d="M998 1597q200 0 382 -78t313.5 -209.5t209.5 -313.5t78 -382t-78 -382t-209.5 -313.5t-313.5 -209.5t-382 -78t-382 78t-313.5 209.5t-209.5 313.5t-78 382t78 382t209.5 313.5t313.5 209.5t382 78zM1836 614q0 273 -160 491.5t-412 303.5q-36 -46 -34 -65
q4 -46 16.5 -74t28.5 -36t35.5 -9t38 8t36.5 15t30.5 10.5t19.5 -3.5q21 -24 22.5 -46t-13 -41.5t-35.5 -40t-41.5 -45t-35 -51.5t-13 -65t22.5 -81q37 -73 82.5 -101.5t113.5 -29.5q30 0 54 -23.5t38 -59.5t21.5 -67t10.5 -59q6 -53 -2.5 -145.5t-29.5 -139.5
q-16 -33 -12.5 -65t16 -55t29.5 -36q173 224 173 510zM883 1444q-228 -31 -406.5 -174.5t-260.5 -355.5q9 -1 36.5 -3t46.5 -3.5t46.5 -6t45.5 -10t33 -15.5t20 -22q8 -21 -8 -51.5t-36.5 -74.5t-20.5 -90q0 -33 16 -59t38.5 -42t45.5 -31t39 -35t16 -45q0 -53 17 -137
t17 -91q0 -26 72.5 -112t105.5 -86q21 0 23.5 46t-5 111.5t-6.5 79.5q3 51 30 154q12 44 36.5 75.5t53.5 49t57 32t52 34t34 45.5q20 54 21.5 99t-12 76t-39 56.5t-54.5 40t-62.5 26.5t-60 17t-51 10t-30.5 7q-34 12 -87 13.5t-74 -6.5q-24 -8 -58.5 23t-34.5 63
q0 19 31.5 53t73 74.5t56.5 64.5q17 27 35 41.5t47 32.5t56 42q8 7 50.5 34t54.5 50zM734 -182q127 -43 264 -43q250 0 462 140q-25 45 -100 61t-143 10q-47 -4 -130 -36.5t-98 -35.5q-20 -4 -51.5 -13t-55.5 -14t-47 -6q-26 -1 -54.5 -27t-46.5 -36z" />
    <glyph glyph-name="glyph150" unicode="&#x1f4bf;" horiz-adv-x="1914" 
d="M957 1556q192 0 366 -74.5t300.5 -201t201 -300.5t74.5 -366t-74.5 -366t-201 -300.5t-300.5 -201t-366 -74.5t-366 74.5t-300.5 201t-201 300.5t-74.5 366t74.5 366t201 300.5t300.5 201t366 74.5zM957 307q127 0 217 89.5t90 217.5t-90 217.5t-217 89.5t-217 -89.5
t-90 -217.5t90 -217.5t217 -89.5z" />
    <glyph glyph-name="glyph151" unicode="&#x1f4bb;" 
d="M1858 1515q85 0 145 -60t60 -145v-1126q0 -85 -59 -156.5t-142 -88.5l-448 -90l108 -43q170 -73 86 -89q-21 -4 -57 -4h-1024q-153 0 -29 66q65 34 166 70l-448 90q-83 17 -142 88.5t-59 156.5v1126q0 85 60 145t145 60h1638zM1858 194v1137h-1638v-1137h1638z" />
    <glyph glyph-name="glyph152" unicode="&#x1f304;" 
d="M1769 955h-205l-254 308l-439 -308h-368q-109 0 -185.5 -78.5t-76.5 -188.5v-326l-221 608q-11 32 2 62.5t43 41.5l1393 508q30 11 60 -3.5t41 -46.5zM1985 770q32 0 55 -24t23 -58v-965q0 -34 -23 -58t-55 -24h-1482q-32 0 -55 24t-23 58v965q0 34 23 58t55 24h1482z
M1872 -154v330l-148 330l-342 -123l-266 -273l-283 352l-189 -440v-176h1228z" />
    <glyph glyph-name="glyph153" unicode="&#xe058;" horiz-adv-x="972" 
d="M486 1638l471 -748h-942zM486 -410l-471 747h942z" />
    <glyph glyph-name="glyph154" unicode="&#xe059;" 
d="M1858 1433q85 0 145 -60t60 -145v-1229q0 -85 -60 -144.5t-145 -59.5h-1638q-85 0 -145 59.5t-60 144.5v1229q0 85 60 145t145 60h1638zM486 1242q-32 0 -54.5 -22t-22.5 -53t22.5 -53t54.5 -22t54.5 22t22.5 53t-22.5 53t-54.5 22zM204 1167q0 -31 22.5 -53t54.5 -22
t54.5 22t22.5 53t-22.5 53t-54.5 22t-54.5 -22t-22.5 -53zM1860 -1v943h-1642v-943h1642zM1860 1105v123h-1231v-123h1231z" />
    <glyph glyph-name="glyph155" unicode="&#xe05a;" horiz-adv-x="1464" 
d="M1244 1535q85 0 145 -59.5t60 -144.5v-1434q0 -85 -60 -145t-145 -60h-1024q-85 0 -145 60t-60 145v1434q0 85 60 144.5t145 59.5h1024zM1018 561q36 55 45.5 110.5t-3.5 103t-37 92.5t-54.5 85.5t-58 75t-46 68.5t-18.5 59h-123v-753q-85 33 -183 -3q-88 -32 -133 -99.5
t-22 -131.5t108 -90t173 3q92 29 136 78t44 123v534q56 -9 92 -42t47 -74.5t11 -77.5t-8 -61q-7 -21 5 -23q10 -1 25 23z" />
    <glyph glyph-name="glyph156" unicode="&#xe05b;" 
d="M1995 712q41 -44 57.5 -77.5t7.5 -70.5l-58 -315q-10 -40 -47.5 -68t-80.5 -28h-1670q-43 0 -80.5 28t-47.5 68l-58 315q-9 37 7.5 70.5t57.5 77.5q43 47 322 319q44 44 107 44h1054q63 0 107 -44q279 -272 322 -319zM1454 644h363l-209 226h-1137l-209 -226h363
q15 0 24 -14l84 -208h612l84 208q9 14 25 14z" />
    <glyph glyph-name="glyph157" unicode="&#xe05c;" horiz-adv-x="1873" 
d="M1826 522q19 -38 27.5 -95.5t1.5 -100.5l-69 -377q-7 -42 -42.5 -72.5t-78.5 -30.5h-1456q-43 0 -78.5 30.5t-42.5 72.5l-70 377q-7 43 1.5 100.5t27.5 95.5l323 767q20 38 63.5 65.5t86.5 27.5h212l-41 -416h-277l523 -433l522 433h-277l-41 416h212q43 0 86.5 -27.5
t63.5 -65.5zM1686 242q6 43 -20 73t-69 30h-1321q-43 0 -69 -30t-20 -73l26 -147q6 -43 41 -73t78 -30h1210q43 0 77.5 30t40.5 73z" />
    <glyph glyph-name="glyph158" unicode="&#xe05d;" 
d="M947 564v-205h-932q14 463 20 599q5 109 51 164.5t154 55.5h329q30 56 74 139.5t48 91.5q26 50 46 63t75 13h454q55 0 75 -13t46 -63q4 -8 48 -91.5t74 -139.5h329q108 0 154.5 -55.5t50.5 -164.5l20 -599h-932v205h-184zM798 1289q-2 -5 -12.5 -23.5t-22.5 -42
t-24 -45.5h600q-12 22 -24 45.5t-22.5 42t-12.5 23.5q-18 34 -32 43.5t-52 9.5h-314q-38 0 -52 -9.5t-32 -43.5zM1131 52v205h881q-12 -180 -21 -341q-1 -24 -4.5 -43t-15.5 -44.5t-30.5 -42.5t-53 -29t-80.5 -12h-1536q-46 0 -80.5 12t-53.5 29t-30.5 42t-15 44.5
t-4.5 43.5l-21 341h881v-205h184z" />
    <glyph glyph-name="glyph159" unicode="&#xe06d;" 
d="M537 564v-205h-522q14 463 20 599q5 109 51 164.5t154 55.5h329q30 56 74 139.5t48 91.5q26 50 46 63t75 13h454q55 0 75 -13t46 -63q4 -8 48 -91.5t74 -139.5h329q108 0 154.5 -55.5t50.5 -164.5l20 -599h-522v205h-185v-205h-634v205h-185zM798 1289q-2 -5 -12.5 -23.5
t-22.5 -42t-24 -45.5h600q-12 22 -24 45.5t-22.5 42t-12.5 23.5q-18 34 -32 43.5t-52 9.5h-314q-38 0 -52 -9.5t-32 -43.5zM1541 52v205h471q-12 -180 -21 -341q-1 -24 -4.5 -43t-15.5 -44.5t-30.5 -42.5t-53 -29t-80.5 -12h-1536q-46 0 -80.5 12t-53.5 29t-30.5 42
t-15 44.5t-4.5 43.5l-21 341h471v-205h185v205h634v-205h185z" />
    <glyph glyph-name="glyph160" unicode="&#xe05e;" horiz-adv-x="1914" 
d="M473 930q-47 0 -87 -20q-108 120 -188 262q109 147 265 244q160 -64 308 -170q-11 -31 -11 -63q0 -25 6 -47q-126 -95 -234 -215q-28 9 -59 9zM273 729q0 -67 41 -121q-122 -226 -166 -476q-133 223 -133 482q0 225 100 423q73 -116 174 -228q-16 -38 -16 -80zM961 1383
q-55 0 -102 -28q-115 83 -233 141q158 60 331 60q253 0 470 -126q-170 -33 -330 -101q-57 54 -136 54zM1260 439q-321 47 -596 230q9 29 9 60q0 57 -30 106q93 104 201 185q52 -38 117 -38q40 0 78 16q186 -219 274 -492q-35 -29 -53 -67zM1520 168q84 37 112 122
q110 10 223 38q-45 -143 -133.5 -264.5t-209.5 -210.5q13 107 13 201q0 51 -5 114zM1213 304q-387 -196 -623 -558q-182 77 -322 226q24 296 164 561q17 -4 41 -4q58 0 105 30q293 -198 635 -255zM1589 1312q145 -132 227.5 -313t82.5 -385q0 -68 -9 -132q-133 -39 -264 -52
q-23 54 -72 88t-109 35q-99 302 -304 542q20 42 20 88q0 13 -1 20q204 87 429 109zM1314 197q26 -22 66 -35q4 -48 4 -108q0 -149 -29 -294q-190 -88 -398 -88q-115 0 -229 28q225 328 586 497z" />
    <glyph glyph-name="glyph161" unicode="&#xe183;" horiz-adv-x="1996" 
d="M985 1597q200 3 383 -72.5t316.5 -205.5t213.5 -311t83 -381t-72.5 -383t-205.5 -316.5t-311 -213.5t-381 -83t-383 72.5t-316.5 205.5t-213.5 311t-83 381t72.5 383t205.5 316.5t311 213.5t381 83zM1008 -162q158 2 301 65.5t245.5 168.5t162 249.5t57.5 302.5
t-65.5 301t-168.5 245.5t-249.5 162t-302.5 57.5t-301 -65.5t-245.5 -168.5t-162 -249.5t-57.5 -302.5t65.5 -301t168.5 -245.5t249.5 -162t302.5 -57.5zM631 614q0 -75 31.5 -121t94.5 -46q84 0 117 81l116 -59q-35 -65 -100 -106.5t-148 -41.5q-130 0 -205.5 79.5
t-75.5 213.5q0 129 76 211t200 82q176 0 251 -137l-126 -65q-37 75 -105 75q-126 0 -126 -166zM1175 614q0 -75 31.5 -121t94.5 -46q83 0 116 81l118 -59q-36 -65 -100.5 -106.5t-147.5 -41.5q-130 0 -205.5 79.5t-75.5 213.5q0 129 76 211t200 82q175 0 249 -137l-124 -65
q-36 75 -106 75q-126 0 -126 -166z" />
    <glyph glyph-name="glyph162" unicode="&#xe180;" horiz-adv-x="1873" 
d="M937 1535q145 0 255.5 -8.5t205 -30t161 -54.5t120 -86.5t86.5 -120t54.5 -161t30 -205t8.5 -255.5q0 -195 -15.5 -330t-57 -242t-105.5 -171t-171 -106t-242 -57.5t-330 -15.5t-330 15.5t-242 57.5t-171 106t-106 171t-57.5 242t-15.5 330t15.5 330t57.5 242t106 171
t171 105.5t242 57t330 15.5z" />
    <glyph glyph-name="glyph163" unicode="&#xe181;" horiz-adv-x="1873" 
d="M1756 1228q43 0 72.5 -29.5t29.5 -72.5v-410h-1024v512h922zM15 102v409h614v-512h-532q-41 0 -61.5 28.5t-20.5 74.5zM834 -1v512h1024v-409q0 -43 -29.5 -73t-72.5 -30h-922zM15 1126q0 45 20.5 73.5t61.5 28.5h532v-512h-614v410z" />
    <glyph glyph-name="glyph164" unicode="&#xe182;" horiz-adv-x="1515" 
d="M1132 390q47 -84 45.5 -181.5t-52.5 -185.5q-82 -143 -234.5 -180.5t-310.5 51.5l-131 75l-219 -379l-117 67l423 733q-139 -19 -273 58l-248 143l383 664l248 -143q136 -79 188 -207l423 733l117 -67l-219 -380l130 -75q103 -59 159 -150.5t55.5 -189t-52.5 -195.5
q-51 -89 -134.5 -139t-180.5 -52zM1224 1009l-131 76l-255 -442q0 -2 -2 -5.5t-2 -5.5l129 -74q105 -60 204 -33.5t157 125.5q58 98 30.5 199t-130.5 160zM324 554q105 -60 203.5 -33.5t156.5 125.5q58 98 31 199t-130 161l-131 75l-261 -451zM641 0q105 -60 204 -33.5
t157 125.5q58 98 30.5 199.5t-130.5 160.5l-129 74q-1 -2 -3.5 -4t-3.5 -4l-256 -442z" />
  </font>
</defs>
</svg>
