<?xml version="1.0" standalone="no"?>
<!DOCTYPE svg PUBLIC "-//W3C//DTD SVG 1.1//EN" "http://www.w3.org/Graphics/SVG/1.1/DTD/svg11.dtd" >
<svg>
<metadata>
Created by FontForge 20110222 at Mon Apr  2 22:55:56 2012
 By user,,,
Copyright (C) 2012 by Daniel Bruce
</metadata>
<defs>
<font id="Entypo" horiz-adv-x="944" >
  <font-face 
    font-family="Entypo"
    font-weight="500"
    font-stretch="normal"
    units-per-em="1000"
    panose-1="2 0 6 3 0 0 0 0 0 0"
    ascent="800"
    descent="-200"
    bbox="-0.25 -200.093 938 737.725"
    underline-thickness="50"
    underline-position="-100"
    unicode-range="U+2139-1F6AB"
  />
<missing-glyph horiz-adv-x="336" 
d="M25 -12v624h249v-624h-249zM56 19h187v562h-187v-562z" />
    <glyph glyph-name=".notdef" horiz-adv-x="336" 
d="M25 -12v624h249v-624h-249zM56 19h187v562h-187v-562z" />
    <glyph glyph-name="glyph1" unicode="&#xe002;" 
d="M399 690q7 0 12.5 -5.5t5.5 -12.5v-806q0 -8 -5.5 -13.5t-12.5 -5.5h-42q-8 0 -13.5 5.5t-5.5 13.5v412h-166q-12 0 -27 4.5t-24 11.5l-111 76q-9 7 -9 16t9 15l111 77q9 6 23.5 10.5t27.5 4.5h166v179q0 7 5.5 12.5t13.5 5.5h42zM928 495q10 -6 10 -15.5t-10 -15.5
l-111 -77q-9 -6 -23.5 -10.5t-27.5 -4.5h-283l-37 215h320q13 0 27.5 -5t23.5 -11z" />
    <glyph glyph-name="glyph2" unicode="&#xe003;" 
d="M329 315q19 0 32.5 -13.5t13.5 -33t-13.5 -33t-32.5 -13.5h-282q-19 0 -32.5 13.5t-13.5 33t13.5 33t32.5 13.5h282zM329 128q19 0 32.5 -13.5t13.5 -33.5t-13.5 -33.5t-32.5 -13.5h-282q-19 0 -32.5 13.5t-13.5 33.5t13.5 33.5t32.5 13.5h282zM910 315q17 0 22.5 -11.5
t5.5 -35t-5.5 -35t-22.5 -11.5h-160v-160q0 -17 -11.5 -22.5t-35 -5.5t-35 5.5t-11.5 22.5v160h-155q-18 0 -23 11.5t-5 35t5 35t23 11.5h155v160q0 17 11.5 22.5t35 5.5t35 -5.5t11.5 -22.5v-160h160zM329 503q19 0 32.5 -14t13.5 -33.5t-13.5 -33t-32.5 -13.5h-282
q-19 0 -32.5 13.5t-13.5 33t13.5 33.5t32.5 14h282z" />
    <glyph glyph-name="glyph34" unicode="&#x2139;" horiz-adv-x="438" 
d="M330 737q45 0 69.5 -26.5t24.5 -65.5q0 -47 -36.5 -82t-88.5 -35q-45 0 -69.5 24.5t-23.5 68.5q0 26 13.5 52t42.5 45t68 19zM137 -200q-16 0 -28 4t-21.5 15.5t-13 29.5t-1 47.5t12.5 68.5l57 239q4 15 5.5 24.5t2 16.5t-1.5 9.5t-6 2.5q-13 0 -52 -17t-66 -35l-24 41
q85 73 177.5 118t140.5 45q36 0 44.5 -41.5t-11.5 -110.5l-65 -250q-15 -60 5 -60q14 0 46.5 15t65.5 41l28 -38q-42 -42 -88 -75.5t-85.5 -52t-70.5 -28t-51 -9.5z" />
    <glyph glyph-name="glyph103" unicode="&#x2190;" horiz-adv-x="691" 
d="M356 -41l-355 310l355 309v-179h329v-260h-329v-180z" />
    <glyph glyph-name="glyph105" unicode="&#x2191;" horiz-adv-x="626" 
d="M619 255h-179v-329h-260v329h-179l309 355z" />
    <glyph glyph-name="glyph104" unicode="&#x2192;" horiz-adv-x="691" 
d="M330 578l355 -309l-356 -310l1 179h-329v261h328z" />
    <glyph glyph-name="glyph102" unicode="&#x2193;" horiz-adv-x="626" 
d="M619 282l-309 -356l-309 356h179v328h260v-328h179z" />
    <glyph glyph-name="glyph37" unicode="&#x21b3;" horiz-adv-x="705" 
d="M94 128q-38 0 -65.5 27.5t-27.5 66.5v328h131v-291h342v141l225 -206l-225 -207v141h-380z" />
    <glyph glyph-name="glyph122" unicode="&#x2302;" horiz-adv-x="850" 
d="M833 254q14 -15 9.5 -25.5t-25.5 -10.5h-78v-289q0 -9 -0.5 -14.5t-3.5 -11.5t-9 -8.5t-17 -2.5h-191v289h-191v-289h-183q-13 0 -21 2.5t-11.5 8.5t-4.5 11t-1 15v289h-79q-21 0 -25.5 10.5t10.5 25.5l375 377q15 15 35.5 15t34.5 -15z" />
    <glyph glyph-name="glyph138" unicode="&#x2328;" 
d="M872 550q27 0 46.5 -19.5t19.5 -46.5v-431q0 -27 -19.5 -46.5t-46.5 -19.5h-806q-27 0 -46 19.5t-19 46.5v431q0 27 19 46.5t46 19.5h806zM516 456v-94h94v94h-94zM657 315h-94v-93h94v93zM375 456v-94h94v94h-94zM516 315h-94v-93h94v93zM235 456v-94h94v94h-94z
M375 315h-93v-93h93v93zM94 456v-94h94v94h-94zM235 315h-94v-93h94v93zM188 81v94h-94v-94h94zM703 81v94h-468v-94h468zM844 81v94h-94v-94h94zM703 222h94v93h-94v-93zM844 362v94h-187v-94h187z" />
    <glyph glyph-name="glyph112" unicode="&#x2389;" horiz-adv-x="503" 
d="M413 597q84 0 84 -61v-534q0 -61 -84 -61t-84 61v534q0 61 84 61zM85 597q84 0 84 -61v-534q0 -61 -84 -61t-84 61v534q0 61 84 61z" />
    <glyph glyph-name="glyph116" unicode="&#x23e9;" horiz-adv-x="831" 
d="M812 291q13 -9 13 -22q0 -6 -3 -11.5t-7 -8.5l-3 -3l-350 -232q-20 -13 -34 -4.5t-14 34.5v450q0 25 14 33.5t34 -4.5zM387 291q13 -9 13 -22q0 -6 -3 -11.5t-7 -8.5l-3 -3l-337 -232q-20 -13 -34.5 -4.5t-14.5 34.5v450q0 25 14.5 33.5t34.5 -4.5z" />
    <glyph glyph-name="glyph117" unicode="&#x23ea;" horiz-adv-x="831" 
d="M1 269q0 6 3 11.5t6 7.5l4 3l349 232q21 13 35 4.5t14 -33.5v-450q0 -26 -14 -34.5t-35 4.5l-349 232q-13 9 -13 23zM426 269q0 6 3 11.5t7 7.5l3 3l338 232q20 13 34 4.5t14 -33.5v-450q0 -26 -14 -34.5t-34 4.5l-338 232q-13 9 -13 23z" />
    <glyph glyph-name="glyph114" unicode="&#x23ed;" horiz-adv-x="569" 
d="M387 289q13 -8 13 -20q0 -6 -3 -11t-7 -8l-3 -2l-341 -214q-18 -12 -31.5 -4.5t-13.5 31.5v415q0 24 13.5 32t31.5 -5zM492 540q71 0 71 -54v-435q0 -29 -18.5 -41.5t-52 -12.5t-52 12t-18.5 42v435q0 30 18.5 42t51.5 12z" />
    <glyph glyph-name="glyph115" unicode="&#x23ee;" horiz-adv-x="569" 
d="M164 269q0 5 3 10t6 8l3 2l341 214q19 13 32.5 5t13.5 -32v-415q0 -24 -13.5 -31.5t-32.5 4.5l-341 214q-12 9 -12 21zM1 486q0 54 70 54q34 0 52 -12t18 -42v-435q0 -30 -18 -42t-52 -12t-52 12.5t-18 41.5v435z" />
    <glyph glyph-name="glyph75" unicode="&#x23f3;" horiz-adv-x="532" 
d="M525 523q0 -28 -18.5 -58t-45.5 -55.5t-53.5 -49.5t-45 -48t-18.5 -43.5t18.5 -43.5t45 -48t53.5 -49.5t45.5 -55t18.5 -57.5v-110q0 -15 -21 -32.5t-55 -34t-84 -27.5t-102 -11t-102 11t-84 27.5t-55 34t-21 32.5v110q0 28 18.5 57.5t45.5 55t53.5 49.5t45 48t18.5 43.5
t-18.5 43.5t-45 48t-53.5 49.5t-45.5 55.5t-18.5 58v110q0 14 21 32t55 34t84 27t102 11t102 -11t84 -27t55 -34t21 -32v-110zM73 628l-11 -8q-13 -11 -1 -18q34 -20 87.5 -35t114.5 -15q62 0 117 14t88 33q4 3 5.5 5t0.5 4.5t-2.5 5t-4.5 5t-5 4t-5 3.5t-4 2q-4 2 -10.5 5
t-27 12t-41.5 16t-51 12.5t-57 5.5q-113 0 -193 -51zM287 268.5q0 11.5 2 22.5t8.5 22t11.5 19t16 19.5t17 17.5t20.5 20t20.5 20l29 29t26 28t23 32t7 25l2 46q-39 -21 -94 -35.5t-113.5 -14.5t-113 14.5t-93.5 35.5l2 -46q0 -11 7.5 -25t23 -32t25.5 -28l29 -29
q6 -6 20.5 -20t21 -20t17 -17.5t16 -19.5t11.5 -19t8 -22t2 -22.5t-2 -22.5t-8 -21.5t-11.5 -18.5t-16 -20t-17 -18t-21 -19.5t-20.5 -19.5q-19 -20 -29 -30t-25.5 -27.5t-23 -31.5t-7.5 -25v-62q9 4 28.5 11t38.5 13t40.5 15.5t37 19.5t26 25t10.5 32.5t12 24.5t24 0
t12 -24.5t10.5 -32.5t26 -25t37 -19.5t40.5 -15.5t38.5 -13t28.5 -11v62q0 11 -7 25t-23 31.5t-26 27.5t-29 30q-6 6 -20.5 19.5t-20.5 19.5t-17 18t-16 20t-11.5 18.5t-8.5 21.5t-2 22.5z" />
    <glyph glyph-name="glyph111" unicode="&#x25aa;" horiz-adv-x="569" 
d="M492 550q37 0 54 -13.5t17 -47.5v-440q0 -34 -17 -48t-54 -14h-421q-36 0 -53 14t-17 48v440q0 34 17 47.5t53 13.5h421z" />
    <glyph glyph-name="glyph97" unicode="&#x25b4;" horiz-adv-x="438" 
d="M1 81l215 375l216 -375h-431z" />
    <glyph glyph-name="glyph110" unicode="&#x25b6;" horiz-adv-x="475" 
d="M455 292q14 -9 14 -23q0 -7 -3.5 -13t-6.5 -8l-4 -4l-401 -248q-22 -14 -37.5 -5t-15.5 37v482q0 27 15.5 36t37.5 -5z" />
    <glyph glyph-name="glyph96" unicode="&#x25b8;" horiz-adv-x="382" 
d="M1 484l374 -215l-374 -216v431z" />
    <glyph glyph-name="glyph94" unicode="&#x25be;" horiz-adv-x="438" 
d="M432 456l-216 -375l-215 375h431z" />
    <glyph glyph-name="glyph95" unicode="&#x25c2;" horiz-adv-x="382" 
d="M375 484v-431l-374 216z" />
    <glyph glyph-name="glyph137" unicode="&#x2601;" 
d="M713 403q61 0 113 -29.5t82 -80t30 -110t-30 -110t-82 -80t-113 -29.5h-543q-70 0 -119.5 48.5t-49.5 117t49.5 117t119.5 48.5q14 0 20 -1q-2 14 -2 36q0 49 19.5 94t53 77.5t79.5 52t97 19.5q83 0 149 -48.5t89 -125.5q18 4 38 4z" />
    <glyph glyph-name="glyph72" unicode="&#x2605;" horiz-adv-x="831" 
d="M413 681l112 -315h300l-245 -185l88 -325l-255 195l-255 -195l88 325l-245 185h300z" />
    <glyph glyph-name="glyph73" unicode="&#x2606;" horiz-adv-x="831" 
d="M825 366l-245 -185l88 -325l-255 195l-255 -195l88 325l-245 185h300l112 315l112 -315h300zM413 143l141 -117l-58 167l133 107l-164 -4l-52 189l-51 -189l-166 4l134 -107l-58 -167z" />
    <glyph glyph-name="glyph41" unicode="&#x2630;" horiz-adv-x="663" 
d="M610 315q19 0 33 -13.5t14 -33t-14 -33t-33 -13.5h-563q-19 0 -32.5 13.5t-13.5 33t13.5 33t32.5 13.5h563zM47 409q-19 0 -32.5 13.5t-13.5 33t13.5 33.5t32.5 14h563q19 0 33 -14t14 -33.5t-14 -33t-33 -13.5h-563zM610 128q19 0 33 -13.5t14 -33.5t-14 -33.5
t-33 -13.5h-563q-19 0 -32.5 13.5t-13.5 33.5t13.5 33.5t32.5 13.5h563z" />
    <glyph glyph-name="glyph71" unicode="&#x263d;" horiz-adv-x="775" 
d="M491 164q65 65 95.5 150.5t23 174t-50.5 166.5q49 -28 90 -68q59 -59 89.5 -136t30.5 -154.5t-30.5 -154t-89.5 -135.5t-136 -90t-154.5 -31t-154.5 31t-136 90q-40 40 -67 89q77 -43 165.5 -50.5t174 23t150.5 95.5z" />
    <glyph glyph-name="glyph30" unicode="&#x2661;" horiz-adv-x="803" 
d="M732 542q42 -40 57.5 -93.5t0 -106.5t-57.5 -93l-333 -309l-333 309q-65 61 -65 146.5t65 146.5q58 54 140 54t140 -54l53 -49l52 49q58 54 140.5 54t140.5 -54zM682 297q40 37 40 98q0 31 -7.5 53t-27.5 41q-39 36 -95 36q-46 0 -96 -45l-97 -86l-97 86q-50 45 -96 45
q-57 0 -96 -36q-20 -19 -27 -41t-7 -53q0 -61 40 -98l283 -268z" />
    <glyph glyph-name="glyph29" unicode="&#x2665;" horiz-adv-x="813" 
d="M740 542q44 -40 59.5 -93.5t0 -106.5t-59.5 -93l-336 -309l-337 309q-44 40 -59.5 93t0 106.5t59.5 93.5q58 54 141.5 54t141.5 -54l54 -49l53 49q58 54 141.5 54t141.5 -54z" />
    <glyph glyph-name="glyph33" unicode="&#x268f;" horiz-adv-x="569" 
d="M160 550q39 0 57 -18.5t18 -56.5v-85q0 -39 -18 -57t-57 -18h-84q-39 0 -57 18t-18 57v85q0 38 18 56.5t57 18.5h84zM488 550q39 0 57 -18.5t18 -56.5v-85q0 -39 -18 -57t-57 -18h-84q-39 0 -57 18t-18 57v85q0 38 18 56.5t57 18.5h84zM160 222q39 0 57 -18t18 -57v-85
q0 -39 -18 -57t-57 -18h-84q-39 0 -57 18t-18 57v85q0 39 18 57t57 18h84zM488 222q39 0 57 -18t18 -57v-85q0 -39 -18 -57t-57 -18h-84q-39 0 -57 18t-18 57v85q0 39 18 57t57 18h84z" />
    <glyph glyph-name="glyph24" unicode="&#x2691;" horiz-adv-x="850" 
d="M820 507q13 5 20.5 -1t0.5 -17q-52 -75 -95.5 -129t-74.5 -87.5t-60 -50t-46 -23.5t-39 0t-32 13.5t-31 22.5q-28 22 -46 31t-52 13.5t-79.5 -18t-102.5 -70.5l84 -331h-95l-171 675l86 31q43 32 79 51.5t62 29.5t50.5 9t39 -4.5t33 -19t27.5 -25.5t27 -32
q19 -24 29.5 -36t33.5 -31.5t42.5 -28t52 -16.5t68 -4.5t84 15t105.5 33.5z" />
    <glyph glyph-name="glyph67" unicode="&#x2699;" horiz-adv-x="794" 
d="M712 269q0 -70 76 -115q-12 -40 -33 -78q-67 18 -127 -42q-51 -51 -32 -126q-38 -21 -78 -33q-20 35 -53.5 55.5t-70 20.5t-70 -20.5t-53.5 -55.5q-42 13 -79 33q20 75 -32 126.5t-127 31.5q-20 38 -32 79q34 20 54.5 53.5t20.5 70.5q0 70 -75 114q12 40 32 78
q67 -18 127 42q52 52 32 127q37 20 79 32q20 -34 53.5 -54.5t70 -20.5t70 20.5t53.5 54.5q40 -12 78 -32q-19 -75 32 -127q60 -60 127 -42q21 -38 33 -78q-76 -44 -76 -114zM394 98q71 0 121 50t50 121t-50 121t-121 50t-121 -50t-50 -121t50 -121t121 -50z" />
    <glyph glyph-name="glyph79" unicode="&#x26a0;" horiz-adv-x="906" 
d="M896 -82q10 -17 -1 -32.5t-27 -15.5h-835q-16 0 -27 15.5t-1 32.5l417 733q10 16 28.5 16t28.5 -16zM507 -36v94h-113v-94h113zM507 128v281h-113v-281h113z" />
    <glyph glyph-name="glyph25" unicode="&#x26a1;" horiz-adv-x="382" 
d="M38 -153q-3 2 33.5 86.5t74 171t35 92.5t-45.5 23.5t-87 38t-47 31.5q-4 12 78.5 113t168 196t90.5 91q4 -4 -70 -174.5t-72 -175.5q1 -4 45 -21.5t88 -38t46 -32.5q3 -13 -79.5 -114t-167.5 -195.5t-90 -91.5z" />
    <glyph glyph-name="glyph113" unicode="&#x26ab;" horiz-adv-x="663" 
d="M328.5 597q66.5 0 127.5 -26t105 -70t70 -105t26 -127.5t-26 -127t-70 -104.5t-105 -70t-127.5 -26t-127 26t-104.5 70t-70 104.5t-26 127t26 127.5t70 105t104.5 70t127 26z" />
    <glyph glyph-name="glyph80" unicode="&#x2703;" horiz-adv-x="738" 
d="M673.5 576q18.5 -19 31.5 -38t18 -33t7 -25t1 -16v-6l-507 -507l-223 -48l47 223q84 85 253 254t254 253q2 1 6 1t16.5 -1.5t25.5 -7t32.5 -18t38 -31.5zM211 -23l22 22q0 2 -0.5 5t-3 13t-7 19.5t-14.5 23.5t-23 28q-21 20 -43 32t-34 13l-11 2l-22 -22l-17 -76
q25 -13 44 -32t32 -44z" />
    <glyph glyph-name="glyph26" unicode="&#x2708;" 
d="M251 -172l117 375h-168l-106 -94h-93l75 160l-75 159h93l106 -94h168l-117 375h94l210 -375h242q6 0 15.5 -0.5t33.5 -4t42.5 -9.5t34 -19.5t15.5 -32t-14.5 -32t-35 -19.5t-41.5 -9.5t-35 -3.5l-15 -1h-242l-210 -375h-94z" />
    <glyph glyph-name="glyph22" unicode="&#x2709;" horiz-adv-x="850" 
d="M29 490q-17 9 -25 25q-8 19 11 24q4 1 11 1h793q24 0 23 -16q-1 -15 -18 -29q-4 -3 -8 -5q-10 -6 -95 -51.5t-169 -90.5t-87 -47q-17 -9 -43 -9q-25 0 -42 9q-4 2 -88 47t-168.5 90.5t-94.5 51.5zM826 396q6 3 10 3.5t5.5 -2.5t2 -5t0.5 -7v-343q0 -15 -15.5 -30
t-30.5 -15h-751q-15 0 -30.5 15t-15.5 30v343q0 5 0.5 7t1.5 5t5.5 2.5t10.5 -3.5q275 -145 361 -189q18 -9 42 -9q25 0 43 9q106 54 361 189z" />
    <glyph glyph-name="glyph14" unicode="&#x2713;" horiz-adv-x="632" 
d="M234 -59q-33 0 -53 26l-167 221q-17 21 -13 48t25.5 43.5t48.5 12.5t43 -26l110 -145l277 445q15 22 41 28.5t49 -7.5q23 -15 29 -41.5t-8 -49.5l-327 -525q-19 -30 -55 -30z" />
    <glyph glyph-name="glyph13" unicode="&#x2715;" horiz-adv-x="448" 
d="M425 121q16 -17 16 -40t-16.5 -39.5t-39.5 -16.5t-40 16l-124 143l-124 -143q-17 -16 -40 -16t-39.5 16.5t-16.5 39.5t16 40l129 148l-129 147q-16 17 -16 40t16.5 39.5t39.5 16.5t40 -16l124 -142l124 142q17 16 40 16t39.5 -16.5t16.5 -39.5t-16 -40l-130 -147z" />
    <glyph glyph-name="glyph15" unicode="&#x2716;" horiz-adv-x="794" 
d="M394 662q64 0 124 -20t108.5 -56t85 -84.5t56.5 -108.5t20 -124t-20 -124.5t-56.5 -108.5t-85 -84.5t-108.5 -56.5t-124 -20t-124 20t-108.5 56.5t-85 84.5t-56 108.5t-19.5 124.5t19.5 124t56 108.5t85 84.5t108.5 56t124 20zM475 269l144 143l-81 81l-144 -143
l-143 143l-81 -81l143 -143l-143 -144l81 -81l143 144l144 -143l81 80z" />
    <glyph glyph-name="glyph31" unicode="&#x2753;" horiz-adv-x="551" 
d="M1 433q5 122 72 189.5t190 67.5q121 0 201 -58q80 -57 80 -171q0 -64 -39 -117q-15 -20 -83 -74l-43 -29q-27 -21 -38.5 -41t-13.5 -56q0 -4 -3.5 -8.5t-11.5 -4.5h-120q-15 0 -15 11q1 33 2.5 50t7 36t15.5 31q16 19 46.5 43.5t52.5 39.5l22 14q23 17 40 43.5t17 53.5
q0 40 -24 73.5t-87 33.5q-62 0 -88 -41q-25 -40 -25 -86h-155zM260 38q43 -1 70 -28.5t25.5 -70.5t-30 -68t-70.5 -24t-68.5 28t-25.5 70q2 43 30 68.5t69 24.5z" />
    <glyph glyph-name="glyph58" unicode="&#x275e;" horiz-adv-x="719" 
d="M137 578q103 0 151 -82q42 -73 28 -185q-13 -111 -73 -204q-66 -100 -160 -133q-40 -15 -82 -15v66q78 0 139 62q46 48 59 107q13 56 -13 84q-17 19 -49 19q-56 0 -96 41t-40 99.5t40 99.5t96 41zM531 578q102 0 150 -82q42 -73 29 -185q-14 -111 -74 -204
q-65 -100 -159 -133q-40 -15 -83 -15v66q79 0 139 62q46 48 60 107q13 56 -14 84q-17 19 -48 19q-57 0 -97 41t-40 99.5t40 99.5t97 41z" />
    <glyph glyph-name="glyph55" unicode="&#x2795;" horiz-adv-x="551" 
d="M516 315q18 0 23 -11.5t5 -35t-5 -35t-23 -11.5h-197v-197q0 -18 -11.5 -23t-35 -5t-35 5t-11.5 23v197h-197q-18 0 -23 11.5t-5 35t5 35t23 11.5h197v197q0 18 11.5 23t35 5t35 -5t11.5 -23v-197h197z" />
    <glyph glyph-name="glyph46" unicode="&#x2796;" horiz-adv-x="551" 
d="M516 315q18 0 23 -11.5t5 -35t-5 -35t-23 -11.5h-487q-18 0 -23 11.5t-5 35t5 35t23 11.5h487z" />
    <glyph glyph-name="glyph92" unicode="&#x27a1;" horiz-adv-x="925" 
d="M695 34v151h-694v167h694v151l224 -234z" />
    <glyph glyph-name="glyph27" unicode="&#x27a6;" horiz-adv-x="850" 
d="M505 175q-53 0 -92 -1.5t-84.5 -7t-79.5 -15t-70.5 -26t-66 -40.5t-58.5 -57.5t-53 -77.5q2 10 6 26.5t22 63.5t41 90.5t64.5 95.5t91 90t123 64t156.5 26v181l339 -302l-339 -314v204z" />
    <glyph glyph-name="glyph59" unicode="&#x27f2;" horiz-adv-x="888" 
d="M498 653q78 0 149 -30.5t122 -82t81.5 -122.5t30.5 -149.5t-30.5 -149.5t-81.5 -122.5t-122 -82t-149 -30.5q-132 0 -235 82l66 70q75 -56 169 -56q79 0 145 39t104.5 105t38.5 144.5t-38.5 145t-104.5 105t-145 38.5q-57 0 -109.5 -22t-90.5 -59.5t-61.5 -89
t-24.5 -108.5h133l-172 -192l-172 192h115q2 77 33 146.5t82 119.5t121 79.5t146 29.5z" />
    <glyph glyph-name="glyph60" unicode="&#x27f3;" horiz-adv-x="888" 
d="M384 653q76 0 146 -29.5t121 -79.5t82 -119.5t33 -146.5h115l-172 -192l-172 192h133q-1 57 -24.5 108.5t-61.5 89t-90.5 59.5t-109.5 22q-79 0 -145 -38.5t-104.5 -105t-38.5 -145t38.5 -144.5t104.5 -105t145 -39q94 0 169 56l66 -70q-103 -82 -235 -82
q-78 0 -149 30.5t-122 82t-81.5 122.5t-30.5 149.5t30.5 149.5t81.5 122.5t122 82t149 30.5z" />
    <glyph glyph-name="glyph91" unicode="&#x2b05;" horiz-adv-x="925" 
d="M225 34l-224 235l224 234v-151h694v-167h-694v-151z" />
    <glyph glyph-name="glyph93" unicode="&#x2b06;" horiz-adv-x="475" 
d="M469 504h-151v-695h-166v695h-151l234 223z" />
    <glyph glyph-name="glyph90" unicode="&#x2b07;" horiz-adv-x="475" 
d="M469 34l-234 -225l-234 225h151v693h166v-693h151z" />
    <glyph glyph-name="glyph69" unicode="&#xe000;" horiz-adv-x="813" 
d="M784 565q26 -23 22 -56l-91 -607q-4 -11 -15 -19t-22 -8h-549q-11 0 -22 8t-15 19q-87 582 -90 607q-5 33 21 56q7 6 51.5 40.5t51.5 41.5q18 15 52 15h451q34 0 51 -15q8 -7 52.5 -41.5t51.5 -40.5zM404 158q24 0 46 7.5t38.5 19.5t31 30.5t24.5 35.5t18.5 40t13.5 39
t9.5 37t6 29.5t3.5 20.5h-86q-35 -175 -105 -175q-23 0 -41.5 17.5t-31 47t-20 55.5t-13.5 55h-86q3 -16 5 -28.5t9.5 -41.5t16 -51t24 -49.5t34 -45.5t45.5 -30.5t58 -12.5zM74 503h659l-103 107h-453z" />
    <glyph glyph-name="glyph0" unicode="&#xe001;" 
d="M580 60q84 -30 127 -60.5t43 -53.5v-99h-749v188q12 5 27.5 10t29.5 9t19 6q87 32 120.5 64.5t33.5 89.5q0 15 -6 25.5t-14 17t-17 25t-14 46.5q-2 9 -6.5 13.5t-10 7t-11.5 7t-10.5 17.5t-5.5 35q0 8 1.5 15.5t4 11.5t5 7t4.5 4l2 1q-9 47 -12 83q-2 15 1.5 33.5
t16 41.5t32.5 41.5t55.5 31t82 12.5t82 -12.5t55.5 -31t32.5 -41.5t16 -41.5t2.5 -33.5q-2 -16 -5 -37t-5 -33l-3 -13q2 -1 5 -3t8 -12t5 -24q-2 -22 -6.5 -35t-10 -17.5t-11 -7t-10 -7t-6.5 -13.5q-5 -28 -14.5 -46.5t-17.5 -25t-13.5 -17t-5.5 -25.5q0 -57 32.5 -89.5
t120.5 -64.5zM797 315h141v-93h-141v-141h-94v141h-140v93h140v141h94v-141z" />
    <glyph glyph-name="glyph4" unicode="&#xe004;" horiz-adv-x="883" 
d="M229 -192q-44 0 -86 18t-72.5 48t-49 71t-21 84.5t17 91.5t60.5 89l207.5 207.5l256.5 256.5q36 36 79 49t86 1q42 -11 74 -43t43 -74q12 -43 -1.5 -86t-48.5 -79l-443 -444q-22 -22 -49 -34t-56.5 -9t-52.5 25q-18 18 -24 43.5t4.5 56t37.5 57.5l312 312q10 10 23.5 10
t23 -10t9.5 -23.5t-10 -22.5l-312 -312q-19 -19 -23 -38t5 -26q8 -8 22 -7q21 3 43 25l444 444q47 47 33 101q-7 25 -26.5 44.5t-44.5 26.5q-54 14 -101 -33q-75 -75 -257.5 -257t-206.5 -207q-42 -41 -53.5 -88t1 -86t42 -68t68 -42t85.5 -1t89 53l464 464q10 9 23.5 9
t23 -9.5t9.5 -23t-10 -22.5l-464 -465q-78 -77 -174 -77z" />
    <glyph glyph-name="glyph5" unicode="&#xe005;" horiz-adv-x="803" 
d="M703 447q39 0 66.5 -27.5t27.5 -66.5v-272q0 -39 -27.5 -66.5t-66.5 -27.5h-646v132h609v196h-469v-103l-196 169l196 169v-103h506z" />
    <glyph glyph-name="glyph8" unicode="&#xe006;" horiz-adv-x="925" 
d="M460 78q38 0 65 -27.5t27 -66t-27 -66t-65 -27.5t-65.5 27.5t-27.5 66t27.5 66t65.5 27.5zM263 184q53 54 125 73t143.5 0t125.5 -73l-66 -67q-55 55 -131.5 55t-130.5 -55zM132 316q67 67 153.5 102t174 35t174.5 -35t154 -102l-66 -66q-71 72 -166.5 97.5t-191 0
t-167.5 -97.5zM1 448q62 64 138 107t156 64.5t165 21.5t164.5 -21.5t156 -64.5t138.5 -107l-66 -66q-80 81 -184 123t-209.5 42t-209.5 -42t-184 -123z" />
    <glyph glyph-name="glyph12" unicode="&#xe007;" 
d="M272 166h328q3 0 10 1v-86q0 -39 -27.5 -66.5t-66.5 -27.5h-234l-141 -140v140h-47q-38 0 -65.5 27.5t-27.5 66.5v281q0 39 27.5 66.5t65.5 27.5h178v-290zM844 690q39 0 66.5 -27t27.5 -66v-282q0 -39 -27.5 -66t-66.5 -27h-47v-141l-140 141h-328v375q0 39 27.5 66
t65.5 27h422z" />
    <glyph glyph-name="glyph16" unicode="&#xe008;" horiz-adv-x="756" 
d="M657 597q39 0 66 -27.5t27 -66.5v-328q0 -39 -27 -66.5t-66 -27.5h-188v-140l-187 140h-188q-38 0 -65.5 27.5t-27.5 66.5v328q0 39 27.5 66.5t65.5 27.5h563z" />
    <glyph glyph-name="glyph17" unicode="&#xe009;" horiz-adv-x="906" 
d="M444.5 718.5q91.5 1.5 175 -33t144.5 -94t98 -142.5t38 -174.5t-33.5 -175t-94 -144.5t-142 -98t-174 -38t-175.5 33.5t-145 94t-97.5 142t-38 174t33 175.5t94 145t142.5 97.5t174.5 38zM455 -86q72 1 137.5 30t112.5 77t74 114t26 138.5t-30 137.5t-77 112t-114 74.5
t-138 26.5t-137.5 -30t-112.5 -77t-74.5 -114.5t-26.5 -138.5t30 -137.5t77 -112.5t114.5 -74t138.5 -26zM237 58q2 8 4.5 23t12 57t22 79t34.5 78.5t48 67.5t66.5 47.5t81 34.5t76.5 22t59 13l23 4q-2 -9 -4.5 -24t-12.5 -57t-22.5 -78.5t-34.5 -78.5t-47.5 -68
t-66.5 -47.5t-81 -34.5t-76.5 -22t-58.5 -13zM404 317q-19 -20 -19 -46.5t19 -46t46 -19.5t47 19q48 48 82 175q-126 -33 -175 -82z" />
    <glyph glyph-name="glyph18" unicode="&#xe00a;" 
d="M844 643q39 0 66.5 -27.5t27.5 -65.5v-563q0 -39 -27.5 -66t-66.5 -27h-750q-38 0 -65.5 27t-27.5 66v563q0 38 27.5 65.5t65.5 27.5h750zM844 -13v563h-750v-563h750zM422 170v-84h-234v84h234zM422 311v-84h-234v84h234zM422 451v-84h-234v84h234zM745 152
q2 0 3.5 -16.5t1.5 -33.5v-16h-234q0 66 5 66q3 0 8.5 2t19 8t24 12t19 17t8.5 22t-5 21.5t-12.5 20.5t-15.5 22t-13 30.5t-5 40.5q0 51 19 77t65 26t65.5 -26t19.5 -77q0 -22 -5.5 -40.5t-13 -30.5t-15.5 -22t-13 -20.5t-5 -21.5q0 -18 20 -33.5t40 -21.5z" />
    <glyph glyph-name="glyph21" unicode="&#xe00b;" horiz-adv-x="813" 
d="M795 659q7 -7 9.5 -14.5t2 -14.5t-6 -19.5t-11 -23t-16.5 -32t-19 -38.5q-51 -106 -137.5 -269t-147.5 -273l-62 -110l-50 356l-356 50q414 233 652 347q19 10 45 23t36.5 18t24 9.5t21 2t15.5 -11.5zM710 568l-285 -262l26 -218z" />
    <glyph glyph-name="glyph23" unicode="&#xe00c;" 
d="M703 -3v52l94 76v-175q0 -19 -13.5 -33t-33.5 -14h-703q-19 0 -32.5 14t-13.5 33v515q0 20 13.5 33.5t32.5 13.5h271q-31 -23 -56.5 -46.5t-35.5 -34.5l-10 -12h-122v-422h609zM626 323q-53 0 -91 -3.5t-73 -12.5t-61 -23t-52 -38t-49 -55t-51 -77q0 5 0.5 13.5t4 33.5
t9.5 50t19 58.5t31 62.5t47.5 58.5t65.5 50t88 33.5t112 13v147l312 -234l-312 -244v167z" />
    <glyph glyph-name="glyph28" unicode="&#xe00d;" horiz-adv-x="869" 
d="M522 700q92 0 170.5 -46t124.5 -124.5t46 -170.5q0 -88 -41.5 -163.5t-113 -122t-157.5 -54.5q-32 -81 -104.5 -131t-161.5 -50q-77 0 -142.5 38t-103.5 103.5t-38 142.5q0 89 50 161.5t131 103.5q5 65 34 122.5t74 99.5t105.5 66.5t126.5 24.5zM285 -68q51 0 94.5 25.5
t69.5 68.5q-97 21 -167.5 91.5t-92.5 167.5q-42 -25 -68 -68.5t-26 -94.5q0 -78 56 -134t134 -56zM288 311q15 -70 65.5 -120.5t121.5 -65.5q-2 77 -56.5 131t-130.5 55zM570 125q82 17 136 82.5t54 151.5q0 64 -32 119t-87 87t-119 32q-86 0 -152 -54t-82 -137
q57 0 109 -22.5t89.5 -60t60 -89.5t23.5 -109zM98 497q-40 0 -68.5 28.5t-28.5 69t28.5 69t68.5 28.5t68.5 -28.5t28.5 -69t-28.5 -69t-68.5 -28.5zM98.5 648q-22.5 0 -38 -15.5t-15.5 -38t15.5 -38t38 -15.5t38 15.5t15.5 38t-15.5 38t-38 15.5z" />
    <glyph glyph-name="glyph32" unicode="&#xe00e;" horiz-adv-x="869" 
d="M426 700q88 1 168 -32t138.5 -90t93.5 -136.5t36.5 -167t-31.5 -168t-90 -138.5t-136.5 -93.5t-167 -37t-168 32t-138.5 90.5t-93.5 136t-36.5 167q-1 58 14 114t42 103.5t66 88t86 69t103 45t114 17.5zM488 67q1 28 -17 46t-47 19q-27 0 -45 -17.5t-18 -43.5
q-1 -28 17 -46t47 -19q27 0 44.5 17t18.5 44zM431 443q31 0 47.5 -16.5t16.5 -45.5q0 -13 -10.5 -29.5t-22.5 -25.5q-4 -2 -15.5 -10t-30.5 -23.5t-29 -27.5q-3 -2 -4.5 -5l-3 -6t-3 -7t-2 -6.5t-1 -8t-1 -8t-1 -9.5t-0.5 -9.5t-0.5 -10.5t-0.5 -11h100q0 18 5 32
q4 15 26 32l26 18q17 13 25 20t20 19.5t17.5 22.5t10 25.5t4.5 33.5q0 47 -24 80t-63.5 48.5t-89.5 15.5q-78 0 -119.5 -43.5t-45.5 -122.5h104v4q0 26 15 51q14 23 50 23z" />
    <glyph glyph-name="glyph35" unicode="&#xe00f;" horiz-adv-x="869" 
d="M426 700q88 1 168 -32t138.5 -90t93.5 -136.5t36.5 -167t-31.5 -168t-90 -138.5t-136.5 -93.5t-167 -37t-168 32t-138.5 90.5t-93.5 136t-36.5 167q-1 58 14 114t42 103.5t66 88t86 69t103 45t114 17.5zM474 556q-40 0 -61 -22t-21 -47q-1 -26 14 -40.5t46 -14.5
q35 0 56.5 20.5t21.5 49.5q0 54 -56 54zM361 -1q28 0 79.5 25.5t99.5 73.5l-17 22q-20 -16 -40 -24.5t-28 -8.5q-12 0 -3 35l40 149q11 41 6 65.5t-27 24.5q-29 0 -85 -27t-107 -70l15 -24q16 11 40 21t31 10q3 0 4 -1.5t0.5 -5.5t-1.5 -10t-3 -15l-34 -142
q-12 -39 -8.5 -61t13 -29.5t25.5 -7.5z" />
    <glyph glyph-name="glyph38" unicode="&#xe010;" horiz-adv-x="869" 
d="M426 700q70 0 136 -20.5t119.5 -60t94 -92t63.5 -118t24 -135.5q1 -88 -32 -168t-90 -138.5t-136.5 -93.5t-167 -36.5t-168 32t-138.5 90.5t-93.5 136t-36.5 167q-1 58 14 114t42 103.5t66 88t86 69t103 45t114 17.5zM427 643q-90 -1 -168 -42l58 -97q54 27 114.5 27
t114.5 -27l59 97q-83 44 -178 42zM196 153q-27 55 -27 116q0 60 27 114l-97 59q-43 -83 -42 -178q1 -90 42 -168zM437 -106q89 1 168 42l-59 97q-54 -27 -114.5 -27t-114.5 27l-58 -97q82 -43 178 -42zM431.5 62q55.5 0 103.5 28t75.5 75.5t27.5 103t-27.5 103.5t-75 75.5
t-103.5 27.5t-103.5 -27.5t-75 -75.5t-27.5 -103q0 -57 27.5 -104t75 -75t103 -28zM668 153l96 -57q44 83 42 178q-1 89 -42 168l-96 -59q26 -54 26 -114q0 -61 -26 -116z" />
    <glyph glyph-name="glyph42" unicode="&#xe011;" horiz-adv-x="475" 
d="M235 643q97 0 165.5 -68.5t68.5 -165.5q0 -46 -12.5 -99t-33.5 -101t-46 -96t-50 -87t-45.5 -69t-33.5 -47l-13 -16q-5 6 -13.5 17t-33 45.5t-46.5 70t-49 86t-46.5 97t-32.5 100t-13 99.5q0 97 68.5 165.5t165.5 68.5zM235 280q53 0 89.5 37t36.5 89.5t-36.5 89.5
t-89.5 37t-89.5 -37t-36.5 -89.5t36.5 -89.5t89.5 -37z" />
    <glyph glyph-name="glyph44" unicode="&#xe012;" 
d="M938 -74q0 -13 -9 -22.5t-22 -9.5q-8 0 -16 5l-203 127l-203 -127q-16 -10 -31 0l-204 127l-203 -127q-17 -11 -31.5 0t-14.5 27v548q0 18 15 28l218 137q16 9 32 0l203 -127l203 127q16 9 32 0l218 -137q16 -10 16 -28v-548zM220 81v474l-158 -99v-474zM438 -18v474
l-157 99v-474zM658 81v474l-158 -99v-474zM876 -18v474l-157 99v-474z" />
    <glyph glyph-name="glyph47" unicode="&#xe013;" horiz-adv-x="794" 
d="M394 662q64 0 124 -20t108.5 -56t85 -84.5t56.5 -108.5t20 -124t-20 -124.5t-56.5 -108.5t-85 -84.5t-108.5 -56.5t-124 -20t-124 20t-108.5 56.5t-85 84.5t-56 108.5t-19.5 124.5t19.5 124t56 108.5t85 84.5t108.5 56t124 20zM631 317h-473v-96h473v96z" />
    <glyph glyph-name="glyph49" unicode="&#xe014;" horiz-adv-x="532" 
d="M516 63q26 -74 -16.5 -147t-129.5 -103q-60 -17 -113 -8.5t-93.5 42t-53.5 83.5l-101 360q-18 63 6.5 125.5t79.5 98.5l-91 175q-6 12 -2 25t16 19.5t25 3t19 -16.5l92 -180q75 21 144.5 -15t94.5 -109zM211.5 320q25.5 9 38 33t4 50.5t-32.5 39.5t-49.5 4t-38 -33.5
t-4 -51t32.5 -39t49.5 -3.5z" />
    <glyph glyph-name="glyph52" unicode="&#xe015;" horiz-adv-x="906" 
d="M885 718q13 -35 14.5 -70.5t-5.5 -66.5t-20.5 -59.5t-32.5 -54t-39.5 -45.5t-43.5 -38l16 -23q6 -10 8 -24.5t-1 -25.5l-47 -148q-3 -11 -12.5 -23.5t-19.5 -19.5l-436 -308q-15 -12 -31.5 -12t-27.5 16l-198 286q-11 16 -7.5 35t18.5 31l436 308q9 7 24 11.5t27 4.5
l148 1q11 0 24 -7t20 -17l26 -38q18 14 34 29t32.5 35t28 42.5t19 47.5t6 54.5t-11.5 60.5q-4 11 1 21.5t16 14t21.5 -1.5t13.5 -16zM683 280q18 12 26.5 32.5t4.5 41.5q-18 -11 -29 -15q-5 -3 -12 -3q-14 0 -22 10.5t-5.5 24t15.5 19.5q10 5 23 13q-19 14 -42.5 14.5
t-44.5 -13.5q-25 -18 -30.5 -49t12.5 -56.5t48.5 -31t55.5 12.5z" />
    <glyph glyph-name="glyph56" unicode="&#xe016;" horiz-adv-x="794" 
d="M394 662q64 0 124 -20t108.5 -56t85 -84.5t56.5 -108.5t20 -124t-20 -124.5t-56.5 -108.5t-85 -84.5t-108.5 -56.5t-124 -20t-124 20t-108.5 56.5t-85 84.5t-56 108.5t-19.5 124.5t19.5 124t56 108.5t85 84.5t108.5 56t124 20zM442 221h189v96h-189v188h-96v-188h-188
v-96h188v-189h96v189z" />
    <glyph glyph-name="glyph57" unicode="&#xe017;" horiz-adv-x="925" 
d="M62 432q-13 0 -17.5 7.5t-1.5 16t9 10.5q2 0 22 7.5t43 15.5t48.5 17t46 14.5t27.5 5.5h43v141h356v-141h42q7 0 27.5 -5.5t46 -14.5t48.5 -17t43.5 -15.5t21.5 -7.5q7 -2 9.5 -10.5t-2 -16t-16.5 -7.5h-796zM867 381q19 0 35.5 -18t16.5 -38v-164q0 -20 -16.5 -38.5
t-35.5 -18.5h-93l42 -234h-712l41 234h-93q-18 0 -34.5 18.5t-16.5 38.5v164q0 20 16.5 38t34.5 18h815zM197 -36h525l-65 305h-394z" />
    <glyph glyph-name="glyph61" unicode="&#xe018;" horiz-adv-x="850" 
d="M844 -50q-25 44 -53.5 77.5t-58 57.5t-66.5 40.5t-70.5 26t-79 15t-84.5 7t-93 1.5v-204l-338 314l338 302v-181q84 0 157 -25t123 -65.5t91 -89t65 -97t40.5 -88.5t22.5 -66z" />
    <glyph glyph-name="glyph62" unicode="&#xe019;" 
d="M339 462l-198 -177l198 -184v-130l-338 314l338 302v-125zM573 406q56 0 104 -15.5t82.5 -42t62.5 -60.5t46 -72t32 -75.5t20.5 -72t11 -61t5.5 -41.5l1 -16q-22 39 -43 69.5t-42 53t-40.5 39.5t-42.5 28.5t-44 18t-47.5 10.5t-50 5t-55.5 1v-204l-338 314l338 302v-181z
" />
    <glyph glyph-name="glyph63" unicode="&#xe01a;" 
d="M244 119h208l120 -132h-365q-39 0 -66.5 27.5t-27.5 66.5v281h-112l178 188l178 -188h-113v-243zM825 175h113l-178 -188l-178 188h112v244h-208l-120 131h365q39 0 66.5 -27.5t27.5 -66.5v-281z" />
    <glyph glyph-name="glyph64" unicode="&#xe01b;" horiz-adv-x="719" 
d="M1 625q97 0 189 -26t170 -71.5t144 -111t111.5 -144t71 -170.5t25.5 -189h-110q0 122 -47.5 233.5t-128 192t-192 128t-233.5 47.5v111zM1 403q80 0 154.5 -25t135 -70t105.5 -105.5t70 -135t25 -154.5h-111q0 77 -30 147t-81 121t-121 81t-147 30v111zM107 125
q44 0 75 -31t31 -75t-31 -75t-75 -31t-75 31t-31 75t31 75t75 31z" />
    <glyph glyph-name="glyph68" unicode="&#xe01c;" horiz-adv-x="756" 
d="M610 128q58 0 99 -41t41 -100q0 -58 -41 -99t-99.5 -41t-99.5 41t-41 99q0 14 2 24l-244 146q-38 -29 -86 -29q-58 0 -99 41t-41 99.5t41 99.5t99 41q48 0 86 -29l244 147q-2 9 -2 23q0 58 41 99t99.5 41t99.5 -41t41 -99.5t-41 -99.5t-99 -41q-48 0 -86 29l-244 -146
q2 -10 2 -23.5t-2 -22.5l244 -147q38 29 86 29z" />
    <glyph glyph-name="glyph78" unicode="&#xe01d;" 
d="M469 531q63 0 122.5 -12.5t105 -33.5t85.5 -46.5t68 -51.5t48 -50.5t30 -42t10 -26t-10 -26t-30 -41.5t-48 -50.5t-68 -52.5t-85.5 -46.5t-105 -33t-122.5 -12.5t-122.5 12.5t-105 33t-85.5 46.5t-68 52.5t-48 50.5t-29.5 41.5t-9.5 26t9.5 26t29.5 42t48 50.5t68 51.5
t85.5 46.5t105 33.5t122.5 12.5zM469 67q86 0 147 59t61 142.5t-61 142.5t-147 59t-147 -59t-61 -142.5t61 -142.5t147 -59zM469 269q6 -6 17 -5t26.5 4t29 6.5t22.5 2.5t9 -8q0 -42 -30.5 -71.5t-73.5 -29.5t-73.5 29.5t-30.5 71.5q0 41 30.5 70.5t73.5 29.5q9 0 10.5 -8.5
t-2.5 -20.5t-7.5 -26.5t-5 -26t4.5 -18.5z" />
    <glyph glyph-name="glyph81" unicode="&#xe01e;" horiz-adv-x="925" 
d="M786 503v-47h-653v47q0 20 12 32t24 13l11 2h559q2 0 5.5 -0.5t11.5 -3t14 -7t11 -14t5 -22.5zM646 643h5t11 -2.5t14.5 -7t11.5 -14t5 -22.5h-466q0 20 11.5 32t23.5 13l11 1h373zM879 456q4 -4 13 -12.5t11.5 -11.5t8 -11t6 -15t0.5 -18t-2 -26q-7 -33 -38.5 -220.5
t-34.5 -200.5q-3 -21 -17.5 -33t-27.5 -13l-12 -1h-653h-4.5t-12.5 2.5t-16 7t-14.5 14t-9.5 23t-34 201t-38 220.5q-3 15 -3 26t1 18t6 15t8 11l11.5 11.5l12.5 12.5l27 28v-75h785v75zM646 203v94h-65v-75h-242v75h-66v-94v-2.5t1 -6.5t2.5 -9.5t5.5 -10t8.5 -9t12 -6.5
t17.5 -3h280q20 0 31.5 12t13.5 24z" />
    <glyph glyph-name="glyph82" unicode="&#xe020;" horiz-adv-x="869" 
d="M431.5 700q87.5 0 167.5 -34.5t137.5 -92t92 -137.5t34.5 -167.5t-34.5 -167t-92 -137.5t-137.5 -92t-167.5 -34t-167 34t-137.5 92t-92 137.5t-34 167t34 167.5t92 137.5t137.5 92t167 34.5zM431.5 -68q68.5 0 131 26.5t107.5 71.5t72 107.5t27 131t-27 131t-72 107.5
t-107.5 72t-131 27t-131 -27t-107.5 -72t-72 -107.5t-27 -131t27 -131t72 -107.5t107.5 -71.5t131 -26.5zM516 449v-192h105l-189 -178l-190 178h105v192h169z" />
    <glyph glyph-name="glyph83" unicode="&#xe021;" horiz-adv-x="869" 
d="M863 268.5q0 -87.5 -34.5 -167t-92 -137.5t-137.5 -92t-167.5 -34t-167 34t-137.5 92t-92 137.5t-34 167t34 167.5t92 137.5t137.5 92t167 34.5t167.5 -34.5t137.5 -92t92 -137.5t34.5 -167.5zM94 268.5q0 -68.5 27 -131t72 -107.5t107.5 -71.5t131 -26.5t131 26.5
t107.5 71.5t72 107.5t27 131t-27 131t-72 107.5t-107.5 72t-131 27t-131 -27t-107.5 -72t-72 -107.5t-27 -131zM612 184h-192v-105l-178 190l178 190v-106h192v-169z" />
    <glyph glyph-name="glyph84" unicode="&#xe022;" horiz-adv-x="869" 
d="M1 268.5q0 87.5 34 167.5t92 137.5t137.5 92t167 34.5t167.5 -34.5t137.5 -92t92 -137.5t34.5 -167.5t-34.5 -167t-92 -137.5t-137.5 -92t-167.5 -34t-167 34t-137.5 92t-92 137.5t-34 167zM769 268.5q0 68.5 -27 131t-72 107.5t-107.5 72t-131 27t-131 -27t-107.5 -72
t-72 -107.5t-27 -131t27 -131t72 -107.5t107.5 -71.5t131 -26.5t131 26.5t107.5 71.5t72 107.5t27 131zM251 353h192v106l178 -190l-178 -190v105h-192v169z" />
    <glyph glyph-name="glyph85" unicode="&#xe023;" horiz-adv-x="869" 
d="M431.5 -162q-87.5 0 -167 34t-137.5 92t-92 137.5t-34 167t34 167.5t92 137.5t137.5 92t167 34.5t167.5 -34.5t137.5 -92t92 -137.5t34.5 -167.5t-34.5 -167t-92 -137.5t-137.5 -92t-167.5 -34zM431.5 606q-68.5 0 -131 -27t-107.5 -72t-72 -107.5t-27 -131t27 -131
t72 -107.5t107.5 -71.5t131 -26.5t131 26.5t107.5 71.5t72 107.5t27 131t-27 131t-72 107.5t-107.5 72t-131 27zM347 88v192h-105l190 179l189 -179h-105v-192h-169z" />
    <glyph glyph-name="glyph86" unicode="&#xe024;" horiz-adv-x="551" 
d="M529 336l-220 -211q-15 -16 -37 -16t-37 16q-200 191 -220 211q-14 15 -14.5 37t14.5 38q16 16 35.5 16.5t38.5 -16.5l183 -175l183 175q20 17 39.5 16.5t34.5 -16.5t15 -38t-15 -37z" />
    <glyph glyph-name="glyph87" unicode="&#xe025;" horiz-adv-x="325" 
d="M227 525q15 15 37.5 15t38.5 -15t16.5 -34.5t-16.5 -38.5l-176 -183l176 -183q17 -20 16.5 -39.5t-16.5 -34.5q-16 -16 -38.5 -15.5t-37.5 15.5l-211 220q-15 15 -15 37t15 37q191 200 211 219z" />
    <glyph glyph-name="glyph88" unicode="&#xe026;" horiz-adv-x="325" 
d="M93 525l211 -219q15 -15 15 -37t-15 -37q-192 -201 -211 -220q-15 -15 -37.5 -15.5t-38.5 15.5q-16 15 -16 34.5t16 39.5l175 183l-175 183q-16 19 -16 38.5t16 34.5t38.5 15t37.5 -15z" />
    <glyph glyph-name="glyph89" unicode="&#xe027;" horiz-adv-x="551" 
d="M529 201q15 -15 15 -37.5t-15 -38.5t-34.5 -16t-39.5 16l-183 176l-183 -176q-19 -16 -38.5 -16t-35.5 16q-15 16 -14.5 38.5t14.5 37.5l220 211q15 16 37 16t37 -16q201 -191 220 -211z" />
    <glyph glyph-name="glyph106" unicode="&#xe030;" 
d="M844 503q39 0 66.5 -27.5t27.5 -66.5v-281q0 -39 -27.5 -66.5t-66.5 -27.5h-750q-38 0 -65.5 27.5t-27.5 66.5v281q0 39 27.5 66.5t65.5 27.5h750zM844 128v281h-750v-281h750z" />
    <glyph glyph-name="glyph107" unicode="&#xe031;" 
d="M844 503q39 0 66.5 -27.5t27.5 -66.5v-281q0 -39 -27.5 -66.5t-66.5 -27.5h-750q-38 0 -65.5 27.5t-27.5 66.5v281q0 39 27.5 66.5t65.5 27.5h750zM844 128v281h-750v-281h750zM329 362v-187h-188v187h188z" />
    <glyph glyph-name="glyph108" unicode="&#xe032;" 
d="M844 503q39 0 66.5 -27.5t27.5 -66.5v-281q0 -39 -27.5 -66.5t-66.5 -27.5h-750q-38 0 -65.5 27.5t-27.5 66.5v281q0 39 27.5 66.5t65.5 27.5h750zM844 128v281h-750v-281h750zM563 362v-187h-188v187h188zM329 362v-187h-188v187h188z" />
    <glyph glyph-name="glyph109" unicode="&#xe033;" 
d="M844 503q39 0 66.5 -27.5t27.5 -66.5v-281q0 -39 -27.5 -66.5t-66.5 -27.5h-750q-38 0 -65.5 27.5t-27.5 66.5v281q0 39 27.5 66.5t65.5 27.5h750zM844 128v281h-750v-281h750zM797 362v-187h-187v187h187zM329 362v-187h-188v187h188zM563 362v-187h-188v187h188z" />
    <glyph glyph-name="glyph6" unicode="&#xe035;" horiz-adv-x="803" 
d="M188 269v-85l-187 150l187 160v-94h515q39 0 66.5 -27.5t27.5 -66.5v-262h-131v225h-478z" />
    <glyph glyph-name="glyph121" unicode="&#xe040;" horiz-adv-x="888" 
d="M498 653q78 0 149 -30.5t122 -82t81.5 -122.5t30.5 -149.5t-30.5 -149.5t-81.5 -122.5t-122 -82t-149 -30.5q-132 0 -235 82l66 70q75 -56 169 -56q79 0 145 39t104.5 105t38.5 144.5t-38.5 145t-104.5 105t-145 38.5q-57 0 -109.5 -22t-90.5 -59.5t-61.5 -89
t-24.5 -108.5h133l-172 -192l-172 192h115q2 77 33 146.5t82 119.5t121 79.5t146 29.5zM465 475h65v-193l122 -121l-47 -47l-140 141v220z" />
    <glyph glyph-name="glyph140" unicode="&#xe042;" 
d="M722 436l-253 -238l-253 238h141v231h225v-231h140zM906 126q17 -10 26 -29.5t4 -38.5l-26 -144q-5 -18 -22 -31t-37 -13h-764q-20 0 -37 13t-21 31l-27 144q-5 19 4 38.5t26 29.5l149 101h92l-160 -123h166q8 0 12 -6l38 -105h280l39 105q4 6 11 6h166l-160 123h92z" />
    <glyph glyph-name="glyph141" unicode="&#xe043;" 
d="M469 667l253 -238h-140v-231h-225v231h-141zM906 126q17 -10 26 -29.5t4 -38.5l-26 -144q-5 -18 -22 -31t-37 -13h-764q-20 0 -37 13t-21 31l-27 144q-5 19 4 38.5t26 29.5l149 101h92l-160 -123h166q8 0 12 -6l38 -105h280l39 105q4 6 11 6h166l-160 123h92z" />
    <glyph glyph-name="glyph142" unicode="&#xe045;" 
d="M713 403q61 0 113 -29.5t82 -80t30 -110t-30 -110t-82 -80t-113 -29.5h-178v178h98l-164 215l-164 -215h99v-178h-234q-70 0 -119.5 48.5t-49.5 117t49.5 117t119.5 48.5q14 0 20 -1q-2 14 -2 36q0 49 19.5 94t53 77.5t79.5 52t97 19.5q83 0 149 -48.5t89 -125.5
q18 4 38 4z" />
    <glyph glyph-name="glyph130" unicode="&#xe048;" horiz-adv-x="663" 
d="M563 690q39 0 66.5 -27t27.5 -66v-656q0 -39 -27.5 -66.5t-66.5 -27.5h-469q-38 0 -65.5 27.5t-27.5 66.5v656q0 39 27.5 66t65.5 27h469zM563 -59v656h-469v-656h469z" />
    <glyph glyph-name="glyph131" unicode="&#xe049;" horiz-adv-x="663" 
d="M610 503q19 0 33 -14t14 -33v-562q0 -19 -14 -33t-33 -14h-375q-19 0 -33 14t-14 33v140h-141q-19 0 -32.5 14t-13.5 33v562q0 20 13.5 33.5t32.5 13.5h375q20 0 33.5 -13.5t13.5 -33.5v-140h141zM94 128h94v329q0 19 13.5 32.5t32.5 13.5h141v94h-281v-469zM563 -59v468
h-281v-468h281z" />
    <glyph glyph-name="glyph132" unicode="&#xe04a;" 
d="M1 503q0 39 27.5 66.5t65.5 27.5h750q39 0 66.5 -27.5t27.5 -66.5v-469q0 -38 -27.5 -65.5t-66.5 -27.5h-750q-38 0 -65.5 27.5t-27.5 65.5v469zM844 503h-750v-469h750v469z" />
    <glyph glyph-name="glyph123" unicode="&#xe050;" horiz-adv-x="213" 
d="M103.5 372q42.5 0 73 -30.5t30.5 -73t-30.5 -72.5t-73 -30t-72.5 30t-30 72.5t30 73t72.5 30.5z" />
    <glyph glyph-name="glyph124" unicode="&#xe051;" horiz-adv-x="541" 
d="M103.5 372q42.5 0 73 -30.5t30.5 -73t-30.5 -72.5t-73 -30t-72.5 30t-30 72.5t30 73t72.5 30.5zM431.5 372q42.5 0 73 -30.5t30.5 -73t-30.5 -72.5t-73 -30t-72.5 30t-30 72.5t30 73t72.5 30.5z" />
    <glyph glyph-name="glyph125" unicode="&#xe052;" horiz-adv-x="869" 
d="M103.5 372q42.5 0 73 -30.5t30.5 -73t-30.5 -72.5t-73 -30t-72.5 30t-30 72.5t30 73t72.5 30.5zM431.5 372q42.5 0 73 -30.5t30.5 -73t-30.5 -72.5t-73 -30t-72.5 30t-30 72.5t30 73t72.5 30.5zM759.5 372q42.5 0 73 -30.5t30.5 -73t-30.5 -72.5t-73 -30t-72.5 30
t-30 72.5t30 73t72.5 30.5z" />
    <glyph glyph-name="glyph136" unicode="&#xe057;" horiz-adv-x="847" 
d="M841 107q0 -31 -22 -53t-53 -22h-731q-31 0 -34 11.5t23 26.5l753 424q26 16 45 5.5t19 -41.5v-351z" />
    <glyph glyph-name="glyph153" unicode="&#xe058;" horiz-adv-x="438" 
d="M216 737l216 -342h-431zM216 -200l-215 342h431z" />
    <glyph glyph-name="glyph154" unicode="&#xe059;" 
d="M844 643q39 0 66.5 -27.5t27.5 -65.5v-563q0 -39 -27.5 -66t-66.5 -27h-750q-38 0 -65.5 27t-27.5 66v563q0 38 27.5 65.5t65.5 27.5h750zM216.5 556q-14.5 0 -25 -10t-10.5 -24.5t10.5 -24.5t25 -10t24.5 10t10 24.5t-10 24.5t-24.5 10zM87 521.5q0 -14.5 10.5 -24.5
t25 -10t25 10t10.5 24.5t-10.5 24.5t-25 10t-25 -10t-10.5 -24.5zM845 -13v432h-751v-432h751zM845 493v57h-563v-57h563z" />
    <glyph glyph-name="glyph155" unicode="&#xe05a;" horiz-adv-x="663" 
d="M563 690q39 0 66.5 -27t27.5 -66v-656q0 -39 -27.5 -66.5t-66.5 -27.5h-469q-38 0 -65.5 27.5t-27.5 66.5v656q0 39 27.5 66t65.5 27h469zM460 244q16 26 20.5 51t-1.5 47t-17 42.5t-25 39t-26.5 34.5t-21 31.5t-8.5 26.5h-56v-344q-39 15 -84 -2q-40 -14 -61 -45
t-10.5 -60.5t49.5 -41t79 1.5q43 13 63 35.5t20 56.5v244q25 -4 41.5 -19t21.5 -34t5 -35.5t-3 -28.5q-3 -9 2 -10t12 10z" />
    <glyph glyph-name="glyph156" unicode="&#xe05b;" 
d="M906 313q19 -20 26.5 -35t3.5 -32l-26 -144q-5 -19 -22 -31.5t-37 -12.5h-764q-20 0 -37 12.5t-21 31.5l-27 144q-4 17 3.5 32t26.5 35q19 22 147 146q20 21 49 21h482q29 0 49 -21q128 -124 147 -146zM659 282h166l-96 104h-520l-95 -104h166q7 0 11 -6l38 -95h280
l39 95q4 6 11 6z" />
    <glyph glyph-name="glyph157" unicode="&#xe05c;" horiz-adv-x="850" 
d="M829 227q9 -18 13 -44t0 -46l-31 -173q-3 -19 -19.5 -33t-36.5 -14h-666q-19 0 -35.5 14t-19.5 33l-32 173q-3 20 1 46t12 44l148 350q9 18 29 30.5t40 12.5h97l-19 -190h-127l239 -198l239 198h-126l-19 190h97q19 0 39 -12.5t29 -30.5zM765 98q3 20 -9 34t-32 14h-604
q-20 0 -31.5 -14t-9.5 -34l12 -67q3 -19 19 -33t36 -14h553q20 0 35.5 14t18.5 33z" />
    <glyph glyph-name="glyph158" unicode="&#xe05d;" 
d="M427 246v-94h-426q6 212 9 274q2 50 23 75.5t71 25.5h150q14 25 34 63.5t22 41.5q12 23 21 29t34 6h208q25 0 34 -6t21 -29q2 -3 22 -41.5t34 -63.5h151q49 0 70.5 -25.5t22.5 -75.5l10 -274h-427v94h-84zM359 577q-1 -2 -6 -10.5t-10.5 -19t-10.5 -20.5h274
q-5 10 -10.5 20.5t-10.5 19t-6 10.5q-8 16 -14.5 20.5t-23.5 4.5h-144q-17 0 -23.5 -4.5t-14.5 -20.5zM511 12v93h403q-5 -82 -9 -156q-1 -11 -2.5 -19.5t-7 -20t-14 -19.5t-24.5 -13.5t-37 -5.5h-702q-21 0 -37 5.5t-24.5 13.5t-14 19.5t-7 20t-1.5 19.5l-10 156h403v-93
h84z" />
    <glyph glyph-name="glyph160" unicode="&#xe05e;" horiz-adv-x="869" 
d="M210 413q-21 0 -40 -9q-49 55 -86 120q50 67 122 112q73 -30 141 -78q-6 -14 -6 -29q0 -11 3 -22q-57 -43 -107 -98q-13 4 -27 4zM119 321q0 -30 18 -55q-55 -103 -75 -218q-61 102 -61 221q0 103 45 193q34 -53 80 -104q-7 -18 -7 -37zM433 620q-25 0 -46 -12
q-53 38 -107 64q72 28 152 28q115 0 215 -58q-78 -15 -151 -46q-26 24 -63 24zM570 189q-147 21 -272 105q4 13 4 27q0 26 -14 49q43 47 92 84q24 -17 53 -17q19 0 36 7q85 -100 125 -225q-16 -13 -24 -30zM689 65q39 17 51 55q51 5 102 18q-20 -66 -60.5 -121.5
t-95.5 -95.5q5 48 5 91q0 24 -2 53zM549 127q-177 -90 -285 -255q-84 35 -148 103q11 135 75 257q8 -2 19 -2q27 0 48 14q134 -91 291 -117zM721 588q66 -60 104 -143t38 -176q0 -31 -5 -61q-60 -18 -120 -24q-11 25 -33.5 40.5t-49.5 16.5q-45 138 -139 248q9 19 9 40
q0 6 -1 9q94 40 197 50zM595 78q12 -10 30 -16q2 -22 2 -50q0 -68 -13 -134q-87 -40 -182 -40q-53 0 -105 13q103 150 268 227z" />
    <glyph glyph-name="glyph143" unicode="&#xe05f;" 
d="M357.5 538q13.5 -12 13.5 -29.5t-13 -29.5l-233 -210l233 -211q13 -12 13 -29t-13.5 -29t-29.5 -12t-29 12l-298 269l298 269q13 12 29 12t29.5 -12zM639 538l299 -269l-299 -269q-13 -12 -29 -12t-29 12t-12.5 29t13.5 29l231 211l-231 210q-13 12 -13.5 29.5t12.5 29.5
t29 12t29 -12z" />
    <glyph glyph-name="glyph144" unicode="&#xe060;" horiz-adv-x="756" 
d="M657 643q39 0 66 -27.5t27 -65.5v-375q0 -39 -27 -66.5t-66 -27.5h-375q-39 0 -66.5 27.5t-27.5 66.5v375q0 39 27 66t66 27h376zM657 175v375h-375v-375h375zM94 269v-282h281v-93h-281q-38 0 -65.5 27t-27.5 66v282h93z" />
    <glyph glyph-name="glyph145" unicode="&#xe061;" 
d="M844 690q39 0 66.5 -27t27.5 -66v-563q0 -38 -27.5 -65t-66.5 -27h-186v92h187v431h-751v-431h187v-92h-187q-38 0 -65.5 27t-27.5 65v563q0 39 27.5 66t65.5 27h750zM122.5 534q14.5 0 25 10t10.5 24t-10.5 24.5t-25 10.5t-25 -10.5t-10.5 -24.5t10.5 -24t25 -10z
M216.5 534q14.5 0 24.5 10t10 24t-10 24.5t-24.5 10.5t-25 -10.5t-10.5 -24.5t10.5 -24t25 -10zM845 539v59h-564v-59h564zM467 354l227 -226h-141v-281h-173v281h-141z" />
    <glyph glyph-name="glyph146" unicode="&#xe062;" horiz-adv-x="925" 
d="M802 707q47 -4 75 -10t36 -14.5t5.5 -18t-14 -20t-23 -20.5t-20.5 -21t-8 -20q1 -13 -11 -43.5t-27 -47.5q-9 -11 -88.5 -27t-154.5 -26l-75 -10q4 -3 12.5 -7t35 -15t54.5 -20.5t70.5 -18.5t83.5 -12q-18 -26 -50.5 -47t-70 -33.5t-78.5 -22t-78.5 -13t-68 -5.5
t-48.5 -2h-18q3 -4 10 -10t29.5 -22t47 -27.5t61.5 -20t73 -6.5q-3 -2 -16 -12.5t-21 -16.5t-25 -17t-30 -18t-34 -15.5t-39.5 -13t-43.5 -7.5t-49.5 -2t-54.5 6.5t-60 15.5q-68 -109 -140 -230q-3 -6 -10.5 -8t-15 -0.5t-14 6t-8 12.5t2.5 19l114 249q29 61 48.5 100
t49 91.5t59.5 94.5t72.5 92.5t94.5 102.5q70 70 157 94.5t203 16.5z" />
    <glyph glyph-name="glyph147" unicode="&#xe063;" horiz-adv-x="756" 
d="M492 623l258 20l-20 -261l-72 73l-133 -134l-93 94l133 134zM226 216l93 -94l-133 -134l73 -74l-258 -20l19 262l74 -74z" />
    <glyph glyph-name="glyph148" unicode="&#xe064;" horiz-adv-x="775" 
d="M769 556l-136 -137l75 -76l-265 -21l20 269l75 -76l136 138zM137 119l-75 75l265 21l-21 -268l-74 75l-136 -138l-95 97z" />
    <glyph glyph-name="glyph149" unicode="&#xe065;" horiz-adv-x="906" 
d="M450.5 718q91.5 0 174.5 -35.5t143.5 -95.5t96 -143.5t35.5 -175t-35.5 -174.5t-96 -143.5t-143.5 -96t-174.5 -35.5t-175 35.5t-143.5 96t-95.5 143.5t-35.5 174.5t35.5 175t95.5 143.5t143.5 95.5t175 35.5zM834 269q0 125 -73.5 224.5t-188.5 138.5q-16 -21 -15 -29
q1 -21 7 -34t13 -16.5t16 -4t17.5 3.5t17 6.5t14 5t8.5 -1.5q10 -11 10.5 -21t-6 -19t-16 -18.5t-19 -20.5t-16 -23.5t-6 -30t10.5 -36.5q17 -34 37.5 -47t51.5 -13q14 0 25 -11t17.5 -27.5t10 -30.5t4.5 -27q3 -24 -1 -66.5t-14 -63.5q-7 -15 -5.5 -30t7.5 -25.5t14 -16.5
q79 103 79 234zM398 648q-105 -14 -186.5 -79.5t-118.5 -162.5q4 -1 16.5 -1.5t21 -1.5t21 -3t21 -4.5t15.5 -7t9 -10.5q4 -9 -3.5 -23t-17 -34t-9.5 -41q0 -15 7.5 -27t17.5 -19.5t20.5 -14.5t18 -16t7.5 -20q0 -25 8 -63t8 -42q0 -12 33 -51t48 -39q10 0 11 21t-2.5 51
t-2.5 36q1 24 13 71q6 20 17 34.5t24.5 22.5t26 14.5t23.5 15.5t16 21q9 24 9.5 44.5t-5.5 35t-17.5 26t-25 18t-28.5 12t-27.5 8t-23.5 5t-14 2.5q-15 6 -39.5 6.5t-34.5 -2.5q-10 -4 -26 10t-16 29q0 9 14.5 24.5t33.5 34t26 29.5q7 12 15.5 18.5t21.5 15t26 19.5
q3 3 22.5 15.5t25.5 22.5zM330 -95q58 -20 120 -20q115 0 212 64q-12 20 -46 27.5t-65 4.5q-22 -1 -60 -16t-45 -17q-9 -1 -23.5 -5.5t-25.5 -6.5t-21 -3q-12 0 -25 -12t-21 -16z" />
    <glyph glyph-name="glyph159" unicode="&#xe06d;" 
d="M239 246v-94h-238q6 212 9 274q2 50 23 75.5t71 25.5h150q14 25 34 63.5t22 41.5q12 23 21 29t34 6h208q25 0 34 -6t21 -29q2 -3 22 -41.5t34 -63.5h151q49 0 70.5 -25.5t22.5 -75.5l10 -274h-239v94h-85v-94h-290v94h-85zM359 577q-1 -2 -6 -10.5t-10.5 -19t-10.5 -20.5
h274q-5 10 -10.5 20.5t-10.5 19t-6 10.5q-8 16 -14.5 20.5t-23.5 4.5h-144q-17 0 -23.5 -4.5t-14.5 -20.5zM699 12v93h215q-5 -82 -9 -156q-1 -11 -2.5 -19.5t-7 -20t-14 -19.5t-24.5 -13.5t-37 -5.5h-702q-21 0 -37 5.5t-24.5 13.5t-14 19.5t-7 20t-1.5 19.5l-10 156h215
v-93h85v93h290v-93h85z" />
    <glyph glyph-name="glyph129" unicode="&#xe0da;" horiz-adv-x="644" 
d="M319 653q58 0 110.5 -7.5t90.5 -19.5t66 -27.5t41 -32.5t10 -33l-67 -556q-1 -8 -20.5 -23t-50.5 -31t-80 -27.5t-100 -11.5t-100 11.5t-80 27.5t-50.5 31t-20.5 23l-67 556q-3 20 19 41t62 39t102.5 29t134.5 11zM319 452q42 0 82.5 5.5t70 14t52 18.5t34.5 19t12 14.5
t-12 14.5t-34.5 19t-52 18.5t-70 14t-82.5 5.5t-82.5 -5.5t-70 -14t-52 -18.5t-34.5 -19t-12 -14.5t12 -14.5t34.5 -19t52 -18.5t70 -14t82.5 -5.5z" />
    <glyph glyph-name="glyph162" unicode="&#xe180;" horiz-adv-x="850" 
d="M422 690q67 0 117.5 -4t93.5 -13.5t73.5 -25t55 -40t39.5 -54.5t25 -73.5t14 -94t4 -116.5q0 -90 -7 -151.5t-26 -110.5t-48.5 -78t-78.5 -48.5t-110.5 -26.5t-151 -7t-151 7t-110.5 26.5t-78.5 48.5t-48.5 78t-26 110.5t-7 151t7 151t26 110.5t48.5 78.5t78.5 48.5
t110.5 26t150.5 7z" />
    <glyph glyph-name="glyph163" unicode="&#xe181;" horiz-adv-x="850" 
d="M797 550q20 0 33.5 -13.5t13.5 -33.5v-188h-469v235h422zM1 34v188h281v-235h-244q-19 0 -28 13t-9 34zM375 -13v235h469v-188q0 -19 -13.5 -33t-33.5 -14h-422zM1 503q0 20 9 33.5t28 13.5h244v-235h-281v188z" />
    <glyph glyph-name="glyph164" unicode="&#xe182;" horiz-adv-x="686" 
d="M512 166q21 -38 20.5 -82.5t-24.5 -85.5q-37 -65 -107 -82t-142 23l-60 35l-100 -174l-53 31l193 335q-64 -8 -125 27l-113 65l175 304l113 -66q63 -36 86 -94l194 335l53 -31l-100 -173l60 -35q47 -27 72.5 -68.5t25.5 -86.5t-24 -89q-24 -41 -62 -64t-82 -24zM554 449
l-60 35l-117 -202q0 -1 -1 -2.5t-1 -2.5l59 -34q48 -27 93.5 -15t72.5 57q26 45 13.5 91t-59.5 73zM142 241q48 -27 93 -15t72 57q26 45 14 91.5t-60 73.5l-59 34l-120 -206zM287 -12q48 -28 93.5 -15.5t71.5 57.5q27 45 14.5 91.5t-60.5 73.5l-59 33q0 -1 -1 -1.5t-2 -1.5
l-117 -202z" />
    <glyph glyph-name="glyph161" unicode="&#xe183;" horiz-adv-x="906" 
d="M444.5 718.5q91.5 1.5 175 -33t144.5 -94t98 -142.5t38 -174.5t-33.5 -175t-94 -144.5t-142 -98t-174 -38t-175.5 33.5t-145 94t-97.5 142t-38 174t33 175.5t94 145t142.5 97.5t174.5 38zM455 -86q72 1 137.5 30t112.5 77t74 114t26 138.5t-30 137.5t-77 112t-114 74.5
t-138 26.5t-137.5 -30t-112.5 -77t-74.5 -114.5t-26.5 -138.5t30 -137.5t77 -112.5t114.5 -74t138.5 -26zM282 269q0 -35 14.5 -56t43.5 -21q39 0 54 37l53 -27q-16 -29 -46 -48t-68 -19q-59 0 -93.5 36t-34.5 98q0 59 34.5 96.5t91.5 37.5q80 0 115 -63l-58 -30
q-17 35 -48 35q-58 0 -58 -76zM531 269q0 -35 14.5 -56t43.5 -21q38 0 53 37l54 -27q-16 -29 -45.5 -48t-67.5 -19q-60 0 -94.5 36t-34.5 98q0 59 35 96.5t91 37.5q80 0 114 -63l-57 -30q-16 35 -48 35q-58 0 -58 -76z" />
    <glyph glyph-name="glyph99" unicode="&#xe4ad;" horiz-adv-x="691" 
d="M356 -87l-355 356l355 356v-179h329v-354h-329v-179z" />
    <glyph glyph-name="glyph100" unicode="&#xe4ae;" horiz-adv-x="691" 
d="M330 625l355 -356l-356 -356l1 179h-329v353h328z" />
    <glyph glyph-name="glyph101" unicode="&#xe4af;" horiz-adv-x="719" 
d="M712 255h-178v-329h-354v329h-179l356 355z" />
    <glyph glyph-name="glyph98" unicode="&#xe4b0;" horiz-adv-x="719" 
d="M712 282l-355 -356l-356 356h179v328h354v-328h178z" />
    <glyph glyph-name="glyph152" unicode="&#xf304;" 
d="M803 425h-94l-116 141l-201 -141h-168q-50 0 -85 -36t-35 -86v-150l-101 279q-5 14 1 28t20 19l637 232q14 6 27.5 -1t18.5 -21zM902 340q15 0 25.5 -11t10.5 -26v-442q0 -15 -10.5 -26t-25.5 -11h-678q-15 0 -25.5 11t-10.5 26v442q0 15 10.5 26t25.5 11h678zM850 -83
v151l-68 151l-156 -56l-122 -125l-129 161l-87 -201v-81h562z" />
    <glyph glyph-name="glyph36" unicode="&#xf342;" horiz-adv-x="888" 
d="M222 542q128 75 349 70q136 -2 245 -31q64 -17 65 -29q1 -2 -3 -5q-43 -23 -77.5 -54.5t-57.5 -65t-42 -70t-36 -73t-34.5 -69t-42 -63t-53.5 -51.5q-40 -28 -89.5 -39t-99.5 -6t-90 15t-80 25q-7 -8 -18.5 -22.5t-39.5 -57.5t-48 -84q-5 -11 -18 -12.5t-25.5 5t-20.5 17
t-4 19.5q23 54 59.5 106t78.5 94t90 81t96 69t93.5 56t84.5 44t69 30.5t47 19.5l17 6h-20.5t-53 -4t-81.5 -12.5t-98 -27t-109 -45.5t-110.5 -71.5t-105.5 -100.5q-21 229 163 336z" />
    <glyph glyph-name="glyph45" unicode="&#xf3a4;" horiz-adv-x="607" 
d="M582 398q7 0 12.5 -5.5t5.5 -13.5v-129q0 -41 -15 -79t-44.5 -70.5t-79.5 -55t-114 -27.5v-124h122q8 0 13.5 -5.5t5.5 -13.5v-56q0 -8 -5.5 -13.5t-13.5 -5.5h-337q-8 0 -13.5 5.5t-5.5 13.5v56q0 8 5.5 13.5t13.5 5.5h122v124q-64 5 -114 27.5t-79.5 55t-44.5 70.5
t-15 79v129q0 8 5.5 13.5t12.5 5.5h28q8 0 13.5 -5.5t5.5 -13.5v-129q0 -21 6.5 -42t23 -44.5t42 -41.5t67.5 -29.5t95 -11.5t95.5 11.5t67.5 29.5t42 41.5t23.5 44.5t6.5 42v129q0 8 5.5 13.5t12.5 5.5h29zM300 175q-39 0 -68 7.5t-43.5 19t-21.5 24t-7 24.5v148h281v-148
q0 -12 -7 -24.5t-22 -24t-44 -19t-68 -7.5zM441 662v-198h-281v198q0 12 7 24.5t21.5 24t43.5 19t68 7.5t68 -7.5t44 -19t22 -24t7 -24.5z" />
    <glyph glyph-name="glyph53" unicode="&#xf3a8;" horiz-adv-x="925" 
d="M804 522q31 -20 53.5 -44t35.5 -46.5t19.5 -44.5t6.5 -41t-4 -34t-12 -24.5t-18 -11.5q-11 -3 -29.5 1.5t-37 10.5t-40 7.5t-46 -9t-47.5 -35.5q-19 -20 -22 -42t6 -41t20 -36t20.5 -33.5t9.5 -25.5q-1 -13 -13 -31.5t-40 -41.5t-66.5 -42.5t-101 -32.5t-135.5 -13
q-87 0 -158.5 26t-117 70t-68 102.5t-17.5 123.5q5 73 47.5 149t110.5 134.5t142 79.5q272 77 502 -75zM505.5 86q29.5 0 50 20.5t20.5 49.5t-20.5 49.5t-50 20.5t-50 -20.5t-20.5 -49.5t20.5 -49.5t50 -20.5z" />
    <glyph glyph-name="glyph50" unicode="&#xf3ac;" horiz-adv-x="925" 
d="M919 503h-94v-94h94v-94h-94v-93h94v-94h-94v-94h94v-56q0 -15 -11 -26t-27 -11h-843q-15 0 -26 11t-11 26v56h93v94h-93v94h93v93h-93v94h93v94h-93v56q0 16 11 27t26 11h843q16 0 27 -11t11 -27v-56zM357 128l234 141l-234 140v-281z" />
    <glyph glyph-name="glyph11" unicode="&#xf3af;" horiz-adv-x="813" 
d="M404 672q82 0 156.5 -32t128.5 -86t85.5 -128.5t31.5 -156.5t-31.5 -156.5t-85.5 -128.5t-128.5 -86t-156.5 -32t-156.5 32t-128.5 86t-86 128.5t-32 156.5t32 156.5t86 128.5t128.5 86t156.5 32zM436 -57q77 7 141.5 47t104.5 104.5t48 141.5h-181v66h181
q-8 76 -48 140.5t-104.5 104.5t-141.5 48v-181h-65v181q-77 -8 -141.5 -48t-104.5 -104.5t-48 -140.5h181v-66h-181q8 -77 48 -141.5t104.5 -104.5t141.5 -47v180h65v-180z" />
    <glyph glyph-name="glyph51" unicode="&#xf3b5;" horiz-adv-x="551" 
d="M357 710q0 -25 15.5 -52.5t38 -52.5t49 -52.5t46.5 -58t31.5 -64.5t4 -75.5t-36.5 -86.5q-15 -24 -23 -18q-6 4 -1 18q5 15 6 40t-5.5 56t-20 59t-40.5 50t-64 28v-501q1 -47 -36 -90.5t-97 -65.5q-71 -26 -135 -7.5t-82.5 70.5t18.5 106.5t108 80.5q81 30 149 4v612h75z
" />
    <glyph glyph-name="glyph76" unicode="&#xf3c9;" horiz-adv-x="850" 
d="M477 65v-62q67 -7 110.5 -29.5t43.5 -51.5q0 -35 -61 -59.5t-147.5 -24.5t-147.5 24.5t-61 59.5q0 29 43 51.5t110 29.5v62q0 20 -6.5 37.5t-16 31.5t-29.5 31t-37 29t-47 32q-42 28 -64.5 44.5t-59.5 51t-56.5 67t-34.5 83t-15 108.5q0 13 9.5 23t23.5 10h161
q19 36 76 61.5t151.5 25.5t151 -25.5t76.5 -61.5h161q14 0 23.5 -10t9.5 -23q0 -58 -15.5 -108.5t-35 -83t-56 -67t-59.5 -51t-65 -44.5q-30 -20 -47 -32t-36.5 -29t-29 -31t-16.5 -31.5t-7 -37.5zM608 302q35 24 59.5 44.5t50 50t40 67.5t18.5 83h-117q-5 -147 -51 -245z
M422.5 642q-36.5 0 -67.5 -5.5t-50.5 -14t-34 -18.5t-20 -18.5t-5.5 -15t5.5 -15t19.5 -18.5t34 -18.5t51 -14t67.5 -5.5t67.5 5.5t51 14t34 18.5t19.5 18.5t5.5 15t-5.5 15t-20 18.5t-34 18.5t-50.5 14t-67.5 5.5zM68 547q5 -45 19.5 -83t39.5 -67.5t49.5 -50t60.5 -44.5
q-47 98 -51 245h-118z" />
    <glyph glyph-name="glyph19" unicode="&#xf464;" horiz-adv-x="888" 
d="M690 60q88 -32 139.5 -62.5t51.5 -51.5v-99h-880v99q0 21 51.5 51.5t139.5 62.5q87 32 119.5 64.5t32.5 89.5q0 15 -6 25.5t-13.5 17t-17 25t-14.5 46.5q-1 9 -6 13.5t-10 7t-10.5 7t-10 17.5t-6.5 35q0 8 2 15.5t4 11.5t4.5 7t4.5 4l2 1q-9 47 -12 83q-1 15 2.5 33.5
t15.5 41.5t32 41.5t55.5 31t81 12.5t80.5 -12.5t55 -31t32 -41.5t15.5 -41.5t2.5 -33.5q-1 -16 -4 -37t-6 -33l-2 -13q2 -1 4.5 -3t7.5 -12t5 -24q-2 -22 -6.5 -35t-10 -17.5t-10.5 -7t-10 -7t-6 -13.5q-6 -28 -15 -46.5t-16.5 -25t-13.5 -17t-6 -25.5q0 -57 32.5 -89.5
t119.5 -64.5z" />
    <glyph glyph-name="glyph20" unicode="&#xf465;" 
d="M938 -130h-211v135q0 18 -2 29t-9.5 23.5t-17.5 21.5t-32 22.5t-45.5 25.5t-65.5 32q21 14 29.5 32t8.5 44q0 10 -3.5 17t-8 11t-10 16.5t-8.5 31.5q-1 7 -5 10.5t-8 5t-8 10.5t-6 27q0 9 3 15.5t6 9.5l2 1q-6 31 -7 55q-1 10 1 22.5t9 28t19.5 27.5t33.5 20.5t48.5 8.5
t49 -8.5t33.5 -20.5t19.5 -27.5t9.5 -28t1 -22.5l-8 -55q10 -5 10 -26q-1 -18 -5 -27t-7.5 -10.5t-7.5 -5t-6 -10.5q-3 -24 -11 -37t-13.5 -20t-5.5 -19q0 -38 19.5 -60t72.5 -43q57 -23 84 -38.5t39 -33.5q5 -8 8 -55.5t4 -90.5zM480 107q31 -13 53.5 -22.5t46.5 -22
t38.5 -23t24 -22t9.5 -23.5v-124h-651v165q0 12 5.5 22t11.5 16.5t19 13.5t18 9.5t19 7.5l6 3q70 28 96 57t26 80q0 13 -5 22.5t-11 15t-13.5 22t-11.5 41.5q-1 8 -4.5 12t-8 6t-9 6t-8 15.5t-5.5 31.5q0 12 3.5 21t7.5 11l3 3q-7 41 -10 73q-1 14 2 30.5t12.5 37t25.5 36.5
t44.5 27.5t65 11.5t65 -11.5t44.5 -27.5t25.5 -36.5t12.5 -37t2 -30.5l-10 -73q2 -1 4 -3t6 -11t4 -21q-1 -20 -4.5 -31.5t-8 -15.5t-9 -6t-8 -6t-5.5 -12q-4 -25 -11.5 -41.5t-13.5 -22t-10.5 -15t-4.5 -22.5q0 -51 26 -80t96 -57z" />
    <glyph glyph-name="glyph126" unicode="&#xf4a1;" horiz-adv-x="607" 
d="M430 -3h-249q0 41 -10.5 79.5t-27.5 69.5t-37 61t-40 59.5t-35.5 59.5t-24 68t-4.5 78q3 40 13.5 75.5t33.5 71t55.5 61.5t83 41.5t113 15.5t113 -15.5t83.5 -41.5t55.5 -61.5t33 -71t14.5 -75.5q3 -40 -5 -78t-23 -69t-33.5 -61t-37.5 -60.5t-35 -61t-26 -68t-10 -77.5z
M176 -161v93h248v-93q-59 -41 -124 -39q-64 -2 -124 39z" />
    <glyph glyph-name="glyph151" unicode="&#xf4bb;" 
d="M844 681q39 0 66.5 -27.5t27.5 -66.5v-515q0 -39 -27 -71.5t-65 -40.5l-205 -41l49 -20q78 -33 39 -41q-9 -2 -26 -2h-468q-70 0 -13 31q29 15 76 32l-205 41q-38 8 -65 40.5t-27 71.5v515q0 39 27.5 66.5t65.5 27.5h750zM844 77v520h-750v-520h750z" />
    <glyph glyph-name="glyph150" unicode="&#xf4bf;" horiz-adv-x="869" 
d="M431.5 700q87.5 0 167.5 -34.5t137.5 -92t92 -137.5t34.5 -167.5t-34.5 -167t-92 -137.5t-137.5 -92t-167.5 -34t-167 34t-137.5 92t-92 137.5t-34 167t34 167.5t92 137.5t137.5 92t167 34.5zM432 128q58 0 99 41t41 99.5t-41 99.5t-99 41t-99.5 -41t-41.5 -99.5
t41.5 -99.5t99.5 -41z" />
    <glyph glyph-name="glyph139" unicode="&#xf4c1;" 
d="M894 409q29 0 37 -12t6 -35l-39 -421q-1 -12 -3 -19t-7 -14t-15 -10.5t-26 -3.5h-756q-29 0 -39 11.5t-12 35.5l-39 421q-2 23 6 35t37 12h850zM863 512l9 -37h-793l14 122q1 19 17 32.5t35 13.5h153q19 0 43 -9.5t38 -23.5l27 -27q14 -14 37.5 -23.5t43.5 -9.5h319
q20 0 36.5 -11t20.5 -27z" />
    <glyph glyph-name="glyph133" unicode="&#xf4c4;" horiz-adv-x="663" 
d="M198 228v84h263v-84h-263zM563 690q39 0 66.5 -27t27.5 -66v-656q0 -39 -27.5 -66.5t-66.5 -27.5h-469q-38 0 -65.5 27.5t-27.5 66.5v656q0 39 27.5 66t65.5 27h469zM563 -59v656h-469v-656h469zM460 495v-82h-263v82h263zM460 127v-82h-263v82h263z" />
    <glyph glyph-name="glyph118" unicode="&#xf4d6;" horiz-adv-x="850" 
d="M319 162v-63l-187 75v63zM319 357v-64l-187 75v64zM780 687q24 9 44 -6t20 -38v-599q0 -15 -8 -26.5t-21 -17.5l-375 -149q-11 -4 -18 -4t-18 4l-374 149q-13 6 -21 17.5t-8 26.5v599q0 23 19.5 38t44.5 6l357 -143zM375 -57v525l-299 120v-525zM769 63v525l-300 -120
v-525zM713 237v-63l-188 -75v63zM713 432v-64l-188 -75v64z" />
    <glyph glyph-name="glyph39" unicode="&#xf4dd;" horiz-adv-x="850" 
d="M1 296q0 17 9.5 30t30.5 13h147v-375h-146q-41 0 -41 45v287zM735 395q55 0 82 -36t27 -101v-226q0 -37 -30.5 -75t-79 -62.5t-95.5 -24.5h-198q-26 0 -47.5 9.5t-36.5 23.5t-30.5 28t-38.5 23.5t-53 9.5v375h15q27 0 60.5 20.5t61.5 51t50 63t29 56.5q5 16 7.5 38
t3.5 38t4.5 30.5t13 22.5t27.5 8q35 0 50 -31t15 -99l-9 -147q119 5 172 5z" />
    <glyph glyph-name="glyph54" unicode="&#xf4de;" horiz-adv-x="710" 
d="M406 214q143 143 104 182q-29 30 -35 37q-24 32 -11 69q10 29 42 68q12 14 23.5 24.5t21.5 16t20.5 7.5t19 1t18.5 -5.5t16.5 -9t16 -13t15 -14l14.5 -14.5t13 -14q16 -15 19 -45.5t-8 -73.5t-34.5 -92t-65.5 -106.5t-96 -111.5t-111 -95.5t-106 -65t-92 -34.5t-73.5 -8
t-45.5 18q-5 5 -14.5 14t-15 14.5t-14 14.5t-12.5 16t-8.5 17t-5.5 18t0.5 19t7.5 21t16 21.5t25 23.5q34 27 59 39t45 6.5t31 -13.5t31 -28q5 -6 8 -9q39 -38 182 105z" />
    <glyph glyph-name="glyph48" unicode="&#xf4f1;" horiz-adv-x="551" 
d="M450 727q39 0 66.5 -27t27.5 -66v-731q0 -39 -27.5 -66.5t-66.5 -27.5h-356q-38 0 -65.5 27.5t-27.5 66.5v731q0 39 27.5 66t65.5 27h356zM272 -153q27 0 46.5 13.5t19.5 33.5t-19.5 33.5t-46.5 13.5t-46 -13.5t-19 -33.5t19 -33.5t46 -13.5zM469 -13v619h-393v-619h393z
" />
    <glyph glyph-name="glyph10" unicode="&#xf4f7;" 
d="M469 362q58 0 99.5 -41t41.5 -99q0 -59 -41.5 -100t-99.5 -41t-99 41t-41 100q0 58 41 99t99 41zM844 503q39 0 66.5 -27.5t27.5 -66.5v-422q0 -39 -27.5 -66t-66.5 -27h-750q-38 0 -65.5 27t-27.5 66v422q0 39 27.5 66.5t65.5 27.5h113q11 0 22 7.5t15 18.5l29 88
q4 11 14.5 18.5t22.5 7.5h318q12 0 23 -7.5t14 -18.5l30 -88q3 -11 14 -18.5t22 -7.5h113zM469 -13q97 0 165.5 69t68.5 166t-68.5 165.5t-165.5 68.5t-165.5 -68.5t-68.5 -165.5t68.5 -166t165.5 -69zM811.5 344q13.5 0 23 9.5t9.5 23t-9.5 23t-23 9.5t-23.5 -9.5t-10 -23
t10 -23t23.5 -9.5z" />
    <glyph glyph-name="glyph70" unicode="&#xf500;" 
d="M708 424q-22 0 -44 -5.5t-39.5 -13.5t-37.5 -24t-33.5 -28.5t-33.5 -36.5t-31.5 -38.5t-33.5 -43.5q-19 -25 -29 -38t-30 -37t-33 -37.5t-34.5 -34t-38.5 -31.5t-41 -25t-46 -21t-49 -12t-55 -5h-98v131h98q22 0 43.5 6t39 13.5t37.5 24t33.5 28.5t34 36t31.5 38.5
l33 43.5q19 25 29.5 38.5t30 37t33 37.5t34.5 33.5t38.5 31.5t41 25.5t46 20.5t49.5 12t55 5h33v112l197 -169l-197 -168v94h-33zM335 445q-6 -8 -81 -104q-74 74 -155 74h-98v131h98q128 0 236 -101zM463 93q22 26 81 103q39 -39 78 -60t86 -21h33v93l197 -168l-197 -169
v113h-33q-134 0 -245 109z" />
    <glyph glyph-name="glyph127" unicode="&#xf505;" horiz-adv-x="663" 
d="M328.5 419q62.5 0 106 -44t43.5 -106.5t-43.5 -106t-106 -43.5t-106 43.5t-43.5 106t43.5 106.5t106 44zM328.5 173q39.5 0 68 28t28.5 67.5t-28.5 68t-68 28.5t-67.5 -28.5t-28 -68t28 -67.5t67.5 -28zM47 306q20 0 33.5 -11t13.5 -26.5t-13.5 -26.5t-33.5 -11
q-19 0 -32.5 11t-13.5 26.5t13.5 26.5t32.5 11zM558 498q11 -11 9.5 -28t-15.5 -31t-31.5 -16t-28.5 9t-9 28.5t16 31.5t31 15.5t28 -9.5zM610 306q19 0 33 -11t14 -26.5t-14 -26.5t-33 -11q-20 0 -33 11t-13 26.5t13 26.5t33 11zM328.5 34q15.5 0 26.5 -13.5t11 -33
t-11 -33t-26.5 -13.5t-26.5 13.5t-11 33t11 33t26.5 13.5zM105.5 93.5q13.5 13.5 31 15.5t28.5 -9t9 -28t-15.5 -31t-31 -16t-28.5 9t-9 28.5t15.5 31zM96 496q11 11 29 9t31.5 -15.5t15.5 -31t-9 -28.5t-28.5 -9t-31.5 15.5t-16 31t9 28.5zM501 43q-14 14 -15.5 31.5
t9.5 28.5t28 9t31 -16t16 -31.5t-9 -28.5t-28.5 -9t-31.5 16zM328.5 503q-15.5 0 -26.5 13.5t-11 33t11 33.5t26.5 14t26.5 -14t11 -33.5t-11 -33t-26.5 -13.5z" />
    <glyph glyph-name="glyph128" unicode="&#xf506;" 
d="M891 306q20 0 33.5 -11t13.5 -26.5t-13.5 -26.5t-33.5 -11h-46q-20 0 -33.5 11t-13.5 26.5t13.5 26.5t33.5 11h46zM469.5 526q52.5 0 100 -20.5t82 -54.5t55 -82t20.5 -100.5t-20.5 -100.5t-55 -82t-82 -54.5t-100 -20.5t-100.5 20.5t-82.5 54.5t-54.5 82t-20 100.5
t20 100.5t54.5 82t82.5 54.5t100.5 20.5zM469 81q77 0 132.5 55t55.5 133q0 77 -55 132t-133 55t-132.5 -55t-54.5 -132q0 -78 55 -133t132 -55zM140 268.5q0 -15.5 -13 -26.5t-33 -11h-47q-19 0 -32.5 11t-13.5 26.5t13.5 26.5t32.5 11h47q20 0 33 -11t13 -26.5zM469.5 597
q-15.5 0 -26.5 13.5t-11 32.5v47q0 20 11 33.5t26.5 13.5t26.5 -13.5t11 -33.5v-47q0 -19 -11 -32.5t-26.5 -13.5zM469.5 -59q15.5 0 26.5 -13.5t11 -33.5v-47q0 -20 -11 -33.5t-26.5 -13.5t-26.5 13.5t-11 33.5v47q0 20 11 33.5t26.5 13.5zM814 561l-32 -33
q-14 -14 -31.5 -16t-28.5 9t-9 28.5t16 31.5l16 16t16 17q14 13 31.5 15t28.5 -9t9 -28.5t-16 -30.5zM157 9q13 14 31 16t29 -9t8.5 -28.5t-15.5 -31.5l-33 -32q-13 -14 -31 -16t-29 9t-9 28.5t16 30.5q2 3 16 17t17 16zM177 614q3 -3 16.5 -17t16.5 -16q13 -14 15.5 -31.5
t-8.5 -28.5t-29 -9t-31 16l-33 33q-14 13 -16 30.5t9 28.5t29 9t31 -15zM729 -44q-14 14 -16 31.5t9 28.5t28.5 9t31.5 -16l16 -16t16 -17q14 -13 16 -30.5t-9 -28.5t-28.5 -9t-31.5 16z" />
    <glyph glyph-name="glyph134" unicode="&#xf507;" horiz-adv-x="833" 
d="M812.5 668q13.5 -14 13.5 -33.5t-13 -32.5l-732 -733q-14 -13 -34 -13q-19 0 -32.5 13.5t-13.5 33t13 33.5l732 732q14 14 33.5 14t33 -14zM610 306l48 47q69 -87 93.5 -161.5t-6.5 -107.5q-11 -11 -32 -27t-53 -36t-68.5 -38.5t-80.5 -34t-87 -23t-89.5 -3.5t-86.5 21
l259 259q25 -18 50.5 -33t45.5 -23.5t38 -14t27.5 -5t14.5 3.5q3 5 3.5 14.5t-5 27.5t-14 37.5t-23.5 45.5t-34 51zM351 365l-253 -253q-13 50 -11.5 98.5t16 98t33.5 92t42.5 80t41 61.5t30.5 36q31 30 98 10.5t148 -78.5l-48 -48q-28 18 -55.5 31.5t-46 19.5t-33.5 8
t-18 -3q-9 -9 5.5 -54t50.5 -99z" />
    <glyph glyph-name="glyph135" unicode="&#xf50a;" horiz-adv-x="858" 
d="M164 496q39 39 139.5 -5t203 -146.5t147 -203t5.5 -139.5q-13 -13 -38 -32t-65 -42.5t-84.5 -44t-97 -32.5t-102 -12.5t-100.5 19t-91.5 60.5t-60.5 92t-19.5 100.5t13 102t33 96.5t43.5 84t42 65t32 38zM597.5 47q3.5 3 3.5 12.5t-3.5 24t-10.5 32.5t-18.5 40t-27 44.5
t-36 48.5t-44.5 49q-21 21 -43.5 40t-42.5 33t-40 26t-37 19.5t-32.5 13t-26.5 7.5t-19 1.5t-10 -2.5q-3 -4 -3.5 -13t3 -24t11 -32.5t19 -39.5t26.5 -45t36 -48.5t44.5 -49.5t49.5 -44.5t48.5 -36t44.5 -27t40 -18.5t32.5 -10.5t23.5 -3.5t12.5 3zM605 416q-20 0 -33.5 14
t-13.5 33t14 33l89 90q14 13 33 13t33 -13.5t14 -33t-14 -33.5l-89 -89q-14 -14 -33 -14zM459.5 526q-27.5 0 -40.5 23.5t-1 46.5l51 90q9 17 28 22.5t36 -4t22 -28.5t-4 -35l-51 -91q-13 -24 -40.5 -24zM846 391q10 -17 4.5 -35.5t-22.5 -28.5l-90 -51q-11 -6 -23 -6
q-28 0 -41 24q-10 17 -4.5 36t22.5 28l90 51q17 10 35.5 4.5t28.5 -22.5z" />
    <glyph glyph-name="glyph120" unicode="&#xf50b;" 
d="M723 268.5q0 -90.5 33.5 -146.5t72.5 -56h62q-11 -17 -19 -27t-22 -21t-30 -17t-41.5 -10t-59.5 -4h-469q-50 0 -92.5 18t-71 47t-48 66t-28.5 75.5t-9 75.5t9 75t28.5 75.5t48 66t71 46.5t92.5 18h469q42 0 70.5 -5t47.5 -16.5t29.5 -24t24.5 -33.5h-62q-39 0 -72.5 -56
t-33.5 -146.5zM506 244q9 11 7 20t-15.5 16t-54.5 20q-3 1 -8 2.5t-7 2.5q8 15 28 52t26 48q9 17 11.5 23.5t1 12t-9.5 10.5h-4q-4 0 -8.5 -2t-24.5 -19t-56 -50q-75 -68 -89 -90q-7 -10 -4 -18q4 -8 16 -13.5t48 -18.5l21 -7q-4 -10 -31 -58q-34 -62 -35 -66q-3 -7 0 -16
q1 -2 1 -3l9 -4h3q4 0 8 2t23 18t53 47q71 65 91 91zM885 366q21 0 37 -26t16 -67t-16 -67t-37 -26h-35q-21 0 -36.5 26t-15.5 67t15.5 67t36.5 26h35z" />
    <glyph glyph-name="glyph65" unicode="&#xf50d;" horiz-adv-x="747" 
d="M724 12q14 -13 16.5 -28t-10.5 -28l-44 -45q-12 -13 -31 -13t-32 13l-178 179q-68 -40 -146 -40q-59 0 -114 24t-95.5 64.5t-64.5 96t-24 114.5q0 78 38.5 145t105.5 106t145.5 39t147.5 -41t110 -110t41 -148q0 -81 -42 -150zM90 349q0 -55 29 -103.5t77.5 -77.5
t103 -29t100.5 27t73 73.5t27 100.5t-29 102.5t-77.5 78t-103.5 29.5q-83 0 -141.5 -59t-58.5 -142z" />
    <glyph glyph-name="glyph66" unicode="&#xf50e;" horiz-adv-x="850" 
d="M755.5 602.5q28.5 -28.5 49 -61.5t30 -61t9 -51.5t-12.5 -34.5l-126 -127q-15 -15 -58.5 -24.5t-89.5 -3.5l-382 -383q-18 -16 -54 -4t-69.5 46t-46 69.5t4.5 53.5l383 382q-6 46 3.5 89.5t24.5 58.5l126 127q12 12 35 12.5t51.5 -9t61 -30t61 -49zM335 220
q13 -13 35.5 -9.5t40.5 22t22 40.5t-9 35t-35.5 9.5t-40.5 -22t-22 -40.5t9 -35zM651 498q28 -28 63.5 -46t58 -23t25.5 -2t-3 25t-25 56.5t-46.5 62t-62 46.5t-56 24.5t-24.5 2.5q-1 -2 -1.5 -6.5t2 -14t5.5 -20t9 -24t13.5 -27t18.5 -28t23 -26.5z" />
    <glyph glyph-name="glyph43" unicode="&#xf512;" horiz-adv-x="663" 
d="M600 386q20 0 38.5 -18.5t18.5 -37.5v-366q0 -19 -13.5 -37t-31.5 -24l-56 -18q-47 -15 -91 -15h-272q-45 0 -92 15l-56 18q-18 6 -31 24t-13 37v366q0 20 14 38t32 18h94v65q0 104 47.5 160t140 56t140 -56t47.5 -160v-65h84zM235 470v-84h187v84q0 50 -25 76.5
t-68 26.5t-68.5 -26.5t-25.5 -76.5z" />
    <glyph glyph-name="glyph77" unicode="&#xf513;" horiz-adv-x="663" 
d="M600 362q20 0 38.5 -18t18.5 -38v-365q0 -20 -13.5 -38t-31.5 -24l-56 -17q-47 -15 -91 -15h-272q-45 0 -92 15l-56 17q-18 6 -31 24t-13 38v365q0 21 14 38.5t32 17.5h375v131q0 50 -25 77t-68 27t-68.5 -27t-25.5 -77v-37h-94v19q0 103 47.5 159t140 56t140 -56
t47.5 -159v-113h84z" />
    <glyph glyph-name="glyph119" unicode="&#xf516;" horiz-adv-x="344" 
d="M291 690q20 0 33.5 -13.5t13.5 -33.5v-796l-169 169l-168 -169v796q0 21 9 34t28 13h253z" />
    <glyph glyph-name="glyph40" unicode="&#xf517;" horiz-adv-x="756" 
d="M275 48q14 13 33.5 13t32.5 -13q14 -14 13.5 -33.5t-13.5 -32.5l-38 -38q-52 -51 -125.5 -51t-124.5 51q-52 52 -52 124.5t52 124.5l139 139q65 64 134.5 73t119.5 -42q14 -13 14 -32.5t-13.5 -33t-32.5 -13.5t-33 13q-14 14 -31.5 16t-34.5 -6t-30.5 -18t-26.5 -23
l-140 -139q-24 -23 -24 -58t24 -59q25 -24 59.5 -24t59.5 24zM698 586q52 -52 52 -124.5t-52 -124.5l-149 -148q-70 -69 -140 -69q-57 0 -104 47q-14 13 -14 32t13.5 33t33 14t32.5 -13q7 -7 11 -10.5t15 -7.5t22 -1.5t29 12.5t37 29l149 148q24 23 24 58t-24 59
q-16 15 -34 23t-38.5 5t-37.5 -19l-47 -47q-14 -13 -33 -13t-33 13.5t-14 33t14 32.5l48 47q50 50 118 47.5t122 -56.5z" />
    <glyph glyph-name="glyph74" unicode="&#xf554;" horiz-adv-x="869" 
d="M431.5 700q87.5 0 167.5 -34.5t137.5 -92t92 -137.5t34.5 -167.5t-34.5 -167t-92 -137.5t-137.5 -92t-167.5 -34t-167 34t-137.5 92t-92 137.5t-34 167t34 167.5t92 137.5t137.5 92t167 34.5zM431.5 -68q68.5 0 131 26.5t107.5 71.5t72 107.5t27 131t-27 131t-72 107.5
t-107.5 72t-131 27t-131 -27t-107.5 -72t-72 -107.5t-27 -131t27 -131t72 -107.5t107.5 -71.5t131 -26.5zM465 512v-230l140 -140l-47 -46l-159 159v257h66z" />
    <glyph glyph-name="glyph9" unicode="&#x1f4c5;" horiz-adv-x="850" 
d="M750 597q39 0 66.5 -27.5t27.5 -66.5v-562q0 -39 -27.5 -66.5t-66.5 -27.5h-656q-38 0 -65.5 27.5t-27.5 66.5v562q0 39 27.5 66.5t65.5 27.5h43v-94h150v94h271v-94h150v94h42zM750 -59v374h-656v-374h656zM244 690v-159h-65v159h65zM666 690v-159h-66v159h66z" />
    <glyph glyph-name="glyph3" unicode="&#x1f514;" horiz-adv-x="756" 
d="M593 339q12 -26 29.5 -41.5t34 -21.5t33.5 -12.5t32 -22.5t25 -44q9 -27 -9 -67t-57.5 -81.5t-103 -82t-137 -68t-148 -37.5t-130.5 -4t-95 24.5t-49 45.5q-8 23 -8.5 43t5.5 33t13.5 27.5t14.5 27.5t8 33.5t-5 44.5q-13 51 -21 86.5t-15 73.5t-8.5 65t0.5 56t9.5 50.5
t20 44.5t31 43.5t44.5 41.5q13 11 19.5 22.5t7 19.5t2 16t7 14t19.5 11q15 5 22 4t14 -6t12 -11t17 -10.5t29 -3.5q33 1 60.5 -2.5t51.5 -13t43.5 -21.5t39 -33t35 -42.5t34.5 -55.5t35 -66t38 -80zM418.5 -39.5q51.5 19.5 98 46t77 52.5t52.5 50.5t31 41.5t7 23
q-4 10 -19.5 18.5t-45 13t-67 2.5t-91.5 -14.5t-113.5 -34.5t-108 -48t-78.5 -50t-50 -46.5t-26.5 -38.5t-3.5 -26q2 -6 19.5 -12.5t50 -11t72 -4.5t92 9.5t104 29zM396 137q15 -37 -14 -77.5t-83 -60.5q-43 -15 -81.5 -11.5t-61.5 24.5q76 65 204 112q27 10 36 13z" />
    <glyph glyph-name="glyph7" unicode="&#x1f6ab;" horiz-adv-x="869" 
d="M431.5 700q87.5 0 167.5 -34.5t137.5 -92t92 -137.5t34.5 -167.5t-34.5 -167t-92 -137.5t-137.5 -92t-167.5 -34t-167 34t-137.5 92t-92 137.5t-34 167t34 167.5t92 137.5t137.5 92t167 34.5zM664 501zM104 269q0 -117 74 -208l461 462q-91 74 -207 74q-67 0 -127.5 -26
t-104.5 -70t-70 -105t-26 -127zM200 37zM432 -59q66 0 127 26t104.5 70t70 104.5t26.5 127.5q0 116 -74 207l-462 -461q91 -74 208 -74z" />
  </font>
</defs>
</svg>
