<?xml version="1.0" standalone="no"?>
<!DOCTYPE svg PUBLIC "-//W3C//DTD SVG 1.1//EN" "http://www.w3.org/Graphics/SVG/1.1/DTD/svg11.dtd" >
<svg>
<metadata>
Created by FontForge 20110222 at Thu Mar 29 12:40:03 2012
 By user,,,
Icons by PJ Onori, font creation script by Yann
</metadata>
<defs>
<font id="IconicStroke" horiz-adv-x="1030" >
  <font-face 
    font-family="Iconic"
    font-weight="500"
    font-stretch="normal"
    units-per-em="1000"
    panose-1="2 0 6 3 0 0 0 0 0 0"
    ascent="800"
    descent="-200"
    bbox="14.2593 -200 1015 800.5"
    underline-thickness="50"
    underline-position="-100"
    unicode-range="U+0023-E08A"
  />
<missing-glyph horiz-adv-x="364" 
d="M33 0v666h265v-666h-265zM66 33h199v600h-199v-600z" />
    <glyph glyph-name=".notdef" horiz-adv-x="364" 
d="M33 0v666h265v-666h-265zM66 33h199v600h-199v-600z" />
    <glyph glyph-name="glyph1" unicode="&#xe052;" 
d="M640 175v-125h-62v-188q0 -25 -18.5 -43.5t-44.5 -18.5t-44.5 18.5t-18.5 43.5v188h-62v125h62v563q0 25 18.5 43.5t44.5 18.5t44.5 -18.5t18.5 -43.5v-563h62zM1015 550v-125h-63v-563q0 -25 -18 -43.5t-44 -18.5t-44 18.5t-18 43.5v563h-63v125h63v188q0 25 18 43.5
t44 18.5t44 -18.5t18 -43.5v-188h63zM265 425v-125h-63v-438q0 -25 -18 -43.5t-44 -18.5t-44 18.5t-18 43.5v438h-63v125h63v313q0 25 18 43.5t44 18.5t44 -18.5t18 -43.5v-313h63z" />
    <glyph glyph-name="glyph2" unicode="&#xe068;" horiz-adv-x="655" 
d="M327.5 675q-77.5 0 -132.5 -55t-55 -132.5t55 -132.5q67 -66 132 -169q65 101 134 170q54 54 54 131.5t-55 132.5t-132.5 55zM327.5 800q129.5 0 221 -91.5t91.5 -221t-92 -220.5q-9 -9 -23.5 -25t-53 -67t-67.5 -103t-53 -127t-24 -145q0 70 -22.5 143.5t-55 129.5
t-65 100.5t-55 69.5t-22.5 24q-92 91 -92 220.5t91.5 221t221 91.5zM265 487.5q0 62.5 62.5 62.5t62.5 -62.5t-62.5 -62.5t-62.5 62.5z" />
    <glyph glyph-name="numbersign" unicode="#" horiz-adv-x="905" 
d="M890 425h-172l-31 -250h203v-125h-219l-31 -250h-125l31 250h-250l-31 -250h-125l31 250h-156v125h172l31 250h-203v125h219l31 250h125l-31 -250h250l31 250h125l-31 -250h156v-125zM562 175l31 250h-250l-31 -250h250z" />
    <glyph glyph-name="question" unicode="?" horiz-adv-x="530" 
d="M190 -137.5q0 62.5 62.5 62.5t62.5 -62.5t-62.5 -62.5t-62.5 62.5zM255 -12q-65 0 -110.5 46t-45.5 110.5t45 110.5l209 209q37 36 37 88t-36.5 88.5t-88.5 36.5t-88.5 -36.5t-36.5 -88.5h-125q0 104 73 177q71 71 177 71t177 -71q73 -73 73 -176.5t-73 -176.5l-209 -209
q-9 -10 -9 -22.5t9 -22t22 -9.5t22 9.5t9 21.5h125q0 -64 -45.5 -110t-110.5 -46z" />
    <glyph glyph-name="at" unicode="@" 
d="M948 50h-183q-60 0 -98 51q-69 -52 -152 -52q-104 0 -177 73t-73 176.5t73 177t177 73.5h250v-374h101l1 -1q23 63 23 126q0 155 -110 265t-265 110t-265 -110t-110 -265t110 -265t265 -110t265 110l88 -89q-69 -69 -160 -107.5t-193 -38.5q-136 0 -251 67t-182 182
t-67 251t67 251t182 182t251 67t251 -67t182 -182t67 -251q0 -134 -67 -250zM640 362v62h-125q-52 0 -88.5 -37t-36.5 -88.5t36.5 -88t88.5 -36.5t88.5 36.5t36.5 88.5v63z" />
    <glyph glyph-name="paragraph" unicode="&#xb6;" horiz-adv-x="780" 
d="M765 800v-125h-125v-875h-125v875h-125v-875h-125v500q-104 0 -177 73t-73 177t73 177t177 73h125h125h125h125z" />
    <glyph glyph-name="glyph0" unicode="&#xe063;" horiz-adv-x="655" 
d="M327.5 675q-77.5 0 -132.5 -55t-55 -133q0 -45 19.5 -84t54.5 -65q91 -69 109 -162h9q18 93 109 162q35 26 54.5 65t19.5 84q0 78 -55 133t-132.5 55zM327.5 800q129.5 0 221 -91.5t91.5 -221.5q0 -76 -33 -141t-91 -108q-64 -49 -64 -108v-80h-249v80q0 59 -64 108
q-58 43 -91 108t-33 141q0 130 91.5 221.5t221 91.5zM203 -200v125h249v-125h-249z" />
    <glyph glyph-name="glyph3" unicode="&#xe01c;" 
d="M390 50q0 -104 -73 -177t-177 -73q-67 0 -124 33l-1 1q57 33 91 90.5t34 125.5q0 52 36.5 88.5t88.5 36.5t88.5 -36.5t36.5 -88.5zM978.5 763.5q36.5 -36.5 36.5 -88.5t-37 -88l-472 -473q-17 65 -64.5 112t-112.5 65l473 472q36 37 88 37t88.5 -36.5z" />
    <glyph glyph-name="glyph4" unicode="&#xe03e;" 
d="M578 175v-187h124l-187 -188l-187 188h124v187h126zM452 425v187h-124l187 188l187 -188h-124v-187h-126zM390 238h-188v-126l-187 188l187 188v-126h188v-124zM640 362h188v126l187 -188l-187 -188v126h-188v124z" />
    <glyph glyph-name="glyph5" unicode="&#xe08a;" horiz-adv-x="907" 
d="M359.5 -200q-142.5 0 -243.5 101t-101 244t101 243l349 342q70 70 176.5 70t177.5 -71q73 -73 73 -177t-73 -177l-314 -307q-45 -45 -110 -45t-111 46t-46 111t46 111l121 121l89 -89l-121 -121q-10 -9 -10 -22t10 -22q22 -22 44 0l314 306q36 36 36 88t-37 89
q-35 35 -88.5 35t-88.5 -35l-349 -342q-64 -64 -64 -154.5t65 -154.5q62 -63 155 -63t155 63l156 156l89 -88l-157 -157q-101 -101 -243.5 -101z" />
    <glyph glyph-name="glyph6" unicode="&#xe005;" 
d="M942 727q73 -73 73 -177t-73 -177l-574 -573h-353l1 354l572 573q73 73 177 73t177 -73zM317 -75l535 535l-176 177l-530 -530q36 33 85.5 32t83.5 -36q37 -37 37 -89t-37 -89h2z" />
    <glyph glyph-name="glyph7" unicode="&#xe03b;" horiz-adv-x="405" 
d="M265 175v-187h125l-188 -188l-187 188h125v187h125zM140 425v187h-125l187 188l188 -188h-125v-187h-125z" />
    <glyph glyph-name="glyph8" unicode="&#xe06a;" 
d="M515 675q5 5 15.5 13.5t52.5 30t93.5 38t142.5 30t196 13.5v-750q-106 0 -196.5 -13t-144 -31t-92 -36.5t-52.5 -31.5l-15 -13q-5 5 -15.5 13.5t-51.5 30t-93 38t-143 30t-197 13.5v750q105 0 195 -13t144 -31t92.5 -36.5t53.5 -31.5zM140 675v-503q192 -17 312 -80v503
q-120 64 -312 80zM890 172v503q-192 -16 -312 -80v-503q120 63 312 80z" />
    <glyph glyph-name="glyph9" unicode="&#xe01f;" 
d="M15 175l500 -125l500 125v-125l-500 -125l-500 125v125zM15 425l500 -125l500 125v-125l-500 -125l-500 125v125zM15 675l500 125l500 -125v-125l-500 -125l-500 125v125z" />
    <glyph glyph-name="glyph10" unicode="&#xe049;" horiz-adv-x="780" 
d="M15 -200v1000h250v-1000h-250zM515 -200v1000h250v-1000h-250z" />
    <glyph glyph-name="glyph11" unicode="&#xe020;" 
d="M15 50l500 -125l500 125v-125l-500 -125l-500 125v125zM15 300l500 -125l500 125v-125l-500 -125l-500 125v125zM15 550l500 -125l500 125v-125l-500 -125l-500 125v125zM15 800l500 -125l500 125v-125l-500 -125l-500 125v125z" />
    <glyph glyph-name="glyph12" unicode="&#xe045;" 
d="M765 675q103 0 176.5 -73.5t73.5 -176.5t-73.5 -176.5t-176.5 -73.5h-500q-103 0 -176.5 73.5t-73.5 176.5t73.5 176.5t176.5 73.5q9 0 33 -3q33 58 90.5 93t126.5 35q68 0 125 -35t91 -93q26 3 34 3zM765 300q52 0 88.5 36.5t36.5 88.5t-36.5 88.5t-88.5 36.5
t-88.5 -36.5t-36.5 -88.5h-125q0 60 27 112t73 87q-38 51 -100 51q-52 0 -88.5 -36.5t-36.5 -88.5q0 -23 8 -44l-117 -43q-15 40 -16 85q-49 -1 -87 -37t-38 -86q0 -52 36.5 -88.5t88.5 -36.5h500zM578 -12v-188h-125v188h-125l187 187l187 -187h-124z" />
    <glyph glyph-name="glyph13" unicode="&#xe029;" horiz-adv-x="967" 
d="M469 193l-330 -331q-61 71 -92.5 157.5t-31.5 173.5t31.5 173.5t92.5 157.5zM516 238l-403 403q178 145 403 159v-562zM578 674q160 -24 267 -146t107 -286q0 -90 -34.5 -172t-94 -141t-141.5 -94t-172 -35q-138 0 -257 87l325 325v462z" />
    <glyph glyph-name="glyph14" unicode="&#xe051;" 
d="M721 6l-81 -81v250h250l-81 -81l206 -206l-88 -88zM220 507l-205 205l88 88l205 -204l82 79l-1 -249l-249 -1zM15 -112l206 206l-81 81h250v-250l-81 81l-206 -206zM891 425h-251v251l81 -81l205 205l89 -89l-205 -205z" />
    <glyph glyph-name="glyph15" unicode="&#xe044;" 
d="M765 675q103 0 176.5 -73.5t73.5 -176.5t-73.5 -176.5t-176.5 -73.5h-187v-187h124l-187 -188l-187 188h124v187h-187q-103 0 -176.5 73.5t-73.5 176.5t73.5 176.5t176.5 73.5q10 0 33 -3q33 58 90.5 93t126.5 35q68 0 125 -35t91 -94q23 4 34 4zM765 300q52 0 88.5 36.5
t36.5 88.5t-36.5 88.5t-88.5 36.5t-88.5 -36.5t-36.5 -88.5h-125q0 60 27 112t73 87q-38 51 -100 51q-52 0 -88.5 -36.5t-36.5 -88.5q0 -23 8 -44l-117 -44q-15 41 -16 86q-49 -1 -87 -37t-38 -86q0 -52 36.5 -88.5t88.5 -36.5h500z" />
    <glyph glyph-name="glyph16" unicode="&#xe004;" horiz-adv-x="905" 
d="M452.5 675q-129.5 0 -221 -91.5t-91.5 -221.5q0 -127 90 -219l37 -37l-1 -51v-22l14 10l46 30l53 -13q41 -10 73 -10q130 0 221.5 91.5t91.5 221t-91.5 221t-221 91.5zM452.5 800q118.5 0 219.5 -58.5t159.5 -159.5t58.5 -219.5t-58.5 -219.5t-159.5 -159.5t-220 -58.5
q-48 0 -103 14l-209 -139l1 255q-59 61 -92.5 140t-33.5 167q0 119 58.5 220t159.5 159.5t219.5 58.5z" />
    <glyph glyph-name="glyph17" unicode="&#x2709;" 
d="M517 442l-502 236v122h1000v-122zM518 304l497 235v-489h-1000v490z" />
    <glyph glyph-name="glyph18" unicode="&#x2714;" 
d="M515 800q136 0 251 -67t182 -182t67 -251t-67 -251t-182 -182t-251 -67t-251 67t-182 182t-67 251t67 251t182 182t251 67zM438 69l388 389l-88 89l-301 -301l-141 142l-89 -89z" />
    <glyph glyph-name="glyph19" unicode="&#xe066;" 
d="M703 800l312 -312v-688l-247 207l-251 -207l-250 208l-252 -206v998h688zM891 52v250h-376v375h-375v-625l128 101l249 -207l250 207zM640 427h251l-125 125t-126 125v-250z" />
    <glyph glyph-name="glyph20" unicode="&#xe05d;" 
d="M890 675h125v-250h-125v-63q0 -25 -18.5 -43.5t-43.5 -18.5h-750q-26 0 -44.5 18.5t-18.5 43.5v124h200q19 -55 67 -90t109 -35v64h127v63h-127v124h124v63h-124v61q-61 0 -109 -35t-67 -90h-200v127q0 25 18.5 43.5t44.5 18.5h750q25 0 43.5 -18.5t18.5 -43.5v-63z" />
    <glyph glyph-name="glyph21" unicode="&#xe04a;" 
d="M15 -200v1000h1000v-1000h-1000z" />
    <glyph glyph-name="glyph22" unicode="&#x2191;" 
d="M15 300l500 500l500 -500l-177 -177l-198 198v-521h-250v521l-198 -197z" />
    <glyph glyph-name="glyph23" unicode="&#xe038;" 
d="M390 550h-188v-125l-187 187l187 188v-125h188v-125zM640 675h188v125l187 -188l-187 -187v125h-188v125z" />
    <glyph glyph-name="glyph24" unicode="&#xe021;" 
d="M515 675q-155 0 -265 -110t-110 -265t110 -265t265 -110t265 110t110 265t-110 265t-265 110zM515 800q136 0 251 -67t182 -182t67 -251t-67 -251t-182 -182t-251 -67t-251 67t-182 182t-67 251t67 251t182 182t251 67zM581 366q-36 36 -88 23l272 161l-161 -276
q15 54 -23 92zM449 234q38 -38 92 -23l-276 -161l161 272q-13 -52 23 -88z" />
    <glyph glyph-name="glyph25" unicode="&#xe009;" 
d="M515 800q136 0 251 -67t182 -182t67 -251t-67 -251t-182 -182t-251 -67t-251 67t-182 182t-67 251t67 251t182 182t251 67zM765 238v124h-500v-124h500z" />
    <glyph glyph-name="glyph26" unicode="&#xe05c;" 
d="M1015 675v-250h-125v-63q0 -25 -18.5 -43.5t-43.5 -18.5h-750q-26 0 -44.5 18.5t-18.5 43.5v376q0 25 18.5 43.5t44.5 18.5h750q25 0 43.5 -18.5t18.5 -43.5v-63h125zM765 425v250h-625v-250h625z" />
    <glyph glyph-name="glyph27" unicode="&#xe002;" horiz-adv-x="530" 
d="M265 800q104 0 177 -73t73 -177q0 -61 -62.5 -248.5t-124.5 -344.5l-63 -157q-28 69 -69.5 174t-111 310t-69.5 266q0 104 73 177t177 73zM265 425q52 0 88.5 36.5t36.5 88.5t-36.5 88.5t-88.5 36.5t-88.5 -36.5t-36.5 -88.5t36.5 -88.5t88.5 -36.5z" />
    <glyph glyph-name="glyph28" unicode="&#xe076;" horiz-adv-x="780" 
d="M452.5 800q129.5 0 221 -91.5t91.5 -220.5v-500q0 -78 -55 -133t-132 -55h-376q-77 0 -132 55t-55 133v437h625v63q0 77 -55 132t-132.5 55t-132.5 -55t-55 -132h-125q0 129 91.5 220.5t221 91.5zM578 -75q25 0 43.5 18.5t18.5 44.5v312h-500v-312q0 -26 18.5 -44.5
t43.5 -18.5h376zM452 112.5q0 -25.5 -18 -44t-44 -18.5t-44 18.5t-18 44t18 44t44 18.5t44 -18.5t18 -44z" />
    <glyph glyph-name="glyph29" unicode="&#xe075;" horiz-adv-x="780" 
d="M452.5 800q129.5 0 221 -91.5t91.5 -220.5v-500q0 -78 -55 -133t-132 -55h-376q-77 0 -132 55t-55 133v437h125v63q0 129 91.5 220.5t221 91.5zM265 488v-63h375v63q0 77 -55 132t-132.5 55t-132.5 -55t-55 -132zM578 -75q25 0 43.5 18.5t18.5 44.5v312h-500v-312
q0 -26 18.5 -44.5t43.5 -18.5h376zM453 112.5q0 -25.5 -18.5 -44t-44.5 -18.5t-44 18.5t-18 44t18 44t44 18.5t44.5 -18.5t18.5 -44z" />
    <glyph glyph-name="glyph31" unicode="&#xe055;" 
d="M15 737.5q0 62.5 62.5 62.5t62.5 -62.5t-62.5 -62.5t-62.5 62.5zM15 487.5q0 62.5 62.5 62.5t62.5 -62.5t-62.5 -62.5t-62.5 62.5zM15 237.5q0 62.5 62.5 62.5t62.5 -62.5t-62.5 -62.5t-62.5 62.5zM15 -12.5q0 62.5 62.5 62.5t62.5 -62.5t-62.5 -62.5t-62.5 62.5z
M265 675v125h750v-125h-750zM265 425v125h750v-125h-750zM265 175v125h750v-125h-750zM265 -75v125h750v-125h-750z" />
    <glyph glyph-name="glyph32" unicode="&#xe043;" horiz-adv-x="780" 
d="M15 657v143h750v-143h-750zM265 371h-125l250 286l250 -286h-125v-571h-250v571z" />
    <glyph glyph-name="glyph33" unicode="&#xe030;" horiz-adv-x="887" 
d="M729 229h143q0 -117 -57.5 -215.5t-156 -156t-215 -57.5t-215 57.5t-156 156t-57.5 215t57.5 215t156 156t215.5 57.5h84l-42 42l101 101l215 -214l-215 -215l-101 101l42 41l-84 1q-119 0 -202.5 -83.5t-83.5 -202t83.5 -202t202 -83.5t202 83.5t83.5 202.5z" />
    <glyph glyph-name="glyph34" unicode="&#xe035;" 
d="M890 362h125q0 -77 -55 -132t-132 -55h-563v-125l-250 188l250 187v-125h563q25 0 43.5 18.5t18.5 43.5zM202 550q-25 0 -43.5 -18.5t-18.5 -43.5h-125q0 77 55 132t132 55h563v125l250 -188l-250 -187v125h-563z" />
    <glyph glyph-name="glyph35" unicode="&#xe034;" 
d="M890 425h125v-63q0 -77 -55 -132t-132 -55h-438v-125l-250 188l250 187v-125h438q25 0 43.5 18.5t18.5 43.5v63zM140 488v-63h-125v63q0 77 55 132t132 55h438v125l250 -188l-250 -187v125h-438q-25 0 -43.5 -18.5t-18.5 -43.5z" />
    <glyph glyph-name="glyph36" unicode="&#xe033;" 
d="M638 175l188 250l189 -250h-125v-63q0 -77 -55 -132t-133 -55h-374q-78 0 -133 55t-55 132v63h125v-63q0 -25 18.5 -43.5t44.5 -18.5h374q26 0 44.5 18.5t18.5 43.5v63h-127zM392 550l-188 -250l-189 250h125v62q0 78 55 133t133 55h374q78 0 133 -55t55 -133v-62h-125
v62q0 26 -18.5 44.5t-44.5 18.5h-374q-26 0 -44.5 -18.5t-18.5 -44.5v-62h127z" />
    <glyph glyph-name="glyph37" unicode="&#xe032;" 
d="M828 425l187 -187h-125q0 -78 -55 -133t-133 -55h-374q-78 0 -133 55t-55 133v62h125v-62q0 -26 18.5 -44.5t44.5 -18.5h374q26 0 44.5 18.5t18.5 44.5h-125zM702 800q78 0 133 -55t55 -133v-62h-125v62q0 26 -18.5 44.5t-44.5 18.5h-374q-26 0 -44.5 -18.5t-18.5 -44.5
v-1h125l-188 -186l-187 186h125v1q0 78 55 133t133 55h374z" />
    <glyph glyph-name="glyph38" unicode="&#x275d;" 
d="M1015 50h-375v375q0 155 110 265t265 110v-125q-103 0 -176.5 -73.5t-73.5 -176.5h250v-375zM390 50h-375v375q0 155 110 265t265 110v-125q-103 0 -176.5 -73.5t-73.5 -176.5h250v-375z" />
    <glyph glyph-name="glyph39" unicode="&#x2717;" 
d="M1015 0l-200 -200l-300 300l-300 -300l-200 200l300 300l-300 300l200 200l300 -300l300 300l200 -200l-300 -300z" />
    <glyph glyph-name="glyph40" unicode="&#xe04d;" 
d="M15 800l750 -500l-750 -500v1000zM765 -75v750h250v-750h-250z" />
    <glyph glyph-name="glyph41" unicode="&#xe000;" horiz-adv-x="780" 
d="M452 800l313 -312v-688h-750v1000h437zM140 -75h500v500h-250v250h-250v-750z" />
    <glyph glyph-name="glyph42" unicode="&#xe06f;" 
d="M765 -200v1000h250v-1000h-250zM390 -200v750h250v-750h-250zM15 -200v500h250v-500h-250z" />
    <glyph glyph-name="glyph43" unicode="&#x2190;" 
d="M514 -200l-499 500l499 500l178 -177l-198 -198h521v-251h-521l198 -197z" />
    <glyph glyph-name="glyph44" unicode="&#x2193;" 
d="M1015 300l-500 -500l-500 500l177 177l198 -198v521h250v-521l198 197z" />
    <glyph glyph-name="glyph45" unicode="&#xe042;" horiz-adv-x="780" 
d="M15 -200v143h750v-143h-750zM515 229h125l-250 -286l-250 286h125v571h250v-571z" />
    <glyph glyph-name="glyph46" unicode="&#x2302;" 
d="M515 800l500 -500h-125v-500h-750v500h-125zM765 -75v448l-250 177l-250 -177v-448h187v187h126v-187h187z" />
    <glyph glyph-name="glyph47" unicode="&#xe001;" 
d="M762 675h253v-125h-253h-125h-250h-125h-247v125h247v125h125v-125h250v125h125v-125zM140 50v125h750v-125h-750zM140 300v125h750v-125h-750zM765 -200h-625v125h750z" />
    <glyph glyph-name="glyph48" unicode="&#xe012;" 
d="M15 800h375v-375l-375 -375v750zM640 800h375v-375l-375 -375v750z" />
    <glyph glyph-name="glyph49" unicode="&#xe04e;" 
d="M872 32l143 143v-375h-375l143 143l-143 144l88 88zM390 800l-143 -143l142 -142l-89 -89l-142 142l-143 -143v375h375zM390 87l-143 -144l143 -143h-375v375l143 -143l144 143zM1015 800v-375l-143 143l-142 -142l-89 89l142 142l-143 143h375z" />
    <glyph glyph-name="glyph50" unicode="&#xe058;" 
d="M390 305q0 125 125 125t125 -125t-125 -125t-125 125zM907 611q108 -136 108 -306q0 -101 -39.5 -194t-106.5 -159.5t-159.5 -106.5t-194.5 -40t-194.5 40t-159.5 106.5t-106.5 159.5t-39.5 194q0 168 106 305q17 -14 37 -14q26 0 44 18.5t18 44.5q0 19 -13 37
q108 86 247 104q2 -24 19.5 -40.5t41.5 -16.5t41.5 16t19.5 40q136 -17 245 -101q-15 -18 -15 -39q0 -26 18.5 -44.5t44.5 -18.5q20 0 38 15zM515 55q104 0 177 73.5t73 177t-73 176.5l-177 177l-177 -177q-73 -73 -73 -176.5t73 -177t177 -73.5z" />
    <glyph glyph-name="glyph51" unicode="&#xe008;" 
d="M515 800q136 0 251 -67t182 -182t67 -251t-67 -251t-182 -182t-251 -67t-251 67t-182 182t-67 251t67 251t182 182t251 67zM765 238v124h-187v188h-126v-188h-187v-124h187v-188h126v188h187z" />
    <glyph glyph-name="glyph52" unicode="&#xe079;" 
d="M515 675q-155 0 -265 -110t-110 -265t110 -265t265 -110t265 110t110 265t-110 265t-265 110zM515 800q136 0 251 -67t182 -182t67 -251t-67 -251t-182 -182t-251 -67t-251 67t-182 182t-67 251t67 251t182 182t251 67zM684 219l-88 -88l-122 123q-22 19 -22 46v250h126
v-224z" />
    <glyph glyph-name="glyph53" unicode="&#xe060;" 
d="M889 550l126 125l-123 125h123v-1000h-1000v1000h125l126 -126l-127 -124h125l128 126l-125 124h177l126 -126l-127 -124h147l128 126l-125 124h174l123 -126l-124 -124h123zM890 -74v125h-750v-125h750zM890 175v125h-750v-125h750z" />
    <glyph glyph-name="glyph54" unicode="&#xe024;" 
d="M515 800q136 0 251 -67t182 -182t67 -251t-67 -251t-182 -182t-251 -67t-251 67t-182 182t-67 251t67 251t182 182t251 67zM515 675q-120 0 -216.5 -69.5t-135.5 -180.5h704q-39 111 -135.5 180.5t-216.5 69.5zM515 238q26 0 44.5 18t18.5 44t-18.5 44t-44.5 18
t-44.5 -18t-18.5 -44t18.5 -44t44.5 -18zM140 300q0 -138 89 -242t223 -127q-1 101 -43 185.5t-113.5 134t-155.5 49.5zM578 -69q134 23 223 127t89 242q-84 0 -155.5 -49.5t-113.5 -134t-43 -185.5z" />
    <glyph glyph-name="glyph55" unicode="&#x270e;" 
d="M942 727q73 -73 73 -177t-73 -177l-574 -573h-353l1 354l572 573q73 73 177 73t177 -73zM317 -75l536 537l-176 176l-536 -536v-52h124v-125h52z" />
    <glyph glyph-name="glyph56" unicode="&#xe02b;" 
d="M381 531q0 -40 -28.5 -68.5t-68.5 -28.5t-68 28.5t-28 68.5t28 68t68 28t68.5 -28t28.5 -68zM15 800h415l585 -585h-415v-415l-585 585v415zM384 689h-258v-258q11 -10 74.5 -73.5l153 -153l135.5 -135.5v257h257l-136 136t-152 152.5t-74 74.5z" />
    <glyph glyph-name="glyph57" unicode="&#xe067;" 
d="M1015 550q0 -69 -35 -127t-94 -91q0 -1 1.5 -13t1.5 -18q0 -102 -50 -188.5t-136.5 -136.5t-188.5 -50q-114 0 -209 63l-290 -189l190 289q-66 96 -66 212q0 102 50 188.5t136.5 136.5t188.5 50q7 0 20 -1.5t14 -2.5q33 58 90.5 93t126.5 35q103 0 176.5 -73.5
t73.5 -176.5zM514 51q103 0 176.5 73t73.5 176q-30 0 -64 10l-99 -98q-36 -37 -88 -37t-88.5 36.5t-36.5 88.5t37 88l99 100q-9 34 -9 62v0.5v0.5h-0.5h-0.5q-103 0 -176.5 -73.5t-73.5 -176.5t73.5 -176.5t176.5 -73.5zM765 425q52 0 88.5 36.5t36.5 88.5t-36.5 88.5
t-88.5 36.5t-88.5 -36.5t-36.5 -88.5t36.5 -88.5t88.5 -36.5z" />
    <glyph glyph-name="glyph58" unicode="&#x26d4;" 
d="M515 800q136 0 251 -67t182 -182t67 -251t-67 -251t-182 -182t-251 -67t-251 67t-182 182t-67 251t67 251t182 182t251 67zM515 675q-155 0 -265 -110t-110 -265q0 -118 70 -217l522 522q-99 70 -217 70zM515 -75q155 0 265 110t110 265q0 118 -70 217l-522 -522
q99 -70 217 -70z" />
    <glyph glyph-name="glyph59" unicode="&#xe011;" 
d="M1015 50h-375v375l375 375v-750zM390 50h-375v375l375 375v-750z" />
    <glyph glyph-name="glyph60" unicode="&#xe071;" 
d="M265 175q-104 0 -177 73t-73 177t73 177t177 73v-500zM390 675l250 125v-750l-250 125v500zM1015 362h-250v126h250v-126z" />
    <glyph glyph-name="glyph61" unicode="&#xe018;" 
d="M1015 300q0 -136 -67 -251t-182 -182t-251 -67t-251 67t-182 182t-67 251t67 251t182 182t251 67t251 -67t182 -182t67 -251zM390 112l125 -124l125 124h-62v500h-126v-500h-62z" />
    <glyph glyph-name="glyph62" unicode="&#xe056;" 
d="M15 737.5q0 62.5 62.5 62.5t62.5 -62.5t-62.5 -62.5t-62.5 62.5zM265 675v125h750v-125h-750zM265 487.5q0 62.5 62.5 62.5t62.5 -62.5t-62.5 -62.5t-62.5 62.5zM515 425v125h500v-125h-500zM265 -12.5q0 62.5 62.5 62.5t62.5 -62.5t-62.5 -62.5t-62.5 62.5zM515 -75v125
h500v-125h-500zM515 237.5q0 62.5 62.5 62.5t62.5 -62.5t-62.5 -62.5t-62.5 62.5zM765 175v125h250v-125h-250z" />
    <glyph glyph-name="glyph63" unicode="&#xe014;" 
d="M15 300q0 102 39.5 194.5t106.5 159.5t159.5 106.5t194.5 39.5t194.5 -39.5t159.5 -106.5t106.5 -159.5t39.5 -194.5t-39.5 -194.5t-106.5 -159.5t-159.5 -106.5t-194.5 -39.5t-194.5 39.5t-159.5 106.5t-106.5 159.5t-39.5 194.5zM765 301l-250 249l-249 -249h186v-251
h126v251h187z" />
    <glyph glyph-name="glyph64" unicode="&#xe06d;" 
d="M640 675h-312q-78 0 -133 -55t-55 -132v-313q0 -62 50 -100q35 46 87.5 73t112.5 27h250q103 0 176.5 73.5t73.5 176.5t-73.5 176.5t-176.5 73.5zM640 800q155 0 265 -110t110 -265t-110 -265t-265 -110h-250q-52 0 -88.5 -36.5t-36.5 -88.5q-103 0 -176.5 73t-73.5 177
v313q0 129 91.5 220.5t221.5 91.5h312z" />
    <glyph glyph-name="glyph65" unicode="&#xe02f;" 
d="M895 684q58 -58 89 -133t31 -157.5t-31 -157t-89 -133.5l-94 -94l-89 89l94 94q84 84 84 202t-84 201q-52 53 -126.5 72t-149 0t-127.5 -72l-170 -170h157v-125h-375v375h125v-166l175 175q76 76 183 103t214 0t183 -103zM503 -111l89 88l88 -89l-89 -88z" />
    <glyph glyph-name="glyph66" unicode="&#x2602;" 
d="M515 800q102 0 194.5 -39.5t159.5 -106.5t106.5 -159.5t39.5 -194.5h-125q0 19 -14 33t-33 14t-33 -14t-14 -33h-125q0 19 -13.5 33t-33 14t-33 -14t-13.5 -33v-312q0 -78 -55 -133t-132.5 -55t-133 55t-55.5 133h126q0 -26 18 -44.5t44 -18.5t44 18.5t18 44.5v312
q0 19 -13.5 33t-33 14t-33 -14t-13.5 -33h-125q0 19 -14 33t-33 14t-33 -14t-14 -33h-125q0 136 67 251t182 182t251 67z" />
    <glyph glyph-name="glyph67" unicode="&#x26a1;" 
d="M1015 800l-437 -500l187 -125l-750 -375l437 375l-187 125z" />
    <glyph glyph-name="glyph68" unicode="&#xe053;" 
d="M1015 675h-1000v125h1000v-125zM640 425h-625v125h625v-125zM1015 50h-1000v125h1000v-125zM765 -200h-750v125h750v-125zM1015 -137.5q0 -25.5 -18.5 -44t-44.5 -18.5q-25 0 -43.5 18.5t-18.5 44t18.5 44t43.5 18.5q26 0 44.5 -18.5t18.5 -44z" />
    <glyph glyph-name="glyph69" unicode="&#xe054;" 
d="M1015 675h-1000v125h1000v-125zM640 425h-625v125h625v-125zM1015 172h-1000v125h1000v-125zM15 -137.5q0 62.5 62.5 62.5t62.5 -62.5t-62.5 -62.5t-62.5 62.5zM390 -137.5q0 -25.5 -18.5 -44t-43.5 -18.5q-26 0 -44.5 18.5t-18.5 44t18.5 44t44.5 18.5q25 0 43.5 -18.5
t18.5 -44zM515 -137.5q0 62.5 62.5 62.5t62.5 -62.5t-62.5 -62.5t-62.5 62.5z" />
    <glyph glyph-name="glyph70" unicode="&#xe023;" horiz-adv-x="530" 
d="M452 800q26 0 44.5 -18.5t18.5 -43.5v-688q0 -104 -73 -177t-177 -73t-177 73t-73 177v688q0 25 18.5 43.5t44.5 18.5h374zM327.5 50q25.5 0 44 18.5t18.5 44t-18.5 44t-44 18.5t-44 -18.5t-18.5 -44t18.5 -44t44 -18.5zM390 300v375h-250v-375h63q0 26 18.5 44t44.5 18
t44.5 -18t18.5 -44h61z" />
    <glyph glyph-name="glyph71" unicode="&#xe010;" horiz-adv-x="530" 
d="M266 518.5q0 30.5 30.5 30.5t30.5 -30.5t-30.5 -30.5t-30.5 30.5zM452 800q26 0 44.5 -18.5t18.5 -43.5v-688q0 -104 -73 -177t-177 -73t-177 73t-73 177v688q0 25 18.5 43.5t44.5 18.5h374zM172.5 175q12.5 0 21 9t8.5 21.5t-8.5 21.5t-21 9t-21.5 -9t-9 -21.5t9 -21.5
t21.5 -9zM327.5 50q25.5 0 44 18.5t18.5 44t-18.5 44t-44 18.5t-44 -18.5t-18.5 -44t18.5 -44t44 -18.5zM390 300v375h-250v-375h63q0 26 18.5 44t44.5 18t44.5 -18t18.5 -44h61z" />
    <glyph glyph-name="glyph72" unicode="&#xe073;" 
d="M1015 675v-250h-125v-63q0 -25 -18.5 -43.5t-43.5 -18.5h-750q-26 0 -44.5 18.5t-18.5 43.5v376q0 25 18.5 43.5t44.5 18.5h750q25 0 43.5 -18.5t18.5 -43.5v-63h125z" />
    <glyph glyph-name="glyph73" unicode="&#x2192;" 
d="M516 800l499 -500l-499 -500l-178 177l198 198h-521v251h521l-198 197z" />
    <glyph glyph-name="glyph74" unicode="&#xe059;" 
d="M1015 800v-750h-250v-250h-750v750h250v250h750zM640 -75v125h-375v250h-125v-375h500zM890 175v375h-500v-375h500z" />
    <glyph glyph-name="glyph75" unicode="&#x2795;" 
d="M1015 425v-250h-375v-375h-250v375h-375v250h375v375h250v-375h375z" />
    <glyph glyph-name="glyph76" unicode="&#x2699;" 
d="M1015 238l-149 -63q-8 -21 -14 -34l61 -150l-88 -88l-150 60q-14 -6 -35 -14l-62 -149h-125l-63 148q-22 7 -36 14l-148 -60l-88 88l59 148q-7 16 -15 37l-147 62v125l147 62q8 23 15 38l-60 147l88 88l149 -60q15 8 36 15l62 148h125l63 -148q20 -8 35 -15l149 61
l88 -88l-60 -150q6 -14 14 -34l149 -63v-125zM514 112q78 0 133 55t55 133t-55 133t-133 55t-132.5 -55t-54.5 -133t54.5 -133t132.5 -55z" />
    <glyph glyph-name="glyph77" unicode="&#x26bf;" 
d="M702.5 675q-77.5 0 -132.5 -55t-55 -132q0 -15 4 -34l12 -65l-47 -47l-344 -344v-73h125v125h125v125h125v52l37 36l5 6l47 47l65 -12q20 -4 33 -4q78 0 133 55t55 132.5t-55 132.5t-132.5 55zM702.5 800q129.5 0 221 -91.5t91.5 -221t-91.5 -221t-221.5 -91.5
q-25 0 -56 6l-6 -6v-125h-125v-125h-125v-125h-375v250l381 381q-6 31 -6 57q0 129 91.5 220.5t221 91.5zM640 487.5q0 62.5 62.5 62.5t62.5 -62.5t-62.5 -62.5t-62.5 62.5z" />
    <glyph glyph-name="glyph78" unicode="&#xe04c;" 
d="M1015 -200l-750 500l750 500v-1000zM15 -75v750h250v-750h-250z" />
    <glyph glyph-name="glyph79" unicode="&#xe003;" 
d="M515 675q-292 0 -355 -154q-18 -41 -20 -92.5t6.5 -95.5t24.5 -88q51 35 107.5 45t174.5 10h414q23 71 23 125q0 30 -2.5 52.5t-11.5 50t-24.5 47t-43.5 39.5t-67 32.5t-96.5 20.5t-129.5 8zM515 800q57 0 106.5 -4.5t101.5 -15.5t94 -29t79.5 -47.5t63 -67.5t40.5 -92
t15 -119q0 -56 -16 -118.5t-32 -96.5l-16 -35h-498q-50 0 -71.5 -1t-49.5 -1.5t-43 -8t-31 -12.5t-35.5 -23.5t-34.5 -32t-48 -46.5q-19 19 -38.5 51.5t-37.5 74.5t-30 91t-17.5 101t2.5 104t26 100t57 89.5t93.5 72.5t136 48.5t183.5 17.5z" />
    <glyph glyph-name="glyph80" unicode="&#xe05a;" 
d="M1015 675v-125h-125v-562q0 -78 -55 -133t-133 -55h-374q-78 0 -133 55t-55 133v562h-125v125h125h125q0 52 36.5 88.5t88.5 36.5h250q52 0 88.5 -36.5t36.5 -88.5h125h125zM765 -12v562h-500v-562q0 -26 18.5 -44.5t44.5 -18.5h374q26 0 44.5 18.5t18.5 44.5z
M327.5 112.5q0.5 62.5 63 62.5t62 -62.5t-63 -62.5t-62 62.5zM327.5 362.5q0.5 62.5 63 62.5t62 -62.5t-63 -62.5t-62 62.5zM577.5 112.5q0.5 62.5 63 62.5t62 -62.5t-63 -62.5t-62 62.5zM577.5 362.5q0.5 62.5 63 62.5t62 -62.5t-63 -62.5t-62 62.5z" />
    <glyph glyph-name="glyph81" unicode="&#xe027;" 
d="M265 50v250l125 125l125 -125l250 250l250 -250v-250h-750zM140 -75h875l-125 -125h-750h-125v125v750l125 125v-875z" />
    <glyph glyph-name="glyph82" unicode="&#xe007;" 
d="M827 418q83 -16 135.5 -75.5t52.5 -167.5q0 -65 -21 -114.5t-57.5 -78.5t-79.5 -43t-92 -14h-125q-52 0 -88.5 -36.5t-36.5 -88.5q-104 0 -177 73t-73 177v125q0 33 6 63h119q2 0 6.5 -1.5l4.5 -1.5q-11 -26 -11 -60v-125q0 -62 50 -100q35 46 87.5 73t112.5 27h125
q125 0 125 125q0 15 -0.5 24.5t-5.5 28t-14 30.5t-27 23.5t-44 15.5q27 57 28 121zM515 675h-250q-35 0 -60.5 -10t-37.5 -22.5t-18.5 -33t-7.5 -31.5t-1 -28q0 -15 1 -25.5t7.5 -31t18.5 -34t37.5 -24t60.5 -10.5h125q60 0 112.5 -27t87.5 -73q50 38 50 100v125
q0 38 -12.5 65t-33 39t-39.5 16.5t-40 4.5zM515 800q48 0 92 -15t80 -44.5t57 -79t21 -111.5v-125q0 -104 -73 -177t-177 -73q0 52 -36.5 88.5t-88.5 36.5h-125q-49 0 -92 14t-79.5 43t-57.5 78.5t-21 114.5q0 66 21 116t57.5 78.5t79.5 42t92 13.5h250z" />
    <glyph glyph-name="glyph83" unicode="&#xe064;" 
d="M515 800q136 0 251 -67t182 -182t67 -251t-67 -251t-182 -182t-251 -67t-251 67t-182 182t-67 251t67 251t182 182t251 67zM516 177q51 0 87.5 36.5t36.5 87.5t-36.5 87.5t-87.5 36.5t-87.5 -36.5t-36.5 -87.5t36.5 -87.5t87.5 -36.5z" />
    <glyph glyph-name="glyph84" unicode="&#x275e;" 
d="M15 800h375v-375q0 -155 -110 -265t-265 -110v125q103 0 176.5 73.5t73.5 176.5h-250v375zM640 800h375v-375q0 -155 -110 -265t-265 -110v125q103 0 176.5 73.5t73.5 176.5h-250v375z" />
    <glyph glyph-name="glyph85" unicode="&#xe01b;" 
d="M515 133q0 -90 -44.5 -167t-121.5 -121.5t-167 -44.5q-89 0 -166 44l-1 1q76 44 121.5 120.5t45.5 167.5q0 69 48.5 118t117.5 49t118 -49t49 -118zM978.5 763.5q36.5 -36.5 36.5 -88.5t-37 -88l-356 -357q-22 62 -68.5 108.5t-108.5 68.5l357 356q36 37 88 37
t88.5 -36.5z" />
    <glyph glyph-name="glyph86" unicode="&#x2601;" 
d="M765 675q103 0 176.5 -73.5t73.5 -176.5t-73.5 -176.5t-176.5 -73.5h-500q-103 0 -176.5 73.5t-73.5 176.5t73.5 176.5t176.5 73.5q10 0 33 -3q33 58 90.5 93t126.5 35q68 0 125 -35t91 -93q25 3 34 3zM765 300q52 0 88.5 36.5t36.5 88.5t-36.5 88.5t-88.5 36.5
t-88.5 -36.5t-36.5 -88.5h-125q0 60 27 112t73 87q-38 51 -100 51q-52 0 -88.5 -36.5t-36.5 -88.5q0 -23 8 -44l-117 -43q-15 40 -16 85q-49 -1 -87 -37t-38 -86q0 -52 36.5 -88.5t88.5 -36.5h500z" />
    <glyph glyph-name="glyph87" unicode="&#xe025;" 
d="M515 800q56 0 114 -20.5t106 -53t92.5 -72t78 -79t58.5 -72t38 -53.5l13 -20q-5 -8 -13.5 -21.5t-37 -53t-59.5 -75.5t-77.5 -80t-93 -75.5t-105 -53t-114.5 -21.5t-114 21t-106 54.5t-92.5 74t-78 81t-58.5 74t-38 54.5l-13 21q5 8 13.5 21t37 51.5t59.5 73.5t77.5 77.5
t93 73.5t105 52t114.5 21zM515 175q104 0 177 73t73 177t-73 177t-177 73t-177 -73t-73 -177t73 -177t177 -73zM390 424.5q0 124.5 125 125t125 -124.5t-125 -125t-125 124.5z" />
    <glyph glyph-name="glyph88" unicode="&#xe048;" 
d="M515 800q136 0 251 -67t182 -182t67 -251t-67 -251t-182 -182t-251 -67t-251 67t-182 182t-67 251t67 251t182 182t251 67zM328 50l500 250l-500 250v-500z" />
    <glyph glyph-name="glyph89" unicode="&#xe041;" 
d="M1015 175h-750v-125l-250 187l250 188v-125h750v-125zM15 550v125h750v125l250 -188l-250 -187v125h-750z" />
    <glyph glyph-name="glyph90" unicode="&#xe006;" 
d="M978.5 763.5q36.5 -36.5 36.5 -88.5t-37 -88l-472 -473q-18 67 -64 113q-47 46 -113 64l473 472q36 37 88 37t88.5 -36.5zM354 -39l-339 -161l162 338q36 37 88 37t88.5 -36.5t36.5 -88.5t-36 -89z" />
    <glyph glyph-name="glyph91" unicode="&#xe070;" 
d="M515 175q0 125 125 125t125 -125t-125 -125t-125 125zM890 550q52 0 88.5 -36.5t36.5 -88.5v-625h-1000v625q0 52 36.5 88.5t88.5 36.5h250l107 207q6 19 22.5 31t36.5 12h172q20 0 36.5 -12t22.5 -30zM202.5 300q25.5 0 44 18.5t18.5 44t-18.5 44t-44 18.5t-44 -18.5
t-18.5 -44t18.5 -44t44 -18.5zM640 -75q104 0 177 73t73 177t-73 177t-177 73t-177 -73t-73 -177t73 -177t177 -73z" />
    <glyph glyph-name="glyph92" unicode="&#xe03a;" 
d="M1015 300q0 -136 -67 -251t-182 -182t-251 -67t-251 67t-182 182t-67 251t67 251t182 182t251 67t251 -67t182 -182t67 -251zM328 238h374v-63l126 125l-126 125v-63h-374v63l-126 -125l126 -125v63z" />
    <glyph glyph-name="glyph93" unicode="&#x2935;" 
d="M890 362v-62h125l-250 -250l-250 250h125v62q0 130 -91.5 221.5t-221 91.5t-221 -91.5t-91.5 -221.5q0 119 58.5 220t159.5 159.5t219.5 58.5t219.5 -58.5t159.5 -159.5t58.5 -220z" />
    <glyph glyph-name="glyph94" unicode="&#xe039;" 
d="M328 612l62 -62h-188v-125l-187 187l187 188v-125h188zM701 612l-61 63h188v125l187 -188l-187 -187v125h-188z" />
    <glyph glyph-name="glyph95" unicode="&#xe026;" 
d="M677 363l-253 428q50 9 91 9q97 0 184 -35.5t155 -99.5zM639 175l260 442q116 -140 116 -317q0 -57 -18 -125h-358zM531 488h-479q41 101 122.5 176t187.5 110zM504 112h474q-41 -100 -121 -175t-185 -109zM393 425l-261 -443q-117 141 -117 318q0 57 18 125h360z
M356 239l254 -429q-50 -10 -95 -10q-96 0 -183 35t-155 99z" />
    <glyph glyph-name="glyph96" unicode="&#xe031;" horiz-adv-x="887" 
d="M729 229h143q0 -117 -57.5 -215.5t-156 -156t-215 -57.5t-215 57.5t-156 156t-57.5 215t57.5 215t156 156t215.5 57.5h143v143l215 -214l-215 -215v142l-143 1q-119 0 -202.5 -83.5t-83.5 -202t83.5 -202t202 -83.5t202 83.5t83.5 202.5z" />
    <glyph glyph-name="glyph97" unicode="&#xe074;" 
d="M369 183q14 -15 29 -29q-125 -124 -178 -177l-28 28q20 21 84.5 85.5zM644.5 800q100.5 0 186 -49.5t135 -135t49.5 -186t-49.5 -186t-135 -135t-186.5 -49.5q-70 0 -138 27l-286 -286l-205 205l286 286q-27 68 -27 138q0 101 49.5 186.5t135 135t186 49.5zM644.5 184
q101.5 0 173.5 72t72 173.5t-72 173.5t-173.5 72t-174 -72t-72.5 -173.5t72.5 -173.5t174 -72z" />
    <glyph glyph-name="glyph98" unicode="&#xe06e;" horiz-adv-x="780" 
d="M515 800q104 0 177 -73t73 -177v-500q0 -104 -73 -177t-177 -73h-250q-104 0 -177 73t-73 177v500q0 104 73 177t177 73h250zM390 -139q27 0 45.5 18.5t18.5 45.5t-18.5 45.5t-45.5 18.5t-45.5 -18.5t-18.5 -45.5t18.5 -45.5t45.5 -18.5zM640 50v500q0 52 -36.5 88.5
t-88.5 36.5h-250q-52 0 -88.5 -36.5t-36.5 -88.5v-500h500z" />
    <glyph glyph-name="glyph99" unicode="&#xe046;" horiz-adv-x="905" 
d="M640 800h125v-121q0 -130 -92 -221l-353 -352q-49 -48 -54 -118h124l-188 -188l-187 188h126q6 122 91 207l353 351q55 55 55 133v121zM764 -12h126l-188 -188l-187 188h124q-6 70 -54 118l-70 70l89 88l69 -69q85 -85 91 -207z" />
    <glyph glyph-name="glyph100" unicode="&#xe06b;" 
d="M15 -200v625h1000v-625h-1000zM578 550v250h312l125 -250h-437zM452 800v-250h-437l125 250h312z" />
    <glyph glyph-name="glyph101" unicode="&#xe00a;" horiz-adv-x="905" 
d="M765 -200v1000h125v-1000h-125zM515 -200v750h125v-750h-125zM265 -200v500h125v-500h-125zM15 -200v250h125v-250h-125z" />
    <glyph glyph-name="glyph102" unicode="&#x2764;" 
d="M737 675q-28 0 -58 -17t-46 -34l-16 -17l-102 -108l-102 108q-2 3 -6.5 7.5t-17.5 16.5t-26.5 20.5t-33 16t-36.5 7.5q-58 0 -100.5 -37.5t-50.5 -93.5l373 -429l373 429q-8 56 -50.5 93.5t-100.5 37.5zM737 800q115 0 196.5 -81.5t81.5 -196.5v-23l-500 -574l-500 574
v23q0 115 81.5 196.5t196.5 81.5q67 0 125 -32.5t97 -87.5q39 55 97 87.5t125 32.5z" />
    <glyph glyph-name="glyph103" unicode="&#xe072;" 
d="M265 175q-104 0 -177 73t-73 177t73 177t177 73v-500zM390 675l250 125v-750l-250 125v500zM765 175v125q15 0 31 4q42 10 68 44t26 77t-26.5 76.5t-67.5 44.5q-15 4 -31 4v125q31 0 61 -8q84 -21 136.5 -88.5t52.5 -153.5t-52.5 -153.5t-135.5 -88.5q-32 -8 -62 -8z" />
    <glyph glyph-name="glyph104" unicode="&#x2718;" 
d="M515 800q136 0 251 -67t182 -182t67 -251t-67 -251t-182 -182t-251 -67t-251 67t-182 182t-67 251t67 251t182 182t251 67zM762 141l-159 159l159 159l-88 88l-159 -159l-159 159l-88 -88l159 -159l-159 -159l88 -88l159 159l159 -159z" />
    <glyph glyph-name="glyph105" unicode="&#xe077;" 
d="M996.5 781.5q18.5 -18.5 18.5 -44t-18 -44.5l-128 -127q61 -90 50.5 -202t-90.5 -191l-187 -188q-91 -91 -221 -91q-94 0 -172 52l-127 -128q-19 -18 -44.5 -18t-44 18.5t-18.5 44t18 44.5l127 127q-60 90 -49.5 202t89.5 191l188 188q91 91 221 91q94 0 172 -52l127 128
q18 18 44 18t44.5 -18.5zM796 394q0 41 -19 80l-95 -95q-18 -18 -44 -18t-44 18t-18 44t18 44l95 95q-40 19 -80 19q-78 0 -133 -55l-187 -187q-55 -55 -55 -133q0 -41 19 -80l93 93q18 18 44 18t44 -18t18 -44t-18 -44l-93 -93q39 -19 80 -19q78 0 133 55l187 187
q55 55 55 133z" />
    <glyph glyph-name="glyph106" unicode="&#x263e;" 
d="M199 514q-59 -94 -59 -203q0 -105 51.5 -194t140.5 -140.5t194 -51.5q110 0 203 59q-138 13 -254.5 86t-189.5 189.5t-86 254.5zM385 800q-63 -110 -63 -230q0 -94 36.5 -180t98.5 -148t148 -98.5t180 -36.5q120 0 230 63q-47 -162 -181.5 -266t-307.5 -104
q-104 0 -198.5 40.5t-163 109t-109 163t-40.5 198.5q0 173 104 307.5t266 181.5z" />
    <glyph glyph-name="glyph107" unicode="&#xe01e;" 
d="M942 372l-19 -18l90 -90l-88 -88l-90 90l-465 -466h-232l-123 125v226l467 468l-93 93l88 88l93 -93l19 18q73 74 176.5 74t176.5 -73.5t73 -177t-73 -176.5zM338 -55l409 409l-176 176l-404 -403q71 -3 120 -51q53 -54 51 -131z" />
    <glyph glyph-name="glyph108" unicode="&#xe036;" horiz-adv-x="905" 
d="M761 610q63 -62 96 -142t33 -168q0 -89 -34.5 -170t-93.5 -139.5t-140 -93.5t-170 -35v-62l-124 125l124 125v-62q130 0 221.5 91.5t91.5 220.5t-92 221zM578 675l-126 -125v62q-129 0 -220.5 -91.5t-91.5 -220.5t92 -221l-88 -89q-63 62 -96 142t-33 168q0 89 34.5 170
t93.5 139.5t140 93.5t169 35v62z" />
    <glyph glyph-name="glyph109" unicode="&#xe02c;" 
d="M15 -75q0 125 125 125t125 -125t-125 -125t-125 125zM203 175v125q129 0 221 -91.5t92 -221.5h-125q0 78 -55 133t-133 55zM202 425v125q115 0 219 -44.5t179.5 -120t120 -179.5t44.5 -219h-125q0 89 -34.5 170t-93.5 140t-140 93.5t-170 34.5zM202 675v125
q165 0 315.5 -64.5t259.5 -173.5t173.5 -259.5t64.5 -315.5h-125q0 140 -54.5 267.5t-146.5 219.5t-219.5 146.5t-267.5 54.5z" />
    <glyph glyph-name="glyph110" unicode="&#x2139;" horiz-adv-x="530" 
d="M78 300h-63v125h375v-437q0 -26 18.5 -44.5t44.5 -18.5h62v-125h-500v125h63q25 0 43.5 18.5t18.5 44.5v250q0 25 -18.5 43.5t-43.5 18.5zM140 675q0 125 125 125t125 -125t-125 -125t-125 125z" />
    <glyph glyph-name="glyph111" unicode="&#xe02a;" 
d="M578 363v181q67 -17 115.5 -65.5t65.5 -115.5h-181zM578 237h181q-17 -67 -65.5 -115.5t-115.5 -65.5v181zM452 363h-181q17 67 65.5 115.5t115.5 65.5v-181zM452 237v-181q-67 17 -115.5 65.5t-65.5 115.5h181zM578 673v127q172 -22 293.5 -143.5t143.5 -293.5h-127
q-20 119 -105.5 204.5t-204.5 105.5zM142 363h-127q22 172 143.5 293.5t293.5 143.5v-127q-119 -20 -204.5 -105.5t-105.5 -204.5zM452 -73v-127q-172 22 -293.5 143.5t-143.5 293.5h127q20 -119 105.5 -204.5t204.5 -105.5zM888 237h127q-22 -172 -143.5 -293.5
t-293.5 -143.5v127q119 20 204.5 105.5t105.5 204.5z" />
    <glyph glyph-name="glyph112" unicode="&#xe057;" 
d="M1015 -75l-125 -125l-438 438l-187 -188l-250 750l750 -250l-187 -188z" />
    <glyph glyph-name="glyph113" unicode="&#x2796;" 
d="M15 550v250h1000v-250h-1000z" />
    <glyph glyph-name="glyph114" unicode="&#xe00b;" 
d="M390 424v126h249v-126h-249zM889 549l125 -125h-125v-624h-749q-52 0 -88.5 36.5t-36.5 88.5v750q0 52 36.5 88.5t88.5 36.5h749v-126h126zM764 -75v750h-499v-750h499z" />
    <glyph glyph-name="glyph115" unicode="&#xe061;" 
d="M952 300q26 0 44.5 -18.5t18.5 -43.5v-250q0 -26 -18.5 -44.5t-44.5 -18.5h-187v375v125q0 103 -73.5 176.5t-176.5 73.5t-176.5 -73.5t-73.5 -176.5v-125v-375h-187q-26 0 -44.5 18.5t-18.5 44.5v250q0 25 18.5 43.5t44.5 18.5h62v125q0 155 110 265t265 110t265 -110
t110 -265v-125h62z" />
    <glyph glyph-name="glyph117" unicode="&#xe013;" 
d="M515 -200q-102 0 -194.5 39.5t-159.5 106.5t-106.5 159.5t-39.5 194.5t39.5 194.5t106.5 159.5t159.5 106.5t194.5 39.5t194.5 -39.5t159.5 -106.5t106.5 -159.5t39.5 -194.5t-39.5 -194.5t-106.5 -159.5t-159.5 -106.5t-194.5 -39.5zM514 550l-249 -250l249 -249v187
h251v124h-251v188z" />
    <glyph glyph-name="glyph118" unicode="&#xe017;" 
d="M515 -200q-136 0 -251 67t-182 182t-67 251t67 251t182 182t251 67t251 -67t182 -182t67 -251t-67 -251t-182 -182t-251 -67zM328 425l-126 -125l126 -125v63h500v124h-500v63z" />
    <glyph glyph-name="glyph119" unicode="&#xe050;" 
d="M783 -57l-143 -143v375h375l-143 -143l143 -144l-88 -88zM15 425l143 143l-142 142l89 89l142 -142l143 143v-375h-375zM15 -112l143 144l-143 143h375v-375l-143 143l-144 -143zM640 425v375l143 -143l142 142l89 -89l-142 -142l143 -143h-375z" />
    <glyph glyph-name="glyph120" unicode="&#xe02e;" 
d="M890 50q52 0 88.5 -36.5t36.5 -88.5t-36.5 -88.5t-88.5 -36.5t-88.5 36.5t-36.5 88.5q0 21 9 44l-189 136q-55 -55 -133 -55q-77 0 -132 55t-55 133q0 9 3 28l-150 50q-18 -16 -40 -16q-26 0 -44.5 18.5t-18.5 44t18.5 44t44.5 18.5q22 0 38.5 -14t20.5 -35l151 -51
q24 46 68 73t96 27q60 0 109 -35l223 223q-19 32 -19 62q0 52 36.5 88.5t88.5 36.5t88.5 -36.5t36.5 -88.5t-36.5 -88.5t-88.5 -36.5q-30 0 -62 19l-223 -223q35 -49 35 -108q0 -42 -19 -82l190 -136q37 30 79 30z" />
    <glyph glyph-name="glyph121" unicode="&#xe04f;" 
d="M934 -31l81 81v-250h-250l81 81l-206 206l88 88zM96 631l-81 -81v250h250l-81 -81l206 -206l-88 -88zM846 719l-81 81h250v-250l-81 81l-206 -206l-88 88zM390 87l-206 -206l81 -81h-250v250l81 -81l206 206z" />
    <glyph glyph-name="glyph123" unicode="&#xe05e;" 
d="M765 425q49 0 92 -13.5t79.5 -42t57.5 -78.5t21 -116q0 -65 -21 -114.5t-57.5 -78.5t-79.5 -43t-92 -14h-125q-52 0 -88.5 -36.5t-36.5 -88.5q-104 0 -177 73t-73 177v125q0 69 29 125h-29q-49 0 -92 14t-79.5 43t-57.5 78.5t-21 114.5q0 66 21 116t57.5 78.5t79.5 42
t92 13.5h250q48 0 92 -15t79.5 -44.5t57 -79t21.5 -111.5v-125zM265 425h125q60 0 112.5 -27t87.5 -73q50 37 50 100v125q0 38 -12.5 65t-33 39t-39.5 16.5t-40 4.5h-250q-36 0 -61 -10t-37 -22.5t-18.5 -33t-7.5 -31.5t-1 -28q0 -125 125 -125zM765 50q35 0 60.5 10.5
t37.5 24t18.5 34t7.5 31t1 25.5q0 17 -1 28t-7.5 31.5t-18.5 33t-37.5 22.5t-60.5 10h-35q-33 -57 -90 -91t-125 -34q0 35 -18.5 64.5t-49.5 45.5q-57 -36 -57 -110v-125q0 -62 50 -100q35 46 87.5 73t112.5 27h125zM756 363q0 -2 -1 -5t-1 -4q0 1 1 4t1 5z" />
    <glyph glyph-name="glyph124" unicode="&#xe03d;" 
d="M515 800q136 0 251 -67t182 -182t67 -251t-67 -251t-182 -182t-251 -67t-251 67t-182 182t-67 251t67 251t182 182t251 67zM578 112v376h62l-125 124l-125 -124h62v-376h-62l125 -124l125 124h-62z" />
    <glyph glyph-name="glyph125" unicode="&#xe03c;" horiz-adv-x="405" 
d="M202 112l63 63v-187h125l-188 -188l-187 188h125v187zM202 486l-62 -61v187h-125l187 188l188 -188h-125v-187z" />
    <glyph glyph-name="glyph126" unicode="&#x2713;" 
d="M388 -5l-373 373l178 178l195 -195l449 449l178 -178z" />
    <glyph glyph-name="glyph127" unicode="&#xe05f;" horiz-adv-x="780" 
d="M390 300q-52 0 -88.5 36.5t-36.5 88.5v250q0 52 36.5 88.5t88.5 36.5t88.5 -36.5t36.5 -88.5v-250q0 -52 -36.5 -88.5t-88.5 -36.5zM515 -75q52 0 88.5 -36.5t36.5 -88.5h-500q0 52 36.5 88.5t88.5 36.5h63v131q-134 23 -223.5 127t-89.5 242v61q0 25 18.5 43.5t44 18.5
t44 -18.5t18.5 -43.5v-61q0 -103 73.5 -176.5t176.5 -73.5t176.5 73.5t73.5 176.5v61q0 25 18.5 43.5t44 18.5t44 -18.5t18.5 -43.5v-61q0 -138 -89.5 -242t-223.5 -127v-131h63z" />
    <glyph glyph-name="glyph128" unicode="&#xe06c;" 
d="M1015 -200h-1000v875h125v-750h750v750h125v-875zM202 300v125h126v-125h-126zM452 300v125h126v-125h-126zM702 300v125h126v-125h-126zM202 50v125h126v-125h-126zM452 50v125h126v-125h-126zM702 50v125h126zM265 612v126q0 25 18.5 43.5t44 18.5t44 -18.5t18.5 -43.5
v-126q0 -25 -18.5 -43.5t-44 -18.5t-44 18.5t-18.5 43.5zM640 612v126q0 25 18.5 43.5t44 18.5t44 -18.5t18.5 -43.5v-126q0 -25 -18.5 -43.5t-44 -18.5t-44 18.5t-18.5 43.5z" />
    <glyph glyph-name="glyph129" unicode="&#xe069;" horiz-adv-x="905" 
d="M140 800h750v-1000h-750q-52 0 -88.5 36.5t-36.5 88.5v750q0 52 36.5 88.5t88.5 36.5zM765 -75v750h-125v-252l-126 126l-124 -125v251h-125v-750h500z" />
    <glyph glyph-name="glyph130" unicode="&#xe03f;" 
d="M515 112l63 63v-187h124l-187 -188l-187 188h124v187zM515 486l-63 -61v187h-124l187 188l187 -188h-124v-187zM328 300l62 -62h-188v-126l-187 188l187 188v-126h188zM701 300l-61 62h188v126l187 -188l-187 -188v126h-188z" />
    <glyph glyph-name="glyph131" unicode="&#xe040;" 
d="M515 800q136 0 251 -67t182 -182t67 -251t-67 -251t-182 -182t-251 -67t-251 67t-182 182t-67 251t67 251t182 182t251 67zM702 175l126 125l-126 125v-63h-124v126h62l-125 124l-125 -124h62v-126h-124v63l-126 -125l126 -125v63h124v-126h-62l125 -124l125 124h-62v126
h124v-63z" />
    <glyph glyph-name="glyph132" unicode="&#xe022;" horiz-adv-x="530" 
d="M265 175q60 0 125 23v-398l-125 125l-125 -125v398q65 -23 125 -23zM265 800q104 0 177 -73t73 -177t-73 -177t-177 -73t-177 73t-73 177t73 177t177 73zM265 425q52 0 88.5 36.5t36.5 88.5t-36.5 88.5t-88.5 36.5t-88.5 -36.5t-36.5 -88.5t36.5 -88.5t88.5 -36.5z" />
    <glyph glyph-name="glyph133" unicode="&#xe078;" 
d="M1003 624q12 -39 12 -74q0 -104 -73 -177t-177 -73q-55 0 -107 25l-501 -501q-24 -24 -59 -24q-34 0 -58.5 24.5t-24.5 59t24 58.5l501 501q-25 52 -25 107q0 104 73 177t177 73q33 0 72 -12l-155 -155v-166h164z" />
    <glyph glyph-name="glyph134" unicode="&#xe047;" horiz-adv-x="780" 
d="M15 800l750 -500l-750 -500v1000z" />
    <glyph glyph-name="glyph135" unicode="&#x2605;" 
d="M707 187l121 -387l-312 240l-314 -240l122 388l-309 237h375l125 375l125 -375h375z" />
    <glyph glyph-name="glyph136" unicode="&#xe028;" 
d="M444 194l-312 -313q-117 135 -117 312.5t117 312.5zM640 670q105 -16 190.5 -76t135 -153t49.5 -202q0 -89 -35 -170.5t-93.5 -140t-140 -93.5t-171.5 -35q-140 0 -259 89l324 323v458zM515 300l-359 358q159 130 359 142v-500z" />
    <glyph glyph-name="glyph137" unicode="&#x26c6;" 
d="M765 675q103 0 176.5 -73.5t73.5 -176.5t-73.5 -176.5t-176.5 -73.5h-500q-103 0 -176.5 73.5t-73.5 176.5t73.5 176.5t176.5 73.5q10 0 33 -3q33 58 90.5 93t126.5 35q68 0 125 -35t91 -93q25 3 34 3zM765 300q52 0 88.5 36.5t36.5 88.5t-36.5 88.5t-88.5 36.5
t-88.5 -36.5t-36.5 -88.5h-125q0 60 27 112t73 87q-38 51 -100 51q-52 0 -88.5 -36.5t-36.5 -88.5q0 -23 8 -44l-117 -43q-15 40 -16 85q-49 -1 -87 -37t-38 -86q0 -52 36.5 -88.5t88.5 -36.5h500zM118 -57q-18 -18 -43 -18t-42.5 17.5t-17.5 42.5t18 42q10 11 52.5 32
t79.5 37l38 16q-62 -146 -85 -169zM368 -57q-18 -18 -43 -18t-42.5 17.5t-17.5 42.5t18 42q10 11 52.5 32t79.5 37l38 16q-62 -146 -85 -169zM618 -57q-18 -18 -43 -18t-42.5 17.5t-17.5 42.5t18 42q10 11 52.5 32t79.5 37l37 16q-61 -146 -84 -169z" />
    <glyph glyph-name="glyph138" unicode="&#xe065;" 
d="M515 675h500v-250v-125v-375q0 -52 -36.5 -88.5t-88.5 -36.5h-750q-52 0 -88.5 36.5t-36.5 88.5v394v106v375h500v-125zM390 675h-250v-250h750v125h-375h-125v125zM890 -75v375h-750v-375h750z" />
    <glyph glyph-name="glyph139" unicode="&#x2600;" 
d="M515 425q-52 0 -88.5 -36.5t-36.5 -88.5t36.5 -88.5t88.5 -36.5t88.5 36.5t36.5 88.5t-36.5 88.5t-88.5 36.5zM515 550q104 0 177 -73t73 -177t-73 -177t-177 -73t-177 73t-73 177t73 177t177 73zM452 737.5q0 62.5 63 62.5t63 -62.5t-63 -62.5t-63 62.5zM140 612.5
q0 62.5 62.5 62.5t62.5 -62.5t-62.5 -62.5t-62.5 62.5zM77.5 363q25.5 0 44 -18.5t18.5 -44.5t-18.5 -44t-44 -18t-44 18t-18.5 44t18.5 44.5t44 18.5zM140 -12.5q0 62.5 62.5 62.5t62.5 -62.5t-62.5 -62.5t-62.5 62.5zM452 -137.5q0 25.5 18.5 44t44.5 18.5t44.5 -18.5
t18.5 -44t-18.5 -44t-44.5 -18.5t-44.5 18.5t-18.5 44zM783.5 -56.5q-18.5 18.5 -18.5 44t18.5 44t44.5 18.5t44 -18.5t18 -44t-18 -44t-44 -18.5t-44.5 18.5zM952.5 238q-25.5 0 -44 18t-18.5 44t18 44t44 18t44.5 -18t18.5 -44t-18.5 -44t-44 -18zM872 568.5
q-18 -18.5 -44 -18.5t-44.5 18.5t-18.5 44t18.5 44t44.5 18.5t44 -18.5t18 -44t-18 -44z" />
    <glyph glyph-name="glyph140" unicode="&#xe062;" horiz-adv-x="780" 
d="M390 300q155 0 265 -110t110 -265q0 -52 -36.5 -88.5t-88.5 -36.5h-500q-52 0 -88.5 36.5t-36.5 88.5q0 155 110 265t265 110zM202 612.5q0 187.5 188 187.5t188 -187.5t-188 -187.5t-188 187.5z" />
    <glyph glyph-name="glyph141" unicode="&#xe05b;" 
d="M1015 675v-250h-125v-63q0 -25 -18.5 -43.5t-43.5 -18.5h-750q-26 0 -44.5 18.5t-18.5 43.5v376q0 25 18.5 43.5t44.5 18.5h750q25 0 43.5 -18.5t18.5 -43.5v-63h125zM765 425v250h-250v-250h250z" />
    <glyph glyph-name="glyph142" unicode="&#xe00c;" 
d="M962 520q53 -108 53 -220q0 -42 -9 -92h-356zM673 324v448q163 -55 256 -192zM538 142h449q-55 -163 -192 -256zM607 433l-313 313q108 54 221 54q42 0 92 -9v-358zM423 164l311 -311q-107 -53 -219 -53q-43 0 -92 9v355zM357 276v-448q-163 55 -256 192zM24 392h356
l-312 -312q-53 108 -53 220q0 42 9 92zM234 713l255 -255h-446q54 162 191 255z" />
    <glyph glyph-name="glyph143" unicode="&#xe04b;" 
d="M15 175l500 625l500 -625h-1000zM15 -200v250h999v-250h-999z" />
    <glyph glyph-name="glyph144" unicode="&#xe016;" 
d="M1015 300q0 -102 -39.5 -194.5t-106.5 -159.5t-159.5 -106.5t-194.5 -39.5t-194.5 39.5t-159.5 106.5t-106.5 159.5t-39.5 194.5t39.5 194.5t106.5 159.5t159.5 106.5t194.5 39.5t194.5 -39.5t159.5 -106.5t106.5 -159.5t39.5 -194.5zM265 299l250 -249l249 249h-186v251
h-126v-251h-187z" />
    <glyph glyph-name="glyph146" unicode="&#xe01a;" 
d="M15 300q0 136 67 251t182 182t251 67t251 -67t182 -182t67 -251t-67 -251t-182 -182t-251 -67t-251 67t-182 182t-67 251zM640 488l-125 124l-125 -124h62v-500h126v500h62z" />
    <glyph glyph-name="glyph147" unicode="&#xe015;" 
d="M515 800q136 0 251 -67t182 -182t67 -251t-67 -251t-182 -182t-251 -67t-251 67t-182 182t-67 251t67 251t182 182t251 67zM516 50l249 250l-249 249v-187h-251v-124h251v-188z" />
    <glyph glyph-name="glyph148" unicode="&#xe019;" 
d="M515 800q136 0 251 -67t182 -182t67 -251t-67 -251t-182 -182t-251 -67t-251 67t-182 182t-67 251t67 251t182 182t251 67zM702 175l126 125l-126 125v-63h-500v-124h500v-63z" />
    <glyph glyph-name="glyph149" unicode="&#xe02d;" 
d="M1015 -200h-143q0 116 -31 227t-86 205t-134.5 173.5t-173 134.5t-205 86t-227.5 31v143q203 0 388 -79.5t319 -213.5t213.5 -319t79.5 -388zM729 -200h-143q0 116 -45 222t-121.5 182.5t-182.5 121.5t-222 45v143q145 0 277.5 -56.5t228 -152t152 -228t56.5 -277.5z
M444 -200h-143q0 118 -84 202t-202 84v143q116 0 215 -57.5t156.5 -156.5t57.5 -215zM158 -200h-143v143q59 0 101 -42t42 -101z" />
    <glyph glyph-name="glyph150" unicode="&#xe037;" 
d="M162 -54q-71 71 -109 162.5t-38 191.5q0 136 67 251t182 182t251 67l63 -62l-63 -63q-155 0 -265 -110t-110 -265q0 -75 28.5 -143.5t81.5 -121.5l-77 -10zM515 -200l-63 62l63 63q155 0 265 110t110 265q0 75 -28.5 143.5t-81.5 121.5l77 10l11 79q71 -71 109 -162.5
t38 -191.5q0 -136 -67 -251t-182 -182t-251 -67z" />
  </font>
</defs>
</svg>
