<?xml version="1.0" standalone="no"?>
<!DOCTYPE svg PUBLIC "-//W3C//DTD SVG 1.1//EN" "http://www.w3.org/Graphics/SVG/1.1/DTD/svg11.dtd" >
<svg>
<metadata>
Created by FontForge 20110222 at Wed Apr 11 15:28:26 2012
 By user,,,
Copyright (c) 2011 by Just Be Nice studio. All rights reserved.
</metadata>
<defs>
<font id="websymbols-regular" horiz-adv-x="1800" >
  <font-face 
    font-family="Web Symbols"
    font-weight="400"
    font-stretch="normal"
    units-per-em="2048"
    panose-1="2 0 5 3 0 0 0 0 0 0"
    ascent="1638"
    descent="-410"
    x-height="1557"
    cap-height="1768"
    bbox="0 -32 2790 1892"
    underline-thickness="50"
    underline-position="-100"
    unicode-range="U+0023-E005"
  />
<missing-glyph horiz-adv-x="748" 
d="M68 0v1365h544v-1365h-544zM136 68h408v1229h-408v-1229z" />
    <glyph glyph-name=".notdef" horiz-adv-x="748" 
d="M68 0v1365h544v-1365h-544zM136 68h408v1229h-408v-1229z" />
    <glyph glyph-name=".null" horiz-adv-x="0" 
 />
    <glyph glyph-name="nonmarkingreturn" horiz-adv-x="682" 
 />
    <glyph glyph-name="numbersign" unicode="#" horiz-adv-x="1737" 
d="M373 794q0 -47 -76 -47h-29v94h42q63 0 63 -47zM342 967q0 -41 -61 -41h-13v82h15q59 0 59 -41zM477 126h112v434h-112v-266h-2l-207 266h-111v-434h111v265h2zM698 126h114v434h-114v-434zM486 782q0 99 -88 111q48 25 48 88q0 114 -129 114h-160v-434h172q67 0 112 29
t45 92zM1231 135v135q-38 -46 -97 -46q-52 0 -84.5 33t-32.5 85q0 51 32.5 85t82.5 34q63 0 99 -47v135q-56 22 -102 22q-96 0 -162.5 -67.5t-66.5 -161.5q0 -97 67.5 -161.5t164.5 -64.5q40 0 99 19zM556 661h247v95h-133v76h126v95h-126v72h133v96h-247v-434zM400 1338
v291h-245v-91h133v-202q0 -56 -32 -56q-20 0 -49 34l-61 -64q41 -65 111 -65q69 0 106 41.5t37 111.5zM1332 126h247v96h-135v74h127v95h-127v74h135v95h-247v-434zM871 1386v243h-113v-226q0 -36 -3.5 -58t-21.5 -41.5t-51 -19.5q-48 0 -62.5 31.5t-14.5 87.5v226h-114
v-243q0 -102 44.5 -151.5t146.5 -49.5q101 0 145 49.5t44 151.5zM1255 1343q0 49 -30 77.5t-64 37t-64 21t-30 32.5q0 18 15.5 27t33.5 9q41 0 76 -29l45 88q-63 36 -137 36q-65 0 -107.5 -40.5t-42.5 -105.5q0 -52 29 -81t64 -35t64 -18.5t29 -36.5q0 -21 -16.5 -33
t-37.5 -12q-45 0 -101 45l-47 -90q67 -50 151 -50q78 0 124 40.5t46 117.5zM1508 1534h94v95h-299v-95h92v-337h113v337zM1737 1770v-1800h-1737v1800h1737z" />
    <glyph glyph-name="percent" unicode="%" 
d="M551 270l290 -302h-841v841l302 -290l290 290q52 52 124 52t124.5 -52.5t52.5 -124.5t-52 -124zM1800 1768v-841l-302 290l-290 -290q-52 -52 -124 -52t-124.5 52.5t-52.5 124.5t52 124l290 290l-290 302h841z" />
    <glyph glyph-name="parenleft" unicode="(" 
d="M985 450l127 128l-289 290l289 290l-127 128l-420 -418zM1800 868q0 -245 -120.5 -452t-327.5 -327.5t-452 -120.5t-452 120.5t-327.5 327.5t-120.5 452t120.5 452t327.5 327.5t452 120.5t452 -120.5t327.5 -327.5t120.5 -452z" />
    <glyph glyph-name="parenright" unicode=")" 
d="M815 450l420 418l-420 418l-127 -128l289 -290l-289 -290zM1800 868q0 -245 -120.5 -452t-327.5 -327.5t-452 -120.5t-452 120.5t-327.5 327.5t-120.5 452t120.5 452t327.5 327.5t452 120.5t452 -120.5t327.5 -327.5t120.5 -452z" />
    <glyph glyph-name="asterisk" unicode="*" 
d="M1332 724l324 324h-216q-54 166 -213.5 274.5t-335.5 108.5q-236 0 -403.5 -166.5t-167.5 -402t167.5 -402t403.5 -166.5t401 165l-111 128q-119 -115 -281 -115q-164 0 -280 116t-116 280t116 280t280 116q171 0 281 -115q14 -15 20.5 -30t12 -36.5t10.5 -34.5h-216z
M1800 868q0 -245 -120.5 -452t-327.5 -327.5t-452 -120.5t-452 120.5t-327.5 327.5t-120.5 452t120.5 452t327.5 327.5t452 120.5t452 -120.5t327.5 -327.5t120.5 -452z" />
    <glyph glyph-name="plus" unicode="+" 
d="M1008 764h423v212h-423v423h-212v-423h-425v-212h425v-425h212v425zM1800 868q0 -245 -120.5 -452t-327.5 -327.5t-452 -120.5t-452 120.5t-327.5 327.5t-120.5 452t120.5 452t327.5 327.5t452 120.5t452 -120.5t327.5 -327.5t120.5 -452z" />
    <glyph glyph-name="comma" unicode="," 
d="M1512 1237q50 50 50 121.5t-50 121.5t-121.5 50t-121.5 -50t-50 -121.5t50 -121.5t121.5 -50t121.5 50zM1800 1525v-486l-1071 -1071l-729 729l1071 1071h486z" />
    <glyph glyph-name="hyphen" unicode="-" 
d="M371 764h1060v212h-1060v-212zM1800 868q0 -245 -120.5 -452t-327.5 -327.5t-452 -120.5t-452 120.5t-327.5 327.5t-120.5 452t120.5 452t327.5 327.5t452 120.5t452 -120.5t327.5 -327.5t120.5 -452z" />
    <glyph glyph-name="period" unicode="." horiz-adv-x="2122" 
d="M2122 1640q-450 -399 -1080 -1350l-207 -322q-259 324 -835 900l193 193l514 -450q270 270 502.5 488.5t370 337.5t236.5 200t139 106l38 25q7 0 19.5 -3.5t46.5 -35t63 -89.5z" />
    <glyph glyph-name="slash" unicode="/" 
d="M468 965l-97 -95q128 -128 232 -240.5t146 -161.5l39 -46q15 23 40 63.5t101.5 154t150.5 213.5t171 215t178 187q-32 63 -65 63q-18 -11 -57.5 -39.5t-204 -175.5t-378.5 -361zM900 1770q245 0 452 -120.5t327.5 -327.5t120.5 -452t-120.5 -452t-327.5 -327.5
t-452 -120.5t-452 120.5t-327.5 327.5t-120.5 452t120.5 452t327.5 327.5t452 120.5z" />
    <glyph glyph-name="zero" unicode="0" 
d="M338 281l-149 150l337 336l149 -149zM1462 281l-337 337l149 149l337 -336zM526 1217l-337 337l149 149l337 -336zM0 1098h477v-212h-477v212zM1323 886v212h477v-212h-477zM1006 92h-212v477h212v-477zM1006 1415h-212v477h212v-477z" />
    <glyph glyph-name="one" unicode="1" 
d="M338 281l-149 150l337 336l149 -149zM1462 1703l149 -149l-337 -337l-149 150zM1462 281l-337 337l149 149l337 -336zM526 1217l-337 337l149 149l337 -336zM0 1098h477v-212h-477v212zM1006 92h-212v477h212v-477zM1006 1415h-212v477h212v-477z" />
    <glyph glyph-name="two" unicode="2" 
d="M338 281l-149 150l337 336l149 -149zM1462 1703l149 -149l-337 -337l-149 150zM526 1217l-337 337l149 149l337 -336zM0 1098h477v-212h-477v212zM1323 886v212h477v-212h-477zM1006 92h-212v477h212v-477zM1006 1415h-212v477h212v-477z" />
    <glyph glyph-name="three" unicode="3" 
d="M338 281l-149 150l337 336l149 -149zM1462 1703l149 -149l-337 -337l-149 150zM1462 281l-337 337l149 149l337 -336zM526 1217l-337 337l149 149l337 -336zM0 1098h477v-212h-477v212zM1323 886v212h477v-212h-477zM1006 1415h-212v477h212v-477z" />
    <glyph glyph-name="four" unicode="4" 
d="M1462 1703l149 -149l-337 -337l-149 150zM1462 281l-337 337l149 149l337 -336zM526 1217l-337 337l149 149l337 -336zM0 1098h477v-212h-477v212zM1323 886v212h477v-212h-477zM1006 92h-212v477h212v-477zM1006 1415h-212v477h212v-477z" />
    <glyph glyph-name="five" unicode="5" 
d="M338 281l-149 150l337 336l149 -149zM1462 1703l149 -149l-337 -337l-149 150zM1462 281l-337 337l149 149l337 -336zM526 1217l-337 337l149 149l337 -336zM1323 886v212h477v-212h-477zM1006 92h-212v477h212v-477zM1006 1415h-212v477h212v-477z" />
    <glyph glyph-name="six" unicode="6" 
d="M338 281l-149 150l337 336l149 -149zM1462 1703l149 -149l-337 -337l-149 150zM1462 281l-337 337l149 149l337 -336zM0 1098h477v-212h-477v212zM1323 886v212h477v-212h-477zM1006 92h-212v477h212v-477zM1006 1415h-212v477h212v-477z" />
    <glyph glyph-name="seven" unicode="7" 
d="M338 281l-149 150l337 336l149 -149zM1462 1703l149 -149l-337 -337l-149 150zM1462 281l-337 337l149 149l337 -336zM526 1217l-337 337l149 149l337 -336zM0 1098h477v-212h-477v212zM1323 886v212h477v-212h-477zM1006 92h-212v477h212v-477z" />
    <glyph glyph-name="colon" unicode=":" 
d="M1190 656l128 127l-418 420l-418 -420l128 -127l290 289zM1800 868q0 -245 -120.5 -452t-327.5 -327.5t-452 -120.5t-452 120.5t-327.5 327.5t-120.5 452t120.5 452t327.5 327.5t452 120.5t452 -120.5t327.5 -327.5t120.5 -452z" />
    <glyph glyph-name="semicolon" unicode=";" 
d="M900 533l418 420l-128 127l-290 -289l-290 289l-128 -127zM1800 868q0 -245 -120.5 -452t-327.5 -327.5t-452 -120.5t-452 120.5t-327.5 327.5t-120.5 452t120.5 452t327.5 327.5t452 120.5t452 -120.5t327.5 -327.5t120.5 -452z" />
    <glyph glyph-name="question" unicode="?" horiz-adv-x="1054" 
d="M682 1240.5q0 64.5 -45 109.5t-109.5 45t-109.5 -45t-45 -109.5t45 -109.5t109.5 -45t109.5 45t45 109.5zM1055 1241q0 -13 -3 -38t-31.5 -128.5t-78 -234t-158.5 -364t-257 -508.5q-147 275 -256 507.5t-158.5 367.5t-77.5 230.5t-31 131.5l-4 36q0 217 155 372
t372.5 155t372.5 -155t155 -372z" />
    <glyph glyph-name="at" unicode="@" horiz-adv-x="2448" 
d="M283 252h1886v1005l-889 -742h-110l-887 742v-1005zM313 1478l913 -761l912 761h-1825zM189 1761h2074q77 0 133 -56t56 -133v-1413q0 -79 -56 -134t-133 -55h-2074q-77 0 -133 55t-56 134v1413q0 77 56 133t133 56z" />
    <glyph glyph-name="A" unicode="A" horiz-adv-x="2003" 
d="M2003 1241q0 -121 -47.5 -233.5t-132.5 -197.5l-806 -799l-112 110l807 799q133 130 133 321q0 160 -105.5 265t-265.5 105q-183 0 -324 -135l-887 -880q-106 -106 -106 -239q0 -103 66.5 -168.5t168.5 -65.5q135 0 242 106l678 670q96 99 96 174q0 38 -29 59.5t-69 21.5
q-86 0 -154 -72l-612 -605l-110 110l610 605q119 119 266 119q105 0 180.5 -66.5t75.5 -169.5q0 -140 -142 -286l-679 -670q-151 -151 -353 -151q-167 0 -279.5 110.5t-112.5 278.5q0 198 151 349l888 880q187 182 435 182q225 0 377 -151t152 -376z" />
    <glyph glyph-name="B" unicode="B" 
d="M450 193q0 -94 -65.5 -159.5t-159.5 -65.5t-159.5 65.5t-65.5 159.5t65.5 159.5t159.5 65.5t159.5 -65.5t65.5 -159.5zM1188 -32h-346q0 349 -246.5 595.5t-595.5 246.5v346q322 0 595.5 -159.5t433 -433t159.5 -595.5zM1800 -32h-347q0 295 -115.5 565t-310 464.5
t-463.5 309.5t-564 115v346q365 0 698 -143t574.5 -384.5t384.5 -574.5t143 -698z" />
    <glyph glyph-name="C" unicode="C" horiz-adv-x="2583" 
d="M2583 477q0 -199 -136 -346t-334 -161v-2h-1566v2q-12 -2 -38 -2q-210 0 -359.5 149.5t-149.5 359.5q0 134 66.5 251t181.5 185q-14 58 -14 112q0 210 149.5 359.5t359.5 149.5q186 0 335 -126q78 164 231.5 262t333.5 98q260 0 443.5 -183.5t183.5 -442.5
q0 -99 -29 -186q153 -52 247.5 -185t94.5 -294z" />
    <glyph glyph-name="D" unicode="D" horiz-adv-x="1963" 
d="M164 134h1145v655h-1145v-655zM1472 789h328v653h-1145v-327h817v-326zM1964 1770v-1145h-492v-655h-1472v1145h491v655h1473z" />
    <glyph glyph-name="F" unicode="F" horiz-adv-x="2503" 
d="M2504 1082v-18l-123 -941q-9 -63 -60 -109t-116 -46h-1904q-65 0 -118 46t-61 109l-120 941q-2 6 -2 18q0 60 40.5 98.5t99.5 38.5h2223q60 0 100.5 -38.5t40.5 -98.5zM2363 1377h-2223q17 87 49 121t62 30.5t61.5 6.5t45.5 51l43 130q139 52 375 52q160 0 295 -52
l45 -130q43 -41 58.5 -46.5t78.5 -5.5h873q151 0 198 -40q21 -19 39 -117z" />
    <glyph glyph-name="H" unicode="H" horiz-adv-x="2700" 
d="M554 868l623 -623l-277 -277l-900 900l900 900l277 -277zM1800 1768l900 -900l-900 -900l-277 277l623 623l-623 623z" />
    <glyph glyph-name="I" unicode="I" horiz-adv-x="2448" 
d="M2093 341q4 -2 2 -7.5t-7 -5.5h-1719h-2q-7 0 -7 7v4q32 65 243 504t259 538q2 4 6.5 4.5t6.5 -2.5l560 -695l273 220h13l2 -4q70 -90 182.5 -279t187.5 -284zM2016 1192q0 -59 -42.5 -101.5t-101.5 -42.5t-101.5 42.5t-42.5 101.5t42.5 101.5t101.5 42.5t101.5 -42.5
t42.5 -101.5zM216 184h2016v1368h-2016v-1368zM2448 1768v-1800h-2448v1800h2448z" />
    <glyph glyph-name="J" unicode="J" horiz-adv-x="2448" 
d="M1368 544l211 -216h-1145l-2 648h-432l540 576l540 -576h-432v-432h720zM2016 904h432l-540 -576l-540 576h432v432h-720l-211 216h1145z" />
    <glyph glyph-name="K" unicode="K" 
d="M1103 1129l-207 -207q-46 31 -100 31q-80 0 -135 -56l-315 -317q-56 -52 -56 -133q0 -79 55 -134t134 -55q45 0 89 21.5t58 61.5h429l-238 -233q-144 -140 -338 -140q-198 0 -338.5 140.5t-140.5 338.5q0 201 140 338l315 317q141 140 341 140q174 0 307 -113zM1800 1289
q0 -201 -140 -338l-315 -317q-141 -140 -341 -140q-174 0 -307 113l207 207q46 -31 100 -31q80 0 135 56l315 317q56 52 56 133q0 79 -55 134t-134 55q-45 0 -89 -21.5t-58 -61.5h-429l238 233q144 140 338 140q198 0 338.5 -140.5t140.5 -338.5z" />
    <glyph glyph-name="L" unicode="L" 
d="M1226 1031.5q0 203.5 -143 347.5t-346.5 144t-347.5 -144t-144 -347.5t144 -346.5t347.5 -143t346.5 143t143 346.5zM1343 616l457 -459l-189 -189l-457 457q-191 -129 -418 -129q-304 0 -520 216t-216 520t216 520t520 216t520 -216t216 -520q0 -229 -129 -416z" />
    <glyph glyph-name="M" unicode="M" horiz-adv-x="2448" 
d="M144 112h216v144h-216v-144zM504 112h216v144h-216v-144zM936 112h216v144h-216v-144zM144 400h576v936h-576v-936zM1296 112h216v144h-216v-144zM144 1480h216v144h-216v-144zM1728 112h216v144h-216v-144zM936 400h576v936h-576v-936zM504 1480h216v144h-216v-144z
M2088 112h216v144h-216v-144zM936 1480h216v144h-216v-144zM1728 400h576v936h-576v-936zM1296 1480h216v144h-216v-144zM1728 1480h216v144h-216v-144zM2088 1480h216v144h-216v-144zM2448 1768v-1800h-2448v1800h2448z" />
    <glyph glyph-name="N" unicode="N" horiz-adv-x="1913" 
d="M1395 1768q227 0 372.5 -144t145.5 -373v-108q0 -513 -957 -1175q-956 661 -956 1175v108q0 229 145 373t372 144q145 0 240.5 -55t198.5 -177q104 122 199.5 177t239.5 55z" />
    <glyph glyph-name="O" unicode="O" horiz-adv-x="1913" 
d="M1703 1152v90q0 105 -70.5 205t-170.5 110q-22 4 -67 4q-95 0 -149 -35t-130 -123l-160 -189l-160 189q-76 88 -130 123t-149 35q-44 0 -67 -4q-101 -10 -168.5 -107.5t-72.5 -207.5v-90q0 -54 30 -135q123 -358 717 -793q592 430 718 793q29 90 29 135zM1913 1251v-108
q0 -513 -957 -1175q-956 661 -956 1175v108q0 229 145 373t372 144q145 0 240.5 -55t198.5 -177q104 122 199.5 177t239.5 55q227 0 372.5 -144t145.5 -373z" />
    <glyph glyph-name="P" unicode="P" 
d="M1224 508q0 -45 -31.5 -76.5t-76.5 -31.5q-47 0 -76 32l-216 216q-32 33 -32 112v576q0 45 31.5 76.5t76.5 31.5t76.5 -31.5t31.5 -76.5v-567l184 -185q32 -29 32 -76zM1589 868q0 284 -202.5 486.5t-486.5 202.5q-227 0 -407 -133l4 -3q-87 -63 -150 -150l-3 4
q-133 -180 -133 -407q0 -284 202.5 -486.5t486.5 -202.5q227 0 407 133l-4 3q87 63 150 150l3 -4q133 180 133 407zM1800 868q0 -245 -120.5 -452t-327.5 -327.5t-452 -120.5t-452 120.5t-327.5 327.5t-120.5 452t120.5 452t327.5 327.5t452 120.5t452 -120.5t327.5 -327.5
t120.5 -452z" />
    <glyph glyph-name="Q" unicode="Q" 
d="M1053 1221q0 -65 -44 -112t-109 -47t-109 47t-44 112t44 111.5t109 46.5t109 -46.5t44 -111.5zM1309 719q0 46 -31.5 79.5t-76.5 33.5q-27 0 -51 -14q-126 -65 -252 -65q-124 0 -248 65q-29 12 -51 12q-45 0 -76.5 -33t-31.5 -80q0 -123 265 -175l-211 -218
q-32 -32 -32 -79t31.5 -80t76.5 -33t77 32l202 209l202 -209q32 -32 77 -32t76.5 33t31.5 80t-32 79l-211 218q265 54 265 177zM1269 1220.5q0 156.5 -106 270t-263 113.5t-263 -113.5t-106 -270t106 -270t263 -113.5t263 113.5t106 270zM1800 1610v-1484q0 -64 -47 -111
t-111 -47h-1484q-64 0 -111 47t-47 111v1484q0 64 47 111t111 47h1484q64 0 111 -47t47 -111z" />
    <glyph glyph-name="R" unicode="R" horiz-adv-x="1890" 
d="M1890 1075q0 -27 -52 -68l-495 -360l189 -582q9 -30 9 -54q0 -43 -33 -43q-30 0 -68 31l-495 358l-495 -358q-41 -31 -70 -31q-33 0 -33 41q0 20 11 56l189 582l-495 360q-52 37 -52 66q0 42 88 42l612 -2l187 583q22 72 58 72q34 0 56 -72l191 -583l610 2q88 0 88 -40z
" />
    <glyph glyph-name="S" unicode="S" 
d="M1174 868q0 108 -77.5 183.5t-185.5 75.5t-184.5 -75.5t-76.5 -183.5t76.5 -183.5t184.5 -75.5t185.5 75.5t77.5 183.5zM1800 998v-256l-333 -47q-18 -48 -38 -90l216 -282l-183 -180l-287 212q-36 -18 -91 -38l-54 -349h-258l-48 355q-38 12 -78 32l-290 -214l-181 180
l217 288q-19 38 -34 83l-358 50v256l358 50q13 38 34 81l-216 286l182 180l288 -214q27 14 85 36l50 351h258l50 -351q40 -13 86 -34l285 210l183 -180l-214 -280q24 -49 36 -87z" />
    <glyph glyph-name="T" unicode="T" horiz-adv-x="1665" 
d="M1154 654v191q-60 -35 -157 -55.5t-180.5 -33t-163 -35t-126 -76.5t-46.5 -142q0 -112 72 -170.5t185 -58.5q185 0 300.5 99t115.5 281zM1665 17h-475q-27 72 -33 165q-216 -214 -550 -214q-171 0 -304.5 52t-218 171t-84.5 292q0 72 15.5 133t38 107t63.5 85.5t77 65.5
t96.5 49.5t103.5 37t115 27t114.5 20t118.5 15.5q90 11 180 27q43 7 66.5 12.5t61 20t57.5 30.5t35 45.5t15 69.5q0 227 -306 227q-156 0 -234.5 -57t-101.5 -204h-439q10 162 78.5 277t181 178t242 91t286.5 28q122 0 224 -13.5t201 -51.5t166.5 -98t109 -160t41.5 -231
v-735q0 -115 0.5 -163.5t15 -139.5t43.5 -159z" />
    <glyph glyph-name="U" unicode="U" horiz-adv-x="1926" 
d="M1926 81q0 -37 -4 -113h-1920q0 18 -1 56t-1 57q0 54 2 67q21 88 115 152t201 95.5t225.5 84.5t174.5 118q31 40 31 68q0 40 -20 132q-7 38 -19 65.5t-29 59t-28 57.5q-27 63 -59 237q-11 69 -11 135q0 189 96.5 302.5t283.5 113.5t283.5 -113.5t96.5 -302.5
q0 -56 -13 -135q-25 -160 -57 -237q-11 -26 -28 -57.5t-29 -59t-19 -65.5q-20 -92 -20 -132q0 -32 31 -68q56 -65 174.5 -118t225 -84.5t200 -95.5t114.5 -152q4 -14 4 -67z" />
    <glyph glyph-name="V" unicode="V" horiz-adv-x="1542" 
d="M772 312q200 0 347.5 136.5t163.5 334.5h258q-16 -306 -239.5 -516.5t-529.5 -210.5q-284 0 -502 184l-270 -270v729h729l-275 -276q140 -111 318 -111zM1273 1500l270 270v-729h-729l275 275q-139 112 -317 112q-200 0 -348.5 -137t-164.5 -335h-257q16 306 239 516.5
t531 210.5q283 0 501 -183z" />
    <glyph glyph-name="W" unicode="W" horiz-adv-x="2003" 
d="M1127 337q0 52 -37 88t-89 36q-51 0 -87.5 -36t-36.5 -88t36.5 -89t87.5 -37q52 0 89 37t37 89zM1127 1034v262h-250v-262q0 -26 3.5 -48.5t9.5 -50t10 -47.5l47 -292h106l49 292q3 18 10.5 46.5t11 51t3.5 48.5zM2003 114q0 -70 -49.5 -107t-121.5 -37h-1661
q-72 0 -121.5 37.5t-49.5 106.5q0 54 32 110l830 1447q60 99 141 99t136 -99l832 -1449q32 -58 32 -108z" />
    <glyph glyph-name="X" unicode="X" horiz-adv-x="2138" 
d="M1343 423l191 -192q-281 -263 -609 -263q-390 0 -657.5 258.5t-267.5 645.5q0 243 122.5 450t330.5 326.5t451 119.5q331 0 628 -266l-189 -191q-205 187 -438 187q-268 0 -452.5 -187t-184.5 -457q0 -252 190 -434t446 -182q235 0 439 185zM1642 1345l496 -479
l-496 -475v319h-744v316h744v319z" />
    <glyph glyph-name="Z" unicode="Z" horiz-adv-x="2190" 
d="M1566 868q0 49 -35 83t-84 34h-704q-48 0 -82.5 -34t-34.5 -83t34.5 -83t82.5 -34h704q49 0 84 34t35 83zM2113 1142v-1097q0 -30 -23.5 -53.5t-55.5 -23.5h-1877q-33 0 -56.5 23.5t-23.5 53.5v1097q0 32 23.5 55.5t56.5 23.5h1877q32 0 55.5 -23.5t23.5 -55.5z
M2191 1691v-236q0 -33 -22.5 -55.5t-55.5 -22.5h-2036q-30 0 -53.5 22.5t-23.5 55.5v236q0 30 23.5 53.5t53.5 23.5h2036q33 0 55.5 -23.5t22.5 -53.5z" />
    <glyph glyph-name="bracketleft" unicode="[" horiz-adv-x="952" 
d="M477 391l-477 954h952z" />
    <glyph glyph-name="bracketright" unicode="]" horiz-adv-x="952" 
d="M952 868l-952 -477v954z" />
    <glyph glyph-name="underscore" unicode="_" horiz-adv-x="2448" 
d="M288 827l571 243v172l-571 242v-179l376 -151l-376 -149v-178zM940 688h572v139h-572v-139zM2448 1768v-1800h-2448v1800h2448z" />
    <glyph glyph-name="grave" unicode="`" 
d="M1526 762h-255v212h255q-34 198 -178 342t-342 178v-255h-212v255q-198 -34 -342 -178t-178 -342h255v-212h-255q34 -198 178 -342t342 -178v255h212v-255q198 34 342 178t178 342zM1800 868q0 -245 -120.5 -452t-327.5 -327.5t-452 -120.5t-452 120.5t-327.5 327.5
t-120.5 452t120.5 452t327.5 327.5t452 120.5t452 -120.5t327.5 -327.5t120.5 -452z" />
    <glyph glyph-name="a" unicode="a" horiz-adv-x="1368" 
d="M288 256h792v1008h-216v216h-576v-1224zM1008 1768l360 -360l-2 -1440h-1366v1800h1008z" />
    <glyph glyph-name="b" unicode="b" horiz-adv-x="1780" 
d="M284 522h1208v569h-212v213h-996v-782zM1777 1233v-995h-1777v1350h1420z" />
    <glyph glyph-name="c" unicode="c" horiz-adv-x="2046" 
d="M2047 1588v-958q0 -73 -53.5 -126.5t-126.5 -53.5h-303v-482l-480 482h-904q-74 0 -127 53.5t-53 126.5v958q0 74 53 127t127 53h1687q73 0 126.5 -53t53.5 -127z" />
    <glyph glyph-name="d" unicode="d" horiz-adv-x="2122" 
d="M2122 933q0 -227 -142 -420.5t-387 -305t-533 -111.5q-219 0 -421 70l4 -5l-643 -193q79 106 127 227.5t57 190.5l7 68q-191 216 -191 479q0 227 142 419.5t386 304t532 111.5t533 -111.5t387 -304t142 -419.5z" />
    <glyph glyph-name="e" unicode="e" horiz-adv-x="2122" 
d="M772 933q0 52 -37.5 90t-91.5 38q-53 0 -90.5 -38t-37.5 -90q0 -54 37.5 -92t90.5 -38q54 0 91.5 38t37.5 92zM1222 933q0 52 -37.5 90t-91.5 38q-53 0 -90.5 -38t-37.5 -90q0 -54 37.5 -92t90.5 -38q54 0 91.5 38t37.5 92zM1672 933q0 52 -37.5 90t-91.5 38
q-53 0 -90.5 -38t-37.5 -90q0 -54 37.5 -92t90.5 -38q54 0 91.5 38t37.5 92zM2122 933q0 -227 -142 -420.5t-387 -305t-533 -111.5q-219 0 -421 70l4 -5l-643 -193q79 106 127 227.5t57 190.5l7 68q-191 216 -191 479q0 227 142 419.5t386 304t532 111.5t533 -111.5
t387 -304t142 -419.5z" />
    <glyph glyph-name="f" unicode="f" 
d="M1463 1322l36 212q-77 27 -257 27q-142 0 -221 -104q-47 -62 -47 -215v-10v-65v-65h-142v-207h142v-720h268v720h212l17 207h-229v65v75v22q0 76 106 76q56 0 115 -18zM1800 1610v-1484q0 -64 -47 -111t-111 -47h-1484q-64 0 -111 47t-47 111v1484q0 64 47 111t111 47
h1484q64 0 111 -47t47 -111z" />
    <glyph glyph-name="g" unicode="g" 
d="M842 546q0 -79 -77 -128t-162 -49t-154 43.5t-69 122.5q0 86 73.5 129.5t165.5 43.5q83 0 153 -42.5t70 -119.5zM743 1167q0 -63 -27.5 -108t-87.5 -45q-77 0 -123 82t-46 164q0 63 28 108t87 45q78 0 123.5 -81.5t45.5 -164.5zM986 1473q0 20 -39 20q-6 0 -94 0.5
t-130.5 0t-109 -7t-105.5 -19.5q-105 -34 -167 -111.5t-62 -183.5q0 -126 79 -203.5t205 -75.5h11q0 -43 3.5 -63t9 -20.5t13.5 -9t16 -26.5q-99 0 -184.5 -21.5t-154 -86t-68.5 -163.5q0 -139 110.5 -206.5t258.5 -67.5q165 0 286.5 82t121.5 240q0 69 -35 132t-78 99
t-78 69t-35 51q0 20 27 46t60 52t60 84t27 133q0 137 -79 193q2 0 28 2.5t37 5.5t30.5 9t27.5 18t8 28zM1373 1179h218v108h-218v220h-108v-220h-219v-108h219v-217h108v217zM1800 1610v-1484q0 -64 -47 -111t-111 -47h-1484q-64 0 -111 47t-47 111v1484q0 64 47 111t111 47
h1484q64 0 111 -47t47 -111z" />
    <glyph glyph-name="h" unicode="h" horiz-adv-x="2133" 
d="M902 1770v-574q198 -27 366 -81t286 -122.5t213.5 -148.5t155 -163t102.5 -163t63 -150.5t31.5 -124.5t11.5 -84l2 -31q-11 20 -34.5 53.5t-121.5 113.5t-224 137.5t-353.5 93.5t-497.5 13v-569l-902 898z" />
    <glyph glyph-name="i" unicode="i" horiz-adv-x="2790" 
d="M1559 1770v-574q198 -27 366 -81t286 -122.5t213.5 -148.5t155 -163t102.5 -163t63 -150.5t31.5 -124.5t13.5 -84v-31q-11 20 -34.5 53.5t-121.5 113.5t-224 137.5t-353.5 93.5t-497.5 13v-569l-902 898zM902 1770v-328l-574 -574l574 -572v-326l-902 898z" />
    <glyph glyph-name="j" unicode="j" horiz-adv-x="2133" 
d="M0 1196h1231v574l902 -902l-902 -898v569h-1231v657z" />
    <glyph glyph-name="k" unicode="k" 
d="M979 954h330l-2 215h-331l3 325h-201q-6 -122 -67 -212q-5 -9 -16 -29t-21 -34t-19 -22q-34 -27 -137 -27h-27v-216l164 -5v-545q0 -71 26 -117.5t74 -67.5t90 -27t100 -6h81q90 0 146 6t76.5 13.5t47.5 21.5v231q-97 -63 -189 -63q-49 0 -88.5 23t-39.5 45v491z
M1800 1610v-1484q0 -64 -47 -111t-111 -47h-1484q-64 0 -111 47t-47 111v1484q0 64 47 111t111 47h1484q64 0 111 -47t47 -111z" />
    <glyph glyph-name="l" unicode="l" 
d="M360 328h230v754h-230v-754zM598 1291q0 50 -33.5 83.5t-87.5 33.5t-88 -33.5t-34 -83.5t33 -83.5t85 -33.5q58 0 92 33.5t33 83.5zM1202 328h233v445q0 160 -74 242.5t-193 82.5q-84 0 -142.5 -37.5t-87.5 -84.5h-4l-11 106h-199q5 -205 5 -241v-513h230v434q0 38 8 59
q36 88 118 88q117 0 117 -163v-418zM1800 1610v-1484q0 -64 -47 -111t-111 -47h-1484q-64 0 -111 47t-47 111v1484q0 64 47 111t111 47h1484q64 0 111 -47t47 -111z" />
    <glyph glyph-name="m" unicode="m" 
d="M1584 1313q0 167 -202 167q-133 0 -250 -95.5t-160 -226.5q36 5 68.5 1.5t57.5 -12.5t39.5 -35t14.5 -69q0 -78 -68.5 -214.5t-134.5 -136.5q-35 0 -65 34q-43 45 -68.5 170t-36 242t-55.5 210.5t-126 93.5q-67 0 -144.5 -46.5t-188 -145t-121.5 -105.5v-9q9 -9 19 -26
t21.5 -25t33.5 -8q20 0 59.5 12.5t60.5 12.5q47 0 78 -72q9 -23 22.5 -67.5t18.5 -58.5q25 -72 67 -234l12 -47l15 -57q3 -18 16 -58.5t22.5 -63t25 -57t31.5 -53.5t37 -39.5t45 -29.5t51 -9q121 0 261.5 117t249.5 281t189 328.5t100 268.5q5 33 5 62zM1800 1610v-1484
q0 -64 -47 -111t-111 -47h-1484q-64 0 -111 47t-47 111v1484q0 64 47 111t111 47h1484q64 0 111 -47t47 -111z" />
    <glyph glyph-name="n" unicode="n" 
d="M160 956l270 -192l-270 -191v383zM1800 353v-383h-1204v383h1204zM1800 956v-383h-1204v383h1204zM1800 1557v-383h-1204v383h1204z" />
    <glyph glyph-name="o" unicode="o" 
d="M430 956v-383l-270 191zM1800 353v-383h-1204v383h1204zM1800 956v-383h-1204v383h1204zM1800 1557v-383h-1204v383h1204z" />
    <glyph glyph-name="p" unicode="p" 
d="M430 161q0 -56 -40.5 -96.5t-96 -40.5t-96 40.5t-40.5 96.5q0 57 40.5 97.5t96 40.5t96 -40.5t40.5 -97.5zM430 763.5q0 -57.5 -40.5 -97t-96 -39.5t-96 39.5t-40.5 97t40.5 97t96 39.5t96 -39.5t40.5 -97zM1800 353v-383h-1204v383h1204zM430 1366.5q0 -55.5 -40.5 -96
t-96 -40.5t-96 40.5t-40.5 96t40.5 96t96 40.5t96 -40.5t40.5 -96zM1800 956v-383h-1204v383h1204zM1800 1557v-383h-1204v383h1204z" />
    <glyph glyph-name="q" unicode="q" 
d="M419 98q0 -53 -37.5 -82.5t-89.5 -29.5q-58 0 -93 31.5t-35 87.5v5h68q0 -66 58 -66q25 0 41 14t16 39.5t-18 39t-45 11.5h-16v49q72 -4 72 43q0 20 -13.5 31.5t-34.5 11.5q-53 0 -53 -59h-66q2 54 33.5 84.5t85.5 30.5q46 0 80.5 -24.5t34.5 -69.5q0 -23 -13.5 -43
t-35.5 -25q61 -15 61 -79zM418 643v-59h-254q2 50 30.5 87t62 54t61.5 42t28 54q0 22 -13.5 35.5t-37.5 13.5q-52 0 -56 -74h-66q0 61 32.5 98t93.5 37q50 0 83.5 -29t33.5 -77q0 -45 -30 -74t-72 -55t-60 -53h164zM1800 353v-383h-1204v383h1204zM353 1520v-346h-76v225
h-83v52q89 0 101 69h58zM1800 956v-383h-1204v383h1204zM1800 1557v-383h-1204v383h1204z" />
    <glyph glyph-name="r" unicode="r" 
d="M583 391q0 67 -46.5 113.5t-113.5 46.5q-65 0 -111.5 -46.5t-46.5 -113.5q0 -65 46.5 -111.5t111.5 -46.5q67 0 113.5 46.5t46.5 111.5zM859 233h244q0 226 -112.5 419.5t-306 306t-419.5 112.5v-243q244 0 419 -174q175 -171 175 -421zM1291 233h244q0 257 -100.5 493
t-270.5 406t-406 270.5t-493 100.5v-243q277 0 513.5 -137.5t374.5 -374t138 -515.5zM1800 1610v-1484q0 -64 -47 -111t-111 -47h-1484q-64 0 -111 47t-47 111v1484q0 64 47 111t111 47h1484q64 0 111 -47t47 -111z" />
    <glyph glyph-name="s" unicode="s" 
d="M1409 643q0 90 -39.5 155.5t-103.5 101.5t-141 61.5t-154.5 40.5t-141.5 32.5t-103.5 46t-39.5 70.5q0 61 65.5 89t135.5 28q72 0 120 -22.5t69.5 -54t38.5 -63t45 -54t73 -22.5q50 0 87 34t37 82.5t-27 97.5q-54 99 -173.5 144t-252.5 45q-83 0 -161.5 -16.5t-152 -51.5
t-118.5 -101.5t-45 -156.5q0 -119 72.5 -192t178 -102.5t210 -51t177.5 -60.5t73 -105q0 -76 -76 -113t-162 -37q-81 0 -133 27t-74.5 65t-40.5 76.5t-47 65.5t-76 27q-50 0 -88 -31.5t-38 -79.5q0 -76 56 -153q130 -187 448 -187q90 0 174.5 19.5t160.5 60t121.5 114.5
t45.5 171zM1800 459q0 -203 -146.5 -347t-352.5 -144q-124 0 -234 58q-82 -15 -158 -15q-353 0 -606 247.5t-253 600.5q0 76 18 169q-68 115 -68 249q0 203 146.5 347t352.5 144q145 0 264 -76q69 13 146 13q232 0 429 -112.5t313.5 -307t116.5 -426.5q0 -101 -20 -182
q52 -104 52 -218z" />
    <glyph glyph-name="t" unicode="t" horiz-adv-x="1805" 
d="M1805 868q-77 -86 -216 -83q-66 -273 -319 -439t-548 -166q-218 0 -406 95.5t-316 272.5q135 -130 326 -130q203 0 344 149q-44 -7 -87 14t-43 62q0 49 74 81q-72 -9 -131.5 20t-91.5 92q39 45 124 50q-177 43 -202 184q49 14 96 14h14q-67 36 -112 92.5t-43 125.5l2 14
q279 -106 463 -209q54 -30 136 -113q58 157 122 271t161 177q-2 -29 -27 -56q59 58 140 69q-5 -42 -95 -74q13 4 46 17.5t59 20.5t46 7q27 0 27 -20q0 -14 -29.5 -28.5t-76.5 -28t-50 -15.5q145 15 254 -92.5t138 -256.5q32 -11 65 -11q90 0 149 34q-23 -54 -78 -84.5
t-120 -33.5q61 -27 150 -27q28 0 55 5z" />
    <glyph glyph-name="u" unicode="u" horiz-adv-x="1733" 
d="M1334 -30v1800h399v-1800h-399zM1067 -30h-401v1200h401v-1200zM400 -30h-400v599h400v-599z" />
    <glyph glyph-name="v" unicode="v" 
d="M1089 665q0 -22 -5.5 -41t-12.5 -32.5t-22.5 -24t-26 -18t-32.5 -12t-33.5 -7t-37.5 -3.5t-37 -1h-36h-32h-40v270h92h45q9 0 42 -2t44 -6.5t34.5 -14t32.5 -23t17 -35.5t8 -50zM1021 1102q0 -36 -13 -59.5t-28 -36t-46.5 -18t-49.5 -6.5t-56 -1h-54v229h70q33 0 50 -1
t45.5 -6.5t43 -16t26.5 -32t12 -52.5zM1368 659q0 105 -57.5 172.5t-163.5 88.5v6q70 28 109.5 91t39.5 141q0 83 -35 136t-100 76.5t-123.5 30.5t-139.5 7h-394v-1080h432q85 0 158.5 17t136.5 53t100 103.5t37 157.5zM1800 1610v-1484q0 -64 -47 -111t-111 -47h-1484
q-64 0 -111 47t-47 111v1484q0 64 47 111t111 47h1484q64 0 111 -47t47 -111z" />
    <glyph glyph-name="w" unicode="w" horiz-adv-x="1047" 
d="M1048 1026v-640q0 -58 -58 -58h-932q-58 0 -58 58v640q0 60 58 60h700v349q0 92 -66.5 133.5t-164.5 41.5q-95 0 -165 -46t-70 -138v-225h-175v230h2q16 157 133 253.5t275.5 96.5t272 -113.5t127.5 -272.5h2l3 -309q8 0 26.5 1t27 0t23.5 -4t21.5 -9t12 -18t5.5 -30z
" />
    <glyph glyph-name="x" unicode="x" horiz-adv-x="1047" 
d="M758 1318q0 92 -66.5 133.5t-164.5 41.5q-95 0 -165 -46t-70 -138v-223h466v232zM1048 1026v-640q0 -58 -58 -58h-932q-58 0 -58 58v640q0 18 5.5 30t12.5 18t21.5 9t23.5 4t28 0t26 -1v228h2q16 157 133 253.5t275.5 96.5t272 -112.5t127.5 -273.5h2l3 -192q8 0 26.5 1
t27 0t23.5 -4t21.5 -9t12 -18t5.5 -30z" />
    <glyph glyph-name="y" unicode="y" 
d="M1100 490v-239q0 -38 -33 -38q-25 0 -45 20v284q18 18 40 18q38 0 38 -45zM1444 485v-51h-81v51q0 48 41 48q40 0 40 -48zM464 674h110v90h-322v-90h108v-528h104v528zM745 146h92v456h-92v-346q-30 -34 -56 -34q-23 0 -23 30v350h-94v-384q0 -79 65 -79q54 0 108 58v-51
zM1195 242v252q0 113 -90 113q-45 0 -83 -41v198h-93v-618h93v36q40 -41 89 -41q84 0 84 101zM1539 276v34h-95q0 -4 0.5 -23.5t0 -27.5t-4.5 -21t-13 -18t-25 -5q-18 0 -28 10.5t-10.5 21.5t-0.5 31v86h176v115q0 63 -34 99t-97 36q-62 0 -102.5 -37t-40.5 -98v-203
q0 -65 35.5 -103.5t99.5 -38.5q139 0 139 142zM1667 439.5q0 -88.5 -11 -260.5q-7 -90 -69 -143.5t-152 -56.5q-179 -9 -535 -9q-358 0 -535 9q-90 3 -152 56.5t-69 143.5q-11 172 -11 260.5t11 261.5q7 90 69 143t152 56q177 9 535 9t535 -9q90 -3 152 -56t69 -143
q11 -173 11 -261.5zM567 1770h131l-99 -297q-7 -22 -17.5 -50t-19 -50.5t-13.5 -49.5v-316h-130v302q-3 22 -52 153l-102 308h131l83 -304h9zM909 1138v308q0 18 -16 29.5t-34 11.5t-32.5 -11.5t-14.5 -29.5v-308q0 -47 47 -47q50 0 50 47zM1026 1439v-292q0 -76 -45 -115.5
t-122 -39.5q-74 0 -120 42.5t-46 114.5v291q0 71 49.5 107.5t121.5 36.5q68 0 115 -39.5t47 -105.5zM1453 1570v-563h-116v63q-66 -71 -133 -71q-81 0 -81 101v470h115v-432q0 -38 31 -38t68 43v427h116z" />
    <glyph glyph-name="z" unicode="z" 
d="M1800 751v-16l-767 -767h-1017l-16 16v1017l767 767h16l250 -250zM1033 1019v499h-498l-18 -16v-999l18 -18h999l16 18v482l-16 16h-483z" />
    <glyph glyph-name="braceleft" unicode="{" horiz-adv-x="847" 
d="M423 656l-423 424h848z" />
    <glyph glyph-name="braceright" unicode="}" horiz-adv-x="847" 
d="M848 656h-848l423 424z" />
    <glyph glyph-name="asciitilde" unicode="~" 
d="M742 976h185l-292 477l-291 -477h185v-529h213v529zM1165 341l291 424h-185v528h-213v-528h-185zM1800 870q0 -245 -120.5 -452t-327.5 -327.5t-452 -120.5t-452 120.5t-327.5 327.5t-120.5 452t120.5 452t327.5 327.5t452 120.5t452 -120.5t327.5 -327.5t120.5 -452z
" />
    <glyph glyph-name="uni00B2" unicode="&#xb2;" 
d="M1800 258v-288h-1800v288h1800zM1800 762v-288h-1800v288h1800zM1800 1266v-288h-1800v288h1800zM1800 1770v-288h-1800v288h1800z" />
    <glyph glyph-name="uni00B3" unicode="&#xb3;" 
d="M216 186h360v360h-360v-360zM792 762v-792h-792v792h792zM1800 258v-288h-792v288h792zM216 1194h360v360h-360v-360zM792 1770v-792h-792v792h792zM1800 762v-288h-792v288h792zM1800 1266v-288h-792v288h792zM1800 1770v-288h-792v288h792z" />
    <glyph glyph-name="uni00B9" unicode="&#xb9;" 
d="M216 186h360v360h-360v-360zM792 762v-792h-792v792h792zM1224 186h360v360h-360v-360zM1800 762v-792h-792v792h792zM216 1194h360v360h-360v-360zM792 1770v-792h-792v792h792zM1224 1194h360v360h-360v-360zM1800 1770v-792h-792v792h792z" />
    <glyph glyph-name="multiply" unicode="&#xd7;" 
d="M1190 450l128 128l-290 290l290 290l-128 128l-290 -290l-290 290l-128 -128l290 -290l-290 -290l128 -128l290 290zM1800 868q0 -245 -120.5 -452t-327.5 -327.5t-452 -120.5t-452 120.5t-327.5 327.5t-120.5 452t120.5 452t327.5 327.5t452 120.5t452 -120.5
t327.5 -327.5t120.5 -452z" />
    <glyph glyph-name="uniE000" unicode="&#xe000;" horiz-adv-x="1332" 
d="M0 1660h1332v-1332h-1332v1332z" />
    <glyph glyph-name="uniE001" unicode="&#xe001;" 
d="M1159 1016l209 -184v504h-504l184 -209l-24 -23l-383 -384l-209 184v-504h504l-184 209zM1800 868q0 -245 -120.5 -452t-327.5 -327.5t-452 -120.5t-452 120.5t-327.5 327.5t-120.5 452t120.5 452t327.5 327.5t452 120.5t452 -120.5t327.5 -327.5t120.5 -452z" />
    <glyph glyph-name="uniE002" unicode="&#xe002;" 
d="M1177 868l623 -623l-277 -277l-623 623l-623 -623l-277 277l623 623l-623 623l277 277l623 -623l623 623l277 -277z" />
    <glyph glyph-name="uniE003" unicode="&#xe003;" horiz-adv-x="1177" 
d="M554 868l623 -623l-277 -277l-900 900l900 900l277 -277z" />
    <glyph glyph-name="uniE004" unicode="&#xe004;" horiz-adv-x="1177" 
d="M277 1768l900 -900l-900 -900l-277 277l623 623l-623 623z" />
    <glyph glyph-name="uniE005" unicode="&#xe005;" 
d="M1307 312l-963 963q-133 -180 -133 -407q0 -284 202.5 -486.5t486.5 -202.5q227 0 407 133zM1589 868q0 284 -202.5 486.5t-486.5 202.5q-227 0 -407 -133l963 -963q133 180 133 407zM1800 868q0 -245 -120.5 -452t-327.5 -327.5t-452 -120.5t-452 120.5t-327.5 327.5
t-120.5 452t120.5 452t327.5 327.5t452 120.5t452 -120.5t327.5 -327.5t120.5 -452z" />
  </font>
</defs>
</svg>
