<?xml version="1.0" standalone="no"?>
<!DOCTYPE svg PUBLIC "-//W3C//DTD SVG 1.1//EN" "http://www.w3.org/Graphics/SVG/1.1/DTD/svg11.dtd" >
<svg xmlns="http://www.w3.org/2000/svg">
<metadata>
Created by FontForge 20110222 at Fri Aug 24 22:01:48 2012
 By Vitaly,,,
Created by Vitaly,,, with FontForge 2.0 (http://fontforge.sf.net)
</metadata>
<defs>
<font id="Untitled1" horiz-adv-x="928" >
  <font-face 
    font-family="Untitled1"
    font-weight="500"
    font-stretch="normal"
    units-per-em="1000"
    panose-1="2 0 6 3 0 0 0 0 0 0"
    ascent="800"
    descent="-200"
    bbox="-2 -200.852 1438 934"
    underline-thickness="50"
    underline-position="-100"
    unicode-range="U+E800-EAE4"
  />
<missing-glyph horiz-adv-x="364" 
d="M33 0v666h265v-666h-265zM66 33h199v600h-199v-600z" />
    <glyph glyph-name=".notdef" horiz-adv-x="364" 
d="M33 0v666h265v-666h-265zM66 33h199v600h-199v-600z" />
    <glyph glyph-name=".null" horiz-adv-x="0" 
 />
    <glyph glyph-name="nonmarkingreturn" horiz-adv-x="333" 
 />
    <glyph glyph-name="uniE800" unicode="&#xe800;" horiz-adv-x="610" 
d="M395 771q0 -26 17 -55.5t41 -56t52 -56t50 -62.5t34 -69t4 -80.5t-39 -92.5q-18 -29 -26 -17q-4 5 0 17q6 16 6.5 43t-6 60t-21 63t-43.5 53.5t-69 29.5v-535q1 -49 -38 -96t-103 -70q-76 -28 -144.5 -8t-88.5 75t19.5 113.5t115.5 86.5q85 31 159 3v654h80z" />
    <glyph glyph-name="uniE801" unicode="&#xe801;" horiz-adv-x="730" 
d="M615 750q41 0 70.5 -29.5t29.5 -70.5v-700q0 -41 -29.5 -70.5t-70.5 -29.5h-500q-41 0 -70.5 29.5t-29.5 70.5v700q0 41 29.5 70.5t70.5 29.5h500zM505 274q32 45 23 92t-33 78.5t-49 66t-25 53.5h-61v-367q-40 16 -89 -2q-43 -16 -65 -49t-11 -64t53 -43.5t85 1.5
q88 28 88 98v261q28 -4 45.5 -20t22.5 -36.5t5 -38.5t-4 -30q-4 -10 2 -11q5 -1 13 11z" />
    <glyph glyph-name="uniE802" unicode="&#xe802;" horiz-adv-x="820" 
d="M787 27q34 -34 7 -61l-47 -47q-14 -14 -33.5 -14t-33.5 14l-190 190q-72 -42 -156 -42q-128 0 -223.5 95.5t-95.5 223.5t90.5 218.5t218.5 90.5t223.5 -95.5t95.5 -223.5q0 -84 -45 -160zM110 386q0 -88 68 -156t156 -68t151 63t63 151t-68 156t-156 68t-151 -63
t-63 -151z" />
    <glyph glyph-name="uniE803" unicode="&#xe803;" horiz-adv-x="930" 
d="M821 656q40 -40 65.5 -87.5t28 -81.5t-12.5 -54l-135 -135q-16 -16 -62.5 -26t-95.5 -4l-408 -408q-18 -18 -57 -5t-75 49t-49 75t5 57l408 408q-6 49 4.5 95.5t26.5 62.5l134 135q24 27 93 3.5t130 -84.5zM372 248q14 -14 37.5 -10.5t43.5 23.5t23.5 43.5t-10.5 37.5
t-37 10.5t-43 -23.5t-24 -43.5t10 -37.5zM710 544q29 -29 67 -48.5t61.5 -25t27.5 -1.5t-2.5 27t-27 60t-49.5 66t-66 49.5t-60 27t-27 2.5t1.5 -28t25.5 -62t49 -67z" />
    <glyph glyph-name="uniE804" unicode="&#xe804;" horiz-adv-x="930" 
d="M45 536q-23 12 -28 33q1 19 25 21h846q33 0 23 -25q-7 -19 -26 -29q-24 -13 -375 -202q-19 -10 -45 -10t-45 10q-351 189 -375 202zM896 436q15 4 17 1.5t2 -12.5v-367q0 -16 -17 -32t-33 -16h-800q-16 0 -33 16t-17 32v367q0 10 2 12.5t17 -1.5q80 -40 386 -202
q19 -10 45 -10t45 10q306 162 386 202z" />
    <glyph glyph-name="uniE805" unicode="&#xe805;" horiz-adv-x="890" 
d="M804 591q70 -65 70 -156t-70 -156l-359 -330l-359 330q-70 65 -70 156t70 156q63 58 151 58t151 -58l57 -52l57 52q63 58 151 58t151 -58z" />
    <glyph glyph-name="uniE806" unicode="&#xe806;" horiz-adv-x="880" 
d="M795 591q70 -65 70 -156t-70 -156l-355 -330l-355 330q-70 65 -70 156t70 156q62 58 149.5 58t149.5 -58l56 -52l56 52q62 58 149.5 58t149.5 -58zM743 330q42 38 42 105t-37 100q-42 39 -102 39q-49 0 -102 -49l-104 -91l-104 91q-53 49 -102 49q-60 0 -102 -39
q-37 -33 -37 -100t42 -105l303 -286z" />
    <glyph glyph-name="uniE807" unicode="&#xe807;" horiz-adv-x="910" 
d="M455 740l119 -336h321l-262 -198l94 -346l-272 208l-272 -208l94 346l-262 198h321z" />
    <glyph glyph-name="uniE808" unicode="&#xe808;" horiz-adv-x="910" 
d="M895 404l-262 -198l94 -346l-272 208l-272 -208l94 346l-262 198h321l119 336l119 -336h321zM455 166l151 -125l-62 178l142 115l-176 -5l-55 202l-55 -202l-176 5l142 -115l-62 -178z" />
    <glyph glyph-name="uniE809" unicode="&#xe809;" horiz-adv-x="970" 
d="M751 78q94 -34 149 -67t55 -56v-105h-940v105q0 23 55 56t149 67q93 34 128 69t35 95q0 20 -10 31.5t-24 31.5t-21 58q-2 12 -9 17.5t-14.5 8t-14 17t-8.5 43.5q0 15 4.5 25.5t8.5 13.5l5 3q-9 50 -13 88q-2 21 6 47.5t27.5 55.5t62.5 48.5t103 19.5t103 -19.5
t62.5 -48.5t27.5 -55.5t6 -47.5l-13 -88q18 -8 18 -42q-2 -29 -8.5 -43.5t-14 -17t-14.5 -8t-9 -17.5q-7 -38 -21 -58t-24 -31.5t-10 -31.5q0 -60 35 -95t128 -69z" />
    <glyph glyph-name="uniE80A" unicode="&#xe80a;" horiz-adv-x="1030" 
d="M1015 -125h-225v144q0 52 -30 78.5t-154 85.5q41 29 41 81q0 14 -13.5 31.5t-18.5 49.5q-1 8 -5.5 11.5t-8.5 5t-8.5 11.5t-5.5 29q0 10 2.5 17t5.5 9l3 2q-6 33 -8 59q-1 14 3.5 31.5t16.5 37t38 32.5t62 13t62 -13t37.5 -32.5t16 -37t3.5 -31.5l-7 -59q10 -6 10 -28
q-1 -19 -5.5 -29t-8.5 -11.5t-8.5 -5t-5.5 -11.5q-5 -32 -18.5 -49.5t-13.5 -31.5q0 -40 21 -63.5t77 -46.5q61 -25 90 -41t41 -36q5 -8 8.5 -58.5t4.5 -96.5zM526 127q89 -36 136.5 -64t47.5 -56v-132h-695v176q0 20 15.5 36t28.5 22.5t35 15.5q3 1 5 2q75 30 103 61t28 85
q0 19 -18.5 42t-25.5 66q-2 10 -7.5 15t-11.5 7t-11 15t-7 39q0 13 3.5 22.5t7.5 12.5l4 2q-8 45 -11 79q-2 19 4.5 42t22 49t50.5 43.5t83 17.5t82.5 -17.5t50 -43.5t22 -49t4.5 -42l-10 -79q14 -7 14 -37q-2 -26 -7.5 -39t-11 -15t-11 -7t-7.5 -15q-7 -43 -25 -66t-18 -42
q0 -54 28 -85t102 -61z" />
    <glyph glyph-name="uniE80B" unicode="&#xe80b;" horiz-adv-x="1030" 
d="M634 78q89 -32 135 -65t46 -58v-105h-800v201q13 6 29.5 11.5t32 10t19.5 5.5q94 34 129.5 69t35.5 95q0 20 -10 31.5t-24 31.5t-21 58q-2 12 -9.5 17.5t-14.5 8t-14 17t-9 43.5q0 15 4.5 25.5t8.5 13.5l5 3q-9 50 -13 88q-2 21 5.5 47.5t27.5 55.5t63.5 48.5t104.5 19.5
t104.5 -19.5t63.5 -48.5t27.5 -55.5t5.5 -47.5l-13 -88q18 -8 18 -42q-2 -29 -9 -43.5t-14 -17t-14.5 -8t-9.5 -17.5q-7 -38 -21 -58t-24 -31.5t-10 -31.5q0 -60 35.5 -95t129.5 -69zM865 350h150v-100h-150v-150h-100v150h-150v100h150v150h100v-150z" />
    <glyph glyph-name="uniE80C" unicode="&#xe80c;" horiz-adv-x="1010" 
d="M995 550h-100v-100h100v-100h-100v-100h100v-100h-100v-100h100v-60q0 -16 -11.5 -28t-28.5 -12h-900q-17 0 -28.5 12t-11.5 28v60h100v100h-100v100h100v100h-100v100h100v100h-100v60q0 16 11.5 28t28.5 12h900q17 0 28.5 -12t11.5 -28v-60zM395 150l250 150l-250 150
v-300z" />
    <glyph glyph-name="uniE80D" unicode="&#xe80d;" horiz-adv-x="1030" 
d="M871 466h-100l-124 151l-214 -151h-180q-53 0 -90.5 -38t-37.5 -92v-159l-107 297q-6 16 0.5 31t21.5 20l680 248q15 5 29 -2t20 -23zM977 376q16 0 27 -11.5t11 -28.5v-471q0 -17 -11 -28.5t-27 -11.5h-724q-16 0 -27 11.5t-11 28.5v471q0 17 11 28.5t27 11.5h724z
M922 -75v161l-73 161l-167 -60l-129 -133l-139 172l-92 -215v-86h600z" />
    <glyph glyph-name="uniE80E" unicode="&#xe80e;" horiz-adv-x="1030" 
d="M515 400q62 0 106 -44t44 -106t-44 -106t-106 -44t-106 44t-44 106t44 106t106 44zM915 550q41 0 70.5 -29.5t29.5 -70.5v-450q0 -41 -29.5 -70.5t-70.5 -29.5h-800q-41 0 -70.5 29.5t-29.5 70.5v450q0 41 29.5 70.5t70.5 29.5h120q12 0 23.5 8t15.5 20l32 93
q4 12 15 20.5t24 8.5h340q12 0 23.5 -8.5t15.5 -20.5l32 -93q4 -12 15 -20t24 -8h120zM515 0q103 0 176.5 73t73.5 177t-73.5 177t-176.5 73t-176.5 -73t-73.5 -177t73.5 -177t176.5 -73zM880 380q14 0 24.5 10.5t10.5 24.5t-10.5 24.5t-24.5 10.5t-24.5 -10.5t-10.5 -24.5
t10.5 -24.5t24.5 -10.5z" />
    <glyph glyph-name="uniE80F" unicode="&#xe80f;" horiz-adv-x="630" 
d="M185 600q80 0 80 -80v-90q0 -80 -80 -80h-90q-80 0 -80 80v90q0 80 80 80h90zM535 600q80 0 80 -80v-90q0 -80 -80 -80h-90q-80 0 -80 80v90q0 80 80 80h90zM185 250q80 0 80 -80v-90q0 -80 -80 -80h-90q-80 0 -80 80v90q0 80 80 80h90zM535 250q80 0 80 -80v-90
q0 -80 -80 -80h-90q-80 0 -80 80v90q0 80 80 80h90z" />
    <glyph glyph-name="uniE810" unicode="&#xe810;" horiz-adv-x="730" 
d="M665 350q21 0 35.5 -14.5t14.5 -35.5t-14.5 -35.5t-35.5 -14.5h-600q-21 0 -35.5 14.5t-14.5 35.5t14.5 35.5t35.5 14.5h600zM65 450q-21 0 -35.5 14.5t-14.5 35.5t14.5 35.5t35.5 14.5h600q21 0 35.5 -14.5t14.5 -35.5t-14.5 -35.5t-35.5 -14.5h-600zM665 150
q21 0 35.5 -14.5t14.5 -35.5t-14.5 -35.5t-35.5 -14.5h-600q-21 0 -35.5 14.5t-14.5 35.5t14.5 35.5t35.5 14.5h600z" />
    <glyph glyph-name="uniE811" unicode="&#xe811;" horiz-adv-x="697" 
d="M263 -50q-34 0 -55 28l-179 236q-17 23 -13 51.5t27 45.5t51.5 13.5t45.5 -26.5l118 -155l295 474q15 25 43 31t53 -9t31.5 -43t-8.5 -53l-349 -560q-21 -33 -60 -33z" />
    <glyph glyph-name="uniE812" unicode="&#xe812;" horiz-adv-x="500" 
d="M467 142q17 -17 17 -42t-17 -42t-42 -17t-42 17l-133 151l-133 -151q-17 -17 -42 -17t-42 17t-17 42t17 42l137 158l-137 158q-17 17 -17 42t17 42t42 17t42 -17l133 -151l133 151q17 17 42 17t42 -17t17 -42t-17 -42l-137 -158z" />
    <glyph glyph-name="uniE813" unicode="&#xe813;" horiz-adv-x="870" 
d="M435 720q174 0 297 -123t123 -297t-123 -297t-297 -123t-297 123t-123 297t123 297t297 123zM521 300l153 153l-86 86l-153 -153l-153 153l-86 -86l153 -153l-153 -153l86 -87l153 154l153 -153l86 86z" />
    <glyph glyph-name="uniE814" unicode="&#xe814;" horiz-adv-x="610" 
d="M565 350q19 0 24.5 -12.5t5.5 -37.5q0 -17 -1.5 -26t-8.5 -16.5t-20 -7.5h-210v-210q0 -19 -12.5 -24.5t-37.5 -5.5q-17 0 -26 1.5t-16.5 8.5t-7.5 20v210h-210q-19 0 -24.5 12.5t-5.5 37.5q0 17 1.5 26t8.5 16.5t20 7.5h210v210q0 19 12.5 24.5t37.5 5.5q17 0 26 -1.5
t16.5 -8.5t7.5 -20v-210h210z" />
    <glyph glyph-name="uniE815" unicode="&#xe815;" horiz-adv-x="870" 
d="M435 720q174 0 297 -123t123 -297t-123 -297t-297 -123t-297 123t-123 297t123 297t297 123zM486 249h202l-1 102h-201v201h-102v-201h-202v-102h202v-202h102v202z" />
    <glyph glyph-name="uniE816" unicode="&#xe816;" horiz-adv-x="610" 
d="M565 350q19 0 24.5 -12.5t5.5 -37.5q0 -17 -1.5 -26t-8.5 -16.5t-20 -7.5h-520q-19 0 -24.5 12.5t-5.5 37.5q0 17 1.5 26t8.5 16.5t20 7.5h520z" />
    <glyph glyph-name="uniE817" unicode="&#xe817;" horiz-adv-x="870" 
d="M435 720q174 0 297 -123t123 -297t-123 -297t-297 -123t-297 123t-123 297t123 297t297 123zM687 351h-505v-102h505v102z" />
    <glyph glyph-name="uniE818" unicode="&#xe818;" horiz-adv-x="610" 
d="M15 476q5 130 77 202t203 72q128 0 214 -62t86 -183q0 -68 -42 -125q-13 -19 -88 -78l-46 -32q-29 -22 -42 -43.5t-14 -60.5q0 -13 -15 -13h-129q-16 0 -16 12q2 52 6.5 79.5t20.5 45.5q17 20 49.5 46t56.5 42l23 16q61 46 61 102q0 44 -25 79q-25 36 -93 36
q-67 0 -94 -44q-28 -45 -28 -91h-165zM292 54q45 -2 73.5 -31t27.5 -75t-31.5 -73t-75.5 -25q-44 2 -72.5 30.5t-27.5 73.5q1 46 31.5 74t74.5 26z" />
    <glyph glyph-name="uniE819" unicode="&#xe819;" horiz-adv-x="950" 
d="M469 760q94 1 179.5 -34.5t148 -96t100 -145t38.5 -178.5t-34.5 -179.5t-96 -148t-145 -100t-178.5 -38.5t-179.5 34.5t-148 96t-100 145t-38.5 178.5t34.5 179.5t96 148t145 100t178.5 38.5zM535 84q1 31 -18 50t-50 20q-29 0 -48 -19t-20 -47q-1 -30 18 -48.5t50 -19.5
q29 0 48 18t20 46zM475 486q67 0 67 -66q0 -14 -11 -31.5t-24 -27.5q-3 -1 -16 -10.5t-33 -25.5t-31 -28q-16 -19 -18 -87h107q0 21 5 34q6 16 28 34l28 19q30 23 43.5 36t26 37.5t12.5 55.5q0 74 -53.5 114t-135.5 40q-84 0 -128 -46.5t-48 -130.5h111v5q0 28 16 53
q15 25 54 25z" />
    <glyph glyph-name="uniE81A" unicode="&#xe81a;" horiz-adv-x="490" 
d="M367 800q48 0 74 -28t26 -70q0 -50 -39 -88t-95 -38q-47 0 -73.5 27t-25.5 73q0 45 36 84.5t97 39.5zM160 -200q-29 0 -45.5 13.5t-22.5 52.5t14 110l60 255q15 57 0 57q-13 0 -54.5 -18t-70.5 -38l-26 44q91 77 190 125t150 48q26 0 38.5 -20t11 -55.5t-14.5 -85.5
l-69 -268q-16 -63 5 -63q15 0 49.5 16t69.5 44l30 -41q-84 -86 -175 -131t-140 -45z" />
    <glyph glyph-name="uniE81B" unicode="&#xe81b;" horiz-adv-x="950" 
d="M469 760q94 1 179.5 -34.5t148 -96t100 -145t38.5 -178.5t-34.5 -179.5t-96 -148t-145 -100t-178.5 -38.5t-179.5 34.5t-148 96t-100 145t-38.5 178.5t34.5 179.5t96 148t145 100t178.5 38.5zM520 607q-43 0 -65.5 -23.5t-22.5 -50.5q-1 -28 15.5 -43.5t48.5 -15.5
q38 0 61 21.5t23 52.5q0 59 -60 59zM400 12q30 0 84.5 27t105.5 78l-18 24q-46 -36 -72 -36q-12 0 -3 38l42 159q26 96 -21 96q-31 0 -91 -28.5t-115 -74.5l16 -26q17 11 42.5 22t33.5 11v-34l-37 -151q-27 -105 33 -105z" />
    <glyph glyph-name="uniE81C" unicode="&#xe81c;" horiz-adv-x="880" 
d="M765 490q41 0 70.5 -29.5t29.5 -70.5v-290q0 -41 -29.5 -70.5t-70.5 -29.5h-690v140h650v210h-500v-110l-210 180l210 180v-110h540z" />
    <glyph glyph-name="uniE81D" unicode="&#xe81d;" horiz-adv-x="880" 
d="M215 300v-90l-200 160l200 170v-100h550q41 0 70.5 -29.5t29.5 -70.5v-280h-140v240h-510z" />
    <glyph glyph-name="uniE81E" unicode="&#xe81e;" horiz-adv-x="930" 
d="M903 285q16 -16 11 -27.5t-28 -11.5h-83v-308q0 -14 -1.5 -21t-8.5 -13.5t-22 -6.5h-204v310h-204v-310h-195q-19 0 -28.5 6.5t-11 13.5t-1.5 21v308h-83q-23 0 -28 11.5t11 27.5l401 401q16 16 37 16t37 -16z" />
    <glyph glyph-name="uniE81F" unicode="&#xe81f;" horiz-adv-x="830" 
d="M308 64q14 14 35 14t35 -14t14 -35t-14 -35l-41 -40q-55 -55 -133 -55q-79 0 -134 55q-55 53 -55 133t55 133l149 147q70 69 143.5 78t127.5 -44q14 -14 14.5 -35t-13.5 -35t-35 -14t-35 14q-49 49 -132 -34l-149 -148q-26 -26 -26 -62q0 -37 26 -63t64 -26t64 26z
M760 638q55 -55 55 -132q0 -78 -55 -133l-159 -158q-73 -73 -150 -73q-62 0 -111 49q-14 14 -14.5 35t13.5 35t35 14t35 -14q9 -9 16 -13t22.5 -7t36.5 8t47 36l159 158q26 26 26 63q0 36 -26 62q-27 26 -57.5 30.5t-60.5 -20.5l-50 -50q-14 -14 -35 -14t-35 14t-14 35
t14 35l51 50q54 53 126.5 50.5t130.5 -60.5z" />
    <glyph glyph-name="uniE820" unicode="&#xe820;" horiz-adv-x="965" 
d="M259 -192q-58 0 -110 26.5t-84.5 72t-45.5 100t6.5 116t72.5 114.5q27 27 221.5 222t273.5 274q37 37 83.5 51t92.5 2q45 -12 79 -46t46 -79q12 -46 -2 -92.5t-51 -83.5l-474 -473q-24 -24 -52 -37t-60 -10t-56 27q-19 19 -25.5 46t4.5 60t40 62l333 332q11 10 25 10
t24 -10t10 -24t-10 -25l-332 -333q-21 -21 -25.5 -40.5t5.5 -27.5q9 -9 23 -7q25 3 47 26l473 474q50 52 35 108q-8 27 -28 47t-47 28q-57 16 -108 -35q-79 -79 -274 -273.5t-222 -221.5q-44 -44 -56.5 -94t1 -91t45.5 -73t73 -45.5t91 -1t94 56.5l495 496q10 10 25 10
t25 -10t10 -25t-10 -25l-496 -495q-83 -83 -185 -83z" />
    <glyph glyph-name="uniE821" unicode="&#xe821;" horiz-adv-x="730" 
d="M655 425q21 0 40.5 -19.5t19.5 -40.5v-390q0 -21 -14 -40t-34 -25l-59 -20q-49 -15 -98 -15h-290q-49 0 -98 15l-59 20q-20 6 -34 25t-14 40v390q0 22 15 41t35 19h100v70q0 110 51 170t149 60t149 -60t51 -170v-70h90zM265 515v-90h200v90q0 53 -27 81.5t-73 28.5
t-73 -28.5t-27 -81.5z" />
    <glyph glyph-name="uniE822" unicode="&#xe822;" horiz-adv-x="730" 
d="M655 400q21 0 40.5 -19.5t19.5 -40.5v-390q0 -21 -14 -40t-34 -25l-59 -20q-49 -15 -98 -15h-290q-49 0 -98 15l-59 20q-20 6 -34 25t-14 40v390q0 22 15 41t35 19h400v140q0 53 -27 81.5t-73 28.5t-73 -28.5t-27 -81.5v-40h-100v20q0 110 51 170t149 60t149 -60t51 -170
v-120h90z" />
    <glyph glyph-name="uniE823" unicode="&#xe823;" horiz-adv-x="1030" 
d="M515 580q92 0 177 -25.5t141.5 -62t99 -77.5t62.5 -71.5t20 -43.5t-20 -43.5t-62.5 -71.5t-99 -77.5t-141.5 -62t-177 -25.5t-177 25.5t-141.5 62t-99 77.5t-62.5 71.5t-20 43.5t20 43.5t62.5 71.5t99 77.5t141.5 62t177 25.5zM515 85q92 0 157 63t65 152t-65 152
t-157 63t-157 -63t-65 -152t65 -152t157 -63zM515 300q6 -6 18 -5t28 4.5t30.5 7t24.5 2t10 -8.5q0 -44 -32.5 -76t-78.5 -32t-78.5 32t-32.5 76t32.5 76t78.5 32q14 0 10 -23t-12 -47t2 -38z" />
    <glyph glyph-name="uniE824" unicode="&#xe824;" horiz-adv-x="990" 
d="M960 780q37 -106 -8 -199t-129 -158l17 -25q16 -25 7 -53l-49 -157q-8 -26 -34 -46l-465 -330q-41 -28 -64 5l-211 305q-12 17 -8.5 37.5t20.5 32.5l465 329q22 17 54 17l158 1q12 0 26 -7.5t21 -17.5l28 -41q23 18 43 37.5t41 48t30.5 58t13 67.5t-12.5 76q-4 12 1.5 23
t17.5 15t23 -1t15 -17zM743 312q41 29 33 79q-11 -6 -31 -16q-6 -3 -12 -3q-23 0 -28.5 23t15.5 34q7 3 24 14q-45 33 -92 1q-27 -20 -33 -52.5t13 -59.5t51.5 -33t59.5 13z" />
    <glyph glyph-name="uniE825" unicode="&#xe825;" horiz-adv-x="390" 
d="M325 750q21 0 35.5 -14.5t14.5 -35.5v-850l-180 180l-180 -180v850q0 50 40 50h270z" />
    <glyph glyph-name="uniE826" unicode="&#xe826;" horiz-adv-x="930" 
d="M889 555q14 5 22 -1.5t0 -18.5q-75 -109 -133.5 -178t-98 -97.5t-70 -34.5t-54 7t-44.5 31t-48.5 32.5t-59.5 17.5t-82 -20.5t-112 -75.5l90 -353h-101l-183 720l93 34q71 52 124 75.5t87.5 21t60.5 -20t48.5 -44.5t45.5 -56t58 -52t79.5 -34t115.5 0t162 47z" />
    <glyph glyph-name="uniE827" unicode="&#xe827;" horiz-adv-x="930" 
d="M15 329q0 18 10.5 32t32.5 14h157v-400h-155q-45 0 -45 48v306zM799 435q116 0 116 -147v-241q0 -60 -70.5 -116t-148.5 -56h-211q-29 0 -51.5 10.5t-38.5 25t-32.5 29t-41 25t-56.5 10.5v400h16q56 0 126.5 73t88.5 131q7 23 9.5 65t11.5 61.5t38 19.5q38 0 54 -33
t16 -106l-10 -156q127 5 184 5z" />
    <glyph glyph-name="uniE828" unicode="&#xe828;" horiz-adv-x="1030" 
d="M785 479l-270 -254l-270 254h150v246h240v-246h150zM982 148q18 -10 27 -31.5t4 -41.5l-28 -153q-4 -19 -22.5 -33t-39.5 -14h-816q-21 0 -39.5 14t-22.5 33l-28 153q-5 20 4 41.5t27 31.5l159 107h98l-170 -131h178q9 0 12 -6l40 -112h300l40 112q3 6 12 6h178l-170 131
h98z" />
    <glyph glyph-name="uniE829" unicode="&#xe829;" horiz-adv-x="1030" 
d="M515 725l270 -254h-150v-246h-240v246h-150zM982 148q18 -10 27 -31.5t4 -41.5l-28 -153q-4 -19 -22.5 -33t-39.5 -14h-816q-21 0 -39.5 14t-22.5 33l-28 153q-5 20 4 41.5t27 31.5l159 107h98l-170 -130h178q9 0 12 -7l40 -112h300l40 112q3 7 12 7h178l-170 130h98z
" />
    <glyph glyph-name="uniE82A" unicode="&#xe82a;" horiz-adv-x="1030" 
d="M776 443q99 0 169 -68.5t70 -165.5t-70 -165.5t-169 -68.5h-191v190h105l-175 230l-175 -230h105v-190h-249q-75 0 -128 52t-53 125t53 125t128 52q7 0 21 -2q-3 18 -3 38q0 108 78 184t188 76q89 0 159.5 -52t95.5 -133q19 3 41 3z" />
    <glyph glyph-name="uniE82B" unicode="&#xe82b;" horiz-adv-x="930" 
d="M915 -40q-36 64 -81.5 109t-92 70.5t-110 39.5t-119 18t-136.5 4v-218l-361 334l361 323v-193q70 0 133.5 -16.5t111.5 -45t89.5 -65t71 -77t53 -80.5t38.5 -76.5t24.5 -65t13.5 -45.5z" />
    <glyph glyph-name="uniE82C" unicode="&#xe82c;" horiz-adv-x="1030" 
d="M376 506l-211 -189l211 -195v-139l-361 334l361 323v-134zM626 447q59 0 110.5 -16.5t88 -45t66.5 -65t49.5 -77t34 -80.5t22 -76.5t12 -65t5.5 -45.5l1 -16q-37 65 -73 109t-69 70t-75 40t-79.5 18t-92.5 4v-218l-361 334l361 323v-193z" />
    <glyph glyph-name="uniE82D" unicode="&#xe82d;" horiz-adv-x="930" 
d="M554 201q-81 0 -136.5 -4t-119 -18t-110 -39.5t-92 -70.5t-81.5 -109q2 10 6.5 27.5t23.5 68t43.5 96.5t69 102.5t97.5 97t131 68t168 27.5v193l361 -323l-361 -334v218z" />
    <glyph glyph-name="uniE82E" unicode="&#xe82e;" horiz-adv-x="790" 
d="M161 630q127 0 173 -115q43 -105 2 -250q-42 -146 -144 -229q-80 -66 -177 -66v70q97 0 165 85q53 67 51 134q-2 61 -55 70q-7 1 -15 1q-61 0 -103.5 44t-42.5 106t42.5 106t103.5 44zM581 630q127 0 173 -115q43 -105 2 -250q-42 -146 -144 -229q-80 -66 -177 -66v70
q97 0 165 85q53 67 51 134q-2 61 -55 70q-7 1 -15 1q-61 0 -103.5 44t-42.5 106t42.5 106t103.5 44z" />
    <glyph glyph-name="uniE82F" unicode="&#xe82f;" horiz-adv-x="1030" 
d="M396 587q14 -13 14 -31.5t-14 -31.5l-248 -224l248 -224q14 -13 14 -31.5t-14 -31.5t-31 -13t-31 13l-319 287l319 287q14 13 31 13t31 -13zM696 587l319 -287l-319 -287q-14 -13 -31 -13t-31 13q-13 13 -13 31.5t14 31.5l247 224l-247 224q-14 13 -14 31.5t13 31.5
q14 13 31 13t31 -13z" />
    <glyph glyph-name="uniE830" unicode="&#xe830;" horiz-adv-x="1030" 
d="M765 10v55l100 82v-187q0 -21 -14.5 -35.5t-35.5 -14.5h-750q-21 0 -35.5 14.5t-14.5 35.5v550q0 21 14.5 35.5t35.5 14.5h288q-33 -24 -60 -49t-37 -38l-11 -13h-130v-450h650zM683 357q-114 0 -179 -17t-115 -63t-109 -142q0 8 1 22.5t9 56t21.5 79t44 83.5t71 79
t107.5 55.5t149 22.5v157l332 -250l-332 -260v177z" />
    <glyph glyph-name="uniE831" unicode="&#xe831;" horiz-adv-x="810" 
d="M733 628q32 -32 47.5 -63.5t14.5 -46.5l-1 -16q-90 -90 -270.5 -271t-270.5 -271l-238 -50l51 238l541 541q2 0 6 0.5t17.5 -1.5t27.5 -7.5t34.5 -19t40.5 -33.5zM239 -11l23 24q0 44 -50 94q-22 22 -45.5 34.5t-36.5 14.5l-12 1l-24 -23l-17 -81q24 -13 46 -35t35 -46z
" />
    <glyph glyph-name="uniE832" unicode="&#xe832;" horiz-adv-x="1010" 
d="M870 768q70 -5 100 -16t25 -25.5t-20.5 -29t-33 -32t-16.5 -29.5q2 -14 -11 -46.5t-29 -51.5q-10 -12 -95 -28.5t-165 -27.5l-80 -11q13 -7 36.5 -18.5t95 -32.5t141.5 -27q-26 -38 -80.5 -66t-114.5 -40t-116 -18.5t-93 -6.5h-36q4 -4 11.5 -11t31.5 -23.5t50 -29
t65.5 -21.5t78.5 -6q-2 -2 -19 -15.5t-26.5 -20t-30.5 -20.5t-38.5 -21t-43 -17t-51 -12.5t-56 -3.5t-64.5 5.5t-70 18.5q-72 -116 -149 -246q-7 -9 -21.5 -9.5t-25 11.5t-2.5 29l122 266q76 164 146.5 274t199.5 239q75 75 167.5 101.5t216.5 17.5z" />
    <glyph glyph-name="uniE833" unicode="&#xe833;" horiz-adv-x="1010" 
d="M80 475q-13 0 -18 7.5t-2 16t10 11.5q182 65 200 65h45v150h380v-150h45q18 0 200 -65q7 -3 10 -11.5t-2 -16t-18 -7.5h-850zM940 420q21 0 38 -19.5t17 -40.5v-175q0 -21 -17 -40.5t-38 -19.5h-99l44 -250h-760l44 250h-99q-21 0 -38 19.5t-17 40.5v175q0 21 17 40.5
t38 19.5h870zM225 -25h560l-70 325h-420z" />
    <glyph glyph-name="uniE834" unicode="&#xe834;" horiz-adv-x="1030" 
d="M275 140h222l128 -140h-390q-41 0 -70.5 29.5t-29.5 70.5v300h-120l190 200l190 -200h-120v-260zM895 200h120l-190 -200l-190 200h120v260h-222l-128 140h390q41 0 70.5 -29.5t29.5 -70.5v-300z" />
    <glyph glyph-name="uniE835" unicode="&#xe835;" horiz-adv-x="1030" 
d="M945 600q29 0 49.5 -21t20.5 -49v-460q0 -28 -20.5 -49t-49.5 -21h-860q-29 0 -49.5 21t-20.5 49v460q0 28 20.5 49t49.5 21h860zM565 500v-100h100v100h-100zM715 350h-100v-100h100v100zM415 500v-100h100v100h-100zM565 350h-100v-100h100v100zM265 500v-100h100v100
h-100zM415 350h-100v-100h100v100zM115 500v-100h100v100h-100zM265 350h-100v-100h100v100zM215 100v100h-100v-100h100zM765 100v100h-500v-100h500zM915 100v100h-100v-100h100zM765 250h100v100h-100v-100zM915 400v100h-200v-100h200z" />
    <glyph glyph-name="uniE836" unicode="&#xe836;" horiz-adv-x="830" 
d="M715 650q41 0 70.5 -29.5t29.5 -70.5v-350q0 -41 -29.5 -70.5t-70.5 -29.5h-200v-150l-200 150h-200q-41 0 -70.5 29.5t-29.5 70.5v350q0 41 29.5 70.5t70.5 29.5h600z" />
    <glyph glyph-name="uniE837" unicode="&#xe837;" horiz-adv-x="1030" 
d="M305 190h350q7 0 10 1v-91q0 -41 -29.5 -70.5t-70.5 -29.5h-250l-150 -150v150h-50q-41 0 -70.5 29.5t-29.5 70.5v300q0 41 29.5 70.5t70.5 29.5h190v-310zM915 750q41 0 70.5 -29.5t29.5 -70.5v-300q0 -41 -29.5 -70.5t-70.5 -29.5h-50v-150l-150 150h-350v400
q0 41 29.5 70.5t70.5 29.5h450z" />
    <glyph glyph-name="uniE838" unicode="&#xe838;" horiz-adv-x="830" 
d="M648 375q16 -34 40.5 -52t45 -22t42.5 -22.5t35 -54.5q22 -62 -74 -161.5t-252 -157.5q-104 -39 -205.5 -45.5t-166.5 15t-79 60.5q-13 36 -7.5 64.5t19 46t20.5 47t-2 66.5q-23 89 -33.5 142t-14.5 109t7.5 93.5t36 74.5t68.5 73q17 14 24 28.5t6 24t5.5 19.5t23.5 16
q26 10 47.5 -9.5t53.5 -19.5q56 1 98.5 -11t75 -33.5t64.5 -67t58 -93.5t64 -130zM461 -29q55 20 104.5 49t82 56.5t56 53.5t33.5 44t7 25q-7 20 -47.5 31t-124.5 1t-187 -48q-63 -23 -115.5 -51.5t-84.5 -53.5t-53 -49t-28 -41.5t-3 -27.5q2 -6 21 -13t53.5 -12t76.5 -5
t98 10.5t111 30.5zM437 159q15 -40 -15.5 -82.5t-88.5 -64.5q-45 -16 -86.5 -12t-65.5 26q81 68 218 120q17 7 38 13z" />
    <glyph glyph-name="uniE839" unicode="&#xe839;" horiz-adv-x="990" 
d="M971 -74q11 -18 -1 -34.5t-30 -16.5h-890q-18 0 -30 16.5t-1 34.5l446 782q9 17 30 17t30 -17zM556 -25v100h-122v-100h122zM556 150v300h-122v-300h122z" />
    <glyph glyph-name="uniE83A" unicode="&#xe83a;" horiz-adv-x="1030" 
d="M915 700q41 0 70.5 -29.5t29.5 -70.5v-600q0 -41 -29.5 -70.5t-70.5 -29.5h-800q-41 0 -70.5 29.5t-29.5 70.5v600q0 41 29.5 70.5t70.5 29.5h800zM915 0v600h-800v-600h800zM465 195v-90h-250v90h250zM465 345v-90h-250v90h250zM465 495v-90h-250v90h250zM810 175
q2 0 3.5 -17.5t1.5 -35.5v-17h-250q0 70 5 70q10 2 24 7t37.5 22t23.5 37q0 16 -13.5 34.5t-27.5 45.5t-14 64q0 55 20.5 82.5t69.5 27.5t69.5 -27.5t20.5 -82.5q0 -37 -14 -64t-27.5 -45.5t-13.5 -34.5q0 -20 21.5 -36.5t42.5 -22.5z" />
    <glyph glyph-name="uniE83B" unicode="&#xe83b;" horiz-adv-x="1030" 
d="M440 750q8 0 14 -6t6 -14v-860q0 -8 -6 -14t-14 -6h-45q-8 0 -14 6t-6 14v440h-177q-28 0 -54 17l-119 81q-10 7 -10 17t10 17l119 81q26 17 54 17h177v190q0 8 6 14t14 6h45zM1005 542q10 -7 10 -17t-10 -17l-119 -81q-26 -17 -54 -17h-302l-40 230h342q28 0 54 -17z
" />
    <glyph glyph-name="uniE83C" unicode="&#xe83c;" horiz-adv-x="530" 
d="M265 700q103 0 176.5 -73t73.5 -177q0 -67 -25.5 -148t-62.5 -149.5t-74 -127t-63 -91.5l-25 -34q-10 13 -27 35t-60 89t-76 130t-60 146t-27 150q0 104 73.5 177t176.5 73zM265 312q56 0 95.5 39.5t39.5 95.5t-39.5 95.5t-95.5 39.5t-95.5 -39.5t-39.5 -95.5t39.5 -95.5
t95.5 -39.5z" />
    <glyph glyph-name="uniE83D" unicode="&#xe83d;" horiz-adv-x="1030" 
d="M1015 -66q0 -13 -9.5 -23.5t-23.5 -10.5q-9 0 -17 5l-216 136l-217 -136q-17 -10 -34 0l-217 136l-216 -136q-18 -11 -34 0.5t-16 28.5v585q0 20 16 30l234 146q17 10 33 0l217 -136l217 136q16 10 33 0l234 -146q16 -10 16 -30v-585zM249 100v505l-169 -105v-506z
M482 -6v506l-168 105v-505zM716 100v505l-168 -105v-506zM950 -6v506l-169 105v-505z" />
    <glyph glyph-name="uniE83E" unicode="&#xe83e;" horiz-adv-x="890" 
d="M863 717q6 -6 9 -12t2.5 -14.5t-2 -15.5t-7.5 -19.5t-12 -23.5t-16 -30.5t-18 -36.5q-54 -113 -146.5 -287t-158.5 -292l-65 -117l-54 380l-380 54q442 248 696 370q17 8 36.5 18t30.5 16t23.5 12t19.5 7.5t15.5 2t14.5 -2.5t12 -9zM772 619l-304 -279l28 -233z" />
    <glyph glyph-name="uniE83F" unicode="&#xe83f;" horiz-adv-x="990" 
d="M489 780q130 2 241.5 -61t177 -173t67.5 -240t-61 -241.5t-173 -177t-240 -67.5t-241.5 61t-177 173t-67.5 240t61 241.5t173 177t240 67.5zM500 -79q157 2 266.5 114.5t107.5 269.5t-114.5 266.5t-269.5 107.5t-266.5 -114.5t-107.5 -269.5t114.5 -266.5t269.5 -107.5z
M268 75q1 9 4 25t13.5 61t23.5 84t36.5 84t50.5 72q43 43 124.5 75t141.5 42l60 11q-1 -9 -4 -25t-13.5 -60.5t-23.5 -84t-36.5 -84t-50.5 -71.5q-43 -43 -124.5 -75.5t-141.5 -42.5zM446 351q-20 -20 -20 -49t20 -49t49 -20t49 20q52 52 88 186q-134 -36 -186 -88z" />
    <glyph glyph-name="uniE840" unicode="&#xe840;" horiz-adv-x="710" 
d="M355 710q102 0 183.5 -20.5t121 -49.5t35.5 -58l-72 -593q-2 -13 -34 -35.5t-97 -43t-137 -20.5t-137 20.5t-97 43t-34 35.5l-72 593q-4 29 35.5 58t121 49.5t183.5 20.5zM355 495q72 0 137.5 15t98 32.5t32.5 29.5t-32.5 29.5t-98 32.5t-137.5 15t-137.5 -15t-98 -32.5
t-32.5 -29.5t32.5 -29.5t98 -32.5t137.5 -15z" />
    <glyph glyph-name="uniE841" unicode="&#xe841;" horiz-adv-x="730" 
d="M615 750q41 0 70.5 -29.5t29.5 -70.5v-700q0 -41 -29.5 -70.5t-70.5 -29.5h-500q-41 0 -70.5 29.5t-29.5 70.5v700q0 41 29.5 70.5t70.5 29.5h500zM615 -50v700h-500v-700h500z" />
    <glyph glyph-name="uniE842" unicode="&#xe842;" horiz-adv-x="730" 
d="M665 550q21 0 35.5 -14.5t14.5 -35.5v-600q0 -21 -14.5 -35.5t-35.5 -14.5h-400q-21 0 -35.5 14.5t-14.5 35.5v150h-150q-21 0 -35.5 14.5t-14.5 35.5v600q0 21 14.5 35.5t35.5 14.5h400q21 0 35.5 -14.5t14.5 -35.5v-150h150zM115 150h100v351q0 21 14 35t35 14h151v100
h-300v-500zM615 -50v500h-300v-500h300z" />
    <glyph glyph-name="uniE843" unicode="&#xe843;" horiz-adv-x="1030" 
d="M15 550q0 41 29.5 70.5t70.5 29.5h800q41 0 70.5 -29.5t29.5 -70.5v-500q0 -41 -29.5 -70.5t-70.5 -29.5h-800q-41 0 -70.5 29.5t-29.5 70.5v500zM915 550h-800v-500h800v500z" />
    <glyph glyph-name="uniE844" unicode="&#xe844;" horiz-adv-x="730" 
d="M226 256v90h280v-90h-280zM615 750q41 0 70.5 -29.5t29.5 -70.5v-700q0 -41 -29.5 -70.5t-70.5 -29.5h-500q-41 0 -70.5 29.5t-29.5 70.5v700q0 41 29.5 70.5t70.5 29.5h500zM615 -50v700h-500v-700h500zM505 541v-87h-280v87h280zM505 149v-88h-280v88h280z" />
    <glyph glyph-name="uniE845" unicode="&#xe845;" horiz-adv-x="930" 
d="M355 186v-67l-200 80v67zM355 394v-68l-200 80v68zM846 746q26 10 47.5 -6t21.5 -40v-640q0 -33 -31 -46l-400 -160q-2 0 -5.5 -1.5t-7 -2t-6.5 -0.5t-6.5 0.5t-7 2t-5.5 1.5l-400 160q-31 13 -31 46v640q0 24 21.5 40t47.5 6l381 -152zM415 -48v561l-320 128v-561z
M835 80v561l-320 -128v-561zM775 266v-67l-200 -80v67zM775 474v-68l-200 -80v68z" />
    <glyph glyph-name="uniE846" unicode="&#xe846;" horiz-adv-x="1030" 
d="M968 450q31 0 40 -13t6 -37l-41 -450q-2 -25 -12.5 -37.5t-42.5 -12.5h-806q-31 0 -42 13t-13 37l-41 450q-1 16 0.5 25.5t12.5 17t33 7.5h906zM935 560l10 -40h-846l14 130q2 20 18.5 35t37.5 15h163q21 0 46 -10.5t40 -24.5l30 -30q15 -14 40 -24.5t46 -10.5h341
q21 0 38 -11.5t22 -28.5z" />
    <glyph glyph-name="uniE847" unicode="&#xe847;" horiz-adv-x="1010" 
d="M853 550v-50h-696v50q0 22 12.5 34.5t24.5 13.5l12 2h598q2 0 5.5 -0.5t11.5 -3t14.5 -7t12 -15t5.5 -24.5zM704 700q2 0 5.5 -0.5t12 -3t15 -7t12 -15t5.5 -24.5h-498q0 22 12.5 34.5t25.5 13.5l12 2h398zM953 500q4 -4 13.5 -13t12.5 -12.5t8.5 -12t6.5 -16t1 -19.5
t-3 -27q-5 -28 -22.5 -126.5t-36 -207.5t-19.5 -116q-4 -23 -19 -35.5t-29 -13.5l-13 -1h-696q-6 0 -15 1t-25.5 13.5t-20.5 35.5q-1 7 -19.5 116t-36 207.5t-22.5 126.5q-3 15 -3 27t1 19.5t6.5 16t8.5 12t12.5 12.5t13.5 13l30 30v-80h836v80zM704 230v100h-70v-80h-258
v80h-70v-100q0 -2 0.5 -5.5t3 -12t7 -15t15 -12t24.5 -5.5h298q22 0 34.5 12.5t13.5 25.5z" />
    <glyph glyph-name="uniE848" unicode="&#xe848;" horiz-adv-x="790" 
d="M15 680q155 0 295.5 -60t242.5 -162t162 -242.5t60 -295.5h-118q0 130 -51 249t-137 205t-205 137t-249 51v118zM15 443q142 0 262.5 -70t190.5 -190.5t70 -262.5h-118q0 167 -119 286t-286 119v118zM128 147q47 0 80.5 -33.5t33.5 -80.5t-33.5 -80t-80.5 -33t-80 33
t-33 80t33 80.5t80 33.5z" />
    <glyph glyph-name="uniE849" unicode="&#xe849;" horiz-adv-x="780" 
d="M448 241q153 153 111 195q-39 39 -47 54q-24 46 35 122q3 5 7 9q16 19 31.5 31t27.5 17.5t27 3.5t24 -4.5t23 -14t20 -17t20 -20t18 -18.5q45 -45 -6.5 -181t-191.5 -276t-276 -191.5t-181 -6.5q-4 4 -18.5 18t-20 20t-17 20t-14 23t-4.5 24t3.5 27t17.5 27.5t31 31.5
q36 29 62.5 41.5t48 7t33 -14t32.5 -30.5l9 -9q42 -42 195 111z" />
    <glyph glyph-name="uniE84A" unicode="&#xe84a;" horiz-adv-x="870" 
d="M774 300q0 -76 81 -122q-14 -45 -35 -84q-72 19 -135 -44q-55 -55 -34 -135q-39 -21 -84 -35q-21 37 -57 59t-75 22t-75 -22t-57 -59q-45 14 -84 35q21 80 -34 135t-135 34q-21 39 -35 84q37 21 59 57t22 75q0 76 -81 122q14 45 35 84q72 -19 135 44q55 55 34 135
q39 21 84 35q21 -37 57 -59t75 -22t75 22t57 59q45 -14 84 -35q-21 -80 34 -135q63 -63 135 -44q21 -39 35 -84q-81 -46 -81 -122zM435 117q76 0 129.5 53.5t53.5 129.5t-53.5 129.5t-129.5 53.5t-129.5 -53.5t-53.5 -129.5t53.5 -129.5t129.5 -53.5z" />
    <glyph glyph-name="uniE84B" unicode="&#xe84b;" horiz-adv-x="830" 
d="M665 150q62 0 106 -44t44 -106t-44 -106t-106 -44t-106 44t-44 106q0 8 2 24l-261 157q-41 -31 -91 -31q-62 0 -106 44t-44 106t44 106t106 44q50 0 91 -31l261 156q-2 16 -2 25q0 62 44 106t106 44t106 -44t44 -106t-44 -106t-106 -44q-50 0 -91 31l-261 -157
q2 -16 2 -24q0 -9 -2 -25l261 -156q41 31 91 31z" />
    <glyph glyph-name="uniE84C" unicode="&#xe84c;" horiz-adv-x="890" 
d="M851 617q28 -24 23 -60l-97 -649q-4 -12 -15 -20t-24 -8h-586q-13 0 -24 8t-15 20q-93 621 -97 649q-5 36 23 60q7 7 55 43t55 43q20 17 55 17h482q35 0 55 -17q7 -7 55 -43t55 -43zM445 182q38 0 70.5 16.5t53.5 46t36 57.5t24.5 65t13 54.5t6.5 37.5h-91
q-38 -187 -113 -187t-113 187h-91q3 -20 6.5 -37.5t13 -54.5t24.5 -65t36 -57.5t53.5 -46t70.5 -16.5zM93 550h704l-110 115h-484z" />
    <glyph glyph-name="uniE84D" unicode="&#xe84d;" horiz-adv-x="930" 
d="M815 650q41 0 70.5 -29.5t29.5 -70.5v-600q0 -41 -29.5 -70.5t-70.5 -29.5h-700q-41 0 -70.5 29.5t-29.5 70.5v600q0 41 29.5 70.5t70.5 29.5h45v-100h160v100h290v-100h160v100h45zM815 -50v400h-700v-400h700zM275 750v-170h-70v170h70zM725 750v-170h-70v170h70z" />
    <glyph glyph-name="uniE84E" unicode="&#xe84e;" horiz-adv-x="670" 
d="M635 438q8 0 14 -6t6 -14v-138q0 -93 -69 -165t-201 -83v-132h130q8 0 14 -6t6 -14v-60q0 -8 -6 -14t-14 -6h-360q-8 0 -14 6t-6 14v60q0 8 6 14t14 6h130v132q-132 11 -201 83t-69 165v138q0 8 6 14t14 6h30q8 0 14 -6t6 -14v-138q0 -28 12 -57t38.5 -58t78 -47
t121.5 -18t121.5 18t78 47t38.5 58t12 57v138q0 8 6 14t14 6h30zM335 200q-79 0 -114.5 25t-35.5 55v158h300v-158q0 -30 -35.5 -55t-114.5 -25zM485 720v-212h-300v212q0 30 35.5 55t114.5 25t114.5 -25t35.5 -55z" />
    <glyph glyph-name="uniE84F" unicode="&#xe84f;" horiz-adv-x="911" 
d="M882 726q15 -15 15 -35.5t-15 -35.5l-782 -781q-15 -15 -35 -15t-35 15t-15 35.5t15 35.5l781 781q15 15 35.5 15t35.5 -15zM666 340l50 50q74 -92 100.5 -172t-7.5 -115q-18 -18 -54 -43.5t-94 -57t-120 -50.5t-132 -23.5t-131 24.5l277 276q44 -32 88 -53.5t67 -25.5
t34 1q5 11 1 34t-25.5 67t-53.5 88zM389 403l-270 -270q-20 59 -11 125.5t28.5 124.5t50 111.5t54 86.5t40.5 50q33 31 104.5 10.5t157.5 -84.5l-51 -51q-58 38 -105.5 54t-57.5 6t6 -57.5t54 -105.5z" />
    <glyph glyph-name="uniE850" unicode="&#xe850;" horiz-adv-x="939" 
d="M189 543q42 42 149.5 -6t216.5 -157t156.5 -216t5.5 -149q-21 -21 -65 -52t-115.5 -64.5t-144 -50.5t-152.5 0t-140 77t-77 140.5t0 153t50.5 144t64 115.5t51.5 65zM652 63q9 9 -1.5 48t-49 101.5t-95.5 119.5t-119 95.5t-101 49t-48 1.5t2 -48t49 -101t95 -119t119 -95
t101 -49.5t48 -2.5zM660 458q-21 0 -35 14q-15 15 -15 35.5t15 35.5l95 95q15 15 35.5 15t35.5 -15t15 -35.5t-15 -35.5l-96 -95q-14 -14 -35 -14zM504 575q-29 0 -43 25.5t0 48.5l54 97q10 18 30 23.5t38 -4.5q18 -11 23.5 -30.5t-4.5 -37.5l-54 -97q-14 -25 -44 -25z
M917 430q10 -18 4.5 -38t-23.5 -30l-96 -54q-12 -6 -25 -6q-28 0 -43 26q-10 18 -4.5 38t23.5 30l96 54q18 10 38 4t30 -24z" />
    <glyph glyph-name="uniE851" unicode="&#xe851;" horiz-adv-x="927" 
d="M912 127q0 -33 -23.5 -56.5t-56.5 -23.5h-780q-33 0 -36.5 12t24.5 29l803 453q29 17 49 5.5t20 -44.5v-375z" />
    <glyph glyph-name="uniE852" unicode="&#xe852;" horiz-adv-x="950" 
d="M475 760q125 0 231 -61.5t167.5 -167.5t61.5 -231t-61.5 -231t-167.5 -167.5t-231 -61.5t-231 61.5t-167.5 167.5t-61.5 231t61.5 231t167.5 167.5t231 61.5zM475 -60q149 0 254.5 105.5t105.5 254.5t-105.5 254.5t-254.5 105.5t-254.5 -105.5t-105.5 -254.5
t105.5 -254.5t254.5 -105.5zM510 560v-246l150 -149l-50 -50l-170 170v275h70z" />
    <glyph glyph-name="uniE853" unicode="&#xe853;" horiz-adv-x="590" 
d="M575 571q0 -36 -30.5 -76.5t-66.5 -70.5t-66.5 -64.5t-30.5 -59.5t30.5 -59.5t66.5 -64.5t66.5 -70.5t30.5 -76.5v-118q0 -33 -86 -72t-194 -39t-194 39t-86 72v118q0 36 30.5 76.5t66.5 70.5t66.5 64.5t30.5 59.5t-30.5 59.5t-66.5 64.5t-66.5 70.5t-30.5 76.5v118
q0 33 86 72t194 39t194 -39t86 -72v-118zM92 684l-15 -11q-9 -11 2 -17q91 -54 216 -54q133 0 219 51q19 11 -16 31q-11 6 -29.5 15t-71 24t-99.5 15q-120 0 -206 -54zM320 300q0 15 5 29.5t9.5 24t18 25t19.5 21.5t26 25t25 24q91 86 91 122l3 50q-98 -54 -222 -54
q-123 0 -221 54l2 -50q0 -36 91 -122q5 -5 25 -24t26 -25t19.5 -21.5t18 -25t9.5 -24t5 -29.5t-5 -29.5t-9.5 -24t-18 -25t-19.5 -21.5t-26 -25t-25 -24q-91 -86 -91 -122v-67q7 3 66.5 23t93.5 44.5t34 58.5q0 18 12.5 26t25 0t12.5 -26q0 -34 34 -58.5t93.5 -44.5
t66.5 -23v67q0 36 -91 122q-5 5 -25 24t-26 25t-19.5 21.5t-18 25t-9.5 24t-5 29.5z" />
    <glyph glyph-name="uniE854" unicode="&#xe854;" horiz-adv-x="670" 
d="M473 10h-265q0 59 -21.5 114.5t-51 98t-58.5 85.5t-47 97t-14 112q3 43 14.5 81.5t36 76t59 64.5t88.5 44t121 17t121 -17t88.5 -44t59 -64.5t36 -76t14.5 -81.5q4 -59 -12.5 -113t-44 -97.5t-56 -87t-48.5 -97.5t-20 -112zM203 -159v99h264v-99q-60 -42 -132 -41
q-72 -1 -132 41z" />
    <glyph glyph-name="uniE855" unicode="&#xe855;" horiz-adv-x="730" 
d="M365 460q67 0 113.5 -46.5t46.5 -113.5t-46.5 -113.5t-113.5 -46.5t-113.5 46.5t-46.5 113.5t46.5 113.5t113.5 46.5zM365 197q43 0 73 30t30 73t-30 72.5t-73 29.5t-73 -29.5t-30 -72.5t30 -73t73 -30zM65 340q21 0 35 -11.5t14 -28.5t-14 -28.5t-35 -11.5t-35.5 11.5
t-14.5 28.5t14.5 28.5t35.5 11.5zM610 545q12 -12 10 -30t-17 -33t-33 -17t-30 10t-10 30t17 33t33 17t30 -10zM665 340q21 0 35.5 -11.5t14.5 -28.5t-14.5 -28.5t-35.5 -11.5t-35 11.5t-14 28.5t14 28.5t35 11.5zM365 50q17 0 28.5 -14.5t11.5 -35.5t-11.5 -35.5
t-28.5 -14.5t-28.5 14.5t-11.5 35.5t11.5 35.5t28.5 14.5zM127 113q15 15 33 17t30 -10t10 -30t-17 -33t-33 -17t-30 10t-10 30t17 33zM117 543q12 12 30.5 10t33.5 -17t17 -33.5t-10 -30.5t-30.5 -10t-33.5 17t-17 33.5t10 30.5zM549 59q-15 15 -17 33.5t10 30.5t30.5 10
t33.5 -17t17 -33.5t-10 -30.5t-30.5 -10t-33.5 17zM365 550q-17 0 -28.5 14.5t-11.5 35.5t11.5 35.5t28.5 14.5t28.5 -14.5t11.5 -35.5t-11.5 -35.5t-28.5 -14.5z" />
    <glyph glyph-name="uniE856" unicode="&#xe856;" horiz-adv-x="1030" 
d="M965 340q21 0 35.5 -11.5t14.5 -28.5t-14.5 -28.5t-35.5 -11.5h-49q-21 0 -35.5 11.5t-14.5 28.5t14.5 28.5t35.5 11.5h49zM515 575q115 0 195 -80t80 -195t-80 -195t-195 -80t-195 80t-80 195t80 195t195 80zM515 100q83 0 141.5 59t58.5 141t-58.5 141t-141.5 59
t-141.5 -58.5t-58.5 -141.5t58.5 -141.5t141.5 -58.5zM164 300q0 -17 -14 -28.5t-35 -11.5h-50q-21 0 -35.5 11.5t-14.5 28.5t14.5 28.5t35.5 11.5h50q21 0 35 -11.5t14 -28.5zM515 650q-17 0 -28.5 14.5t-11.5 35.5v50q0 21 11.5 35.5t28.5 14.5t28.5 -14.5t11.5 -35.5v-50
q0 -21 -11.5 -35.5t-28.5 -14.5zM515 -50q17 0 28.5 -14.5t11.5 -35.5v-50q0 -21 -11.5 -35.5t-28.5 -14.5t-28.5 14.5t-11.5 35.5v50q0 21 11.5 35.5t28.5 14.5zM883 612l-35 -35q-15 -15 -33 -17t-30 10t-10 30t17 33l35 35q15 15 33 17t30 -10t10 -30t-17 -33zM182 23
q15 15 33 17t30 -10t10 -30t-17 -33l-35 -35q-15 -15 -33 -17t-30 10t-10 30t17 33zM203 668l35 -35q15 -15 17 -33t-10 -30t-30 -10t-33 17l-35 35q-15 15 -17 33t10 30t30 10t33 -17zM792 -33q-15 15 -17 33t10 30t30 10t33 -17l35 -35q15 -15 17 -33t-10 -30t-30 -10
t-33 17z" />
    <glyph glyph-name="uniE857" unicode="&#xe857;" horiz-adv-x="950" 
d="M475 760q125 0 231 -61.5t167.5 -167.5t61.5 -231t-61.5 -231t-167.5 -167.5t-231 -61.5t-231 61.5t-167.5 167.5t-61.5 231t61.5 231t167.5 167.5t231 61.5zM723 547h-1h1zM125 300q0 -125 79 -222l492 493q-97 79 -221 79q-145 0 -247.5 -102.5t-102.5 -247.5zM227 53
l1 -1zM475 -50q145 0 247.5 102.5t102.5 247.5q0 124 -79 221l-492 -492q97 -79 221 -79z" />
    <glyph glyph-name="uniE858" unicode="&#xe858;" horiz-adv-x="830" 
d="M539 678l276 22l-21 -280l-78 79l-142 -143l-99 100l142 144zM256 244l99 -100l-142 -144l78 -79l-276 -21l21 279l78 -78z" />
    <glyph glyph-name="uniE859" unicode="&#xe859;" horiz-adv-x="850" 
d="M835 607l-145 -147l80 -81l-283 -22l22 287l79 -81l145 147zM160 140l-80 81l283 22l-22 -287l-79 81l-145 -147l-102 103z" />
    <glyph glyph-name="uniE85A" unicode="&#xe85a;" horiz-adv-x="830" 
d="M715 700q41 0 70.5 -29.5t29.5 -70.5v-400q0 -41 -29.5 -70.5t-70.5 -29.5h-400q-41 0 -70.5 29.5t-29.5 70.5v401q0 41 29 70t70 29h401zM715 200v400h-400v-400h400zM115 300v-300h300v-100h-300q-41 0 -70.5 29.5t-29.5 70.5v300h100z" />
    <glyph glyph-name="uniE85B" unicode="&#xe85b;" horiz-adv-x="1030" 
d="M915 750q41 0 70.5 -29.5t29.5 -70.5v-600q0 -41 -29.5 -70t-70.5 -29h-199v98h200v461h-802v-461h200v-98h-199q-41 0 -70.5 29t-29.5 70v600q0 41 29.5 70.5t70.5 29.5h800zM145 583q16 0 26.5 11t10.5 26t-10.5 25.5t-26.5 10.5t-26.5 -10.5t-10.5 -25.5t10.5 -26
t26.5 -11zM245 583q16 0 26.5 11t10.5 26t-10.5 25.5t-26.5 10.5t-26.5 -10.5t-10.5 -25.5t10.5 -26t26.5 -11zM916 589v62h-602v-62h602zM512 391l243 -241h-150v-300h-185v300h-150z" />
    <glyph glyph-name="uniE85C" unicode="&#xe85c;" horiz-adv-x="1030" 
d="M915 700q41 0 70.5 -29.5t29.5 -70.5v-600q0 -41 -29.5 -70.5t-70.5 -29.5h-800q-41 0 -70.5 29.5t-29.5 70.5v600q0 41 29.5 70.5t70.5 29.5h800zM245 606q-16 0 -26.5 -10.5t-10.5 -25.5t10.5 -26t26.5 -11t26.5 11t10.5 26t-10.5 25.5t-26.5 10.5zM108 570
q0 -15 10.5 -26t26.5 -11t26.5 11t10.5 26t-10.5 25.5t-26.5 10.5t-26.5 -10.5t-10.5 -25.5zM916 0v460h-802v-460h802zM916 540v60h-601v-60h601z" />
    <glyph glyph-name="uniE85D" unicode="&#xe85d;" horiz-adv-x="490" 
d="M245 800l230 -365h-460zM245 -200l-230 365h460z" />
    <glyph glyph-name="uniE85E" unicode="&#xe85e;" horiz-adv-x="950" 
d="M475 760q125 0 231 -61.5t167.5 -167.5t61.5 -231t-61.5 -231t-167.5 -167.5t-231 -61.5t-231 61.5t-167.5 167.5t-61.5 231t61.5 231t167.5 167.5t231 61.5zM475 -60q149 0 254.5 105.5t105.5 254.5t-105.5 254.5t-254.5 105.5t-254.5 -105.5t-105.5 -254.5
t105.5 -254.5t254.5 -105.5zM565 492v-204h113l-203 -191l-202 191h112v204h180z" />
    <glyph glyph-name="uniE85F" unicode="&#xe85f;" horiz-adv-x="950" 
d="M935 300q0 -125 -61.5 -231t-167.5 -167.5t-231 -61.5t-231 61.5t-167.5 167.5t-61.5 231t61.5 231t167.5 167.5t231 61.5t231 -61.5t167.5 -167.5t61.5 -231zM115 300q0 -149 105.5 -254.5t254.5 -105.5t254.5 105.5t105.5 254.5t-105.5 254.5t-254.5 105.5
t-254.5 -105.5t-105.5 -254.5zM668 210h-205v-113l-191 203l191 202v-112h205v-180z" />
    <glyph glyph-name="uniE860" unicode="&#xe860;" horiz-adv-x="950" 
d="M15 300q0 125 61.5 231t167.5 167.5t231 61.5t231 -61.5t167.5 -167.5t61.5 -231t-61.5 -231t-167.5 -167.5t-231 -61.5t-231 61.5t-167.5 167.5t-61.5 231zM835 300q0 149 -105.5 254.5t-254.5 105.5t-254.5 -105.5t-105.5 -254.5t105.5 -254.5t254.5 -105.5
t254.5 105.5t105.5 254.5zM282 390h205v112l191 -202l-191 -203v113h-205v180z" />
    <glyph glyph-name="uniE861" unicode="&#xe861;" horiz-adv-x="950" 
d="M475 -160q-125 0 -231 61.5t-167.5 167.5t-61.5 231t61.5 231t167.5 167.5t231 61.5t231 -61.5t167.5 -167.5t61.5 -231t-61.5 -231t-167.5 -167.5t-231 -61.5zM475 660q-149 0 -254.5 -105.5t-105.5 -254.5t105.5 -254.5t254.5 -105.5t254.5 105.5t105.5 254.5
t-105.5 254.5t-254.5 105.5zM385 107v205h-112l202 190l203 -190h-113v-205h-180z" />
    <glyph glyph-name="uniE862" unicode="&#xe862;" horiz-adv-x="610" 
d="M579 372l-235 -225q-17 -17 -39 -17t-39 17q-215 204 -235 225q-15 16 -15.5 40t15.5 41q37 37 79 0l195 -188l195 188q42 37 79 0q16 -17 15.5 -41t-15.5 -40z" />
    <glyph glyph-name="uniE863" unicode="&#xe863;" horiz-adv-x="370" 
d="M257 574q16 15 40 15.5t41 -15.5q37 -37 0 -79l-188 -195l188 -195q37 -42 0 -79q-17 -16 -41 -15.5t-40 15.5l-225 235q-17 17 -17 39t17 39q204 215 225 235z" />
    <glyph glyph-name="uniE864" unicode="&#xe864;" horiz-adv-x="370" 
d="M113 574l225 -235q17 -17 17 -39t-17 -39q-204 -215 -225 -235q-16 -15 -40 -15.5t-41 15.5q-37 37 0 79l188 195l-188 195q-37 42 0 79q17 16 41 15.5t40 -15.5z" />
    <glyph glyph-name="uniE865" unicode="&#xe865;" horiz-adv-x="610" 
d="M579 228q15 -16 15.5 -40t-15.5 -41q-37 -37 -79 0l-195 188l-195 -188q-42 -37 -79 0q-16 17 -15.5 41t15.5 40l235 225q17 17 39 17t39 -17q215 -204 235 -225z" />
    <glyph glyph-name="uniE866" unicode="&#xe866;" horiz-adv-x="530" 
d="M515 49l-250 -239l-250 239h161v741h178v-741h161z" />
    <glyph glyph-name="uniE867" unicode="&#xe867;" horiz-adv-x="1010" 
d="M254 50l-239 250l239 250v-161h741v-178h-741v-161z" />
    <glyph glyph-name="uniE868" unicode="&#xe868;" horiz-adv-x="1010" 
d="M756 50v161h-741v178h741v161l239 -250z" />
    <glyph glyph-name="uniE869" unicode="&#xe869;" horiz-adv-x="530" 
d="M515 551h-161v-741h-178v741h-161l250 239z" />
    <glyph glyph-name="uniE86A" unicode="&#xe86a;" horiz-adv-x="490" 
d="M475 500l-230 -400l-230 400h460z" />
    <glyph glyph-name="uniE86B" unicode="&#xe86b;" horiz-adv-x="430" 
d="M415 530v-460l-400 230z" />
    <glyph glyph-name="uniE86C" unicode="&#xe86c;" horiz-adv-x="430" 
d="M15 530l400 -230l-400 -230v460z" />
    <glyph glyph-name="uniE86D" unicode="&#xe86d;" horiz-adv-x="490" 
d="M15 100l230 400l230 -400h-460z" />
    <glyph glyph-name="uniE86E" unicode="&#xe86e;" horiz-adv-x="790" 
d="M775 314l-380 -379l-380 379h191v351h378v-351h191z" />
    <glyph glyph-name="uniE86F" unicode="&#xe86f;" horiz-adv-x="760" 
d="M394 -80l-379 380l379 380v-191h351v-378h-351v-191z" />
    <glyph glyph-name="uniE870" unicode="&#xe870;" horiz-adv-x="760" 
d="M366 680l379 -380l-379 -380v191h-351v378h351v191z" />
    <glyph glyph-name="uniE871" unicode="&#xe871;" horiz-adv-x="790" 
d="M775 286h-191v-351h-378v351h-191l380 379z" />
    <glyph glyph-name="uniE872" unicode="&#xe872;" horiz-adv-x="690" 
d="M675 314l-330 -379l-330 379h191v351h278v-351h191z" />
    <glyph glyph-name="uniE873" unicode="&#xe873;" horiz-adv-x="760" 
d="M394 -30l-379 330l379 330v-191h351v-278h-351v-191z" />
    <glyph glyph-name="uniE874" unicode="&#xe874;" horiz-adv-x="760" 
d="M366 630l379 -330l-379 -330v191h-351v278h351v191z" />
    <glyph glyph-name="uniE875" unicode="&#xe875;" horiz-adv-x="690" 
d="M675 286h-191v-351h-278v351h-191l330 379z" />
    <glyph glyph-name="uniE876" unicode="&#xe876;" horiz-adv-x="970" 
d="M546 710q169 0 289 -120t120 -290t-120 -290t-289 -120q-140 0 -251 87l70 75q83 -60 181 -60q127 0 217 90.5t90 217.5t-90 217t-217 90q-124 0 -213 -86.5t-93 -210.5h143l-184 -205l-184 205h123q4 167 123 283.5t285 116.5z" />
    <glyph glyph-name="uniE877" unicode="&#xe877;" horiz-adv-x="970" 
d="M424 710q166 0 285 -116.5t123 -283.5h123l-184 -205l-184 205h143q-4 124 -93 210.5t-213 86.5q-127 0 -217 -90t-90 -217t90 -217.5t217 -90.5q98 0 181 60l70 -75q-111 -87 -251 -87q-169 0 -289 120t-120 290t120 290t289 120z" />
    <glyph glyph-name="uniE878" unicode="&#xe878;" horiz-adv-x="775" 
d="M115 150q-41 0 -70.5 29.5t-29.5 70.5v350h140v-310h365v150l240 -220l-240 -220v150h-405z" />
    <glyph glyph-name="uniE879" unicode="&#xe879;" horiz-adv-x="1030" 
d="M770 466q-41 0 -77 -14.5t-72 -48.5t-58 -60.5t-63 -79.5q-37 -49 -58 -74.5t-61.5 -66.5t-74.5 -62t-83.5 -37.5t-102.5 -16.5h-105v140h105q33 0 65 12t55 26.5t52.5 46.5t46.5 53t50 64q31 41 48 62t49.5 57.5t59 56t63 41.5t76.5 31.5t85 9.5h35v119l210 -180
l-210 -180v101h-35zM372 489q-18 -22 -47.5 -61t-38.5 -50q-80 78 -166 78h-105v140h105q138 0 252 -107zM508 112q30 35 87 111q84 -87 175 -87h35v100l210 -180l-210 -180v120h-35q-142 0 -262 116z" />
    <glyph glyph-name="uniE87A" unicode="&#xe87a;" horiz-adv-x="530" 
d="M500 326q15 -11 15 -26q0 -7 -3.5 -13.5t-7.5 -9.5l-4 -3l-428 -265q-23 -15 -40 -5t-17 39v514q0 29 17 39t40 -5z" />
    <glyph glyph-name="uniE87B" unicode="&#xe87b;" horiz-adv-x="630" 
d="M540 600q39 0 57 -14.5t18 -50.5v-470q0 -36 -18 -50.5t-57 -14.5h-450q-39 0 -57 14.5t-18 50.5v470q0 36 18 50.5t57 14.5h450z" />
    <glyph glyph-name="uniE87C" unicode="&#xe87c;" horiz-adv-x="560" 
d="M455 650q90 0 90 -65v-570q0 -65 -90 -65t-90 65v570q0 65 90 65zM105 650q90 0 90 -65v-570q0 -65 -90 -65t-90 65v570q0 65 90 65z" />
    <glyph glyph-name="uniE87D" unicode="&#xe87d;" horiz-adv-x="730" 
d="M365 650q145 0 247.5 -102.5t102.5 -247.5t-102.5 -247.5t-247.5 -102.5t-247.5 102.5t-102.5 247.5t102.5 247.5t247.5 102.5z" />
    <glyph glyph-name="uniE87E" unicode="&#xe87e;" horiz-adv-x="630" 
d="M428 322q13 -9 13 -22q0 -6 -3.5 -11.5t-6.5 -8.5l-3 -2l-364 -229q-20 -13 -34.5 -4.5t-14.5 33.5v444q0 25 14.5 33.5t34.5 -4.5zM540 590q75 0 75 -58v-464q0 -58 -75 -58t-75 58v464q0 58 75 58z" />
    <glyph glyph-name="uniE87F" unicode="&#xe87f;" horiz-adv-x="630" 
d="M189 300q0 6 3.5 11.5t6.5 8.5l3 2l364 229q20 13 34.5 4.5t14.5 -33.5v-444q0 -25 -14.5 -33.5t-34.5 4.5l-364 229q-13 9 -13 22zM15 532q0 58 75 58t75 -58v-464q0 -58 -75 -58t-75 58v464z" />
    <glyph glyph-name="uniE880" unicode="&#xe880;" horiz-adv-x="910" 
d="M881 324q14 -10 14 -24q0 -6 -3.5 -12t-7.5 -9l-3 -3l-373 -248q-22 -14 -37 -4.5t-15 36.5v480q0 27 15 36t37 -5zM427 324q14 -10 14 -24q0 -6 -3.5 -12t-7.5 -9l-3 -3l-360 -248q-22 -14 -37 -4.5t-15 36.5v480q0 27 15 36t37 -5z" />
    <glyph glyph-name="uniE881" unicode="&#xe881;" horiz-adv-x="910" 
d="M15 300q0 6 3.5 12t7.5 9l3 3l373 247q22 14 37 5t15 -36v-480q0 -27 -15 -36.5t-37 4.5l-373 248q-14 10 -14 24zM469 300q0 6 3.5 12t7.5 9l3 3l360 247q22 14 37 5t15 -36v-480q0 -27 -15 -36.5t-37 4.5l-360 248q-14 10 -14 24z" />
    <glyph glyph-name="uniE882" unicode="&#xe882;" horiz-adv-x="1030" 
d="M915 550q41 0 70.5 -29.5t29.5 -70.5v-300q0 -41 -29.5 -70.5t-70.5 -29.5h-800q-41 0 -70.5 29.5t-29.5 70.5v300q0 41 29.5 70.5t70.5 29.5h800zM915 150v300h-800v-300h800z" />
    <glyph glyph-name="uniE883" unicode="&#xe883;" horiz-adv-x="1030" 
d="M915 550q41 0 70.5 -29.5t29.5 -70.5v-300q0 -41 -29.5 -70.5t-70.5 -29.5h-800q-41 0 -70.5 29.5t-29.5 70.5v300q0 41 29.5 70.5t70.5 29.5h800zM915 150v300h-800v-300h800zM365 400v-200h-200v200h200z" />
    <glyph glyph-name="uniE884" unicode="&#xe884;" horiz-adv-x="1030" 
d="M915 550q41 0 70.5 -29.5t29.5 -70.5v-300q0 -41 -29.5 -70.5t-70.5 -29.5h-800q-41 0 -70.5 29.5t-29.5 70.5v300q0 41 29.5 70.5t70.5 29.5h800zM915 150v300h-800v-300h800zM615 400v-200h-200v200h200zM365 400v-200h-200v200h200z" />
    <glyph glyph-name="uniE885" unicode="&#xe885;" horiz-adv-x="1030" 
d="M915 550q41 0 70.5 -29.5t29.5 -70.5v-300q0 -41 -29.5 -70.5t-70.5 -29.5h-800q-41 0 -70.5 29.5t-29.5 70.5v300q0 41 29.5 70.5t70.5 29.5h800zM915 150v300h-800v-300h800zM865 400v-200h-200v200h200zM365 400v-200h-200v200h200zM615 400v-200h-200v200h200z" />
    <glyph glyph-name="uniE886" unicode="&#xe886;" horiz-adv-x="890" 
d="M445 730q178 0 304 -126t126 -304t-126 -304t-304 -126t-304 126t-126 304t126 304t304 126zM480 -48q124 12 212.5 100.5t100.5 212.5h-193v70h193q-12 124 -100.5 212.5t-212.5 100.5v-193h-70v193q-124 -12 -212.5 -100.5t-100.5 -212.5h193v-70h-193
q12 -124 100.5 -212.5t212.5 -100.5v193h70v-193z" />
    <glyph glyph-name="uniE887" unicode="&#xe887;" horiz-adv-x="1010" 
d="M873 571q45 -30 74 -66.5t38.5 -69t9 -61t-10.5 -46.5t-25 -21q-14 -3 -41 4.5t-51 14.5t-58 -2t-64 -42q-26 -25 -23.5 -56t16.5 -53t29.5 -46t14.5 -36q-1 -18 -23 -44.5t-63.5 -56t-119.5 -50.5t-174 -21q-186 0 -291.5 100t-94.5 244q8 119 104 236t216 151
q293 83 537 -79zM554 105q31 0 53 22t22 53t-22 53t-53 22t-53 -22t-22 -53t22 -53t53 -22z" />
    <glyph glyph-name="uniE888" unicode="&#xe888;" horiz-adv-x="1030" 
d="M365 350q21 0 35.5 -14.5t14.5 -35.5t-14.5 -35.5t-35.5 -14.5h-300q-21 0 -35.5 14.5t-14.5 35.5t14.5 35.5t35.5 14.5h300zM365 150q21 0 35.5 -14.5t14.5 -35.5t-14.5 -35.5t-35.5 -14.5h-300q-21 0 -35.5 14.5t-14.5 35.5t14.5 35.5t35.5 14.5h300zM985 350
q19 0 24.5 -12.5t5.5 -37.5q0 -17 -1.5 -26t-8.5 -16.5t-20 -7.5h-170v-170q0 -19 -12.5 -24.5t-37.5 -5.5q-17 0 -26 1.5t-16.5 8.5t-7.5 20v170h-165q-19 0 -24.5 12.5t-5.5 37.5q0 17 1.5 26t8.5 16.5t20 7.5h165v170q0 19 12.5 24.5t37.5 5.5q17 0 26 -1.5t16.5 -8.5
t7.5 -20v-170h170zM365 550q21 0 35.5 -14.5t14.5 -35.5t-14.5 -35.5t-35.5 -14.5h-300q-21 0 -35.5 14.5t-14.5 35.5t14.5 35.5t35.5 14.5h300z" />
    <glyph glyph-name="uniE889" unicode="&#xe889;" horiz-adv-x="1010" 
d="M505 97q41 0 70 -29.5t29 -70.5t-29 -70.5t-70 -29.5t-70 29.5t-29 70.5t29 70.5t70 29.5zM295 209q87 88 210 88t210 -88l-70 -71q-58 58 -140 58t-140 -58zM155 350q145 146 350 146t350 -146l-70 -70q-116 117 -280 117t-280 -117zM15 492q133 134 311.5 182t357 0
t311.5 -182l-70 -71q-114 115 -267 156t-306 0t-267 -156z" />
    <glyph glyph-name="uniE88A" unicode="&#xe88a;" horiz-adv-x="930" 
d="M524 82v-65q71 -8 117 -32t46 -55q0 -37 -65 -63.5t-157 -26.5t-157 26.5t-65 63.5q0 31 46 55t117 32v65q0 50 -33 85t-112 87q-45 30 -69 47.5t-63.5 54.5t-60 72t-37 88.5t-16.5 115.5q0 14 10 24.5t25 10.5h172q21 39 81.5 66t161.5 27t161.5 -27t81.5 -66h172
q15 0 25 -10.5t10 -24.5q0 -62 -16.5 -115.5t-37 -88.5t-60 -72t-63.5 -54.5t-69 -47.5q-79 -52 -112 -87t-33 -85zM663 335q80 54 126 112t54 150h-126q-5 -157 -54 -262zM465 699q-39 0 -72 -6t-54 -15t-36 -20t-21.5 -20t-6.5 -16t6.5 -16t21.5 -20t36 -20t54 -15t72 -6
t72 6t54 15t36 20t21.5 20t6.5 16t-6.5 16t-21.5 20t-36 20t-54 15t-72 6zM87 597q8 -92 54 -150t126 -112q-49 105 -54 262h-126z" />
    <glyph glyph-name="uniE88B" unicode="&#xe88b;" horiz-adv-x="1030" 
d="M785 300q0 -97 36 -156.5t78 -59.5h66q-28 -46 -63.5 -65t-119.5 -19h-500q-67 0 -120 28.5t-84 74t-47 96.5t-16 101t16 101t47 96.5t84 74t120 28.5h500q84 0 119.5 -19t63.5 -65h-66q-42 0 -78 -59.5t-36 -156.5zM555 273q9 11 7 21t-17.5 17.5t-57.5 21.5
q-3 1 -8 2.5t-8 2.5q7 15 29 54t29 54q13 24 14 31.5t-11 17.5h-5q-12 0 -94 -76q-78 -72 -96 -97q-6 -9 -3 -19q5 -13 67 -33l12 -4l12 -4q-4 -9 -17 -32.5t-16 -29.5q-39 -71 -40 -76q0 -3 3 -14l9 -5h4q12 0 90 72q83 79 97 96zM959 404q22 0 39 -27.5t17 -71.5
t-17 -71.5t-39 -27.5h-38q-22 0 -38.5 27.5t-16.5 71.5t16.5 71.5t38.5 27.5h38z" />
    <glyph glyph-name="uniE88C" unicode="&#xe88c;" horiz-adv-x="970" 
d="M546 710q169 0 289 -120t120 -290t-120 -290t-289 -120q-140 0 -251 87l70 75q83 -60 181 -60q127 0 217 90.5t90 217.5t-90 217t-217 90q-124 0 -213 -86.5t-93 -210.5h143l-184 -205l-184 205h123q4 167 123 283.5t285 116.5zM510 520h70v-206l130 -129l-50 -50
l-150 150v235z" />
    <glyph glyph-name="uniE88D" unicode="&#xe88d;" horiz-adv-x="1030" 
d="M915 740q41 0 70.5 -29.5t29.5 -70.5v-550q0 -41 -29 -76.5t-69 -43.5l-219 -43l68 -28q81 -39 -1 -39h-500q-88 0 8 43l59 24l-219 43q-40 8 -69 43.5t-29 76.5v550q0 41 29.5 70.5t70.5 29.5h800zM915 95v555h-800v-555h800z" />
    <glyph glyph-name="uniE88E" unicode="&#xe88e;" horiz-adv-x="610" 
d="M495 790q41 0 70.5 -29.5t29.5 -70.5v-780q0 -41 -29.5 -70.5t-70.5 -29.5h-380q-41 0 -70.5 29.5t-29.5 70.5v780q0 41 29.5 70.5t70.5 29.5h380zM305 -150q29 0 49.5 14.5t20.5 35.5t-20.5 35.5t-49.5 14.5t-49.5 -14.5t-20.5 -35.5t20.5 -35.5t49.5 -14.5zM515 0v660
h-420v-660h420z" />
    <glyph glyph-name="uniE88F" unicode="&#xe88f;" horiz-adv-x="950" 
d="M239 454q-21 0 -43 -10q-53 59 -92 128q53 71 130 119q83 -34 150 -82q-5 -17 -5 -31q0 -12 3 -23q-66 -50 -114 -105q-12 4 -29 4zM141 356q0 -32 20 -59q-59 -113 -81 -232q-65 109 -65 235q0 108 49 206q35 -57 85 -111q-8 -19 -8 -39zM477 676q-27 0 -50 -14
q-54 39 -114 69q76 29 162 29q123 0 229 -61q-81 -16 -160 -50q-29 27 -67 27zM623 215q-158 24 -291 112q5 15 5 29q0 27 -15 52q44 48 98 90q26 -18 57 -18q19 0 38 8q90 -107 134 -241q-18 -15 -26 -32zM750 82q40 17 54 60q67 7 109 18q-46 -143 -167 -232q6 48 6 98
q0 18 -2 56zM600 149q-187 -93 -304 -273q-89 37 -157 110q12 147 80 275q12 -2 20 -2q28 0 51 14q143 -96 310 -124zM784 641q71 -64 111 -152.5t40 -188.5q0 -29 -5 -64q-73 -21 -129 -26q-25 58 -88 60q-48 146 -148 265q10 22 10 43q0 2 -0.5 5t-0.5 4q104 44 210 54z
M649 96q11 -10 32 -17q3 -51 3 -53q0 -66 -15 -143q-91 -43 -194 -43q-56 0 -112 14q110 159 286 242z" />
    <glyph glyph-name="uniE890" unicode="&#xe890;" horiz-adv-x="950" 
d="M475 760q125 0 231 -61.5t167.5 -167.5t61.5 -231t-61.5 -231t-167.5 -167.5t-231 -61.5t-231 61.5t-167.5 167.5t-61.5 231t61.5 231t167.5 167.5t231 61.5zM475 150q62 0 106 44t44 106t-44 106t-106 44t-106 -44t-44 -106t44 -106t106 -44z" />
    <glyph glyph-name="uniE891" unicode="&#xe891;" horiz-adv-x="1030" 
d="M982 348q38 -41 31 -73l-28 -153q-4 -19 -22.5 -33t-39.5 -14h-816q-21 0 -39.5 14t-22.5 33l-28 153q-7 32 31 73q23 24 158 156q21 21 52 21h514q31 0 52 -21q135 -132 158 -156zM717 314h178l-102 111h-556l-102 -111h178q9 0 12 -6l40 -102h300l40 102q3 6 12 6z" />
    <glyph glyph-name="uniE892" unicode="&#xe892;" horiz-adv-x="930" 
d="M899 255q23 -49 15 -96l-34 -184q-4 -21 -21.5 -35.5t-38.5 -14.5h-710q-21 0 -38.5 14.5t-21.5 35.5l-34 184q-8 47 15 96l157 375q9 19 31 32t43 13h103l-20 -203h-135l255 -212l255 212h-135l-20 203h103q21 0 43 -13t31 -32zM831 118q3 21 -10 36t-34 15h-644
q-21 0 -34 -15t-10 -36l13 -72q3 -21 20 -35.5t38 -14.5h590q21 0 38 14.5t20 35.5z" />
    <glyph glyph-name="uniE893" unicode="&#xe893;" horiz-adv-x="990" 
d="M495 780q130 0 240.5 -64.5t175 -175t64.5 -240.5t-64.5 -240.5t-175 -175t-240.5 -64.5t-240.5 64.5t-175 175t-64.5 240.5t64.5 240.5t175 175t240.5 64.5zM904 300q0 133 -78 240t-201 148q-18 -22 -17 -32q4 -38 18.5 -50.5t30 -6.5t31.5 12.5t20 1.5q14 -16 10 -31
t-18.5 -27.5t-28 -30.5t-18.5 -39t10 -53q18 -36 40 -49.5t56 -14.5q19 0 33 -20.5t19.5 -41t7.5 -40.5q3 -27 -1 -72t-14 -67q-9 -27 -3 -46t19 -30q84 109 84 249zM439 705q-111 -16 -198.5 -85.5t-127.5 -172.5q1 0 21 -1.5t29.5 -3t25 -5t24 -8.5t11.5 -12
q4 -12 -13.5 -44.5t-17.5 -60.5q0 -20 11.5 -35t26 -22.5t26 -19.5t11.5 -27q0 -26 8.5 -66.5t8.5 -44.5q0 -13 35 -55t52 -42q10 0 11.5 22.5t-2 55t-3.5 38.5q2 31 14 75q7 26 24 44t34 25.5t33.5 19t22.5 26.5q9 32 10.5 54.5t-10.5 40t-25.5 28t-33.5 18t-34.5 11
t-29.5 6.5t-18 4q-17 6 -42 7t-36 -3t-28 11.5t-17 30.5q0 9 15 25.5t35.5 36.5t27.5 32q8 13 17 20t23 15.5t27 20.5q4 3 25 16.5t27 24.5zM366 -89q63 -20 129 -20q123 0 226 68q-12 22 -48.5 29.5t-70.5 4.5q-23 -2 -64 -18t-47 -17q-5 -1 -32.5 -8t-42.5 -8
q-12 -1 -26.5 -13.5t-23.5 -17.5z" />
    <glyph glyph-name="uniE894" unicode="&#xe894;" horiz-adv-x="1030" 
d="M776 443q99 0 169 -68.5t70 -165.5t-70 -165.5t-169 -68.5h-580q-75 0 -128 52t-53 125t53 125t128 52q7 0 21 -2q-3 18 -3 38q0 108 78 184t188 76q89 0 159.5 -52t95.5 -133q19 3 41 3z" />
    <glyph glyph-name="uniE895" unicode="&#xe895;" horiz-adv-x="430" 
d="M55 -150q-4 3 35 92.5t79 182t38 98.5t-94.5 45t-97.5 54q-4 12 84 120.5t179.5 210t96.5 97.5t-74.5 -186t-77.5 -188q1 -3 95 -42.5t97 -56.5q3 -20 -174 -226t-186 -201z" />
    <glyph glyph-name="uniE896" unicode="&#xe896;" horiz-adv-x="850" 
d="M538 188q105 105 124.5 252.5t-51.5 271.5q52 -29 96 -73q128 -128 128 -309.5t-128 -309.5t-310 -128t-310 128q-42 42 -72 96q124 -71 271 -52t252 124z" />
    <glyph glyph-name="uniE897" unicode="&#xe897;" horiz-adv-x="1030" 
d="M282 -170l125 400h-179l-113 -100h-100l80 170l-80 170h100l113 -100h179l-125 400h100l225 -400h258q6 0 16 -0.5t36 -4t46 -10.5t36 -21t16 -34q0 -31 -37.5 -48.5t-75.5 -19.5l-37 -2h-258l-225 -400h-100z" />
    <glyph glyph-name="uniE898" unicode="&#xe898;" horiz-adv-x="970" 
d="M251 592q158 92 438 72q160 -12 242 -45q34 -14 20 -22q-62 -33 -108 -84t-73.5 -104.5t-51.5 -106t-57 -102t-76 -79.5q-138 -96 -383 -5q-66 -76 -113 -176q-10 -15 -28.5 -13t-34.5 17t-10 28q43 101 129 193.5t177.5 153t176.5 106.5t140 67l55 20q-15 1 -41.5 0
t-103.5 -14.5t-149 -39.5t-163 -84.5t-160 -140.5q-25 243 174 359z" />
    <glyph glyph-name="uniE899" unicode="&#xe899;" horiz-adv-x="950" 
d="M469 760q94 1 179.5 -34.5t148 -96t100 -145t38.5 -178.5t-34.5 -179.5t-96 -148t-145 -100t-178.5 -38.5t-179.5 34.5t-148 96t-100 145t-38.5 178.5t34.5 179.5t96 148t145 100t178.5 38.5zM470 700q-96 -1 -180 -45l62 -103q58 28 123 28t123 -28l62 103
q-88 46 -190 45zM223 177q-28 58 -28 123t28 123l-103 62q-46 -88 -45 -190q1 -96 45 -180zM480 -100q96 1 180 45l-62 103q-58 -28 -123 -28t-123 28l-62 -103q88 -46 190 -45zM475 80q91 0 155.5 64t64.5 156t-64.5 156t-155.5 64t-155.5 -64t-64.5 -156t64.5 -156
t155.5 -64zM727 177l103 -62q46 88 45 190q-1 96 -45 180l-103 -62q28 -58 28 -123t-28 -123z" />
    <glyph glyph-name="uniE89A" unicode="&#xe89a;" horiz-adv-x="590" 
d="M565 81q28 -79 -17.5 -157.5t-137.5 -110.5q-94 -29 -175.5 7.5t-103.5 117.5l-107 385q-19 68 7 134t84 105l-96 187q-7 13 -2.5 27t17.5 21t26 2.5t20 -17.5l99 -192q80 21 154 -17t101 -115zM240 355q28 9 41 35t4 54t-34.5 41.5t-52.5 4.5t-40.5 -35t-4.5 -54
t34 -41.5t53 -4.5z" />
    <glyph glyph-name="uniE89B" unicode="&#xe89b;" horiz-adv-x="1030" 
d="M470 276v-100h-455q7 226 10 292q2 53 24.5 80.5t75.5 27.5h160q15 28 37 69.5t23 42.5q14 25 23 31.5t36 6.5h222q27 0 36 -6.5t23 -31.5q1 -1 23 -42.5t37 -69.5h160q53 0 75.5 -27.5t24.5 -80.5l10 -292h-455v100h-90zM398 630q-3 -6 -29 -54h292q-26 48 -29 54
q-8 17 -15 21.5t-25 4.5h-154q-18 0 -25 -4.5t-15 -21.5zM560 26v100h430q-6 -89 -10 -167q-1 -15 -4 -27t-11.5 -26t-27.5 -22t-47 -8h-750q-28 0 -47 8t-27.5 22t-11.5 26t-4 27l-10 167h430v-100h90z" />
    <glyph glyph-name="uniE89C" unicode="&#xe89c;" horiz-adv-x="250" 
d="M125 410q46 0 78 -32t32 -78t-32 -78t-78 -32t-78 32t-32 78t32 78t78 32z" />
    <glyph glyph-name="uniE89D" unicode="&#xe89d;" horiz-adv-x="600" 
d="M125 410q46 0 78 -32t32 -78t-32 -78t-78 -32t-78 32t-32 78t32 78t78 32zM475 410q46 0 78 -32t32 -78t-32 -78t-78 -32t-78 32t-32 78t32 78t78 32z" />
    <glyph glyph-name="uniE89E" unicode="&#xe89e;" horiz-adv-x="950" 
d="M125 410q46 0 78 -32t32 -78t-32 -78t-78 -32t-78 32t-32 78t32 78t78 32zM475 410q46 0 78 -32t32 -78t-32 -78t-78 -32t-78 32t-32 78t32 78t78 32zM825 410q46 0 78 -32t32 -78t-32 -78t-78 -32t-78 32t-32 78t32 78t78 32z" />
    <glyph glyph-name="uniE89F" unicode="&#xe89f;" horiz-adv-x="950" 
d="M571 760q151 0 257.5 -107t106.5 -257q0 -142 -96.5 -246t-236.5 -116q-34 -86 -111 -140t-172 -54q-125 0 -214.5 89t-89.5 214q0 95 54 172t140 111q11 141 115 237.5t247 96.5zM319 -59q55 0 101 27t73 73q-103 22 -178.5 97.5t-98.5 179.5q-46 -27 -73 -73.5
t-27 -101.5q0 -84 59.5 -143t143.5 -59zM322 346q15 -75 69.5 -129.5t129.5 -69.5q-1 82 -59 139.5t-140 59.5zM622 147q88 18 146 88t58 161q0 105 -75 180t-180 75q-91 0 -161 -58t-88 -146q124 -1 211 -88.5t89 -211.5zM119 544q-43 0 -73.5 30.5t-30.5 73.5t30.5 73
t73.5 30t73.5 -30t30.5 -73t-30.5 -73.5t-73.5 -30.5zM119 705q-24 0 -40.5 -16.5t-16.5 -40.5t16.5 -40.5t40.5 -16.5t40.5 16.5t16.5 40.5t-16.5 40.5t-40.5 16.5z" />
    <glyph glyph-name="uniE8A0" unicode="&#xe8a0;" horiz-adv-x="990" 
d="M489 780q130 2 241.5 -61t177 -173t67.5 -240t-61 -241.5t-173 -177t-240 -67.5t-241.5 61t-177 173t-67.5 240t61 241.5t173 177t240 67.5zM500 -79q157 2 266.5 114.5t107.5 269.5t-114.5 266.5t-269.5 107.5t-266.5 -114.5t-107.5 -269.5t114.5 -266.5t269.5 -107.5z
M316 300q0 -36 15.5 -58.5t46.5 -22.5q40 0 56 39l57 -29q-17 -32 -48.5 -52t-72.5 -20q-63 0 -100 38.5t-37 104.5q0 63 37.5 103t97.5 40q84 0 122 -67l-62 -32q-18 37 -50 37q-62 0 -62 -81zM581 300q0 -36 15.5 -58.5t46.5 -22.5q41 0 57 39l57 -29q-41 -72 -121 -72
q-63 0 -100 38.5t-37 104.5q0 63 37.5 103t97.5 40q84 0 121 -67l-60 -32q-18 37 -52 37q-62 0 -62 -81z" />
    <glyph glyph-name="uniE8A1" unicode="&#xe8a1;" horiz-adv-x="930" 
d="M465 750q95 0 161 -7.5t118.5 -28t83.5 -51.5t51.5 -83.5t28 -118.5t7.5 -161t-7.5 -161t-28 -118.5t-51.5 -83.5t-83.5 -51.5t-118.5 -28t-161 -7.5t-161 7.5t-118.5 28t-83.5 51.5t-51.5 83.5t-28 118.5t-7.5 161t7.5 161t28 118.5t51.5 83.5t83.5 51.5t118.5 28
t161 7.5z" />
    <glyph glyph-name="uniE8A2" unicode="&#xe8a2;" horiz-adv-x="930" 
d="M865 600q21 0 35.5 -14.5t14.5 -35.5v-200h-500v250h450zM15 50v200h300v-250h-260q-40 0 -40 50zM415 0v250h500v-200q0 -21 -14.5 -35.5t-35.5 -14.5h-450zM15 550q0 50 40 50h260v-250h-300v200z" />
    <glyph glyph-name="uniE8A3" unicode="&#xe8a3;" horiz-adv-x="755" 
d="M561 191q23 -41 22 -89t-26 -91q-40 -70 -114.5 -88t-151.5 25l-64 37l-107 -185l-57 33l207 358q-69 -10 -134 28l-121 70l187 324l121 -70q67 -39 92 -101l206 358l57 -33l-107 -185l64 -37q76 -44 97.5 -118t-18.5 -143q-53 -90 -153 -93zM605 493l-63 37l-125 -216
q-1 -1 -1 -2.5t-1 -2.5l63 -36q51 -29 99.5 -16.5t76.5 60.5t15 97.5t-64 78.5zM166 271q51 -29 99.5 -16t76.5 61t15 97t-64 78l-64 37l-127 -220zM321 0q51 -29 99.5 -16t76.5 61t15 97.5t-64 78.5l-63 36l-2 -2q-1 -1 -1 -2l-125 -216z" />
    <glyph glyph-name="uniE8A4" unicode="&#xe8a4;" horiz-adv-x="789" 
d="M3.5 699.5q10.5 24.5 35.5 24.5h710q27 0 37.5 -24.5t-8.5 -43.5l-314 -313v-330h128q16 0 28 -11.5t12 -27.5q0 -17 -12 -28.5t-28 -11.5h-395q-16 0 -27.5 11.5t-11.5 28.5q0 16 11.5 27.5t27.5 11.5h128v330l-313 313q-19 19 -8.5 43.5z" />
    <glyph glyph-name="uniE8A5" unicode="&#xe8a5;" horiz-adv-x="724" 
d="M0 52q0 25 11.5 47t31.5 37.5t47.5 25t57.5 9.5q14 0 26 -2t24 -5v408l526 152v-553q0 -24 -11.5 -45.5t-31.5 -38t-47.5 -26t-58 -9.5t-57 9.5t-46.5 26t-32 38t-12 45.5t12 45.5t32 37.5t46.5 25.5t57.5 9.5q25 0 49 -6v261l-328 -95v-397q0 -24 -11.5 -45.5
t-31.5 -37.5t-47.5 -25.5t-58 -9.5t-58 9.5t-47.5 25.5t-31.5 37.5t-11.5 45.5z" />
    <glyph glyph-name="uniE8A6" unicode="&#xe8a6;" horiz-adv-x="789" 
d="M0 394.5q0 68.5 26 128.5t70.5 104.5t104.5 70.5t128 26t128 -26t104.5 -70.5t70.5 -104.5t26 -129q0 -50 -14.5 -95.5t-40.5 -85.5l177 -176q9 -10 9 -24t-9 -23l-46 -46q-10 -10 -23.5 -10t-23.5 10l-176 177q-40 -27 -85.5 -41t-96.5 -14q-68 0 -128 25.5t-104.5 70.5
t-70.5 104.5t-26 128zM132 394q0 -41 15 -76.5t42 -62.5t63 -42.5t77.5 -15.5t77 15.5t62.5 42.5t42 62.5t15 76.5t-15 77t-42 63t-62.5 42.5t-77 15.5t-77.5 -15.5t-63 -42.5t-42 -63t-15 -77zM204 394q0 27 10 49.5t27 39t39.5 26.5t48.5 10q11 0 18 -7t7 -17.5t-7 -17.5
t-18 -7q-31 0 -53 -22t-22 -54q0 -10 -7 -17t-17.5 -7t-18 7t-7.5 17z" />
    <glyph glyph-name="uniE8A7" unicode="&#xe8a7;" horiz-adv-x="947" 
d="M0 -7v618v34v20q0 24 17.5 41.5t41.5 17.5h20h789h20q25 0 42 -17.5t17 -41.5v-20v-32v-620q0 -24 -17 -41.5t-42 -17.5h-829q-24 0 -41.5 17.5t-17.5 41.5zM79 13h789v438q-15 -16 -29 -25q-31 -22 -64.5 -48.5t-67.5 -51.5q-20 -15 -38 -29.5t-34 -26.5
q-3 -2 -6.5 -4.5t-7.5 -6.5q-15 -11 -31 -23t-35 -23t-39.5 -18t-42.5 -7q-21 0 -41.5 7t-39 18t-35.5 23t-31 23q-4 4 -7 6.5t-6 4.5q-16 12 -34.5 26.5t-38.5 29.5q-34 25 -67.5 51.5t-64.5 48.5q-13 9 -29 25v-438zM79 611q0 -15 6.5 -31.5t17.5 -33.5t24 -32t28 -25
q24 -18 51 -39l55 -40q27 -21 52.5 -41t46.5 -36l23 -18q15 -11 30 -21.5t30.5 -18.5t29.5 -8h1h1q13 0 28.5 8t30.5 18.5t30 21.5l23 18q21 16 46.5 36t52.5 41l55 40q27 21 52 39q13 10 27 25t25 32t17 33.5t6 31.5v34h-789v-34z" />
    <glyph glyph-name="uniE8A8" unicode="&#xe8a8;" horiz-adv-x="890" 
d="M0 481q0 67 21 113.5t55.5 75t77.5 41.5t87 13q32 0 62.5 -10.5t56.5 -26.5t47.5 -34.5t37.5 -34.5q16 16 37.5 34.5t48 34.5t57 26.5t61.5 10.5q45 0 88 -13t77 -41.5t55.5 -75t21.5 -113.5q0 -47 -17.5 -88.5t-38 -73t-39 -50.5t-19.5 -20l-304 -303q-12 -12 -28 -12
t-27 12l-305 303q-1 1 -19 20t-38.5 50.5t-38 73t-17.5 88.5z" />
    <glyph glyph-name="uniE8A9" unicode="&#xe8a9;" horiz-adv-x="890" 
d="M0 481q0 67 21.5 113.5t56 75t77.5 41.5t86 13q32 0 62.5 -10.5t56.5 -26.5t47.5 -34.5t37.5 -34.5q16 16 38 34.5t48.5 34.5t56.5 26.5t61 10.5q45 0 88 -13t77 -41.5t55.5 -75t21.5 -113.5q0 -47 -17.5 -88.5t-38 -73t-39 -50.5t-19.5 -20l-303 -303q-14 -12 -29 -12
q-16 0 -27 12l-305 303q-1 1 -19 20t-38.5 50.5t-38 73t-17.5 88.5zM79 481q0 -34 13.5 -65t30.5 -56t31 -39l14 -15l277 -277l277 276q1 1 15 15.5t30.5 39.5t30.5 56t14 65q0 50 -15 82t-38.5 50.5t-52.5 25t-57 6.5q-26 0 -53 -13t-50.5 -30.5t-42 -36t-27.5 -30.5
q-12 -14 -31 -14t-30 14q-10 12 -28.5 30.5t-42 36t-50.5 30.5t-53 13q-27 0 -56 -6.5t-53 -25t-38.5 -50.5t-14.5 -82z" />
    <glyph glyph-name="uniE8AA" unicode="&#xe8aa;" horiz-adv-x="828" 
d="M0.5 423.5q4.5 13.5 26.5 17.5l251 36l111 227q11 21 25 21t24 -21l113 -227l249 -36q23 -4 27.5 -17.5t-11.5 -29.5l-181 -177l42 -248q4 -23 -7.5 -31.5t-31.5 3.5l-224 116l-223 -116q-22 -12 -33.5 -3.5t-6.5 31.5l43 248l-181 177q-17 16 -12.5 29.5z" />
    <glyph glyph-name="uniE8AB" unicode="&#xe8ab;" horiz-adv-x="828" 
d="M0.5 423.5q4.5 13.5 26.5 17.5l251 35l111 228q10 20 24.5 20t24.5 -20l113 -228l249 -35q23 -4 27.5 -17.5t-11.5 -29.5l-181 -177l42 -248q3 -17 -2.5 -26t-16.5 -9q-7 0 -20 5l-224 118l-223 -118q-13 -5 -20 -5q-12 0 -17.5 9t-2.5 26l43 248l-181 177
q-17 16 -12.5 29.5zM143 377l105 -103l31 -28l-7 -41l-26 -147l131 70l37 19l37 -19l130 -70l-24 147l-8 41l30 28l106 103l-146 21l-41 7l-19 37l-65 132l-66 -132l-17 -37l-42 -7z" />
    <glyph glyph-name="uniE8AC" unicode="&#xe8ac;" horiz-adv-x="413" 
d="M0.5 423.5q4.5 13.5 26.5 17.5l251 35l111 228q10 20 25 20v-667l-223 -118q-22 -10 -33.5 -1.5t-6.5 31.5l43 248l-181 177q-17 16 -12.5 29.5z" />
    <glyph glyph-name="uniE8AD" unicode="&#xe8ad;" horiz-adv-x="947" 
d="M0 -30v7q12 20 20.5 42.5t18 44.5t21 42t26.5 36q8 7 17 14t20.5 11t24.5 5t27 3q39 7 81.5 13.5t82.5 13.5q4 17 7 35.5t9 35.5q-9 12 -17.5 23t-16 24t-14 30t-9.5 39q-2 12 -5.5 34.5t-6.5 46t-5.5 43t-2.5 23.5q0 27 11 59.5t34.5 61t61 48t89 19.5t89 -19.5t61 -48
t34.5 -61t11 -59.5q0 -4 -2.5 -23.5t-5.5 -43t-6 -46t-6 -34.5q-3 -22 -9 -39t-14 -30t-17 -24t-16 -23q5 -17 8 -35.5t7 -35.5q40 -7 83 -13.5t82 -13.5q13 -2 26.5 -3t25 -5t20.5 -11t16 -14q16 -16 27 -36t20.5 -42t18.5 -44.5t20 -42.5v-7q-14 -8 -27.5 -19.5
t-32.5 -16.5h-827q-19 5 -32 16.5t-28 19.5z" />
    <glyph glyph-name="uniE8AE" unicode="&#xe8ae;" horiz-adv-x="947" 
d="M0 -7v672q0 24 17.5 41.5t41.5 17.5h829q25 0 42 -17.5t17 -41.5v-672q0 -24 -17 -41.5t-42 -17.5h-829q-24 0 -41.5 17.5t-17.5 41.5zM59 13q0 -8 6 -14t14 -6h79q8 0 14 6t6 14v79q0 9 -6 14.5t-14 5.5h-79q-8 0 -14 -5.5t-6 -14.5v-79zM59 197q0 -8 6 -14t14 -6h79
q8 0 14 6t6 14v79q0 9 -6 14.5t-14 5.5h-79q-8 0 -14 -5.5t-6 -14.5v-79zM59 382q0 -9 6 -14.5t14 -5.5h79q8 0 14 5.5t6 14.5v79q0 8 -6 14t-14 6h-79q-8 0 -14 -6t-6 -14v-79zM59 566q0 -9 6 -14.5t14 -5.5h79q8 0 14 5.5t6 14.5v79q0 8 -6 14t-14 6h-79q-8 0 -14 -6
t-6 -14v-79zM237 13q0 -8 5.5 -14t14.5 -6h434q8 0 14 6t6 14v263q0 9 -6 14.5t-14 5.5h-434q-9 0 -14.5 -5.5t-5.5 -14.5v-263zM237 382q0 -9 5.5 -14.5t14.5 -5.5h434q8 0 14 5.5t6 14.5v263q0 8 -6 14t-14 6h-434q-9 0 -14.5 -6t-5.5 -14v-263zM769 13q0 -8 6 -14t14 -6
h79q9 0 14.5 6t5.5 14v79q0 9 -5.5 14.5t-14.5 5.5h-79q-8 0 -14 -5.5t-6 -14.5v-79zM769 197q0 -8 6 -14t14 -6h79q9 0 14.5 6t5.5 14v79q0 9 -5.5 14.5t-14.5 5.5h-79q-8 0 -14 -5.5t-6 -14.5v-79zM769 382q0 -9 6 -14.5t14 -5.5h79q9 0 14.5 5.5t5.5 14.5v79q0 8 -5.5 14
t-14.5 6h-79q-8 0 -14 -6t-6 -14v-79zM769 566q0 -9 6 -14.5t14 -5.5h79q9 0 14.5 5.5t5.5 14.5v79q0 8 -5.5 14t-14.5 6h-79q-8 0 -14 -6t-6 -14v-79z" />
    <glyph glyph-name="uniE8AF" unicode="&#xe8af;" horiz-adv-x="947" 
d="M-2 53v553q0 24 9.5 45.5t25.5 37.5t38 25.5t46 9.5h395q24 0 45.5 -9.5t38 -25.5t26 -37.5t9.5 -45.5v-178l264 286q9 10 21 10q5 0 11 -2q19 -9 19 -30v-726q0 -21 -19 -30q-18 -7 -32 8l-264 286v-177q0 -24 -9.5 -45.5t-26 -38t-38 -26t-45.5 -9.5h-395
q-24 0 -46 9.5t-38 26t-25.5 38t-9.5 45.5z" />
    <glyph glyph-name="uniE8B0" unicode="&#xe8b0;" horiz-adv-x="947" 
d="M0 -7v672q0 24 17.5 41.5t41.5 17.5h829q25 0 42 -17.5t17 -41.5v-672q0 -24 -17 -41.5t-42 -17.5h-829q-24 0 -41.5 17.5t-17.5 41.5zM79 13h789v632h-789v-632zM158 92v54l142 185l97 -80l182 276l210 -218v-217h-631zM158 486q0 33 23 56.5t57 23.5q33 0 56 -23.5
t23 -56.5t-23 -56t-56 -23q-34 0 -57 23t-23 56z" />
    <glyph glyph-name="uniE8B1" unicode="&#xe8b1;" horiz-adv-x="947" 
d="M0 -7v553q0 24 17.5 42t41.5 18h188l30 64q9 22 34 38t49 16h227q25 0 49.5 -16t34.5 -38l29 -64h188q25 0 42 -18t17 -42v-553q0 -24 -17 -41.5t-42 -17.5h-829q-24 0 -41.5 17.5t-17.5 41.5zM227 270q0 -52 19.5 -96.5t53 -78t78.5 -53t95.5 -19.5t96 19.5t78.5 53
t52.5 78t19.5 96.5q0 51 -19.5 96t-52.5 78t-78.5 52.5t-96 19.5t-95.5 -19.5t-78.5 -52.5t-53 -78t-19.5 -96zM306 270q0 35 13.5 65.5t36 53t53 35.5t65 13t65 -13t53.5 -35.5t36 -53t13 -65.5t-13 -65.5t-36 -53.5t-53.5 -36t-65 -13t-65 13t-53 36t-36 53.5t-13.5 65.5z
" />
    <glyph glyph-name="uniE8B2" unicode="&#xe8b2;" horiz-adv-x="947" 
d="M0 -7v672q0 24 17.5 41.5t41.5 17.5h829q25 0 42 -17.5t17 -41.5v-672q0 -24 -17 -41.5t-42 -17.5h-829q-24 0 -41.5 17.5t-17.5 41.5zM79 16h789v59h-789v-59zM79 523h789v119h-491l-8 -48h-290v-71zM137 624h162v47h-162v-47zM286 298q0 -39 15 -73t40 -59t59.5 -40
t73.5 -15t73 15t59.5 40t40 59t14.5 73t-14.5 73.5t-40 59.5t-59.5 40t-73 15t-73.5 -15t-59.5 -40t-40 -59.5t-15 -73.5zM345 298.5q0 26.5 10 50t27.5 41t41 27.5t50 10t50 -10t41 -27.5t27.5 -41t10 -50t-10 -50t-27.5 -41t-41 -27.5t-50 -10t-50 10t-41 27.5t-27.5 41
t-10 50zM382 298q0 -8 6.5 -14.5t14.5 -6.5q10 0 16 6.5t6 14.5q0 21 14.5 35t34.5 14v1q9 0 15.5 6.5t6.5 14.5q0 9 -6.5 15.5t-15.5 6.5q-38 0 -65 -27.5t-27 -65.5z" />
    <glyph glyph-name="uniE8B3" unicode="&#xe8b3;" horiz-adv-x="947" 
d="M0 -26v276q0 17 11.5 28.5t28.5 11.5h355q17 0 28.5 -11.5t11.5 -28.5v-276q0 -17 -11.5 -28.5t-28.5 -11.5h-355q-17 0 -28.5 11.5t-11.5 28.5zM0 408v277q0 16 11.5 27.5t28.5 11.5h355q17 0 28.5 -11.5t11.5 -27.5v-277q0 -17 -11.5 -28t-28.5 -11h-355
q-17 0 -28.5 11t-11.5 28zM514 -26v276q0 17 11 28.5t28 11.5h355q16 0 27.5 -11.5t11.5 -28.5v-276q0 -17 -11.5 -28.5t-27.5 -11.5h-355q-17 0 -28 11.5t-11 28.5zM514 408v277q0 16 11 27.5t28 11.5h355q16 0 27.5 -11.5t11.5 -27.5v-277q0 -17 -11.5 -28t-27.5 -11h-355
q-17 0 -28 11t-11 28z" />
    <glyph glyph-name="uniE8B4" unicode="&#xe8b4;" horiz-adv-x="947" 
d="M0 -26v139q0 17 11.5 28t28.5 11h184q16 0 27.5 -11t11.5 -28v-139q0 -17 -11.5 -28.5t-27.5 -11.5h-184q-17 0 -28.5 11.5t-11.5 28.5zM0 271v116q0 17 11.5 28t28.5 11h184q16 0 27.5 -11t11.5 -28v-116q0 -17 -11.5 -28.5t-27.5 -11.5h-184q-17 0 -28.5 11.5
t-11.5 28.5zM0 545v140q0 16 11.5 27.5t28.5 11.5h184q16 0 27.5 -11.5t11.5 -27.5v-140q0 -17 -11.5 -28.5t-27.5 -11.5h-184q-17 0 -28.5 11.5t-11.5 28.5zM342 -26v139q0 17 11.5 28t28.5 11h184q16 0 27.5 -11t11.5 -28v-139q0 -17 -11.5 -28.5t-27.5 -11.5h-184
q-17 0 -28.5 11.5t-11.5 28.5zM342 271v116q0 17 11.5 28t28.5 11h184q16 0 27.5 -11t11.5 -28v-116q0 -17 -11.5 -28.5t-27.5 -11.5h-184q-17 0 -28.5 11.5t-11.5 28.5zM342 545v140q0 16 11.5 27.5t28.5 11.5h184q16 0 27.5 -11.5t11.5 -27.5v-140q0 -17 -11.5 -28.5
t-27.5 -11.5h-184q-17 0 -28.5 11.5t-11.5 28.5zM684 -26v139q0 17 11.5 28t28.5 11h184q16 0 27.5 -11t11.5 -28v-139q0 -17 -11.5 -28.5t-27.5 -11.5h-184q-17 0 -28.5 11.5t-11.5 28.5zM684 271v116q0 17 11.5 28t28.5 11h184q16 0 27.5 -11t11.5 -28v-116
q0 -17 -11.5 -28.5t-27.5 -11.5h-184q-17 0 -28.5 11.5t-11.5 28.5zM684 545v140q0 16 11.5 27.5t28.5 11.5h184q16 0 27.5 -11.5t11.5 -27.5v-140q0 -17 -11.5 -28.5t-27.5 -11.5h-184q-17 0 -28.5 11.5t-11.5 28.5z" />
    <glyph glyph-name="uniE8B5" unicode="&#xe8b5;" horiz-adv-x="947" 
d="M0 -26v139q0 17 11.5 28t28.5 11h153q15 0 27 -11t12 -28v-139q0 -17 -12 -28.5t-27 -11.5h-153q-17 0 -28.5 11.5t-11.5 28.5zM0 271v116q0 17 11.5 28t28.5 11h153q15 0 27 -11t12 -28v-116q0 -17 -12 -28.5t-27 -11.5h-153q-17 0 -28.5 11.5t-11.5 28.5zM0 545v140
q0 16 11.5 27.5t28.5 11.5h153q15 0 27 -11.5t12 -27.5v-140q0 -17 -12 -28.5t-27 -11.5h-153q-17 0 -28.5 11.5t-11.5 28.5zM311 -26v139q0 17 11.5 28t28.5 11h557q16 0 27.5 -11t11.5 -28v-139q0 -17 -11.5 -28.5t-27.5 -11.5h-557q-17 0 -28.5 11.5t-11.5 28.5zM311 271
v116q0 17 11.5 28t28.5 11h557q16 0 27.5 -11t11.5 -28v-116q0 -17 -11.5 -28.5t-27.5 -11.5h-557q-17 0 -28.5 11.5t-11.5 28.5zM311 545v140q0 16 11.5 27.5t28.5 11.5h557q16 0 27.5 -11.5t11.5 -27.5v-140q0 -17 -11.5 -28.5t-27.5 -11.5h-557q-17 0 -28.5 11.5
t-11.5 28.5z" />
    <glyph glyph-name="uniE8B6" unicode="&#xe8b6;" horiz-adv-x="947" 
d="M0 263.5q0 17.5 12 28.5l89 90q12 11 29 11t29 -11l187 -188q12 -11 29.5 -11t28.5 11l383 383q12 12 29.5 12t28.5 -12l90 -89q11 -12 11 -29t-11 -29l-468 -467q-11 -12 -31.5 -20.5t-37.5 -8.5h-45q-18 0 -38.5 8.5t-32.5 20.5l-270 271q-12 12 -12 29.5z" />
    <glyph glyph-name="uniE8B7" unicode="&#xe8b7;" horiz-adv-x="789" 
d="M0 329q0 82 31 153.5t84.5 125.5t125.5 85t154 31t153.5 -31t125 -85t84.5 -125.5t31 -153.5t-31 -153.5t-84.5 -125.5t-125 -85t-153.5 -31t-154 31t-125.5 85t-84.5 125.5t-31 153.5zM118 304q0 -10 7 -17l158 -158q8 -6 19.5 -11.5t21.5 -5.5h27q10 0 21.5 5.5
t19.5 11.5l272 273q8 7 8 17t-8 16l-52 53q-7 7 -17 7t-17 -7l-223 -224q-8 -8 -18 -8t-16 8l-109 109q-8 8 -18 8t-16 -8l-53 -51q-7 -8 -7 -18z" />
    <glyph glyph-name="uniE8B8" unicode="&#xe8b8;" horiz-adv-x="789" 
d="M0 329q0 82 31 153.5t84.5 125.5t125.5 85t154 31t153.5 -31t125 -85t84.5 -125.5t31 -153.5t-31 -153.5t-84.5 -125.5t-125 -85t-153.5 -31t-154 31t-125.5 85t-84.5 125.5t-31 153.5zM119 329q0 -57 21.5 -107.5t59 -88t88 -59t107.5 -21.5t107.5 21.5t88 59t59.5 88
t22 107.5t-22 107.5t-59.5 88.5t-88 59.5t-107.5 21.5t-107.5 -21.5t-88 -59.5t-59 -88.5t-21.5 -107.5zM164 304.5q0 8.5 5 13.5l56 56q6 5 14 5t15 -5l87 -88q14 -13 28 0l167 167q6 5 14.5 5t13.5 -5l56 -56q5 -5 5 -13.5t-5 -14.5l-202 -202q-6 -5 -15.5 -9.5
t-18.5 -4.5h-58q-8 0 -17.5 4.5t-15.5 9.5l-124 123q-5 6 -5 14.5z" />
    <glyph glyph-name="uniE8B9" unicode="&#xe8b9;" horiz-adv-x="789" 
d="M0 33q0 20 15 35l261 262l-261 257q-15 15 -15 35t15 34l51 52q15 15 35 15t35 -15l259 -259l259 259q14 15 34 15t35 -15l52 -52q14 -14 14 -34t-14 -35l-261 -262l261 -257q14 -15 14 -34.5t-14 -34.5l-52 -52q-15 -15 -35 -15t-34 15l-259 260l-260 -260
q-15 -15 -34.5 -15t-34.5 15l-51 51q-15 15 -15 35z" />
    <glyph glyph-name="uniE8BA" unicode="&#xe8ba;" horiz-adv-x="789" 
d="M0 330q0 76 29 148.5t87 130.5t130.5 86.5t148.5 28.5t148.5 -28.5t130.5 -86.5t86.5 -130.5t28.5 -148.5t-28.5 -148.5t-86.5 -130.5t-130.5 -87t-148.5 -29t-148.5 29t-130.5 87t-87 130.5t-29 148.5zM195 187l58 -57q5 -5 11.5 -5t11.5 5l120 120l108 -109
q5 -6 11.5 -6t11.5 6l56 55q12 12 0 23l-109 109l121 121q11 12 0 23l-58 58q-12 12 -23 0l-120 -121l-110 109q-11 12 -23 0l-55 -55q-5 -6 -5 -12t5 -12l109 -108l-120 -121q-11 -11 0 -23z" />
    <glyph glyph-name="uniE8BB" unicode="&#xe8bb;" horiz-adv-x="789" 
d="M0 329q0 82 31 153.5t84.5 125.5t125.5 85t154 31t153.5 -31t125 -85t84.5 -125.5t31 -153.5t-31 -153.5t-84.5 -125.5t-125 -85t-153.5 -31t-154 31t-125.5 85t-84.5 125.5t-31 153.5zM119 329q0 -57 21.5 -107.5t59 -88t88 -59t107.5 -21.5t107.5 21.5t88 59t59.5 88
t22 107.5t-22 107.5t-59.5 88.5t-88 59.5t-107.5 21.5t-107.5 -21.5t-88 -59.5t-59 -88.5t-21.5 -107.5zM223 424.5q0 8.5 5 14.5l56 56q7 6 15 6t14 -6l82 -82l82 82q6 6 14.5 6t13.5 -6l56 -56q5 -6 5 -14.5t-5 -13.5l-82 -82l82 -82q13 -15 0 -29l-56 -55q-14 -13 -28 0
l-82 82l-82 -82q-6 -6 -14 -6t-15 6l-56 55q-12 14 0 29l84 82l-84 82q-5 5 -5 13.5z" />
    <glyph glyph-name="uniE8BC" unicode="&#xe8bc;" horiz-adv-x="789" 
d="M0 292v74q0 20 14 34t34 14h261v260q0 21 14 35.5t35 14.5h74q20 0 34 -14.5t14 -34.5v-261h261q20 0 34 -14t14 -34v-74q0 -20 -14 -34t-34 -14h-261v-260q0 -21 -14 -35.5t-34 -14.5h-74q-20 0 -34.5 14.5t-14.5 34.5v261h-260q-21 0 -35 13.5t-14 34.5z" />
    <glyph glyph-name="uniE8BD" unicode="&#xe8bd;" horiz-adv-x="789" 
d="M0 329q0 82 31 153.5t84.5 125.5t125.5 85t154 31t153.5 -31t125 -85t84.5 -125.5t31 -153.5t-31 -153.5t-84.5 -125.5t-125 -85t-153.5 -31t-154 31t-125.5 85t-84.5 125.5t-31 153.5zM167 290q0 -7 5 -12t11 -5h155v-169q0 -8 4.5 -12.5t11.5 -4.5h82q6 0 11 4.5
t5 12.5v169h154q7 0 11.5 5t4.5 12v78q0 6 -4.5 11t-11.5 5h-154v170q0 8 -5 12.5t-11 4.5h-82q-7 0 -11.5 -4.5t-4.5 -12.5v-170h-155q-6 0 -11 -5t-5 -11v-78z" />
    <glyph glyph-name="uniE8BE" unicode="&#xe8be;" horiz-adv-x="789" 
d="M0 292v74q0 20 14 34t34 14h693q20 0 34 -14t14 -34v-74q0 -20 -14 -34t-34 -14h-692q-21 0 -35 13.5t-14 34.5z" />
    <glyph glyph-name="uniE8BF" unicode="&#xe8bf;" horiz-adv-x="789" 
d="M0 329q0 82 31 153.5t84.5 125.5t125.5 85t154 31t153.5 -31t125 -85t84.5 -125.5t31 -153.5t-31 -153.5t-84.5 -125.5t-125 -85t-153.5 -31t-154 31t-125.5 85t-84.5 125.5t-31 153.5zM167 290q0 -7 5 -12t11 -5h423q7 0 11.5 5t4.5 12v78q0 6 -4.5 11t-11.5 5h-423
q-6 0 -11 -5t-5 -11v-78z" />
    <glyph glyph-name="uniE8C0" unicode="&#xe8c0;" horiz-adv-x="789" 
d="M0 329q0 82 31 153.5t84.5 125.5t125.5 85t154 31t153.5 -31t125 -85t84.5 -125.5t31 -153.5t-31 -153.5t-84.5 -125.5t-125 -85t-153.5 -31t-154 31t-125.5 85t-84.5 125.5t-31 153.5zM263 493l46 -58q7 -4 11 -5q6 0 11 4q8 7 18 12q9 4 20 7.5t23 3.5q21 0 34.5 -11
t13.5 -28t-12 -31.5t-30 -30.5q-12 -9 -23.5 -20t-21 -25.5t-15.5 -31.5t-6 -40v-31q0 -5 4.5 -10t9.5 -5h81q7 0 11 5t4 10v26q0 19 12.5 33t30.5 29q13 11 25.5 23t22.5 28t17 35t7 44q0 33 -14 59.5t-36.5 44t-51 26.5t-56.5 9q-32 0 -56.5 -8t-42 -17.5t-26.5 -18
t-10 -9.5q-9 -9 -1 -19zM332 73q0 -5 4.5 -10t9.5 -5h81q7 0 11 5t4 10v78q0 15 -15 15h-81q-5 0 -9.5 -4.5t-4.5 -10.5v-78z" />
    <glyph glyph-name="uniE8C1" unicode="&#xe8c1;" horiz-adv-x="789" 
d="M0 329q0 82 31 153.5t84.5 125.5t125.5 85t154 31t153.5 -31t125 -85t84.5 -125.5t31 -153.5t-31 -153.5t-84.5 -125.5t-125 -85t-153.5 -31t-154 31t-125.5 85t-84.5 125.5t-31 153.5zM283 374q0 -15 15 -15h42v-202h-39q-5 0 -10 -4.5t-5 -9.5v-70q0 -5 5 -10t10 -5
h199q5 0 10 5t5 10v70q0 5 -5 9.5t-10 4.5h-38v286q0 6 -4.5 10t-10.5 4h-149q-15 0 -15 -14v-69zM339 518q0 -6 4.5 -10.5t11.5 -4.5h92q6 0 10.5 4.5t4.5 10.5v81q0 7 -4.5 11t-10.5 4h-92q-7 0 -11.5 -4t-4.5 -11v-81z" />
    <glyph glyph-name="uniE8C2" unicode="&#xe8c2;" horiz-adv-x="947" 
d="M1 339q3 12 14 20l433 356q12 9 25.5 9t25.5 -9l133 -109v61q0 20 20 20h117q20 0 20 -20v-190l144 -118q10 -8 13 -20t-1 -24q-10 -25 -38 -25h-79v-316q0 -17 -11 -28.5t-28 -11.5h-216v237h-198v-237h-217q-17 0 -28.5 11.5t-11.5 28.5v316h-79q-26 0 -37 25
q-4 12 -1 24z" />
    <glyph glyph-name="uniE8C3" unicode="&#xe8c3;" horiz-adv-x="947" 
d="M0 92v474q0 32 12.5 61t33.5 50t50 34t62 13h299q-1 -8 -2 -14.5t-1 -15.5v-45q0 -12 3 -24h-299q-24 0 -41.5 -17.5t-17.5 -41.5v-474q0 -24 17.5 -41.5t41.5 -17.5h553q24 0 41 17.5t17 41.5v175q22 -16 47 -25.5t52 -10.5v-139q0 -33 -12.5 -61t-34 -50t-50 -34.5
t-60.5 -12.5h-553q-33 0 -62 12.5t-50 34.5t-33.5 50t-12.5 61zM356 202.5q0 12.5 8 21.5l396 397h-138q-13 0 -21 8t-8 21v44q-1 12 7.5 21t21.5 9h296q11 0 20 -9t9 -21v-44v-252q0 -12 -9 -21t-20 -8h-44q-13 0 -21.5 8.5t-8.5 20.5v138l-397 -395q-8 -9 -20.5 -9
t-21.5 9l-41 41q-8 8 -8 20.5z" />
    <glyph glyph-name="uniE8C4" unicode="&#xe8c4;" horiz-adv-x="789" 
d="M0 -7v316q0 24 17.5 42t41.5 18h60v89q0 55 21.5 103.5t59 84.5t88 57t107.5 21t107.5 -21t88 -57t59.5 -84.5t22 -103.5v-89h59q24 0 41 -18t17 -42v-316q0 -24 -17 -41.5t-41 -17.5h-672q-24 0 -41.5 17.5t-17.5 41.5zM237 369h316v89q0 31 -13 58t-34 47t-50 31.5
t-61.5 11.5t-61.5 -11.5t-50 -31.5t-33.5 -47t-12.5 -58v-89z" />
    <glyph glyph-name="uniE8C5" unicode="&#xe8c5;" horiz-adv-x="947" 
d="M1 419q4 40 22 85t49.5 87t69 72t75.5 45.5t72 15t59 -19.5q27 -19 37 -52.5t6 -74.5l148 -110q55 30 107 35t89 -23q26 -20 39 -53t12 -74t-15 -88t-42 -93l212 -203q5 -5 6 -12.5t-4 -12.5q-5 -9 -16 -9q-3 0 -9 2l-255 146q-37 -39 -77.5 -66.5t-79.5 -40t-74.5 -10
t-63.5 23.5q-36 27 -46.5 78t3.5 112l-148 112q-38 -16 -73 -16t-61 19q-25 19 -35.5 52t-6.5 73zM84 374q1 -8 9 -13q8 -8 23 -8q16 0 33 8.5t35 23t35.5 33t33.5 39.5q5 7 4 14.5t-9 13.5q-6 5 -14 4t-13 -8q-39 -52 -69 -71.5t-36 -17.5q-7 5 -14.5 4t-13.5 -8
q-5 -6 -4 -14zM231 322l178 -134q7 -4 12 -4q11 0 16 8q5 6 4 14t-7 13l-172 128q-16 -15 -31 -25zM414 83q-11 -17 4 -29q14 -10 35 -10q20 0 43 10.5t46.5 28.5t47 41t43.5 49q5 8 4 15.5t-9 13.5q-6 5 -14 3.5t-13 -8.5q-25 -33 -50.5 -57t-47.5 -37.5t-38.5 -17.5
t-23.5 2q-6 5 -14 3.5t-13 -7.5z" />
    <glyph glyph-name="uniE8C6" unicode="&#xe8c6;" horiz-adv-x="947" 
d="M0 305.5q0 22.5 13 42.5q40 64 91.5 115t111 86.5t124.5 54t134 18.5t134.5 -18.5t124.5 -53.5t110.5 -86t92.5 -116q11 -20 11 -42.5t-11 -41.5q-41 -66 -92.5 -117t-110.5 -85.5t-124.5 -53t-134.5 -18.5t-134 18.5t-124.5 53.5t-111 86t-91.5 116q-13 19 -13 41.5z
M79 306q34 -54 77 -98t93.5 -74.5t107 -47.5t117.5 -17t117 17t106.5 47.5t94 74.5t76.5 98q-41 66 -96 116t-121 81q26 -31 40.5 -69t14.5 -82q0 -49 -18.5 -92t-51 -75.5t-75.5 -51t-92 -18.5t-91.5 18.5t-75.5 51t-51 75.5t-18 92q0 40 13 76.5t35 65.5
q-60 -30 -111.5 -78t-90.5 -110zM316 352q0 -11 8.5 -20t21 -9t21 9t8.5 20q0 40 27 67.5t67 27.5q13 0 21.5 9t8.5 20q0 13 -8.5 21.5t-21.5 8.5q-31 0 -59.5 -12t-49 -32.5t-32.5 -49t-12 -60.5z" />
    <glyph glyph-name="uniE8C7" unicode="&#xe8c7;" horiz-adv-x="947" 
d="M0 328.5q0 22.5 13 42.5q40 64 91.5 115t111 86.5t124.5 54t134 18.5q27 0 54 -4t53 -9l45 81q5 8 13 10q6 3 15 -1l68 -39q7 -5 10 -12.5t-1 -15.5l-398 -710q-4 -8 -12 -10q-2 -1 -5 -1t-10 2l-69 39q-8 4 -10 12t2 16l34 59q-75 34 -138.5 91t-111.5 134
q-13 19 -13 41.5zM79 329q42 -67 98.5 -117.5t123.5 -81.5l30 54q-45 32 -71.5 81.5t-26.5 109.5q0 40 13 76.5t35 66.5q-60 -31 -111.5 -78.5t-90.5 -110.5zM316 375q0 -11 8.5 -20t21 -9t21 9t8.5 20q0 40 27 67.5t67 27.5q13 0 21.5 9t8.5 20q0 13 -8.5 21.5t-21.5 8.5
q-31 0 -59.5 -12t-49 -32.5t-32.5 -49t-12 -60.5zM477 13l45 82q107 13 196 74.5t150 159.5q-55 87 -134 145l39 71q47 -34 88 -77t75 -97q11 -20 11 -42.5t-11 -41.5q-82 -131 -201.5 -202t-257.5 -72zM556 155l146 262q2 -10 3 -20t1 -22q0 -38 -11 -72t-31 -62.5
t-48 -50.5t-60 -35z" />
    <glyph glyph-name="uniE8C8" unicode="&#xe8c8;" horiz-adv-x="789" 
d="M0 433v230q0 25 18 43t43 18h230q25 0 55.5 -13t48.5 -30l377 -377q17 -18 17 -43.5t-17 -43.5l-266 -265q-18 -18 -43 -18t-43 18l-377 377q-18 18 -30.5 48.5t-12.5 55.5zM99 566q0 -24 17.5 -41.5t41.5 -17.5t41.5 17.5t17.5 41.5t-17.5 41.5t-41.5 17.5t-41.5 -17.5
t-17.5 -41.5z" />
    <glyph glyph-name="uniE8C9" unicode="&#xe8c9;" horiz-adv-x="945" 
d="M0 434v229q0 25 18 43t43 18h228q26 0 57 -12.5t48 -30.5l338 -377q16 -18 16.5 -43.5t-16.5 -43.5l-266 -264q-18 -18 -43 -18.5t-43 18.5l-337 377q-17 19 -30 49t-13 55zM99 566q0 -24 17.5 -41.5t41.5 -17.5t41.5 17.5t17.5 41.5t-17.5 41.5t-41.5 17.5t-41.5 -17.5
t-17.5 -41.5zM399 723h87q26 0 57 -13t48 -31l337 -376q17 -19 17.5 -44t-17.5 -43l-265 -264q-18 -18 -43 -18.5t-43 18.5l-6 7l258 258q18 18 17.5 43.5t-17.5 43.5l-336 377q-16 16 -43 28t-51 14z" />
    <glyph glyph-name="uniE8CA" unicode="&#xe8ca;" horiz-adv-x="631" 
d="M0 -9v675q0 18 9.5 32t26.5 21q5 3 10.5 4t11.5 1h516q5 0 11 -1t11 -4q17 -7 26.5 -21t9.5 -32v-675q0 -18 -9.5 -32t-26.5 -21q-16 -7 -33.5 -3.5t-28.5 16.5l-218 218l-218 -218q-12 -13 -29 -16.5t-33 3.5q-17 8 -26.5 21.5t-9.5 31.5z" />
    <glyph glyph-name="uniE8CB" unicode="&#xe8cb;" horiz-adv-x="947" 
d="M0 645q0 32 23 55.5t56 23.5t56 -23.5t23 -55.5q0 -21 -10.5 -38.5t-28.5 -29.5v-623q0 -8 -6 -14t-14 -6h-40q-8 0 -13.5 6t-5.5 14v623q-18 12 -29 29.5t-11 38.5zM158 148v383q0 17 10 34t25 25q53 28 96.5 44t73.5 23q36 9 64 10q35 0 64 -6t55.5 -15.5t51 -22
t50.5 -26.5q33 -14 75 -16q36 -3 84.5 7t106.5 45q14 9 23.5 3.5t9.5 -22.5v-384q0 -16 -9.5 -33.5t-23.5 -25.5q-58 -35 -106.5 -45t-84.5 -8q-42 3 -75 17q-26 14 -50.5 26.5t-51 22t-55.5 15.5t-64 6q-28 -1 -64 -10q-30 -7 -73.5 -23t-96.5 -45q-15 -9 -25 -2.5
t-10 23.5z" />
    <glyph glyph-name="uniE8CC" unicode="&#xe8cc;" horiz-adv-x="824" 
d="M0.5 168q-1.5 59 2 118t13.5 110q47 3 98.5 3t94.5 -10q7 -40 11 -96t5.5 -116t0.5 -116.5t-5 -98.5q-19 -3 -43.5 -3.5t-51.5 1t-53 2t-47 0.5q-10 40 -17 93.5t-8.5 112.5zM96 41q0 -17 11.5 -28.5t28.5 -11.5t28 11.5t11 28.5q0 15 -11 26.5t-28 11.5t-28.5 -11.5
t-11.5 -26.5zM253 368q23 10 37 20t25.5 22.5t24 27.5t32.5 36q16 17 29.5 28t24.5 21t20 21t18 27q17 31 22.5 68.5t13.5 71.5q0 7 7 12q20 3 37 -4t29.5 -18.5t20.5 -27.5t11 -29q7 -35 -1 -63t-20 -53t-23.5 -49t-12.5 -50q23 -10 55 -10.5t66.5 1.5t67 2t55 -9t30 -30.5
t-5.5 -63.5q0 -2 -2.5 -5.5t-5.5 -8t-5 -9.5l-2 -3q12 -11 17 -24t5 -21q1 -41 -34 -72q11 -15 12 -32.5t-4 -33.5t-15 -28t-23 -18q6 -36 -6.5 -61.5t-37 -40.5t-59.5 -21.5t-73 -6.5t-76.5 5.5t-70.5 14.5q-21 7 -41 15t-40.5 15.5t-43.5 12t-48 -0.5q2 41 2.5 89.5
t-1 98.5t-4.5 97.5t-7 86.5z" />
    <glyph glyph-name="uniE8CD" unicode="&#xe8cd;" horiz-adv-x="824" 
d="M1 410q-1 22 8 39.5t26 32.5q-10 15 -11 32.5t4 33.5t15 28t22 18q-6 36 6.5 61.5t37.5 40.5t59.5 21.5t72.5 6.5t76.5 -5.5t70.5 -14.5q21 -7 41 -15t41 -15.5t43.5 -11.5t47.5 1q-2 -41 -2.5 -90t1 -99t4 -97.5t8.5 -86.5q-24 -11 -38 -21t-25 -22t-23.5 -27t-32.5 -35
q-16 -18 -29 -29t-24.5 -21t-21 -20.5t-18.5 -27.5q-17 -31 -21.5 -68.5t-14.5 -71.5q0 -9 -7 -12q-21 -3 -37.5 4t-29 18.5t-20.5 26.5t-11 30q-6 35 1.5 63t20 53t23.5 49.5t12 50.5q-22 9 -54.5 9t-67 -1.5t-66.5 -1.5t-54.5 9t-30.5 30.5t5 62.5q1 1 4 6t5.5 9t3.5 9
l2 3q-11 11 -16.5 24t-5.5 21zM598 597.5q1 56.5 5 98.5q19 2 44.5 2.5t52 0t52.5 -1.5t47 -1q10 -40 16.5 -93.5t8 -112t-2 -118t-13.5 -110.5q-47 -4 -98 -4t-95 11q-7 40 -11 96t-5.5 116t-0.5 116.5zM649 618q0 -16 12 -28t28 -12t27.5 12t11.5 28t-11.5 27.5
t-27.5 11.5t-28 -11.5t-12 -27.5z" />
    <glyph glyph-name="uniE8CE" unicode="&#xe8ce;" horiz-adv-x="947" 
d="M0 -46v316q0 8 6 14t14 6h118q8 0 14 -6t6 -14v-178h631v178q0 8 6 14t14 6h118q9 0 14.5 -6t5.5 -14v-316q0 -20 -20 -20h-907q-20 0 -20 20zM178 419.5q3 8.5 20 8.5h158v257q0 16 11 27.5t28 11.5h158q16 0 28 -11.5t12 -27.5v-257h158q15 0 18.5 -8.5t-8.5 -20.5
l-259 -260q-11 -11 -28 -11t-29 11l-259 260q-11 12 -8 20.5z" />
    <glyph glyph-name="uniE8CF" unicode="&#xe8cf;" horiz-adv-x="947" 
d="M0 -46v316q0 8 6 14t14 6h118q8 0 14 -6t6 -14v-178h631v178q0 8 6 14t14 6h118q9 0 14.5 -6t5.5 -14v-316q0 -20 -20 -20h-907q-20 0 -20 20zM178 433q-3 8 8 19l259 260q12 12 29 12t28 -12l260 -260q12 -11 8 -19t-19 -8h-158v-257q0 -17 -12 -28.5t-28 -11.5h-158
q-17 0 -28 11.5t-11 28.5v257h-158q-17 0 -20 8z" />
    <glyph glyph-name="uniE8D0" unicode="&#xe8d0;" horiz-adv-x="947" 
d="M0 4q0 107 37 202t112 166t190.5 112.5t273.5 42.5v150q0 37 18 45t46 -18l252 -254q18 -17 18 -42q0 -24 -18 -42l-252 -254q-26 -26 -45 -18t-19 44v170q-135 -1 -237 -29t-172.5 -76t-110.5 -112.5t-51 -139.5q-2 -17 -19 -17h-1q-17 0 -19 17q-3 26 -3 53z" />
    <glyph glyph-name="uniE8D1" unicode="&#xe8d1;" horiz-adv-x="947" 
d="M0 92v474q0 32 12.5 61t33.5 50t50 34t62 13h429q-3 -16 -3 -33v-26q-84 -11 -159 -40h-267q-24 0 -41.5 -17.5t-17.5 -41.5v-474q0 -24 17.5 -41.5t41.5 -17.5h553q24 0 41 17.5t17 41.5v57q9 5 17 11t16 14l66 65v-147q0 -33 -12.5 -61t-34 -50t-50 -34.5t-60.5 -12.5
h-553q-33 0 -62 12.5t-50 34.5t-33.5 50t-12.5 61zM198 134v19q0 85 29 160.5t89 132t151 89t215 33.5v119q0 29 15 35.5t36 -14.5l201 -201q13 -13 13 -34q0 -20 -13 -32l-201 -202q-21 -21 -36 -14.5t-15 36.5v133q-106 0 -187 -22t-137 -60t-87.5 -89.5t-39.5 -110.5
q-3 -14 -16 -14t-15 14q-2 12 -2 22z" />
    <glyph glyph-name="uniE8D2" unicode="&#xe8d2;" horiz-adv-x="789" 
d="M0 -66l71 215l445 445l144 -144l-445 -445zM147 143.5q0 -6.5 6 -11.5q4 -4 11 -4t11 4l354 355q11 10 0 22q-5 5 -11 5t-11 -5l-354 -354q-6 -5 -6 -11.5zM566 645l61 61q18 18 43.5 18t43.5 -18l29 -29l29 -29q17 -18 17 -43.5t-17 -42.5l-61 -61z" />
    <glyph glyph-name="uniE8D3" unicode="&#xe8d3;" horiz-adv-x="947" 
d="M0 92v474q0 32 12.5 61t33.5 50t50 34t62 13h553q2 0 5 -0.5t5 -0.5l-98 -98h-465q-24 0 -41.5 -17.5t-17.5 -41.5v-474q0 -24 17.5 -41.5t41.5 -17.5h553q24 0 41 17.5t17 41.5v229l99 98v-327q0 -33 -12.5 -61t-34 -50t-50 -34.5t-60.5 -12.5h-553q-33 0 -62 12.5
t-50 34.5t-33.5 50t-12.5 61zM324 101l56 169l335 335l113 -114l-334 -335zM445 257q3 -4 8.5 -4t8.5 4l263 262q10 10 0.5 18.5t-18.5 -0.5l-262 -262q-9 -9 0 -18zM772 662l47 48q15 15 35 15t33 -15l24 -23l23 -23q13 -15 13.5 -34.5t-13.5 -34.5l-49 -47z" />
    <glyph glyph-name="uniE8D4" unicode="&#xe8d4;" horiz-adv-x="947" 
d="M0 -46v178q0 24 9.5 45.5t26 37.5t38 25.5t45.5 9.5h710q25 0 46.5 -9.5t37 -25.5t25 -37.5t9.5 -45.5v-178q0 -20 -20 -20h-907q-20 0 -20 20zM138 33q0 -8 5.5 -13.5t14.5 -5.5h631q9 0 14.5 5.5t5.5 13.5v20q0 9 -5.5 14.5t-14.5 5.5h-631q-9 0 -14.5 -5.5t-5.5 -14.5
v-20zM158 309v376q0 16 11.5 27.5t28.5 11.5h335v-197q0 -25 17 -42.5t42 -17.5h197v-158h-631zM592 527v197l197 -197h-197z" />
    <glyph glyph-name="uniE8D5" unicode="&#xe8d5;" horiz-adv-x="947" 
d="M1 463q-6 15 14 36l190 210q13 15 32 15t31 -15l191 -210q20 -21 13.5 -36t-33.5 -15h-123v-336h85q4 -5 7 -10t8 -10l125 -138h-344q-16 0 -27.5 11.5t-11.5 27.5v455h-123q-28 0 -34 15zM406 704h343q17 0 28.5 -11.5t11.5 -27.5v-454h124q27 0 33.5 -16t-13.5 -37
l-191 -209q-13 -15 -31.5 -15t-31.5 15l-191 209q-20 21 -13.5 37t33.5 16h124v335h-86q-4 5 -6.5 10t-7.5 10z" />
    <glyph glyph-name="uniE8D6" unicode="&#xe8d6;" horiz-adv-x="947" 
d="M0 377q0 72 37.5 135t101.5 110t150.5 74.5t184.5 27.5t184 -27.5t150.5 -74.5t101.5 -110t37 -134.5t-37 -135t-101.5 -110t-150.5 -74t-184 -27.5q-47 0 -89 6q-44 -33 -95 -57.5t-109 -36.5l-25 -5q-13 -2 -27 -4q-16 -2 -21 15v1q-2 7 4 12l9 10q11 12 21 23
t17.5 25.5t14.5 34t12 48.5q-85 47 -135.5 118t-50.5 156z" />
    <glyph glyph-name="uniE8D7" unicode="&#xe8d7;" horiz-adv-x="947" 
d="M0 443q0 58 30.5 109t82.5 89t122 60.5t150 22.5t150 -22.5t122 -60.5t82 -89t30 -109q0 -59 -30 -110t-82 -89t-122 -60t-150 -22q-19 0 -36.5 1.5t-35.5 3.5q-36 -28 -77 -48t-89 -30q-21 -5 -42 -6q-12 -2 -17 11v1q-2 6 2 10l8 8q18 18 31.5 39t22.5 67
q-70 38 -111 96t-41 128zM321 77q8 5 13 8q13 -2 26 -2h25q98 0 182.5 27.5t147 76t98 114.5t35.5 142q0 20 -3 41q48 -38 75 -86t27 -104q0 -69 -41 -126.5t-110 -96.5q8 -46 22 -66.5t31 -38.5q5 -5 8.5 -9.5t1.5 -9.5q-1 -6 -6.5 -10t-10.5 -3q-11 2 -21 3.5t-21 4.5
q-93 20 -165 76q-18 -2 -36 -3.5t-37 -1.5q-69 0 -129.5 17t-111.5 47z" />
    <glyph glyph-name="uniE8D8" unicode="&#xe8d8;" horiz-adv-x="894" 
d="M5.5 -41q-14.5 25 6.5 59l387 671q19 35 48 35q28 0 49 -35l387 -671q20 -34 6 -59t-54 -25h-775q-40 0 -54.5 25zM168 53h558l-279 483zM389 391q0 6 4.5 10.5t9.5 4.5h89q5 0 9 -4.5t4 -10.5l-7 -192q0 -12 -14 -12h-73q-14 0 -14 12zM392 133q0 14 13 14h82
q14 0 14 -14l1 -51q0 -14 -14 -14h-82q-13 0 -13 14z" />
    <glyph glyph-name="uniE8D9" unicode="&#xe8d9;" horiz-adv-x="789" 
d="M0 329q0 82 31 153.5t84.5 125.5t125.5 85t154 31t153.5 -31t125 -85t84.5 -125.5t31 -153.5t-31 -153.5t-84.5 -125.5t-125 -85t-153.5 -31t-154 31t-125.5 85t-84.5 125.5t-31 153.5zM333 579l6 -365q2 -15 16 -15h80q14 0 14 15l8 365q1 6 -4 11q-4 4 -11 4h-95
q-7 0 -10 -4q-4 -4 -4 -11zM336 66q0 -15 15 -15h89q5 0 10 4t5 11v86q0 6 -5 10.5t-10 4.5h-89q-15 0 -15 -15v-86z" />
    <glyph glyph-name="uniE8DA" unicode="&#xe8da;" horiz-adv-x="557" 
d="M0 445q0 58 22 108.5t60 88t88.5 60t108.5 22.5t108.5 -22.5t88.5 -60t60 -88t22 -108.5q0 -42 -12.5 -79t-31.5 -71l-189 -327q-19 -34 -46 -34t-46 34l-189 327q-19 34 -31.5 71.5t-12.5 78.5zM141 444.5q0 -28.5 10.5 -53.5t29.5 -44t44.5 -29.5t53.5 -10.5t53.5 10.5
t44 29.5t29.5 44t11 53.5t-11 54t-29.5 44t-44 29.5t-53.5 11t-53.5 -11t-44.5 -29.5t-29.5 -44t-10.5 -54z" />
    <glyph glyph-name="uniE8DB" unicode="&#xe8db;" horiz-adv-x="682" 
d="M0 546.5q0 8.5 0.5 17t0.5 18.5q12 6 34.5 10t49.5 7.5t55 5.5t52 3q-3 17 -1.5 33.5t7.5 34.5q1 5 6 12.5t19.5 15.5t42.5 14t75 6t75 -6t42.5 -14t19 -16.5t6.5 -12.5q7 -18 8 -34t-1 -33q23 -1 51.5 -3t55.5 -5.5t49 -7.5t34 -10q1 -10 1 -18v-17v-17q0 -8 -1 -18
q-10 -6 -32 -10.5t-48 -7.5t-53.5 -5t-50.5 -3t-39 -1.5t-17 -0.5l-100 -1h-14h-29q-20 0 -57 1q-2 0 -17.5 0.5t-38.5 1.5t-50.5 3t-53.5 5t-47.5 7.5t-32.5 10.5q0 10 -0.5 18t-0.5 16.5zM71 444q43 -6 88.5 -8.5t79.5 -3.5q9 -1 24 -1h78h77q15 0 24 1q35 1 80.5 3.5
t89.5 8.5q-6 -80 -9 -163t-7 -163q-1 -20 -1.5 -44.5t-2 -47.5t-6.5 -42.5t-15 -30.5q-13 -11 -44.5 -15t-61.5 -4h-248q-31 0 -62 4t-43 15q-11 11 -15.5 30.5t-6.5 42.5t-2.5 47.5t-1.5 44.5q-4 80 -7.5 163t-7.5 163zM155 337q1 -15 1 -29t1 -23q0 -12 1 -20
q2 -36 3.5 -72t3.5 -70q1 -9 1 -18v-21v-13q0 -6 0.5 -14.5t1.5 -20.5q1 -8 10 -14.5t15 -6.5q5 -1 10 -1t9 -1h11q5 0 5 20v301q0 9 -5.5 14.5t-14.5 5.5l-34 2q-9 0 -14 -5t-5 -14zM268.5 625.5q0.5 -6.5 2.5 -15.5q9 1 21 1h49l71 -1q1 9 1.5 15.5t-0.5 11.5
q-12 4 -31.5 5.5t-40.5 1.5t-40.5 -1.5t-31.5 -5.5q-1 -5 -0.5 -11.5zM307 33q0 -8 5.5 -14t13.5 -6h30q8 0 14 6t6 14v300q0 9 -11.5 14t-15.5 5h-15q-3 0 -15 -5t-12 -14v-300zM455 33q0 -20 4 -20h12q3 1 13.5 1.5t15.5 0.5q5 1 9 7t5 14q0 12 0.5 20.5t0.5 14.5
q0 7 1 13v21q0 9 1 18q2 34 3 69.5t3 71.5q0 9 1 21q1 9 1.5 23t1.5 29q0 9 -5 14t-14 5l-34 -2q-9 0 -14 -5.5t-5 -14.5v-301z" />
    <glyph glyph-name="uniE8DC" unicode="&#xe8dc;" horiz-adv-x="631" 
d="M0 -7v672q0 24 17.5 41.5t41.5 17.5h230v-283q0 -25 17.5 -42t41.5 -17h284v-389q0 -24 -17.5 -41.5t-41.5 -17.5h-514q-24 0 -41.5 17.5t-17.5 41.5zM348 441v280h4l276 -277v-3h-280z" />
    <glyph glyph-name="uniE8DD" unicode="&#xe8dd;" horiz-adv-x="947" 
d="M0 -7v672q0 24 17.5 41.5t41.5 17.5h356q24 0 41.5 -17.5t17.5 -41.5t17 -41.5t42 -17.5h355q25 0 42 -18t17 -42v-553q0 -24 -17 -41.5t-42 -17.5h-829q-24 0 -41.5 17.5t-17.5 41.5z" />
    <glyph glyph-name="uniE8DE" unicode="&#xe8de;" horiz-adv-x="947" 
d="M0 129v536q0 24 17.5 41.5t41.5 17.5h356q24 0 41.5 -17.5t17.5 -41.5t17 -41.5t42 -17.5h227q24 0 41.5 -18t17.5 -42v-114h-632q-19 0 -36.5 -6.5t-33.5 -17.5t-27.5 -26t-17.5 -33zM22 -66l126 391q4 11 16.5 19.5t23.5 8.5h759l-133 -389q-3 -12 -16 -21t-24 -9h-752
z" />
    <glyph glyph-name="uniE8DF" unicode="&#xe8df;" horiz-adv-x="787" 
d="M0 271v117q0 7 7 9q20 6 42 9t43 5q4 0 8 0.5t9 1.5q6 15 11.5 29t13.5 29q-13 18 -28 38.5t-32 39.5q-6 5 0 13q20 24 42 46t46 42q5 5 13 0q11 -12 23.5 -21.5t24.5 -17.5q8 -5 15 -11t15 -11q27 15 58 24q3 30 6 54.5t8 47.5q2 9 10 9h117q9 0 9 -9q4 -20 7 -40t6 -41
l3 -21q15 -5 29 -10.5t28 -13.5q7 5 13.5 10t12.5 10q14 10 27.5 19.5t26.5 21.5q6 6 12 -1l12 -12q5 -5 11 -10q16 -15 32 -31.5t31 -33.5q4 -7 0 -13q-14 -16 -27.5 -34.5t-31.5 -42.5q15 -30 25 -61q13 -3 26 -4.5t27 -3.5q11 -2 24 -4t25 -4q7 -2 7 -9v-117q0 -7 -7 -10
q-19 -5 -40 -7.5t-42 -4.5q-5 -1 -10 -1.5t-10 -1.5q-5 -15 -11 -29t-13 -29q12 -18 27.5 -38.5t32.5 -39.5q5 -5 0 -13q-40 -49 -89 -88q-5 -5 -12 0q-12 11 -24 20.5t-25 18.5q-7 5 -14.5 11t-14.5 11q-28 -15 -58 -24q-2 -25 -6 -51t-10 -51q-2 -9 -9 -9h-117q-8 0 -10 9
q-3 20 -5.5 40t-5.5 41l-3 21q-15 5 -29.5 10t-27.5 14q-7 -5 -13.5 -10t-13.5 -10q-27 -19 -53 -41q-7 -6 -13 1q-5 5 -11.5 11t-11.5 11q-16 15 -31.5 31t-30.5 34q-5 7 0 13q16 19 30.5 39t28.5 38q-16 30 -26 61q-12 3 -25 4.5t-26 3.5t-26 3.5t-25 4.5q-7 2 -7 9z
M275 329q0 -25 9.5 -46.5t25.5 -37.5t37.5 -25.5t46 -9.5t46 9.5t37.5 25.5t25.5 37.5t9.5 46.5q0 24 -9.5 45.5t-25.5 37.5t-37.5 25.5t-46 9.5t-46 -9.5t-37.5 -25.5t-25.5 -37.5t-9.5 -45.5z" />
    <glyph glyph-name="uniE8E0" unicode="&#xe8e0;" horiz-adv-x="947" 
d="M0 346v88q0 7 5 7q15 4 31.5 6t31.5 4q5 0 8 0.5t7 0.5q6 22 18 44q-9 15 -21 30t-24 29q-5 6 0 10q15 18 31.5 35t34.5 32q6 4 10 -1q8 -8 17.5 -15t18.5 -14l23 -16q22 11 44 18q2 22 4.5 41t6.5 37q0 5 7 5h88q7 0 7 -6q3 -15 5.5 -30.5t4.5 -31.5l2 -15q21 -7 43 -18
q9 7 20 15t21 15.5t19 15.5q6 4 10 -1q5 -4 9 -8l9 -9l23 -23l24 -26q3 -6 0 -10q-11 -11 -21.5 -25.5t-23.5 -32.5q6 -11 10.5 -22.5t9.5 -23.5q8 -2 18 -3t21 -3l19 -2q9 -1 17 -4q7 -2 7 -7v-88q0 -6 -6 -8q-14 -3 -30.5 -5t-32.5 -4q-4 0 -14 -2q-7 -21 -18 -43
q9 -15 20.5 -30t24.5 -29q4 -6 0 -10q-15 -18 -31.5 -35t-34.5 -32q-7 -4 -10 1q-8 7 -17.5 14.5t-19.5 13.5q-5 6 -11 9.5t-11 7.5q-22 -11 -44 -18q-2 -18 -4 -38.5t-8 -39.5q-2 -5 -7 -5h-88q-7 0 -7 5q-3 15 -5 31l-4 31l-2 16q-21 7 -43 18l-10 -7q-5 -3 -10 -8
q-11 -8 -21 -15.5t-19 -15.5q-7 -4 -10 1q-5 4 -8 8l-10 9q-11 11 -23.5 22.5t-23.5 26.5q-4 4 0 9q12 14 23.5 29.5t20.5 29.5q-10 21 -19 46q-8 2 -18 3t-21 3l-19 2q-9 1 -19 3q-5 3 -5 8zM207 389q0 -37 26.5 -63.5t63.5 -26.5t63 26.5t26 63.5t-26 63t-63 26t-63.5 -26
t-26.5 -63zM552 132q-3 6 4 9q11 4 21.5 8t22.5 8q1 6 1.5 10t2.5 9.5t3.5 9t4.5 8.5q-8 11 -14 21t-13 20q-3 6 2 9l66 59q4 4 9 1q10 -8 18.5 -15t18.5 -16q19 8 37 9q5 11 11 21.5t11 20.5q3 5 8 3l85 -26q5 -3 5 -9q-2 -11 -4.5 -22.5t-4.5 -22.5q9 -6 15 -13.5
t12 -16.5q12 1 23.5 1.5t23.5 0.5q5 0 7 -5l19 -87q2 -5 -4 -8q-11 -5 -21 -9l-23 -7q-1 -6 -1.5 -10t-2.5 -9.5t-4 -9t-4 -7.5q8 -11 14.5 -21t12.5 -20q2 -5 -2 -9l-66 -60q-4 -4 -9 0q-9 8 -18.5 15t-17.5 15q-21 -8 -39 -9q-5 -11 -10.5 -21.5t-10.5 -20.5q-3 -5 -8 -3
l-85 26q-5 3 -5 9q2 11 3.5 23t4.5 23q-15 13 -26 29q-12 -2 -24.5 -3t-23.5 1q-5 0 -8 5zM589 573q0 5 6 8q10 2 20.5 4.5t21.5 4.5q2 4 3 8.5t3 8.5t5 7t5 8q-6 10 -10 20l-8 20q-2 4 2 8l67 44q5 3 9 -1q8 -7 15 -15l14 -16q17 3 35 3q12 19 25 34q3 4 9 3l72 -36
q5 -3 3 -9q-2 -10 -5.5 -19.5t-6.5 -20.5q10 -13 19 -30q11 -1 22 -1.5t22 -2.5q5 -2 5 -7l5 -81q0 -4 -5 -6q-10 -2 -20 -5l-22 -5q-2 -4 -3 -7.5t-3 -7.5q-3 -8 -9 -15q6 -11 10 -21t8 -19q2 -5 -3 -8l-66 -45q-6 -3 -9 1q-13 13 -29 32q-9 -2 -18 -3t-18 0
q-6 -10 -12.5 -19t-12.5 -17q-3 -3 -9 -1l-72 36q-6 2 -3 7q3 11 6 21t7 20q-6 6 -11 13.5t-9 16.5q-11 1 -22 1.5t-22 2.5q-5 0 -5 6zM693 148q-8 -23 3 -44.5t36 -29.5q23 -8 44.5 3t28.5 35q9 23 -2 44.5t-36 30.5q-23 7 -44.5 -4t-29.5 -35zM716.5 528q7.5 -21 27.5 -32
q21 -9 42 -2t31 27q10 21 3 42t-27 30q-20 11 -41 3.5t-32 -27.5t-3.5 -41z" />
    <glyph glyph-name="uniE8E1" unicode="&#xe8e1;" horiz-adv-x="947" 
d="M0 665v39q0 20 20 20h119q8 0 19 -2.5t19 -4.5q3 -2 7 -7t8 -12t6.5 -14t3.5 -11l14 -64h692q18 0 29.5 -13.5t8.5 -30.5l-55 -297q-4 -13 -14.5 -22t-24.5 -9h-557l18 -86q2 -8 8.5 -13.5t15.5 -5.5h440q8 0 14 -5.5t6 -14.5v-40q0 -8 -6 -13.5t-14 -5.5h-84h-335h-54
q-8 0 -18.5 1.5t-18.5 4.5q-3 2 -7 7.5t-8 12.5t-6.5 13.5t-3.5 11.5l-110 522q-3 8 -9.5 13.5t-15.5 5.5h-87q-20 0 -20 20zM299 -7q0 24 17.5 42t41.5 18q25 0 42.5 -18t17.5 -42t-17.5 -41.5t-42.5 -17.5q-24 0 -41.5 17.5t-17.5 41.5zM634 -7q0 24 17 42t41.5 18t42 -18
t17.5 -42t-17.5 -41.5t-42 -17.5t-41.5 17.5t-17 41.5z" />
    <glyph glyph-name="uniE8E2" unicode="&#xe8e2;" horiz-adv-x="789" 
d="M0 -7v578q0 24 17.5 41.5t41.5 17.5h38v-73q0 -29 20.5 -49.5t49.5 -20.5h16q30 0 51 20.5t21 49.5v73h61v-73q0 -29 20.5 -49.5t49.5 -20.5h17q30 0 50.5 20.5t20.5 49.5v73h61v-73q0 -29 21 -49.5t50 -20.5h16q30 0 50.5 20.5t20.5 49.5v73h38q24 0 41 -17.5t17 -41.5
v-578q0 -24 -17 -41.5t-41 -17.5h-672q-24 0 -41.5 17.5t-17.5 41.5zM79 13h632v419h-632v-419zM136 557v135q0 13 9.5 22.5t21.5 9.5h16q14 0 23 -9.5t9 -22.5v-135q0 -12 -9 -21t-23 -9h-16q-12 0 -21.5 9t-9.5 21zM186 101q0 37 21 61t46 41.5t46 33.5t21 38
q0 21 -12 30.5t-30 9.5q-12 0 -22 -4.5t-17 -12.5q-4 -4 -7.5 -8t-6.5 -9l-36 24q8 14 22 28q11 12 28.5 20.5t42.5 8.5q37 0 64.5 -22t27.5 -62q0 -22 -9.5 -38t-24.5 -29.5t-31.5 -24t-31.5 -21t-25 -22t-10 -26.5h97v36h44v-77h-195q-1 7 -1.5 13t-0.5 12zM356 557v135
q0 13 9 22.5t21 9.5h17q13 0 22.5 -9.5t9.5 -22.5v-135q0 -12 -9.5 -21t-22.5 -9h-17q-12 0 -21 9t-9 21zM418 282v74h197v-35l-123 -245h-54l113 223q3 9 6 12l3 4v1q-3 0 -5 -1h-14h-79v-33h-44zM575 557v135q0 13 9 22.5t22 9.5h16q13 0 22.5 -9.5t9.5 -22.5v-135
q0 -12 -9.5 -21t-22.5 -9h-16q-13 0 -22 9t-9 21z" />
    <glyph glyph-name="uniE8E3" unicode="&#xe8e3;" horiz-adv-x="868" 
d="M0 234v190q0 17 11.5 28t28.5 11h220v150q0 21 19 30q20 7 35 -8l284 -284q8 -9 8 -22.5t-8 -21.5l-284 -284q-10 -10 -22 -10q-5 0 -13 2q-19 9 -19 30v149h-220q-17 0 -28.5 11.5t-11.5 28.5zM474 -66v99h237q24 0 41 17.5t17 41.5v474q0 24 -17 41.5t-41 17.5h-237v99
h237q32 0 60.5 -13t50 -34t34 -50t12.5 -61v-474q0 -33 -12.5 -61t-34 -50t-50 -34.5t-60.5 -12.5h-237z" />
    <glyph glyph-name="uniE8E4" unicode="&#xe8e4;" horiz-adv-x="868" 
d="M0 92v474q0 32 12.5 60.5t34 50t50 34.5t61.5 13h237v-99h-237q-24 0 -41.5 -17.5t-17.5 -41.5v-474q0 -24 17.5 -41.5t41.5 -17.5h237v-99h-237q-33 0 -61.5 12.5t-50 34.5t-34 50t-12.5 61zM261 234v190q0 17 11.5 28t28.5 11h220v150q0 21 20 30q20 7 34 -8l284 -284
q9 -9 9 -22.5t-9 -21.5l-284 -284q-10 -10 -22 -10q-6 0 -12 2q-20 9 -20 30v149h-220q-17 0 -28.5 11.5t-11.5 28.5z" />
    <glyph glyph-name="uniE8E5" unicode="&#xe8e5;" horiz-adv-x="447" 
d="M0 235v188q0 8 6 14t14 6h206l161 161q25 24 42 16.5t17 -41.5v-501q0 -33 -17 -40.5t-42 16.5l-161 161h-206q-8 0 -14 6t-6 14z" />
    <glyph glyph-name="uniE8E6" unicode="&#xe8e6;" horiz-adv-x="631" 
d="M0 235v188q0 8 6 14t14 6h206l161 161q25 24 42 16.5t17 -41.5v-501q0 -33 -17 -40.5t-42 16.5l-161 161h-206q-8 0 -14 6t-6 14zM507.5 150q-4.5 16 4.5 31q41 70 41 148q0 77 -41 148q-9 15 -4.5 31t19 24.5t30 4t23.5 -19.5q52 -91 52 -188t-52 -188q-12 -20 -35 -20
q-8 0 -19 5q-14 8 -18.5 24z" />
    <glyph glyph-name="uniE8E7" unicode="&#xe8e7;" horiz-adv-x="947" 
d="M0 235v188q0 8 6 14t14 6h206l161 161q25 24 42 16.5t17 -41.5v-501q0 -33 -17 -40.5t-42 16.5l-161 161h-206q-8 0 -14 6t-6 14zM507.5 150q-4.5 16 4.5 31q41 70 41 148q0 77 -41 148q-9 15 -4.5 31t19 24.5t30 4t23.5 -19.5q52 -91 52 -188t-52 -188q-12 -20 -35 -20
q-8 0 -19 5q-14 8 -18.5 24zM635 57.5q-3 15.5 5 30.5q71 110 71 240.5t-71 241.5q-8 15 -5 30.5t17.5 24t30.5 5.5t24 -18q40 -64 61 -135.5t21 -147.5t-21 -147.5t-61 -135.5q-5 -10 -14.5 -14.5t-18.5 -4.5q-12 0 -21 6q-15 9 -18 24.5zM761.5 -34q-2.5 16 5.5 29
q51 76 76 160t25 173.5t-25 174t-76 160.5q-8 13 -5.5 29t17.5 25q14 9 29.5 5.5t25.5 -16.5q57 -85 85 -180.5t28 -196.5t-28 -196.5t-85 -180.5q-13 -18 -34 -18q-12 0 -21 7q-15 9 -17.5 25z" />
    <glyph glyph-name="uniE8E8" unicode="&#xe8e8;" horiz-adv-x="947" 
d="M0 309q0 57 19.5 110t52.5 99t79 83.5t98.5 65t110 42.5t114.5 15t114 -15t110 -42.5t98.5 -65t78.5 -83.5t52.5 -99t19.5 -110q0 -92 -38 -174l-13 -29l-85 -13q-14 -51 -55.5 -85t-97.5 -34v-20q0 -8 -6 -14t-14 -6h-40q-9 0 -14 6t-5 14v355q0 8 5 14t14 6h40
q8 0 14 -6t6 -14v-19q44 0 79.5 -22t56.5 -57l20 2q15 45 15 96q0 61 -32.5 115t-84 94t-114.5 64t-124 24t-124.5 -24t-114.5 -64t-83.5 -94t-32.5 -115q0 -48 15 -96l20 -2q21 35 56 57t79 22v19q0 8 6 14t14 6h40q9 0 14 -6t5 -14v-355q0 -8 -5 -14t-14 -6h-40
q-8 0 -14 6t-6 14v20q-55 0 -96.5 34t-55.5 85l-85 13l-14 29q-38 82 -38 174z" />
    </font>
</defs>
</svg>
